<svg width="14" height="14" viewBox="0 0 14 14" fill="none" xmlns="http://www.w3.org/2000/svg">
<g clip-path="url(#clip0_7101_18984)">
<path d="M11.6491 5.86314C11.6491 8.70446 8.97583 11.2487 7.5418 12.4092C7.01959 12.8317 6.29458 12.8317 5.77237 12.4092C4.33834 11.2487 1.66504 8.70446 1.66504 5.86314C1.66504 4.53917 2.19099 3.26942 3.12718 2.33323C4.06337 1.39704 5.33311 0.871094 6.65709 0.871094C7.98106 0.871094 9.25081 1.39704 10.187 2.33323C11.1232 3.26942 11.6491 4.53917 11.6491 5.86314Z" fill="#716E90"/>
<path d="M6.6562 7.52725C7.57521 7.52725 8.32022 6.78225 8.32022 5.86324C8.32022 4.94422 7.57521 4.19922 6.6562 4.19922C5.73719 4.19922 4.99219 4.94422 4.99219 5.86324C4.99219 6.78225 5.73719 7.52725 6.6562 7.52725Z" fill="white"/>
</g>
<defs>
<clipPath id="clip0_7101_18984">
<rect width="13.3121" height="13.3121" fill="white" transform="translate(0 0.318359)"/>
</clipPath>
</defs>
</svg>
