<svg width="28" height="29" viewBox="0 0 28 29" fill="none" xmlns="http://www.w3.org/2000/svg">
<path fill-rule="evenodd" clip-rule="evenodd" d="M21.2973 9.15627C21.6538 8.85936 22.1136 8.71616 22.5756 8.75817C23.0377 8.80017 23.4641 9.02394 23.7613 9.38027L27.4065 13.7553C27.6905 14.1132 27.8232 14.5679 27.7764 15.0223C27.7296 15.4768 27.5069 15.8949 27.1559 16.1874C26.805 16.4799 26.3536 16.6235 25.8981 16.5876C25.4427 16.5517 25.0193 16.3391 24.7185 15.9953L21.0733 11.6203C20.7764 11.2638 20.6332 10.8039 20.6752 10.3419C20.7172 9.87985 20.9409 9.45339 21.2973 9.15627Z" fill="#EB4B42"/>
<path fill-rule="evenodd" clip-rule="evenodd" d="M21.2973 20.594C20.9407 20.2972 20.7166 19.8708 20.6743 19.4088C20.632 18.9467 20.7749 18.4868 21.0716 18.13L24.7186 13.755C24.8636 13.5722 25.0437 13.4203 25.2484 13.3081C25.453 13.196 25.678 13.1259 25.9101 13.102C26.1422 13.0781 26.3768 13.1008 26.6 13.1689C26.8232 13.237 27.0305 13.349 27.2098 13.4984C27.389 13.6478 27.5366 13.8315 27.6438 14.0388C27.751 14.246 27.8157 14.4726 27.834 14.7053C27.8524 14.9379 27.824 15.1718 27.7506 15.3933C27.6772 15.6148 27.5602 15.8194 27.4066 15.995L23.7613 20.37C23.4642 20.7264 23.0377 20.9501 22.5757 20.9921C22.1136 21.0341 21.6538 20.891 21.2973 20.594Z" fill="#EB4B42"/>
<path fill-rule="evenodd" clip-rule="evenodd" d="M25.625 14.875C25.625 15.3391 25.4406 15.7842 25.1124 16.1124C24.7842 16.4406 24.3391 16.625 23.875 16.625H12.5C12.0359 16.625 11.5908 16.4406 11.2626 16.1124C10.9344 15.7842 10.75 15.3391 10.75 14.875C10.75 14.4109 10.9344 13.9658 11.2626 13.6376C11.5908 13.3094 12.0359 13.125 12.5 13.125H23.875C24.3391 13.125 24.7842 13.3094 25.1124 13.6376C25.4406 13.9658 25.625 14.4109 25.625 14.875ZM0.25 2.625C0.25 2.16087 0.434374 1.71575 0.762563 1.38756C1.09075 1.05937 1.53587 0.875 2 0.875H17.75C18.2141 0.875 18.6592 1.05937 18.9874 1.38756C19.3156 1.71575 19.5 2.16087 19.5 2.625C19.5 3.08913 19.3156 3.53425 18.9874 3.86244C18.6592 4.19062 18.2141 4.375 17.75 4.375H2C1.53587 4.375 1.09075 4.19062 0.762563 3.86244C0.434374 3.53425 0.25 3.08913 0.25 2.625ZM0.25 27.125C0.25 26.6609 0.434374 26.2157 0.762563 25.8876C1.09075 25.5594 1.53587 25.375 2 25.375H17.75C18.2141 25.375 18.6592 25.5594 18.9874 25.8876C19.3156 26.2157 19.5 26.6609 19.5 27.125C19.5 27.5891 19.3156 28.0342 18.9874 28.3624C18.6592 28.6906 18.2141 28.875 17.75 28.875H2C1.53587 28.875 1.09075 28.6906 0.762563 28.3624C0.434374 28.0342 0.25 27.5891 0.25 27.125Z" fill="#EB4B42"/>
<path fill-rule="evenodd" clip-rule="evenodd" d="M17.75 0.875C18.2141 0.875 18.6592 1.05937 18.9874 1.38756C19.3156 1.71575 19.5 2.16087 19.5 2.625V9.625C19.5 10.0891 19.3156 10.5342 18.9874 10.8624C18.6592 11.1906 18.2141 11.375 17.75 11.375C17.2859 11.375 16.8408 11.1906 16.5126 10.8624C16.1844 10.5342 16 10.0891 16 9.625V2.625C16 2.16087 16.1844 1.71575 16.5126 1.38756C16.8408 1.05937 17.2859 0.875 17.75 0.875ZM17.75 18.375C18.2141 18.375 18.6592 18.5594 18.9874 18.8876C19.3156 19.2158 19.5 19.6609 19.5 20.125V27.125C19.5 27.5891 19.3156 28.0342 18.9874 28.3624C18.6592 28.6906 18.2141 28.875 17.75 28.875C17.2859 28.875 16.8408 28.6906 16.5126 28.3624C16.1844 28.0342 16 27.5891 16 27.125V20.125C16 19.6609 16.1844 19.2158 16.5126 18.8876C16.8408 18.5594 17.2859 18.375 17.75 18.375ZM2 0.875C2.46413 0.875 2.90925 1.05937 3.23744 1.38756C3.56563 1.71575 3.75 2.16087 3.75 2.625V27.125C3.75 27.5891 3.56563 28.0342 3.23744 28.3624C2.90925 28.6906 2.46413 28.875 2 28.875C1.53587 28.875 1.09075 28.6906 0.762563 28.3624C0.434374 28.0342 0.25 27.5891 0.25 27.125V2.625C0.25 2.16087 0.434374 1.71575 0.762563 1.38756C1.09075 1.05937 1.53587 0.875 2 0.875Z" fill="#EB4B42"/>
</svg>
