<svg width="16" height="16" viewBox="0 0 16 16" fill="none" xmlns="http://www.w3.org/2000/svg">
<path fill-rule="evenodd" clip-rule="evenodd" d="M5.79772 2.22713C7.07601 1.88003 8.42983 1.93177 9.67792 2.3754C10.926 2.81903 12.0088 3.63338 12.7812 4.70943V3.42156C12.7812 3.25993 12.8454 3.10493 12.9597 2.99065C13.074 2.87636 13.229 2.81216 13.3906 2.81216C13.5522 2.81216 13.7072 2.87636 13.8215 2.99065C13.9358 3.10493 14 3.25993 14 3.42156V6.87483H10.5468C10.3852 6.87483 10.2302 6.81063 10.1159 6.69634C10.0017 6.58206 9.93745 6.42706 9.93745 6.26543C9.93745 6.10381 10.0017 5.94881 10.1159 5.83452C10.2302 5.72024 10.3852 5.65603 10.5468 5.65603H11.95C11.3136 4.66026 10.3615 3.90673 9.24622 3.516C8.13091 3.12527 6.91678 3.11991 5.79806 3.50078C4.67934 3.88165 3.72068 4.62674 3.07545 5.61685C2.43022 6.60696 2.1357 7.78488 2.23901 8.96217C2.34232 10.1395 2.83748 11.2481 3.64529 12.1107C4.4531 12.9733 5.52687 13.54 6.69483 13.7202C7.86278 13.9004 9.05742 13.6836 10.0876 13.1046C11.1179 12.5256 11.9241 11.6178 12.3774 10.5264C12.4068 10.4507 12.4511 10.3817 12.5076 10.3234C12.564 10.265 12.6316 10.2186 12.7063 10.1867C12.7809 10.1549 12.8612 10.1382 12.9424 10.1379C13.0236 10.1375 13.104 10.1533 13.179 10.1844C13.254 10.2156 13.322 10.2614 13.379 10.3191C13.4361 10.3769 13.481 10.4455 13.5111 10.5209C13.5413 10.5963 13.5561 10.6769 13.5546 10.7581C13.5532 10.8392 13.5356 10.9193 13.5027 10.9936C13.0793 12.0129 12.4032 12.9077 11.5383 13.5934C10.6733 14.2792 9.64801 14.7333 8.55897 14.9132C7.46992 15.093 6.35303 14.9925 5.31356 14.6212C4.2741 14.2499 3.34631 13.62 2.61764 12.7909C1.88898 11.9618 1.38345 10.9607 1.1487 9.88216C0.913955 8.80359 0.957725 7.683 1.27589 6.62603C1.59405 5.56906 2.17612 4.61052 2.96724 3.84077C3.75836 3.07101 4.73246 2.51622 5.79772 2.22713Z" fill="#2B2829"/>
</svg>
