<svg width="41" height="43" viewBox="0 0 41 43" fill="none" xmlns="http://www.w3.org/2000/svg">
<path d="M36.2812 0H4.03125C1.81406 0 0 1.81406 0 4.03125V38.9688C0 41.1859 1.81406 43 4.03125 43H36.2812C38.4984 43 40.3125 41.1859 40.3125 38.9688V4.03125C40.3125 1.81406 38.4984 0 36.2812 0ZM34.9375 37.625H5.375V5.375H34.9375V37.625ZM10.75 24.1875H29.5625V26.875H10.75V24.1875ZM10.75 29.5625H29.5625V32.25H10.75V29.5625ZM13.4375 12.0938C13.4377 11.5642 13.5422 11.0398 13.745 10.5506C13.9478 10.0615 14.245 9.61701 14.6196 9.24267C14.9942 8.86833 15.4388 8.57144 15.9281 8.36895C16.4175 8.16646 16.9419 8.06232 17.4714 8.0625C18.001 8.06268 18.5254 8.16716 19.0145 8.36998C19.5037 8.5728 19.9482 8.86998 20.3225 9.24457C20.6969 9.61915 20.9937 10.0638 21.1962 10.5531C21.3987 11.0425 21.5029 11.5669 21.5027 12.0964C21.5023 13.1659 21.0771 14.1915 20.3206 14.9475C19.5641 15.7035 18.5383 16.128 17.4688 16.1277C16.3992 16.1273 15.3737 15.7021 14.6177 14.9456C13.8617 14.1891 13.4371 13.1633 13.4375 12.0938ZM20.1562 16.125H14.7812C12.5641 16.125 10.75 17.3344 10.75 18.8125V21.5H24.1875V18.8125C24.1875 17.3344 22.3734 16.125 20.1562 16.125Z" fill="#65558F"/>
</svg>
