<svg width="16" height="16" viewBox="0 0 16 16" fill="none" xmlns="http://www.w3.org/2000/svg">
<path d="M12.4514 3.54859C12.2777 3.37468 12.0714 3.23671 11.8443 3.14258C11.6172 3.04845 11.3738 3 11.128 3C10.8821 3 10.6387 3.04845 10.4116 3.14258C10.1846 3.23671 9.97824 3.37468 9.8045 3.54859L4.18361 9.16972C3.91679 9.43697 3.72645 9.77082 3.63237 10.1366L3.01116 12.5544C2.99576 12.6146 2.99631 12.6777 3.01276 12.7376C3.02921 12.7974 3.061 12.852 3.10498 12.8958C3.14896 12.9397 3.20362 12.9713 3.26355 12.9875C3.32348 13.0038 3.38662 13.0041 3.44672 12.9885L5.86374 12.368C6.22959 12.2743 6.56352 12.0839 6.83054 11.8168L12.4514 6.19563C12.6253 6.02189 12.7633 5.81556 12.8574 5.58847C12.9516 5.36137 13 5.11794 13 4.87211C13 4.62628 12.9516 4.38285 12.8574 4.15576C12.7633 3.92866 12.6253 3.72234 12.4514 3.54859ZM10.3093 4.05343C10.5264 3.83631 10.8209 3.71433 11.128 3.71433C11.435 3.71433 11.7295 3.83631 11.9466 4.05343C12.1637 4.27056 12.2857 4.56505 12.2857 4.87211C12.2857 5.17917 12.1637 5.47366 11.9466 5.69079L11.3904 6.24705L9.75309 4.60969L10.3093 4.05343ZM9.24827 5.11454L10.8856 6.75189L6.32572 11.3119C6.14899 11.4885 5.92801 11.6143 5.68594 11.6761L3.85301 12.1474L4.32427 10.3144C4.38573 10.0722 4.51156 9.85108 4.68843 9.67456L9.24827 5.11454Z" fill="#4A5E6D"/>
</svg>
