<svg width="33" height="33" viewBox="0 0 33 33" fill="none" xmlns="http://www.w3.org/2000/svg">
<rect width="33" height="33" rx="5" fill="#EB4B42"/>
<path fill-rule="evenodd" clip-rule="evenodd" d="M22.2817 12.6783C22.516 12.4747 22.8181 12.3765 23.1218 12.4053C23.4254 12.4341 23.7057 12.5876 23.9009 12.8319L26.2964 15.8319C26.483 16.0773 26.5702 16.3891 26.5394 16.7008C26.5087 17.0124 26.3623 17.2991 26.1317 17.4996C25.9011 17.7002 25.6044 17.7987 25.3051 17.7741C25.0058 17.7495 24.7276 17.6037 24.53 17.3679L22.1345 14.3679C21.9394 14.1234 21.8453 13.8081 21.8729 13.4913C21.9005 13.1745 22.0475 12.882 22.2817 12.6783Z" fill="white"/>
<path fill-rule="evenodd" clip-rule="evenodd" d="M22.2814 20.5207C22.0471 20.3171 21.8998 20.0248 21.872 19.7079C21.8442 19.3911 21.9381 19.0757 22.1331 18.8311L24.5297 15.8311C24.625 15.7057 24.7433 15.6015 24.8778 15.5246C25.0123 15.4477 25.1601 15.3997 25.3127 15.3833C25.4652 15.3669 25.6193 15.3825 25.766 15.4292C25.9127 15.4758 26.0489 15.5527 26.1667 15.6551C26.2845 15.7575 26.3815 15.8835 26.452 16.0256C26.5224 16.1678 26.5649 16.3231 26.577 16.4827C26.589 16.6422 26.5704 16.8026 26.5221 16.9545C26.4739 17.1064 26.397 17.2466 26.2961 17.3671L23.9006 20.3671C23.7054 20.6114 23.4251 20.7649 23.1215 20.7937C22.8178 20.8225 22.5157 20.7243 22.2814 20.5207Z" fill="white"/>
<path fill-rule="evenodd" clip-rule="evenodd" d="M25.1252 16.6C25.1252 16.9183 25.004 17.2235 24.7884 17.4485C24.5727 17.6736 24.2802 17.8 23.9752 17.8H16.5002C16.1952 17.8 15.9027 17.6736 15.687 17.4485C15.4714 17.2235 15.3502 16.9183 15.3502 16.6C15.3502 16.2817 15.4714 15.9765 15.687 15.7515C15.9027 15.5264 16.1952 15.4 16.5002 15.4H23.9752C24.2802 15.4 24.5727 15.5264 24.7884 15.7515C25.004 15.9765 25.1252 16.2817 25.1252 16.6ZM8.4502 8.2C8.4502 7.88174 8.57136 7.57652 8.78702 7.35147C9.00269 7.12643 9.2952 7 9.6002 7H19.9502C20.2552 7 20.5477 7.12643 20.7634 7.35147C20.979 7.57652 21.1002 7.88174 21.1002 8.2C21.1002 8.51826 20.979 8.82348 20.7634 9.04853C20.5477 9.27357 20.2552 9.4 19.9502 9.4H9.6002C9.2952 9.4 9.00269 9.27357 8.78702 9.04853C8.57136 8.82348 8.4502 8.51826 8.4502 8.2ZM8.4502 25C8.4502 24.6817 8.57136 24.3765 8.78702 24.1515C9.00269 23.9264 9.2952 23.8 9.6002 23.8H19.9502C20.2552 23.8 20.5477 23.9264 20.7634 24.1515C20.979 24.3765 21.1002 24.6817 21.1002 25C21.1002 25.3183 20.979 25.6235 20.7634 25.8485C20.5477 26.0736 20.2552 26.2 19.9502 26.2H9.6002C9.2952 26.2 9.00269 26.0736 8.78702 25.8485C8.57136 25.6235 8.4502 25.3183 8.4502 25Z" fill="white"/>
<path fill-rule="evenodd" clip-rule="evenodd" d="M19.9502 7C20.2552 7 20.5477 7.12643 20.7634 7.35147C20.979 7.57652 21.1002 7.88174 21.1002 8.2V13C21.1002 13.3183 20.979 13.6235 20.7634 13.8485C20.5477 14.0736 20.2552 14.2 19.9502 14.2C19.6452 14.2 19.3527 14.0736 19.137 13.8485C18.9214 13.6235 18.8002 13.3183 18.8002 13V8.2C18.8002 7.88174 18.9214 7.57652 19.137 7.35147C19.3527 7.12643 19.6452 7 19.9502 7ZM19.9502 19C20.2552 19 20.5477 19.1264 20.7634 19.3515C20.979 19.5765 21.1002 19.8817 21.1002 20.2V25C21.1002 25.3183 20.979 25.6235 20.7634 25.8485C20.5477 26.0736 20.2552 26.2 19.9502 26.2C19.6452 26.2 19.3527 26.0736 19.137 25.8485C18.9214 25.6235 18.8002 25.3183 18.8002 25V20.2C18.8002 19.8817 18.9214 19.5765 19.137 19.3515C19.3527 19.1264 19.6452 19 19.9502 19ZM9.6002 7C9.90519 7 10.1977 7.12643 10.4134 7.35147C10.629 7.57652 10.7502 7.88174 10.7502 8.2V25C10.7502 25.3183 10.629 25.6235 10.4134 25.8485C10.1977 26.0736 9.90519 26.2 9.6002 26.2C9.2952 26.2 9.00269 26.0736 8.78702 25.8485C8.57136 25.6235 8.4502 25.3183 8.4502 25V8.2C8.4502 7.88174 8.57136 7.57652 8.78702 7.35147C9.00269 7.12643 9.2952 7 9.6002 7Z" fill="white"/>
</svg>
