<svg width="35" height="35" viewBox="0 0 35 35" fill="none" xmlns="http://www.w3.org/2000/svg">
<g clip-path="url(#clip0_4160_22669)">
<path d="M1.4585 17.5002C1.4585 5.8335 5.8335 1.4585 17.5002 1.4585C29.1668 1.4585 33.5418 5.8335 33.5418 17.5002C33.5418 29.1668 29.1668 33.5418 17.5002 33.5418C5.8335 33.5418 1.4585 29.1668 1.4585 17.5002Z" fill="#0BA1E6"/>
<path d="M24.7919 10.675H10.2085C9.88191 10.6672 9.55704 10.7249 9.25303 10.8445C8.94902 10.9641 8.672 11.1434 8.43828 11.3716C8.20457 11.5999 8.01886 11.8726 7.89211 12.1738C7.76535 12.4749 7.7001 12.7983 7.7002 13.125V21.875C7.7001 22.2017 7.76535 22.5251 7.89211 22.8263C8.01886 23.1274 8.20457 23.4001 8.43828 23.6284C8.672 23.8567 8.94902 24.0359 9.25303 24.1555C9.55704 24.2752 9.88191 24.3328 10.2085 24.325H11.6669V27.125L13.4314 24.325H24.7919C25.1185 24.3328 25.4433 24.2752 25.7474 24.1555C26.0514 24.0359 26.3284 23.8567 26.5621 23.6284C26.7958 23.4001 26.9815 23.1274 27.1083 22.8263C27.235 22.5251 27.3003 22.2017 27.3002 21.875V13.125C27.3003 12.7983 27.235 12.4749 27.1083 12.1738C26.9815 11.8726 26.7958 11.5999 26.5621 11.3716C26.3284 11.1434 26.0514 10.9641 25.7474 10.8445C25.4433 10.7249 25.1185 10.6672 24.7919 10.675Z" fill="white"/>
<path d="M12.25 19.25C11.9039 19.25 11.5655 19.1474 11.2778 18.9551C10.99 18.7628 10.7657 18.4895 10.6332 18.1697C10.5008 17.8499 10.4661 17.4981 10.5336 17.1586C10.6012 16.8191 10.7678 16.5073 11.0126 16.2626C11.2573 16.0178 11.5691 15.8512 11.9086 15.7836C12.2481 15.7161 12.5999 15.7508 12.9197 15.8832C13.2395 16.0157 13.5128 16.24 13.7051 16.5278C13.8974 16.8155 14 17.1539 14 17.5C14 17.9641 13.8156 18.4092 13.4874 18.7374C13.1592 19.0656 12.7141 19.25 12.25 19.25ZM17.5 19.25C17.1539 19.25 16.8155 19.1474 16.5278 18.9551C16.24 18.7628 16.0157 18.4895 15.8832 18.1697C15.7508 17.8499 15.7161 17.4981 15.7836 17.1586C15.8512 16.8191 16.0178 16.5073 16.2626 16.2626C16.5073 16.0178 16.8191 15.8512 17.1586 15.7836C17.4981 15.7161 17.8499 15.7508 18.1697 15.8832C18.4895 16.0157 18.7628 16.24 18.9551 16.5278C19.1474 16.8155 19.25 17.1539 19.25 17.5C19.25 17.9641 19.0656 18.4092 18.7374 18.7374C18.4092 19.0656 17.9641 19.25 17.5 19.25ZM22.75 19.25C22.4039 19.25 22.0655 19.1474 21.7778 18.9551C21.49 18.7628 21.2657 18.4895 21.1332 18.1697C21.0008 17.8499 20.9661 17.4981 21.0336 17.1586C21.1012 16.8191 21.2678 16.5073 21.5126 16.2626C21.7573 16.0178 22.0691 15.8512 22.4086 15.7836C22.7481 15.7161 23.0999 15.7508 23.4197 15.8832C23.7395 16.0157 24.0128 16.24 24.2051 16.5278C24.3974 16.8155 24.5 17.1539 24.5 17.5C24.5 17.9641 24.3156 18.4092 23.9874 18.7374C23.6592 19.0656 23.2141 19.25 22.75 19.25Z" fill="#005DB1"/>
</g>
<defs>
<clipPath id="clip0_4160_22669">
<rect width="35" height="35" fill="white"/>
</clipPath>
</defs>
</svg>
