<svg width="24" height="24" viewBox="0 0 24 24" fill="none" xmlns="http://www.w3.org/2000/svg">
<path d="M7.04545 10.1875H17.9545C18.0992 10.1875 18.2379 10.2929 18.3402 10.4804C18.4425 10.6679 18.5 10.9223 18.5 11.1875C18.5 11.4527 18.4425 11.7071 18.3402 11.8946C18.2379 12.0821 18.0992 12.1875 17.9545 12.1875H7.04545C6.90079 12.1875 6.76205 12.0821 6.65976 11.8946C6.55747 11.7071 6.5 11.4527 6.5 11.1875C6.5 10.9223 6.55747 10.6679 6.65976 10.4804C6.76205 10.2929 6.90079 10.1875 7.04545 10.1875Z" fill="#2E2E2E"/>
<path d="M11.3327 7.52242L7.24555 12.463C7.19135 12.5285 7.05819 12.5242 6.87536 12.451C6.69254 12.3778 6.47503 12.2417 6.27067 12.0726C6.06632 11.9036 5.89186 11.7154 5.78569 11.5496C5.67952 11.3837 5.65032 11.2537 5.70452 11.1882L9.79172 6.24758C9.84592 6.18206 9.97908 6.18638 10.1619 6.2596C10.3447 6.33281 10.5622 6.46891 10.7666 6.63797C10.9709 6.80702 11.1454 6.99518 11.2516 7.16105C11.3577 7.32691 11.3869 7.4569 11.3327 7.52242Z" fill="#2E2E2E"/>
<path d="M11.591 15.6873L7.25772 10.4493C7.20025 10.3798 7.06397 10.3804 6.87883 10.4508C6.6937 10.5212 6.47489 10.6558 6.27054 10.8248C6.06619 10.9939 5.89303 11.1836 5.78916 11.3523C5.68529 11.5209 5.65922 11.6547 5.71669 11.7241L10.0499 16.9622C10.1074 17.0316 10.2437 17.0311 10.4288 16.9607C10.6139 16.8902 10.8327 16.7557 11.0371 16.5866C11.2415 16.4176 11.4146 16.2279 11.5185 16.0592C11.6223 15.8906 11.6484 15.7568 11.591 15.6873Z" fill="#2E2E2E"/>
</svg>
