<svg width="25" height="24" viewBox="0 0 25 24" fill="none" xmlns="http://www.w3.org/2000/svg">
<path d="M12.5 15L15.5 12M15.5 12L12.5 9M15.5 12H4.5M4.5 7.248V7.2C4.5 6.08 4.5 5.52 4.718 5.092C4.91 4.715 5.215 4.41 5.592 4.218C6.02 4 6.58 4 7.7 4H17.3C18.42 4 18.98 4 19.407 4.218C19.784 4.41 20.09 4.715 20.282 5.092C20.5 5.519 20.5 6.079 20.5 7.197V16.804C20.5 17.922 20.5 18.481 20.282 18.908C20.09 19.2845 19.7837 19.5904 19.407 19.782C18.98 20 18.421 20 17.303 20H7.697C6.579 20 6.019 20 5.592 19.782C5.21569 19.5903 4.90974 19.2843 4.718 18.908C4.5 18.48 4.5 17.92 4.5 16.8V16.75" stroke="currentColor" stroke-width="2" stroke-linecap="round" stroke-linejoin="round"/>
</svg>
