<svg width="13" height="10" viewBox="0 0 13 10" fill="none" xmlns="http://www.w3.org/2000/svg">
<path d="M5 1.23003C5.48502 1.07593 5.99109 0.998334 6.5 1.00003C8.591 1.00003 10.014 2.25003 10.8625 3.35203C11.2875 3.90503 11.5 4.18053 11.5 5.00003C11.5 5.82003 11.2875 6.09553 10.8625 6.64803C10.014 7.75003 8.591 9.00003 6.5 9.00003C4.409 9.00003 2.986 7.75003 2.1375 6.64803C1.7125 6.09603 1.5 5.81953 1.5 5.00003C1.5 4.18003 1.7125 3.90453 2.1375 3.35203C2.39675 3.01344 2.68537 2.69838 3 2.41053" stroke="black" stroke-width="1.5" stroke-linecap="round"/>
<path d="M8 5C8 5.39782 7.84196 5.77936 7.56066 6.06066C7.27936 6.34196 6.89782 6.5 6.5 6.5C6.10218 6.5 5.72064 6.34196 5.43934 6.06066C5.15804 5.77936 5 5.39782 5 5C5 4.60218 5.15804 4.22064 5.43934 3.93934C5.72064 3.65804 6.10218 3.5 6.5 3.5C6.89782 3.5 7.27936 3.65804 7.56066 3.93934C7.84196 4.22064 8 4.60218 8 5Z" stroke="black" stroke-width="1.5"/>
</svg>
