<svg width="33" height="33" viewBox="0 0 33 33" fill="none" xmlns="http://www.w3.org/2000/svg">
<rect width="33" height="33" rx="5" fill="#F19659"/>
<path d="M16.5 6C14.4233 6 12.3932 6.61581 10.6665 7.76957C8.9398 8.92332 7.59399 10.5632 6.79927 12.4818C6.00455 14.4004 5.79661 16.5116 6.20176 18.5484C6.6069 20.5852 7.60693 22.4562 9.07538 23.9246C10.5438 25.3931 12.4148 26.3931 14.4516 26.7982C16.4884 27.2034 18.5996 26.9955 20.5182 26.2007C22.4368 25.406 24.0767 24.0602 25.2304 22.3335C26.3842 20.6068 27 18.5767 27 16.5C26.9971 13.7161 25.8899 11.0471 23.9214 9.07863C21.9529 7.11013 19.2839 6.00294 16.5 6ZM22.1538 17.3077H16.5C16.2858 17.3077 16.0803 17.2226 15.9289 17.0711C15.7774 16.9197 15.6923 16.7142 15.6923 16.5V10.8462C15.6923 10.6319 15.7774 10.4265 15.9289 10.275C16.0803 10.1236 16.2858 10.0385 16.5 10.0385C16.7142 10.0385 16.9197 10.1236 17.0711 10.275C17.2226 10.4265 17.3077 10.6319 17.3077 10.8462V15.6923H22.1538C22.3681 15.6923 22.5735 15.7774 22.725 15.9289C22.8764 16.0803 22.9615 16.2858 22.9615 16.5C22.9615 16.7142 22.8764 16.9197 22.725 17.0711C22.5735 17.2226 22.3681 17.3077 22.1538 17.3077Z" fill="white"/>
</svg>
