<svg width="33" height="33" viewBox="0 0 33 33" fill="none" xmlns="http://www.w3.org/2000/svg">
<rect width="33" height="33" rx="5" fill="#6DDC69"/>
<path d="M17 6C22.523 6 27 10.477 27 16C27 21.523 22.523 26 17 26C11.477 26 7 21.523 7 16H9C9.00022 17.9155 9.6877 19.7673 10.9375 21.2188C12.1873 22.6704 13.9164 23.6254 15.8106 23.9102C17.7048 24.195 19.6382 23.7907 21.2596 22.7708C22.881 21.7509 24.0826 20.1831 24.646 18.3524C25.2095 16.5217 25.0974 14.5495 24.3301 12.7945C23.5628 11.0394 22.1913 9.61788 20.4648 8.7883C18.7382 7.95872 16.7714 7.77615 14.9217 8.27376C13.072 8.77138 11.4622 9.91615 10.385 11.5H13V13.5H7V7.5H9V10C9.93093 8.75746 11.1387 7.74901 12.5273 7.05467C13.916 6.36033 15.4474 5.99922 17 6ZM18 11V15.585L21.243 18.828L19.828 20.243L16 16.413V11H18Z" fill="white"/>
</svg>
