<svg width="24" height="24" viewBox="0 0 24 24" fill="none" xmlns="http://www.w3.org/2000/svg">
<g clip-path="url(#clip0_5469_16452)">
<path d="M23.7778 22.7231C23.9262 22.8715 24.0004 23.0473 24.0004 23.2504C24.0004 23.4536 23.9262 23.6293 23.7778 23.7778C23.6293 23.9262 23.4536 24.0004 23.2504 24.0004C23.0473 24.0004 22.8715 23.9262 22.7231 23.7778L13.5239 14.5903C12.7817 15.2153 11.9614 15.6879 11.0629 16.0082C10.1645 16.3286 9.227 16.4926 8.25043 16.5004C7.49262 16.5004 6.76215 16.4028 6.05903 16.2075C5.3559 16.0122 4.69965 15.7348 4.09028 15.3754C3.4809 15.0161 2.92231 14.5864 2.4145 14.0864C1.90668 13.5864 1.477 13.0317 1.12543 12.4223C0.773872 11.8129 0.496528 11.1528 0.293403 10.4418C0.0902778 9.7309 -0.00737847 9.00043 0.000434028 8.25043C0.000434028 7.49262 0.0980903 6.76215 0.293403 6.05903C0.488715 5.3559 0.766059 4.69965 1.12543 4.09028C1.48481 3.4809 1.9145 2.92231 2.4145 2.4145C2.9145 1.90668 3.46918 1.477 4.07856 1.12543C4.68793 0.773872 5.34809 0.496528 6.05903 0.293403C6.76997 0.0902778 7.50043 -0.00737847 8.25043 0.000434028C9.00825 0.000434028 9.73872 0.0980903 10.4418 0.293403C11.145 0.488715 11.8012 0.766059 12.4106 1.12543C13.02 1.48481 13.5786 1.9145 14.0864 2.4145C14.5942 2.9145 15.0239 3.46918 15.3754 4.07856C15.727 4.68793 16.0043 5.34809 16.2075 6.05903C16.4106 6.76997 16.5082 7.50043 16.5004 8.25043C16.5004 9.21918 16.3403 10.1528 16.02 11.0512C15.6997 11.9497 15.2231 12.7739 14.5903 13.5239L23.7778 22.7231ZM9.00043 12.0004H7.50043V13.5004H9.00043V12.0004ZM9.09418 10.5004C9.09418 10.2661 9.1684 10.0551 9.31684 9.86762C9.46528 9.68012 9.64887 9.49653 9.86762 9.31684C10.0864 9.13715 10.3286 8.94965 10.5942 8.75434C10.8598 8.55903 11.0981 8.34028 11.309 8.09809C11.52 7.8559 11.7075 7.58247 11.8715 7.27778C12.0356 6.97309 12.1098 6.61372 12.0942 6.19965C12.0942 5.69184 11.9809 5.23481 11.7543 4.82856C11.5278 4.42231 11.2348 4.07856 10.8754 3.79731C10.5161 3.51606 10.1059 3.29731 9.64497 3.14106C9.18403 2.98481 8.71918 2.90668 8.25043 2.90668C7.7895 2.90668 7.33247 2.96918 6.87934 3.09418C6.42622 3.21918 6.01215 3.4145 5.63715 3.68012C5.26215 3.94575 4.96528 4.26606 4.74653 4.64106C4.52778 5.01606 4.4145 5.46918 4.40668 6.00043H6.09418C6.09418 5.74262 6.1645 5.52387 6.30512 5.34418C6.44575 5.1645 6.62934 5.01997 6.8559 4.91059C7.08247 4.80122 7.31684 4.71918 7.55903 4.6645C7.80122 4.60981 8.03168 4.58637 8.25043 4.59418C8.477 4.59418 8.71528 4.62934 8.96528 4.69965C9.21528 4.76997 9.44965 4.87153 9.6684 5.00434C9.88715 5.13715 10.0629 5.30122 10.1957 5.49653C10.3286 5.69184 10.3989 5.92622 10.4067 6.19965C10.4067 6.43403 10.3325 6.64497 10.184 6.83247C10.0356 7.01997 9.852 7.20356 9.63325 7.38325C9.4145 7.56293 9.17231 7.75043 8.90668 7.94575C8.64106 8.14106 8.40278 8.35981 8.19184 8.602C7.9809 8.84418 7.7934 9.11762 7.62934 9.42231C7.46528 9.727 7.39106 10.0864 7.40668 10.5004H9.09418Z" fill="#323F49"/>
</g>
<defs>
<clipPath id="clip0_5469_16452">
<rect width="24" height="24" fill="white"/>
</clipPath>
</defs>
</svg>
