<svg width="48" height="48" viewBox="0 0 48 48" fill="none" xmlns="http://www.w3.org/2000/svg">
<rect opacity="0.1" width="48" height="48" rx="12" fill="#3557FF"/>
<path opacity="0.4" fill-rule="evenodd" clip-rule="evenodd" d="M20.1838 15.3522H27.8621V13.5645H20.1838V15.3522ZM18.4371 13.6379V13.6468C17.8377 13.7013 17.2447 13.8203 16.6679 13.9994V13.9928C16.6507 14 16.6346 14.0055 16.6191 14.0108C16.5987 14.0178 16.5795 14.0244 16.5606 14.0339C16.5145 14.045 16.4695 14.0617 16.4266 14.0829C16.3001 14.124 16.1736 14.173 16.0545 14.223C16.0229 14.2353 15.9913 14.2495 15.9596 14.2636C15.928 14.2778 15.8964 14.292 15.8648 14.3043C15.8213 14.3248 15.776 14.3474 15.7307 14.3699C15.6854 14.3924 15.6401 14.4149 15.5967 14.4355L15.3822 14.559C15.3426 14.5792 15.3059 14.603 15.2684 14.6272C15.2461 14.6416 15.2236 14.6561 15.2 14.6703C14.8772 14.8783 14.5781 15.1219 14.3079 15.3989L14.2918 15.4156C14.2563 15.457 14.2209 15.4971 14.1861 15.5367C14.1272 15.6036 14.0697 15.6689 14.0151 15.736L13.999 15.7516C13.122 16.962 12.6823 18.4538 12.7585 19.9657V20.4452H14.4901V19.9613C14.4901 17.8542 15.1614 16.5426 16.655 15.8706C17.2254 15.6292 17.828 15.4802 18.4414 15.4256H18.4574V13.6457L18.4371 13.6379ZM33.9975 15.7294L34.005 15.7449C34.881 16.9564 35.3185 18.4494 35.2413 19.9613V20.4452H33.5107V19.949C33.5471 19.0568 33.3681 18.169 32.9885 17.3669C32.6239 16.6805 32.0406 16.1476 31.3362 15.8584C30.7754 15.617 30.1814 15.4668 29.5755 15.4134V13.6423C30.1749 13.6979 30.7679 13.8159 31.3458 13.995V13.9861C31.3783 14.0008 31.4031 14.0096 31.4456 14.0246L31.453 14.0272C31.4728 14.0342 31.4912 14.0412 31.5094 14.0481C31.5347 14.0577 31.5596 14.0671 31.5871 14.0762C31.7056 14.1151 31.8165 14.1609 31.9306 14.2081L31.9506 14.2164C32.0032 14.2349 32.0528 14.2578 32.0975 14.2784C32.1119 14.2851 32.1259 14.2916 32.1393 14.2976C32.2336 14.3387 32.3301 14.3877 32.4073 14.4289C32.4588 14.4556 32.509 14.4842 32.556 14.511C32.5814 14.5255 32.606 14.5395 32.6293 14.5523C32.6677 14.5736 32.7011 14.5963 32.7332 14.6181C32.7567 14.634 32.7795 14.6495 32.803 14.6636C33.1268 14.8727 33.4292 15.1175 33.7026 15.3923L33.7123 15.409C33.813 15.5102 33.9085 15.617 33.9975 15.7294Z" fill="#3557FF"/>
<path d="M29.6252 12.3962V16.3356C29.6252 16.8319 29.2225 17.234 28.7252 17.234C28.228 17.234 27.8252 16.8319 27.8252 16.3356V12.4051C27.8207 11.9088 28.2212 11.5034 28.7185 11.5C29.2157 11.4967 29.6219 11.8953 29.6252 12.3917V12.3962Z" fill="#3557FF"/>
<path d="M20.175 12.4113V16.341C20.175 16.8395 19.7718 17.2437 19.2744 17.2437C18.7771 17.2437 18.375 16.8395 18.375 16.341V12.4113C18.375 11.9128 18.7771 11.5098 19.2744 11.5098C19.7718 11.5098 20.175 11.9128 20.175 12.4113Z" fill="#3557FF"/>
<path fill-rule="evenodd" clip-rule="evenodd" d="M12.75 30.1381V20.4453H35.25V30.1381C35.25 34.3649 32.8895 36.5004 28.2114 36.5004H19.7779C15.1105 36.5004 12.75 34.3649 12.75 30.1381ZM17.8251 25.8339C17.8251 26.4203 18.2865 26.8961 18.8552 26.8961C19.4346 26.8961 19.8959 26.4093 19.8852 25.8228C19.8852 25.2364 19.4238 24.7606 18.8659 24.7606H18.8552C18.2865 24.7606 17.8251 25.2475 17.8251 25.8339ZM22.9646 25.8339C22.9646 26.4203 23.4367 26.8961 24.0054 26.8961C24.574 26.8961 25.0354 26.4203 25.0354 25.8228C25.0354 25.2475 24.574 24.7717 24.0054 24.7606H23.9946C23.426 24.7717 22.9646 25.2475 22.9646 25.8339ZM29.1449 26.8961C28.5762 26.8961 28.1148 26.4203 28.1148 25.8339C28.1148 25.2475 28.5655 24.7717 29.1449 24.7717C29.7135 24.7717 30.1749 25.2475 30.1749 25.8339C30.1749 26.4203 29.7135 26.8961 29.1449 26.8961ZM29.1449 31.4327C28.5762 31.4327 28.1148 30.9569 28.1041 30.3705C28.1041 29.784 28.5655 29.3082 29.1341 29.3082H29.1449C29.7135 29.3082 30.1749 29.784 30.1749 30.3705C30.1749 30.9569 29.7135 31.4327 29.1449 31.4327ZM24.0054 31.4327C23.4367 31.4327 22.9646 30.9569 22.9646 30.3705C22.9646 29.784 23.426 29.3083 23.9946 29.2972H24.0054C24.574 29.3083 25.0247 29.784 25.0354 30.3594C25.0354 30.9569 24.574 31.4327 24.0054 31.4327ZM18.8552 31.4327C18.2865 31.4327 17.8251 30.9569 17.8251 30.3705C17.8144 29.784 18.2758 29.2972 18.8552 29.2972C19.4238 29.2972 19.8852 29.773 19.8852 30.3594C19.8852 30.9459 19.4238 31.4327 18.8552 31.4327Z" fill="#3557FF"/>
</svg>
