<svg width="15" height="15" viewBox="0 0 15 15" fill="none" xmlns="http://www.w3.org/2000/svg">
<path d="M7.33474 0C11.3857 0 14.6695 3.28376 14.6695 7.33474C14.6695 11.3857 11.3857 14.6695 7.33474 14.6695C3.28376 14.6695 0 11.3857 0 7.33474C0 3.28376 3.28376 0 7.33474 0ZM7.33474 1.46695C5.7785 1.46695 4.28601 2.08516 3.18558 3.18558C2.08516 4.28601 1.46695 5.7785 1.46695 7.33474C1.46695 8.89097 2.08516 10.3835 3.18558 11.4839C4.28601 12.5843 5.7785 13.2025 7.33474 13.2025C8.89097 13.2025 10.3835 12.5843 11.4839 11.4839C12.5843 10.3835 13.2025 8.89097 13.2025 7.33474C13.2025 5.7785 12.5843 4.28601 11.4839 3.18558C10.3835 2.08516 8.89097 1.46695 7.33474 1.46695ZM7.33474 2.9339C7.51439 2.93392 7.68779 2.99988 7.82204 3.11926C7.95629 3.23864 8.04206 3.40313 8.06308 3.58155L8.06821 3.66737V7.03108L10.0537 9.01659C10.1853 9.14859 10.2616 9.32571 10.2673 9.51197C10.273 9.69824 10.2076 9.87968 10.0844 10.0195C9.9611 10.1592 9.78927 10.2469 9.60376 10.2645C9.41825 10.2822 9.23296 10.2286 9.08554 10.1146L9.01659 10.0537L6.81617 7.8533C6.70218 7.73921 6.62896 7.59072 6.60787 7.43082L6.60126 7.33474V3.66737C6.60126 3.47284 6.67854 3.28628 6.81609 3.14873C6.95365 3.01117 7.14021 2.9339 7.33474 2.9339Z" fill="#323F49"/>
</svg>
