<svg width="43" height="43" viewBox="0 0 43 43" fill="none" xmlns="http://www.w3.org/2000/svg">
<mask id="mask0_6661_26709" style="mask-type:luminance" maskUnits="userSpaceOnUse" x="6" y="2" width="31" height="39">
<path d="M34.042 3.58398H8.95866C7.96915 3.58398 7.16699 4.38614 7.16699 5.37565V37.6256C7.16699 38.6152 7.96915 39.4173 8.95866 39.4173H34.042C35.0315 39.4173 35.8337 38.6152 35.8337 37.6256V5.37565C35.8337 4.38614 35.0315 3.58398 34.042 3.58398Z" fill="white" stroke="white" stroke-width="2" stroke-linejoin="round"/>
<path d="M18.8125 12.543H29.5625M18.8125 21.5013H29.5625M18.8125 30.4596H29.5625" stroke="black" stroke-width="2" stroke-linecap="round" stroke-linejoin="round"/>
<path fill-rule="evenodd" clip-rule="evenodd" d="M13.4382 14.3333C13.9133 14.3333 14.369 14.1446 14.7051 13.8086C15.0411 13.4726 15.2298 13.0168 15.2298 12.5417C15.2298 12.0665 15.0411 11.6108 14.7051 11.2748C14.369 10.9388 13.9133 10.75 13.4382 10.75C12.963 10.75 12.5073 10.9388 12.1713 11.2748C11.8352 11.6108 11.6465 12.0665 11.6465 12.5417C11.6465 13.0168 11.8352 13.4726 12.1713 13.8086C12.5073 14.1446 12.963 14.3333 13.4382 14.3333ZM13.4382 23.2917C13.9133 23.2917 14.369 23.1029 14.7051 22.7669C15.0411 22.4309 15.2298 21.9752 15.2298 21.5C15.2298 21.0248 15.0411 20.5691 14.7051 20.2331C14.369 19.8971 13.9133 19.7083 13.4382 19.7083C12.963 19.7083 12.5073 19.8971 12.1713 20.2331C11.8352 20.5691 11.6465 21.0248 11.6465 21.5C11.6465 21.9752 11.8352 22.4309 12.1713 22.7669C12.5073 23.1029 12.963 23.2917 13.4382 23.2917ZM13.4382 32.25C13.9133 32.25 14.369 32.0612 14.7051 31.7252C15.0411 31.3892 15.2298 30.9335 15.2298 30.4583C15.2298 29.9832 15.0411 29.5274 14.7051 29.1914C14.369 28.8554 13.9133 28.6667 13.4382 28.6667C12.963 28.6667 12.5073 28.8554 12.1713 29.1914C11.8352 29.5274 11.6465 29.9832 11.6465 30.4583C11.6465 30.9335 11.8352 31.3892 12.1713 31.7252C12.5073 32.0612 12.963 32.25 13.4382 32.25Z" fill="black"/>
</mask>
<g mask="url(#mask0_6661_26709)">
<path d="M0 0H43V43H0V0Z" fill="#3557FF"/>
</g>
</svg>
