<svg width="3" height="12" viewBox="0 0 3 12" fill="none" xmlns="http://www.w3.org/2000/svg">
<path d="M1.49995 11.3337C1.11861 11.3337 0.79217 11.2031 0.520615 10.942C0.249059 10.6809 0.113281 10.367 0.113281 10.0003C0.113281 9.63366 0.249059 9.31977 0.520615 9.05866C0.79217 8.79755 1.11861 8.66699 1.49995 8.66699C1.88128 8.66699 2.20773 8.79755 2.47928 9.05866C2.75084 9.31977 2.88661 9.63366 2.88661 10.0003C2.88661 10.367 2.75084 10.6809 2.47928 10.942C2.20773 11.2031 1.88128 11.3337 1.49995 11.3337ZM1.49995 7.33366C1.11861 7.33366 0.79217 7.2031 0.520615 6.94199C0.249059 6.68088 0.113281 6.36699 0.113281 6.00033C0.113281 5.63366 0.249059 5.31977 0.520615 5.05866C0.79217 4.79755 1.11861 4.66699 1.49995 4.66699C1.88128 4.66699 2.20773 4.79755 2.47928 5.05866C2.75084 5.31977 2.88661 5.63366 2.88661 6.00033C2.88661 6.36699 2.75084 6.68088 2.47928 6.94199C2.20773 7.2031 1.88128 7.33366 1.49995 7.33366ZM1.49995 3.33366C1.11861 3.33366 0.79217 3.2031 0.520615 2.94199C0.249059 2.68088 0.113281 2.36699 0.113281 2.00033C0.113281 1.63366 0.249059 1.31977 0.520615 1.05866C0.79217 0.797548 1.11861 0.666992 1.49995 0.666992C1.88128 0.666992 2.20773 0.797548 2.47928 1.05866C2.75084 1.31977 2.88661 1.63366 2.88661 2.00033C2.88661 2.36699 2.75084 2.68088 2.47928 2.94199C2.20773 3.2031 1.88128 3.33366 1.49995 3.33366Z" fill="#433E3F"/>
</svg>
