<svg width="12" height="12" viewBox="0 0 12 12" fill="none" xmlns="http://www.w3.org/2000/svg">
<g clip-path="url(#clip0_5137_20569)">
<path d="M6 11L5 8H1L2 11H6ZM6 11H8M6 6.5V6.25C6 5.307 6 4.836 5.707 4.543C5.414 4.25 4.943 4.25 4 4.25C3.057 4.25 2.586 4.25 2.293 4.543C2 4.836 2 5.307 2 6.25V6.5M7 8.75H10C10.2652 8.75 10.5196 8.85536 10.7071 9.04289C10.8946 9.23043 11 9.48478 11 9.75V10C11 10.2652 10.8946 10.5196 10.7071 10.7071C10.5196 10.8946 10.2652 11 10 11H9.5M9.5 6.5C9.5 6.76522 9.39464 7.01957 9.20711 7.20711C9.01957 7.39464 8.76522 7.5 8.5 7.5C8.23478 7.5 7.98043 7.39464 7.79289 7.20711C7.60536 7.01957 7.5 6.76522 7.5 6.5C7.5 6.23478 7.60536 5.98043 7.79289 5.79289C7.98043 5.60536 8.23478 5.5 8.5 5.5C8.76522 5.5 9.01957 5.60536 9.20711 5.79289C9.39464 5.98043 9.5 6.23478 9.5 6.5ZM5 2C5 2.26522 4.89464 2.51957 4.70711 2.70711C4.51957 2.89464 4.26522 3 4 3C3.73478 3 3.48043 2.89464 3.29289 2.70711C3.10536 2.51957 3 2.26522 3 2C3 1.73478 3.10536 1.48043 3.29289 1.29289C3.48043 1.10536 3.73478 1 4 1C4.26522 1 4.51957 1.10536 4.70711 1.29289C4.89464 1.48043 5 1.73478 5 2Z" stroke="#666666" stroke-width="1.125" stroke-linecap="round" stroke-linejoin="round"/>
</g>
<defs>
<clipPath id="clip0_5137_20569">
<rect width="12" height="12" fill="white"/>
</clipPath>
</defs>
</svg>
