<svg width="23" height="23" viewBox="0 0 23 23" fill="currentColor" xmlns="http://www.w3.org/2000/svg">
<path fill-rule="evenodd" clip-rule="evenodd" d="M10.6804 1.7496C11.0112 1.49232 11.4744 1.49232 11.8052 1.7496L20.0495 8.16181C20.2726 8.33536 20.4031 8.60221 20.4031 8.88488V18.9612C20.4031 19.6901 20.1136 20.389 19.5982 20.9044C19.0829 21.4198 18.3839 21.7093 17.655 21.7093H4.83061C4.10177 21.7093 3.40278 21.4198 2.88742 20.9044C2.37205 20.389 2.08252 19.6901 2.08252 18.9612V8.88488C2.08252 8.60221 2.21303 8.33536 2.43616 8.16181L10.6804 1.7496ZM3.91458 9.3329V18.9612C3.91458 19.2042 4.01109 19.4372 4.18288 19.609C4.35467 19.7807 4.58767 19.8773 4.83061 19.8773H17.655C17.898 19.8773 18.131 19.7807 18.3028 19.609C18.4746 19.4372 18.5711 19.2042 18.5711 18.9612V9.3329L11.2428 3.63315L3.91458 9.3329Z" fill="currentColor"/>
<path fill-rule="evenodd" clip-rule="evenodd" d="M7.57861 11.6328C7.57861 11.1269 7.98873 10.7168 8.49464 10.7168H13.9908C14.4967 10.7168 14.9069 11.1269 14.9069 11.6328V20.7931C14.9069 21.299 14.4967 21.7092 13.9908 21.7092C13.4849 21.7092 13.0748 21.299 13.0748 20.7931V12.5489H9.41067V20.7931C9.41067 21.299 9.00055 21.7092 8.49464 21.7092C7.98873 21.7092 7.57861 21.299 7.57861 20.7931V11.6328Z" fill="currentColor"/>
</svg>
