<svg width="28" height="26" viewBox="0 0 28 26" fill="none" xmlns="http://www.w3.org/2000/svg">
<rect width="28" height="26" rx="13" fill="#A4F4E7"/>
<path d="M17.9997 7C18.7069 7 19.3852 7.28095 19.8853 7.78105C20.3854 8.28115 20.6663 8.95942 20.6663 9.66667V15C20.6663 15.7072 20.3854 16.3855 19.8853 16.8856C19.3852 17.3857 18.7069 17.6667 17.9997 17.6667H14.8503L11.6757 19.5713C11.5801 19.6287 11.4716 19.6612 11.3602 19.6658C11.2488 19.6704 11.138 19.647 11.038 19.5977C10.938 19.5484 10.8519 19.4749 10.7877 19.3837C10.7234 19.2926 10.6831 19.1868 10.6703 19.076L10.6663 19V17.6667H9.99967C9.31551 17.6667 8.65752 17.4037 8.1618 16.9322C7.66608 16.4607 7.37055 15.8166 7.33634 15.1333L7.33301 15V9.66667C7.33301 8.95942 7.61396 8.28115 8.11406 7.78105C8.61415 7.28095 9.29243 7 9.99967 7H17.9997ZM15.333 13H11.333C11.1562 13 10.9866 13.0702 10.8616 13.1953C10.7366 13.3203 10.6663 13.4899 10.6663 13.6667C10.6663 13.8435 10.7366 14.013 10.8616 14.1381C10.9866 14.2631 11.1562 14.3333 11.333 14.3333H15.333C15.5098 14.3333 15.6794 14.2631 15.8044 14.1381C15.9294 14.013 15.9997 13.8435 15.9997 13.6667C15.9997 13.4899 15.9294 13.3203 15.8044 13.1953C15.6794 13.0702 15.5098 13 15.333 13ZM16.6663 10.3333H11.333C11.1562 10.3333 10.9866 10.4036 10.8616 10.5286C10.7366 10.6536 10.6663 10.8232 10.6663 11C10.6663 11.1768 10.7366 11.3464 10.8616 11.4714C10.9866 11.5964 11.1562 11.6667 11.333 11.6667H16.6663C16.8432 11.6667 17.0127 11.5964 17.1377 11.4714C17.2628 11.3464 17.333 11.1768 17.333 11C17.333 10.8232 17.2628 10.6536 17.1377 10.5286C17.0127 10.4036 16.8432 10.3333 16.6663 10.3333Z" fill="#0B7B69"/>
</svg>
