<svg width="18" height="26" viewBox="0 0 18 26" fill="none" xmlns="http://www.w3.org/2000/svg">
<path fill-rule="evenodd" clip-rule="evenodd" d="M4.66453 1.67096C7.3956 0.0840931 10.7525 0.111829 13.458 1.74362C16.1368 3.40864 17.765 6.38022 17.7498 9.5768C17.6874 12.7524 15.9416 15.7375 13.7593 18.0451C12.4998 19.383 11.0908 20.566 9.56106 21.57C9.40351 21.6611 9.23094 21.7221 9.05186 21.75C8.8795 21.7427 8.71165 21.6917 8.56344 21.6018C6.22803 20.0932 4.17917 18.1675 2.51542 15.9175C1.12324 14.0392 0.332295 11.77 0.250001 9.41802C0.248194 6.21531 1.93346 3.25784 4.66453 1.67096ZM6.2427 10.7434C6.7021 11.876 7.78647 12.6147 8.9895 12.6147C9.77763 12.6204 10.5352 12.3047 11.0935 11.738C11.6518 11.1713 11.9644 10.4007 11.9616 9.59791C11.9658 8.37248 11.2443 7.26533 10.1341 6.79341C9.02384 6.32148 7.7438 6.57788 6.89164 7.44287C6.03949 8.30787 5.7833 9.61084 6.2427 10.7434Z" fill="#3557FF"/>
<path opacity="0.4" d="M9 25.5C12.4518 25.5 15.25 24.9404 15.25 24.25C15.25 23.5596 12.4518 23 9 23C5.54822 23 2.75 23.5596 2.75 24.25C2.75 24.9404 5.54822 25.5 9 25.5Z" fill="#3557FF"/>
</svg>
