<svg width="35" height="35" viewBox="0 0 35 35" fill="none" xmlns="http://www.w3.org/2000/svg">
<path d="M31.6813 26.0891C32.8439 26.0891 33.7854 27.0305 33.7854 28.1932C33.7854 29.3558 32.8438 30.3004 31.6813 30.3004C32.8439 30.3004 33.7854 31.2419 33.7854 32.4045C33.7854 33.5672 32.8438 34.5086 31.6813 34.5086H22.7719C21.2143 34.5086 19.6884 34.0758 18.3615 33.2607C17.0061 32.4266 15.4486 32.0032 13.8721 32.0159V22.023C15.6697 21.8839 17.2904 20.8888 18.2162 19.3344C20.1276 16.134 22.0105 12.7093 22.595 8.57054C22.6835 7.95449 23.309 7.56901 23.903 7.76807C25.5901 8.33361 26.5702 10.0312 26.2851 12.4281C25.9512 15.2361 24.9863 17.6694 24.9863 17.6694H31.6813C32.8439 17.6694 33.7854 18.6108 33.7854 19.7735C33.7854 20.9361 32.8438 21.8807 31.6813 21.8807C32.8439 21.8807 33.7854 22.8222 33.7854 23.9848C33.7854 25.1474 32.8439 26.0891 31.6813 26.0891Z" fill="#FFCE29"/>
<path opacity="0.08" d="M31.6813 26.089C32.844 26.089 33.7854 27.0304 33.7854 28.1931C33.7854 29.3557 32.8439 30.3003 31.6813 30.3003C32.844 30.3003 33.7854 31.2418 33.7854 32.4044C33.7854 33.5671 32.8439 34.5085 31.6813 34.5085H28.8506C30.0132 34.5085 30.9547 33.567 30.9547 32.4044C30.9547 31.2418 30.0132 30.3003 28.8506 30.3003C30.0132 30.3003 30.9547 29.3557 30.9547 28.1931C30.9547 27.0304 30.0132 26.089 28.8506 26.089C30.0132 26.089 30.9547 25.1475 30.9547 23.9849C30.9547 22.8222 30.0132 21.8808 28.8506 21.8808C30.0132 21.8808 30.9547 20.9361 30.9547 19.7735C30.9547 18.6109 30.0132 17.6694 28.8506 17.6694H31.6813C32.844 17.6694 33.7854 18.6109 33.7854 19.7735C33.7854 20.9362 32.8439 21.8808 31.6813 21.8808C32.844 21.8808 33.7854 22.8223 33.7854 23.9849C33.7854 25.1475 32.844 26.089 31.6813 26.089Z" fill="black"/>
<path d="M15.6986 21.4766V32.5611C15.6986 33.2591 15.1328 33.8249 14.4349 33.8249H9.80323C9.45426 33.8249 9.17139 33.542 9.17139 33.193V20.8447C9.17139 20.4958 9.45426 20.2129 9.80323 20.2129H14.4349C15.1328 20.2129 15.6986 20.7786 15.6986 21.4766Z" fill="#6D6D6D"/>
<path opacity="0.08" d="M15.6983 21.4762V32.5622C15.6983 33.2604 15.1328 33.826 14.4346 33.826H13.1045C13.8027 33.826 14.3683 33.2604 14.3683 32.5622V21.4762C14.3683 20.7779 13.8027 20.2124 13.1045 20.2124H14.4346C15.1328 20.2124 15.6983 20.7779 15.6983 21.4762Z" fill="black"/>
<path opacity="0.4" d="M11.4712 21.8005V23.4497C11.4712 23.7926 11.1932 24.0705 10.8503 24.0705C10.5074 24.0705 10.2295 23.7926 10.2295 23.4497V21.8005C10.2295 21.4576 10.5074 21.1797 10.8503 21.1797C11.1932 21.1798 11.4712 21.4577 11.4712 21.8005Z" fill="white"/>
<path d="M18.2631 1.93921V13.0129C18.2631 13.7053 17.3842 14.0025 16.9641 13.452L14.59 10.3421H2.66187C1.8624 10.3421 1.21436 9.69396 1.21436 8.89457V1.93921C1.21436 1.13975 1.86247 0.491699 2.66187 0.491699H16.8156C17.6151 0.491699 18.2631 1.13981 18.2631 1.93921Z" fill="#F96464"/>
<path opacity="0.08" d="M18.2644 1.93921V13.0128C18.2644 13.704 17.385 14.0007 16.9652 13.4507L16.1799 12.4229V1.93921C16.1799 1.13947 15.5322 0.491699 14.7324 0.491699H16.8169C17.6166 0.491699 18.2644 1.13947 18.2644 1.93921Z" fill="black"/>
<path opacity="0.4" d="M3.95457 2.75756V4.40673C3.95457 4.74962 3.67662 5.02757 3.33373 5.02757C2.99084 5.02757 2.71289 4.74962 2.71289 4.40673V2.75756C2.71289 2.41467 2.99084 2.13672 3.33373 2.13672C3.67662 2.13672 3.95457 2.41467 3.95457 2.75756Z" fill="white"/>
<path d="M8.15937 7.50854L6.93307 6.01257C6.67966 5.70331 6.72491 5.24729 7.03397 4.99388C7.34322 4.74033 7.79891 4.78552 8.05266 5.09478L8.77235 5.97278L11.4734 3.27211C11.7558 2.98938 12.2144 2.98938 12.4968 3.27211C12.7796 3.55464 12.7796 4.01299 12.4968 4.29559L9.2309 7.56139C8.92786 7.86436 8.43062 7.83893 8.15937 7.50854Z" fill="white"/>
</svg>
