<svg width="17" height="13" viewBox="0 0 17 13" fill="none" xmlns="http://www.w3.org/2000/svg">
<path d="M9.91634 4.83734V3.49151C10.3059 3.30678 10.7045 3.16824 11.112 3.07588C11.5195 2.98352 11.9474 2.93734 12.3955 2.93734C12.7025 2.93734 13.0035 2.96373 13.2986 3.01651C13.5938 3.06928 13.883 3.13526 14.1663 3.21442V4.48109C13.883 4.36234 13.5966 4.27341 13.3071 4.2143C13.0177 4.15519 12.7138 4.12537 12.3955 4.12484C11.9469 4.12484 11.516 4.18765 11.1028 4.31326C10.6896 4.43887 10.2941 4.61356 9.91634 4.83734ZM9.91634 9.19151V7.84567C10.3059 7.66095 10.7045 7.52241 11.112 7.43005C11.5195 7.33769 11.9474 7.29151 12.3955 7.29151C12.7025 7.29151 13.0035 7.3179 13.2986 7.37067C13.5938 7.42345 13.883 7.48942 14.1663 7.56859V8.83526C13.883 8.71651 13.5966 8.62731 13.3071 8.56767C13.0177 8.50803 12.7138 8.47848 12.3955 8.47901C11.9469 8.47901 11.516 8.53838 11.1028 8.65713C10.6896 8.77588 10.2941 8.95401 9.91634 9.19151ZM9.91634 7.01442V5.66859C10.3059 5.48387 10.7045 5.34533 11.112 5.25296C11.5195 5.1606 11.9474 5.11442 12.3955 5.11442C12.7025 5.11442 13.0035 5.14081 13.2986 5.19359C13.5938 5.24637 13.883 5.31234 14.1663 5.39151V6.65817C13.883 6.53942 13.5966 6.45023 13.3071 6.39059C13.0177 6.33095 12.7138 6.3014 12.3955 6.30192C11.9469 6.30192 11.516 6.36473 11.1028 6.49034C10.6896 6.61595 10.2941 6.79065 9.91634 7.01442ZM9.20801 10.4978C9.72745 10.2207 10.25 10.0127 10.7755 9.87392C11.3011 9.73512 11.8411 9.66598 12.3955 9.66651C12.8205 9.66651 13.2368 9.70609 13.6443 9.78526C14.0518 9.86442 14.462 9.98317 14.8747 10.1415V2.30401C14.4851 2.11928 14.0806 1.98074 13.6613 1.88838C13.242 1.79602 12.82 1.74984 12.3955 1.74984C11.8406 1.74984 11.2917 1.82901 10.7486 1.98734C10.2056 2.14567 9.69204 2.38317 9.20801 2.69984V10.4978ZM8.49967 12.8332C7.93301 12.3318 7.31912 11.9425 6.65801 11.6655C5.9969 11.3884 5.31217 11.2498 4.60384 11.2498C4.10801 11.2498 3.62115 11.3224 3.14326 11.4675C2.66537 11.6127 2.20779 11.8172 1.77051 12.0811C1.52259 12.2262 1.28365 12.2196 1.05367 12.0613C0.823702 11.903 0.70848 11.6721 0.708008 11.3686V1.82901C0.708008 1.68387 0.740591 1.54533 0.805758 1.41338C0.870924 1.28144 0.968202 1.18248 1.09759 1.11651C1.65245 0.813034 2.22219 0.578701 2.8068 0.413506C3.39141 0.248312 3.99042 0.165979 4.60384 0.166506C5.28856 0.166506 5.95865 0.265465 6.61409 0.463381C7.26954 0.661298 7.89806 0.958173 8.49967 1.35401C9.10176 0.958173 9.73052 0.661298 10.386 0.463381C11.0414 0.265465 11.7113 0.166506 12.3955 0.166506C13.0094 0.166506 13.6086 0.249104 14.1933 0.414298C14.7779 0.579493 15.3474 0.813562 15.9018 1.11651C16.0316 1.18248 16.1291 1.28144 16.1943 1.41338C16.2595 1.54533 16.2918 1.68387 16.2913 1.82901V11.3686C16.2913 11.6721 16.1764 11.903 15.9464 12.0613C15.7164 12.2196 15.4772 12.2262 15.2288 12.0811C14.792 11.8172 14.3347 11.6127 13.8568 11.4675C13.3789 11.3224 12.8918 11.2498 12.3955 11.2498C11.6872 11.2498 11.0025 11.3884 10.3413 11.6655C9.68023 11.9425 9.06634 12.3318 8.49967 12.8332Z" fill="#3557FF"/>
</svg>
