<svg width="31" height="37" viewBox="0 0 31 37" fill="none" xmlns="http://www.w3.org/2000/svg">
<path fill-rule="evenodd" clip-rule="evenodd" d="M13.6446 15.6314C13.4049 15.6314 13.1757 15.5324 13.0115 15.3578L8.78841 10.8603C8.45928 10.5112 8.47751 9.96147 8.82662 9.6332C9.17659 9.30494 9.7263 9.32231 10.0537 9.67141L13.6359 13.4847L20.9376 5.49344C21.2624 5.13826 21.8113 5.11481 22.1656 5.43786C22.519 5.76091 22.5433 6.31062 22.2203 6.66407L14.2855 15.3483C14.1231 15.5272 13.8921 15.6297 13.6507 15.6314H13.6446Z" fill="#27AE60"/>
<mask id="mask0_8198_11996" style="mask-type:luminance" maskUnits="userSpaceOnUse" x="8" y="5" width="15" height="11">
<path fill-rule="evenodd" clip-rule="evenodd" d="M13.6446 15.6314C13.4049 15.6314 13.1757 15.5324 13.0115 15.3578L8.78841 10.8603C8.45928 10.5112 8.47751 9.96147 8.82662 9.6332C9.17659 9.30494 9.7263 9.32231 10.0537 9.67141L13.6359 13.4847L20.9376 5.49344C21.2624 5.13826 21.8113 5.11481 22.1656 5.43786C22.519 5.76091 22.5433 6.31062 22.2203 6.66407L14.2855 15.3483C14.1231 15.5272 13.8921 15.6297 13.6507 15.6314H13.6446Z" fill="white"/>
</mask>
<g mask="url(#mask0_8198_11996)">
<rect x="5.0791" width="20.8421" height="20.8421" fill="#27AE60"/>
</g>
<path d="M1.62209 32.8423V24.4423H4.20209C5.17809 24.4423 5.98609 24.6143 6.62609 24.9583C7.26609 25.3023 7.73809 25.7903 8.04209 26.4223C8.35409 27.0463 8.51009 27.7903 8.51009 28.6543C8.51009 29.5183 8.35409 30.2623 8.04209 30.8863C7.73809 31.5103 7.26609 31.9943 6.62609 32.3383C5.99409 32.6743 5.18609 32.8423 4.20209 32.8423H1.62209ZM2.82209 31.8343H4.15409C4.93009 31.8343 5.54609 31.7063 6.00209 31.4503C6.45809 31.1943 6.78209 30.8303 6.97409 30.3583C7.17409 29.8783 7.27409 29.3103 7.27409 28.6543C7.27409 27.9903 7.17409 27.4183 6.97409 26.9383C6.78209 26.4583 6.45809 26.0903 6.00209 25.8343C5.54609 25.5783 4.93009 25.4503 4.15409 25.4503H2.82209V31.8343ZM12.6541 32.9863C12.0861 32.9863 11.5741 32.8543 11.1181 32.5903C10.6701 32.3263 10.3141 31.9583 10.0501 31.4863C9.79413 31.0063 9.66613 30.4543 9.66613 29.8303C9.66613 29.1903 9.79813 28.6343 10.0621 28.1623C10.3261 27.6823 10.6861 27.3103 11.1421 27.0463C11.5981 26.7823 12.1101 26.6503 12.6781 26.6503C13.2541 26.6503 13.7661 26.7823 14.2141 27.0463C14.6621 27.3103 15.0141 27.6783 15.2701 28.1503C15.5341 28.6223 15.6661 29.1783 15.6661 29.8183C15.6661 30.4583 15.5341 31.0143 15.2701 31.4863C15.0141 31.9583 14.6581 32.3263 14.2021 32.5903C13.7461 32.8543 13.2301 32.9863 12.6541 32.9863ZM12.6541 31.9543C12.9821 31.9543 13.2781 31.8743 13.5421 31.7143C13.8141 31.5543 14.0301 31.3183 14.1901 31.0063C14.3581 30.6863 14.4421 30.2903 14.4421 29.8183C14.4421 29.3463 14.3621 28.9543 14.2021 28.6423C14.0421 28.3223 13.8261 28.0823 13.5541 27.9223C13.2901 27.7623 12.9981 27.6823 12.6781 27.6823C12.3581 27.6823 12.0621 27.7623 11.7901 27.9223C11.5181 28.0823 11.2981 28.3223 11.1301 28.6423C10.9701 28.9543 10.8901 29.3463 10.8901 29.8183C10.8901 30.2903 10.9701 30.6863 11.1301 31.0063C11.2981 31.3183 11.5141 31.5543 11.7781 31.7143C12.0501 31.8743 12.3421 31.9543 12.6541 31.9543ZM17.0777 32.8423V26.7943H18.1577L18.2297 27.8263C18.4217 27.4663 18.6937 27.1823 19.0457 26.9743C19.3977 26.7583 19.8017 26.6503 20.2577 26.6503C20.7377 26.6503 21.1497 26.7463 21.4937 26.9383C21.8377 27.1303 22.1057 27.4223 22.2977 27.8143C22.4897 28.1983 22.5857 28.6823 22.5857 29.2663V32.8423H21.3857V29.3863C21.3857 28.8263 21.2617 28.4023 21.0137 28.1143C20.7657 27.8263 20.4057 27.6823 19.9337 27.6823C19.6217 27.6823 19.3417 27.7583 19.0937 27.9103C18.8457 28.0543 18.6457 28.2703 18.4937 28.5583C18.3497 28.8463 18.2777 29.1983 18.2777 29.6143V32.8423H17.0777ZM26.8567 32.9863C26.2807 32.9863 25.7687 32.8543 25.3207 32.5903C24.8727 32.3263 24.5207 31.9583 24.2647 31.4863C24.0167 31.0143 23.8927 30.4663 23.8927 29.8423C23.8927 29.2023 24.0167 28.6463 24.2647 28.1743C24.5207 27.6943 24.8727 27.3223 25.3207 27.0583C25.7687 26.7863 26.2887 26.6503 26.8807 26.6503C27.4727 26.6503 27.9807 26.7823 28.4047 27.0463C28.8287 27.3103 29.1567 27.6623 29.3887 28.1023C29.6207 28.5343 29.7367 29.0143 29.7367 29.5423C29.7367 29.6223 29.7327 29.7103 29.7247 29.8063C29.7247 29.8943 29.7207 29.9943 29.7127 30.1063H24.7687V29.2543H28.5367C28.5127 28.7503 28.3447 28.3583 28.0327 28.0783C27.7207 27.7903 27.3327 27.6463 26.8687 27.6463C26.5407 27.6463 26.2407 27.7223 25.9687 27.8743C25.6967 28.0183 25.4767 28.2343 25.3087 28.5223C25.1487 28.8023 25.0687 29.1583 25.0687 29.5903V29.9263C25.0687 30.3743 25.1487 30.7543 25.3087 31.0663C25.4767 31.3703 25.6967 31.6023 25.9687 31.7623C26.2407 31.9143 26.5367 31.9903 26.8567 31.9903C27.2407 31.9903 27.5567 31.9063 27.8047 31.7383C28.0527 31.5703 28.2367 31.3423 28.3567 31.0543H29.5567C29.4527 31.4223 29.2767 31.7543 29.0287 32.0503C28.7807 32.3383 28.4727 32.5663 28.1047 32.7343C27.7447 32.9023 27.3287 32.9863 26.8567 32.9863Z" fill="#27AE60"/>
</svg>
