<svg width="17" height="18" viewBox="0 0 17 18" fill="none" xmlns="http://www.w3.org/2000/svg">
<path d="M3.1875 15.375C3.1875 15.375 2.125 15.375 2.125 14.3125C2.125 13.25 3.1875 10.0625 8.5 10.0625C13.8125 10.0625 14.875 13.25 14.875 14.3125C14.875 15.375 13.8125 15.375 13.8125 15.375H3.1875ZM8.5 9C9.34538 9 10.1561 8.66418 10.7539 8.0664C11.3517 7.46863 11.6875 6.65788 11.6875 5.8125C11.6875 4.96712 11.3517 4.15637 10.7539 3.5586C10.1561 2.96083 9.34538 2.625 8.5 2.625C7.65462 2.625 6.84387 2.96083 6.2461 3.5586C5.64832 4.15637 5.3125 4.96712 5.3125 5.8125C5.3125 6.65788 5.64832 7.46863 6.2461 8.0664C6.84387 8.66418 7.65462 9 8.5 9Z" fill="#3557FF"/>
</svg>
