<svg width="50" height="50" viewBox="0 0 50 50" fill="none" xmlns="http://www.w3.org/2000/svg">
<rect y="-0.000976562" width="50" height="50" rx="25" fill="#AEBCFF"/>
<path d="M23.264 34.2V28.1236H28.1251V34.2C28.1251 34.8684 28.672 35.4153 29.3404 35.4153H32.9862C33.6546 35.4153 34.2015 34.8684 34.2015 34.2V25.693H36.2675C36.8265 25.693 37.0939 25.0003 36.6685 24.6357L26.5088 15.4847C26.047 15.0715 25.3421 15.0715 24.8803 15.4847L14.7206 24.6357C14.3074 25.0003 14.5626 25.693 15.1216 25.693H17.1876V34.2C17.1876 34.8684 17.7345 35.4153 18.4029 35.4153H22.0487C22.7171 35.4153 23.264 34.8684 23.264 34.2Z" fill="#0C36FF"/>
</svg>
