<svg width="12" height="11" viewBox="0 0 12 11" fill="none" xmlns="http://www.w3.org/2000/svg">
<path d="M0.853516 9.87165V3.10254H11.8535V9.87165C11.8535 10.4921 11.3325 10.9998 10.6956 10.9998H2.01141C1.37457 10.9998 0.853516 10.4921 0.853516 9.87165Z" fill="#FFCDD2"/>
<path d="M11.8535 1.97438V3.66665H0.853516V1.97438C0.853516 1.35387 1.37457 0.846191 2.01141 0.846191H10.6956C11.3325 0.846191 11.8535 1.35387 11.8535 1.97438Z" fill="#F44336"/>
<path d="M8.95826 2.82021C9.43788 2.82021 9.82669 2.44138 9.82669 1.97407C9.82669 1.50676 9.43788 1.12793 8.95826 1.12793C8.47865 1.12793 8.08984 1.50676 8.08984 1.97407C8.08984 2.44138 8.47865 2.82021 8.95826 2.82021Z" fill="#B71C1C"/>
<path d="M3.74733 2.82021C4.22694 2.82021 4.61575 2.44138 4.61575 1.97407C4.61575 1.50676 4.22694 1.12793 3.74733 1.12793C3.26771 1.12793 2.87891 1.50676 2.87891 1.97407C2.87891 2.44138 3.26771 2.82021 3.74733 2.82021Z" fill="#B71C1C"/>
<path d="M8.95744 0C8.63902 0 8.3785 0.253842 8.3785 0.564092V1.97432C8.3785 2.28457 8.63902 2.53842 8.95744 2.53842C9.27586 2.53842 9.53639 2.28457 9.53639 1.97432V0.564092C9.53639 0.253842 9.27586 0 8.95744 0ZM3.74692 0C3.4285 0 3.16797 0.253842 3.16797 0.564092V1.97432C3.16797 2.28457 3.4285 2.53842 3.74692 2.53842C4.06534 2.53842 4.32586 2.28457 4.32586 1.97432V0.564092C4.32586 0.253842 4.06534 0 3.74692 0Z" fill="#BDBDBD"/>
<path d="M5.83203 9.11023C5.83203 9.05382 5.83203 8.9692 5.86098 8.9128C5.88993 8.85639 5.91887 8.79998 5.97677 8.77177C6.03466 8.74357 6.06361 8.68716 6.1215 8.68716C6.1794 8.65895 6.26624 8.65895 6.32414 8.65895C6.38203 8.65895 6.46887 8.65895 6.52677 8.68716L6.70045 8.77177C6.75835 8.79998 6.78729 8.85639 6.81624 8.9128C6.84519 8.9692 6.84519 9.02561 6.84519 9.11023C6.84519 9.16664 6.84519 9.25125 6.81624 9.30766C6.78729 9.36407 6.75835 9.42048 6.70045 9.44868C6.64256 9.47689 6.61361 9.5333 6.52677 9.5333C6.43993 9.5333 6.43993 9.58971 6.35308 9.58971C6.26624 9.58971 6.20835 9.58971 6.15045 9.5615C6.09256 9.5333 6.03466 9.50509 6.00572 9.47689C5.94782 9.44868 5.91887 9.39227 5.88993 9.33586C5.86098 9.25125 5.83203 9.19484 5.83203 9.11023ZM6.7294 7.89743H5.97677L5.86098 4.79492H6.81624L6.7294 7.89743Z" fill="#F44336"/>
</svg>
