<svg width="35" height="36" viewBox="0 0 35 36" fill="none" xmlns="http://www.w3.org/2000/svg">
<path fill-rule="evenodd" clip-rule="evenodd" d="M26.2973 13.1558C26.6538 12.8589 27.1136 12.7157 27.5756 12.7577C28.0377 12.7997 28.4641 13.0234 28.7613 13.3798L32.4065 17.7548C32.6905 18.1127 32.8232 18.5674 32.7764 19.0219C32.7296 19.4763 32.5069 19.8944 32.1559 20.1869C31.805 20.4794 31.3536 20.623 30.8981 20.5871C30.4427 20.5512 30.0193 20.3386 29.7185 19.9948L26.0733 15.6198C25.7764 15.2633 25.6332 14.8035 25.6752 14.3414C25.7172 13.8794 25.9409 13.4529 26.2973 13.1558Z" fill="#EB4B42"/>
<path fill-rule="evenodd" clip-rule="evenodd" d="M26.2973 24.594C25.9407 24.2972 25.7166 23.8708 25.6743 23.4088C25.632 22.9467 25.7749 22.4868 26.0716 22.13L29.7186 17.755C29.8636 17.5722 30.0437 17.4203 30.2484 17.3081C30.453 17.196 30.678 17.1259 30.9101 17.102C31.1422 17.0781 31.3768 17.1008 31.6 17.1689C31.8232 17.237 32.0305 17.349 32.2098 17.4984C32.389 17.6478 32.5366 17.8315 32.6438 18.0388C32.751 18.246 32.8157 18.4726 32.834 18.7053C32.8524 18.9379 32.824 19.1718 32.7506 19.3933C32.6772 19.6148 32.5602 19.8194 32.4066 19.995L28.7613 24.37C28.4642 24.7264 28.0377 24.9501 27.5757 24.9921C27.1136 25.0341 26.6538 24.891 26.2973 24.594Z" fill="#EB4B42"/>
<path fill-rule="evenodd" clip-rule="evenodd" d="M30.625 18.875C30.625 19.3391 30.4406 19.7842 30.1124 20.1124C29.7842 20.4406 29.3391 20.625 28.875 20.625H17.5C17.0359 20.625 16.5908 20.4406 16.2626 20.1124C15.9344 19.7842 15.75 19.3391 15.75 18.875C15.75 18.4109 15.9344 17.9658 16.2626 17.6376C16.5908 17.3094 17.0359 17.125 17.5 17.125H28.875C29.3391 17.125 29.7842 17.3094 30.1124 17.6376C30.4406 17.9658 30.625 18.4109 30.625 18.875ZM5.25 6.625C5.25 6.16087 5.43437 5.71575 5.76256 5.38756C6.09075 5.05937 6.53587 4.875 7 4.875H22.75C23.2141 4.875 23.6592 5.05937 23.9874 5.38756C24.3156 5.71575 24.5 6.16087 24.5 6.625C24.5 7.08913 24.3156 7.53425 23.9874 7.86244C23.6592 8.19062 23.2141 8.375 22.75 8.375H7C6.53587 8.375 6.09075 8.19062 5.76256 7.86244C5.43437 7.53425 5.25 7.08913 5.25 6.625ZM5.25 31.125C5.25 30.6609 5.43437 30.2157 5.76256 29.8876C6.09075 29.5594 6.53587 29.375 7 29.375H22.75C23.2141 29.375 23.6592 29.5594 23.9874 29.8876C24.3156 30.2157 24.5 30.6609 24.5 31.125C24.5 31.5891 24.3156 32.0342 23.9874 32.3624C23.6592 32.6906 23.2141 32.875 22.75 32.875H7C6.53587 32.875 6.09075 32.6906 5.76256 32.3624C5.43437 32.0342 5.25 31.5891 5.25 31.125Z" fill="#EB4B42"/>
<path fill-rule="evenodd" clip-rule="evenodd" d="M22.75 4.875C23.2141 4.875 23.6592 5.05937 23.9874 5.38756C24.3156 5.71575 24.5 6.16087 24.5 6.625V13.625C24.5 14.0891 24.3156 14.5342 23.9874 14.8624C23.6592 15.1906 23.2141 15.375 22.75 15.375C22.2859 15.375 21.8408 15.1906 21.5126 14.8624C21.1844 14.5342 21 14.0891 21 13.625V6.625C21 6.16087 21.1844 5.71575 21.5126 5.38756C21.8408 5.05937 22.2859 4.875 22.75 4.875ZM22.75 22.375C23.2141 22.375 23.6592 22.5594 23.9874 22.8876C24.3156 23.2158 24.5 23.6609 24.5 24.125V31.125C24.5 31.5891 24.3156 32.0342 23.9874 32.3624C23.6592 32.6906 23.2141 32.875 22.75 32.875C22.2859 32.875 21.8408 32.6906 21.5126 32.3624C21.1844 32.0342 21 31.5891 21 31.125V24.125C21 23.6609 21.1844 23.2158 21.5126 22.8876C21.8408 22.5594 22.2859 22.375 22.75 22.375ZM7 4.875C7.46413 4.875 7.90925 5.05937 8.23744 5.38756C8.56563 5.71575 8.75 6.16087 8.75 6.625V31.125C8.75 31.5891 8.56563 32.0342 8.23744 32.3624C7.90925 32.6906 7.46413 32.875 7 32.875C6.53587 32.875 6.09075 32.6906 5.76256 32.3624C5.43437 32.0342 5.25 31.5891 5.25 31.125V6.625C5.25 6.16087 5.43437 5.71575 5.76256 5.38756C6.09075 5.05937 6.53587 4.875 7 4.875Z" fill="#EB4B42"/>
</svg>
