<svg width="16" height="17" viewBox="0 0 16 17" fill="none" xmlns="http://www.w3.org/2000/svg">
<path d="M10.4091 5.16237V4.28396C10.4091 4.20783 10.3216 4.16578 10.2625 4.21237L5.13979 8.21351C5.09626 8.24736 5.06105 8.2907 5.03682 8.34023C5.01259 8.38976 5 8.44417 5 8.49931C5 8.55444 5.01259 8.60885 5.03682 8.65838C5.06105 8.70791 5.09626 8.75125 5.13979 8.7851L10.2625 12.7862C10.3227 12.8328 10.4091 12.7908 10.4091 12.7146V11.8362C10.4091 11.7806 10.383 11.7271 10.3398 11.6931L6.24888 8.49987L10.3398 5.30555C10.383 5.27146 10.4091 5.21806 10.4091 5.16237Z" fill="black"/>
</svg>
