<svg width="11" height="11" viewBox="0 0 11 11" fill="none" xmlns="http://www.w3.org/2000/svg">
<path d="M5.5 0C4.4122 0 3.34884 0.322569 2.44437 0.926917C1.5399 1.53126 0.834947 2.39025 0.418665 3.39524C0.00238306 4.40023 -0.106535 5.5061 0.105683 6.573C0.317902 7.63989 0.841726 8.6199 1.61091 9.38909C2.3801 10.1583 3.36011 10.6821 4.427 10.8943C5.4939 11.1065 6.59977 10.9976 7.60476 10.5813C8.60975 10.1651 9.46874 9.4601 10.0731 8.55563C10.6774 7.65116 11 6.5878 11 5.5C10.9985 4.04178 10.4185 2.64373 9.38739 1.61261C8.35627 0.581497 6.95822 0.0015399 5.5 0ZM8.46154 5.92308H5.5C5.38779 5.92308 5.28018 5.8785 5.20084 5.79916C5.1215 5.71982 5.07692 5.61221 5.07692 5.5V2.53846C5.07692 2.42625 5.1215 2.31864 5.20084 2.2393C5.28018 2.15996 5.38779 2.11538 5.5 2.11538C5.61221 2.11538 5.71982 2.15996 5.79916 2.2393C5.8785 2.31864 5.92308 2.42625 5.92308 2.53846V5.07692H8.46154C8.57375 5.07692 8.68136 5.1215 8.7607 5.20084C8.84004 5.28018 8.88462 5.38779 8.88462 5.5C8.88462 5.61221 8.84004 5.71982 8.7607 5.79916C8.68136 5.8785 8.57375 5.92308 8.46154 5.92308Z" fill="#E7A05E"/>
</svg>
