<svg width="29" height="37" viewBox="0 0 29 37" fill="none" xmlns="http://www.w3.org/2000/svg">
<path fill-rule="evenodd" clip-rule="evenodd" d="M15.7278 10.4212L19.4559 6.69306C19.7954 6.35351 19.7954 5.80467 19.4559 5.46511C19.1163 5.12556 18.5675 5.12556 18.2279 5.46511L14.4998 9.19325L10.7717 5.46511C10.4321 5.12556 9.88328 5.12556 9.54373 5.46511C9.20417 5.80467 9.20417 6.35351 9.54373 6.69306L13.2719 10.4212L9.54373 14.1493C9.20417 14.4889 9.20417 15.0377 9.54373 15.3773C9.71307 15.5466 9.93538 15.6317 10.1577 15.6317C10.38 15.6317 10.6023 15.5466 10.7717 15.3773L14.4998 11.6491L18.2279 15.3773C18.3973 15.5466 18.6196 15.6317 18.8419 15.6317C19.0642 15.6317 19.2865 15.5466 19.4559 15.3773C19.7954 15.0377 19.7954 14.4889 19.4559 14.1493L15.7278 10.4212Z" fill="#231F20"/>
<mask id="mask0_8198_11987" style="mask-type:luminance" maskUnits="userSpaceOnUse" x="9" y="5" width="11" height="11">
<path fill-rule="evenodd" clip-rule="evenodd" d="M15.7278 10.4212L19.4559 6.69306C19.7954 6.35351 19.7954 5.80467 19.4559 5.46511C19.1163 5.12556 18.5675 5.12556 18.2279 5.46511L14.4998 9.19325L10.7717 5.46511C10.4321 5.12556 9.88328 5.12556 9.54373 5.46511C9.20417 5.80467 9.20417 6.35351 9.54373 6.69306L13.2719 10.4212L9.54373 14.1493C9.20417 14.4889 9.20417 15.0377 9.54373 15.3773C9.71307 15.5466 9.93538 15.6317 10.1577 15.6317C10.38 15.6317 10.6023 15.5466 10.7717 15.3773L14.4998 11.6491L18.2279 15.3773C18.3973 15.5466 18.6196 15.6317 18.8419 15.6317C19.0642 15.6317 19.2865 15.5466 19.4559 15.3773C19.7954 15.0377 19.7954 14.4889 19.4559 14.1493L15.7278 10.4212Z" fill="white"/>
</mask>
<g mask="url(#mask0_8198_11987)">
<rect x="4.0791" width="20.8421" height="20.8421" fill="#F65151"/>
</g>
<path d="M0.876 32.8423V24.4423H3.72C4.384 24.4423 4.928 24.5543 5.352 24.7783C5.776 25.0023 6.088 25.3023 6.288 25.6783C6.496 26.0463 6.6 26.4663 6.6 26.9383C6.6 27.3863 6.496 27.8023 6.288 28.1863C6.088 28.5623 5.772 28.8663 5.34 29.0983C4.908 29.3223 4.356 29.4343 3.684 29.4343H2.076V32.8423H0.876ZM5.292 32.8423L3.48 29.1103H4.8L6.684 32.8423H5.292ZM2.076 28.5223H3.636C4.228 28.5223 4.664 28.3783 4.944 28.0903C5.224 27.7943 5.364 27.4183 5.364 26.9623C5.364 26.4983 5.228 26.1303 4.956 25.8583C4.684 25.5863 4.244 25.4503 3.636 25.4503H2.076V28.5223ZM10.4661 32.9863C9.89006 32.9863 9.37806 32.8543 8.93006 32.5903C8.48206 32.3263 8.13006 31.9583 7.87406 31.4863C7.62606 31.0143 7.50206 30.4663 7.50206 29.8423C7.50206 29.2023 7.62606 28.6463 7.87406 28.1743C8.13006 27.6943 8.48206 27.3223 8.93006 27.0583C9.37806 26.7863 9.89806 26.6503 10.4901 26.6503C11.0821 26.6503 11.5901 26.7823 12.0141 27.0463C12.4381 27.3103 12.7661 27.6623 12.9981 28.1023C13.2301 28.5343 13.3461 29.0143 13.3461 29.5423C13.3461 29.6223 13.3421 29.7103 13.3341 29.8063C13.3341 29.8943 13.3301 29.9943 13.3221 30.1063H8.37806V29.2543H12.1461C12.1221 28.7503 11.9541 28.3583 11.6421 28.0783C11.3301 27.7903 10.9421 27.6463 10.4781 27.6463C10.1501 27.6463 9.85006 27.7223 9.57806 27.8743C9.30606 28.0183 9.08606 28.2343 8.91806 28.5223C8.75806 28.8023 8.67806 29.1583 8.67806 29.5903V29.9263C8.67806 30.3743 8.75806 30.7543 8.91806 31.0663C9.08606 31.3703 9.30606 31.6023 9.57806 31.7623C9.85006 31.9143 10.1461 31.9903 10.4661 31.9903C10.8501 31.9903 11.1661 31.9063 11.4141 31.7383C11.6621 31.5703 11.8461 31.3423 11.9661 31.0543H13.1661C13.0621 31.4223 12.8861 31.7543 12.6381 32.0503C12.3901 32.3383 12.0821 32.5663 11.7141 32.7343C11.3541 32.9023 10.9381 32.9863 10.4661 32.9863ZM17.3673 32.9863C16.7913 32.9863 16.2833 32.8503 15.8433 32.5783C15.4033 32.2983 15.0593 31.9223 14.8113 31.4503C14.5713 30.9703 14.4513 30.4263 14.4513 29.8183C14.4513 29.2023 14.5713 28.6583 14.8113 28.1863C15.0593 27.7143 15.4033 27.3423 15.8433 27.0703C16.2913 26.7903 16.8033 26.6503 17.3793 26.6503C17.8513 26.6503 18.2673 26.7463 18.6273 26.9383C18.9873 27.1223 19.2673 27.3863 19.4673 27.7303V24.2023H20.6673V32.8423H19.5873L19.4673 31.9063C19.3473 32.0903 19.1913 32.2663 18.9993 32.4343C18.8073 32.5943 18.5753 32.7263 18.3033 32.8303C18.0313 32.9343 17.7193 32.9863 17.3673 32.9863ZM17.5593 31.9423C17.9353 31.9423 18.2673 31.8543 18.5553 31.6783C18.8433 31.5023 19.0633 31.2543 19.2153 30.9343C19.3753 30.6143 19.4553 30.2423 19.4553 29.8183C19.4553 29.3943 19.3753 29.0263 19.2153 28.7143C19.0633 28.3943 18.8433 28.1463 18.5553 27.9703C18.2673 27.7863 17.9353 27.6943 17.5593 27.6943C17.1993 27.6943 16.8753 27.7863 16.5873 27.9703C16.2993 28.1463 16.0753 28.3943 15.9153 28.7143C15.7553 29.0263 15.6753 29.3943 15.6753 29.8183C15.6753 30.2423 15.7553 30.6143 15.9153 30.9343C16.0753 31.2543 16.2993 31.5023 16.5873 31.6783C16.8753 31.8543 17.1993 31.9423 17.5593 31.9423ZM25.0682 32.9863C24.5002 32.9863 23.9882 32.8543 23.5322 32.5903C23.0842 32.3263 22.7282 31.9583 22.4642 31.4863C22.2082 31.0063 22.0802 30.4543 22.0802 29.8303C22.0802 29.1903 22.2122 28.6343 22.4762 28.1623C22.7402 27.6823 23.1002 27.3103 23.5562 27.0463C24.0122 26.7823 24.5242 26.6503 25.0922 26.6503C25.6682 26.6503 26.1802 26.7823 26.6282 27.0463C27.0762 27.3103 27.4282 27.6783 27.6842 28.1503C27.9482 28.6223 28.0802 29.1783 28.0802 29.8183C28.0802 30.4583 27.9482 31.0143 27.6842 31.4863C27.4282 31.9583 27.0722 32.3263 26.6162 32.5903C26.1602 32.8543 25.6442 32.9863 25.0682 32.9863ZM25.0682 31.9543C25.3962 31.9543 25.6922 31.8743 25.9562 31.7143C26.2282 31.5543 26.4442 31.3183 26.6042 31.0063C26.7722 30.6863 26.8562 30.2903 26.8562 29.8183C26.8562 29.3463 26.7762 28.9543 26.6162 28.6423C26.4562 28.3223 26.2402 28.0823 25.9682 27.9223C25.7042 27.7623 25.4122 27.6823 25.0922 27.6823C24.7722 27.6823 24.4762 27.7623 24.2042 27.9223C23.9322 28.0823 23.7122 28.3223 23.5442 28.6423C23.3842 28.9543 23.3042 29.3463 23.3042 29.8183C23.3042 30.2903 23.3842 30.6863 23.5442 31.0063C23.7122 31.3183 23.9282 31.5543 24.1922 31.7143C24.4642 31.8743 24.7562 31.9543 25.0682 31.9543Z" fill="#F65151"/>
</svg>
