<svg width="17" height="19" viewBox="0 0 17 19" fill="none" xmlns="http://www.w3.org/2000/svg">
<path d="M9.91634 7.83783V6.49199C10.3059 6.30727 10.7045 6.16873 11.112 6.07637C11.5195 5.98401 11.9474 5.93783 12.3955 5.93783C12.7025 5.93783 13.0035 5.96422 13.2986 6.01699C13.5938 6.06977 13.883 6.13574 14.1663 6.21491V7.48158C13.883 7.36283 13.5966 7.2739 13.3071 7.21479C13.0177 7.15568 12.7138 7.12586 12.3955 7.12533C11.9469 7.12533 11.516 7.18813 11.1028 7.31375C10.6896 7.43936 10.2941 7.61405 9.91634 7.83783ZM9.91634 12.192V10.8462C10.3059 10.6614 10.7045 10.5229 11.112 10.4305C11.5195 10.3382 11.9474 10.292 12.3955 10.292C12.7025 10.292 13.0035 10.3184 13.2986 10.3712C13.5938 10.4239 13.883 10.4899 14.1663 10.5691V11.8357C13.883 11.717 13.5966 11.6278 13.3071 11.5682C13.0177 11.5085 12.7138 11.479 12.3955 11.4795C11.9469 11.4795 11.516 11.5389 11.1028 11.6576C10.6896 11.7764 10.2941 11.9545 9.91634 12.192ZM9.91634 10.0149V8.66908C10.3059 8.48436 10.7045 8.34581 11.112 8.25345C11.5195 8.16109 11.9474 8.11491 12.3955 8.11491C12.7025 8.11491 13.0035 8.1413 13.2986 8.19408C13.5938 8.24686 13.883 8.31283 14.1663 8.392V9.65866C13.883 9.53991 13.5966 9.45072 13.3071 9.39108C13.0177 9.33144 12.7138 9.30188 12.3955 9.30241C11.9469 9.30241 11.516 9.36522 11.1028 9.49083C10.6896 9.61644 10.2941 9.79113 9.91634 10.0149ZM9.20801 13.4982C9.72745 13.2212 10.25 13.0132 10.7755 12.8744C11.3011 12.7356 11.8411 12.6665 12.3955 12.667C12.8205 12.667 13.2368 12.7066 13.6443 12.7857C14.0518 12.8649 14.462 12.9837 14.8747 13.142V5.30449C14.4851 5.11977 14.0806 4.98123 13.6613 4.88887C13.242 4.79651 12.82 4.75033 12.3955 4.75033C11.8406 4.75033 11.2917 4.82949 10.7486 4.98783C10.2056 5.14616 9.69204 5.38366 9.20801 5.70033V13.4982ZM8.49967 15.8337C7.93301 15.3323 7.31912 14.943 6.65801 14.666C5.9969 14.3889 5.31217 14.2503 4.60384 14.2503C4.10801 14.2503 3.62115 14.3229 3.14326 14.468C2.66537 14.6132 2.20779 14.8177 1.77051 15.0816C1.52259 15.2267 1.28365 15.2201 1.05367 15.0618C0.823702 14.9035 0.70848 14.6726 0.708008 14.3691V4.82949C0.708008 4.68436 0.740591 4.54581 0.805758 4.41387C0.870924 4.28193 0.968202 4.18297 1.09759 4.11699C1.65245 3.81352 2.22219 3.57919 2.8068 3.41399C3.39141 3.2488 3.99042 3.16647 4.60384 3.16699C5.28856 3.16699 5.95865 3.26595 6.61409 3.46387C7.26954 3.66179 7.89806 3.95866 8.49967 4.35449C9.10176 3.95866 9.73052 3.66179 10.386 3.46387C11.0414 3.26595 11.7113 3.16699 12.3955 3.16699C13.0094 3.16699 13.6086 3.24959 14.1933 3.41479C14.7779 3.57998 15.3474 3.81405 15.9018 4.11699C16.0316 4.18297 16.1291 4.28193 16.1943 4.41387C16.2595 4.54581 16.2918 4.68436 16.2913 4.82949V14.3691C16.2913 14.6726 16.1764 14.9035 15.9464 15.0618C15.7164 15.2201 15.4772 15.2267 15.2288 15.0816C14.792 14.8177 14.3347 14.6132 13.8568 14.468C13.3789 14.3229 12.8918 14.2503 12.3955 14.2503C11.6872 14.2503 11.0025 14.3889 10.3413 14.666C9.68023 14.943 9.06634 15.3323 8.49967 15.8337Z" fill="#3557FF"/>
</svg>
