<svg width="43" height="43" viewBox="0 0 43 43" fill="none" xmlns="http://www.w3.org/2000/svg">
<path d="M40.6865 29.2772C40.3537 28.4742 39.5696 27.9502 38.7004 27.9502H30.1004C28.9131 27.9502 27.9504 28.913 27.9504 30.1002C27.9504 31.2874 28.9131 32.2502 30.1004 32.2502H33.51L28.5801 37.1801C27.965 37.7953 27.7811 38.7191 28.114 39.5232C28.447 40.3262 29.2311 40.8502 30.1004 40.8502H38.7004C39.8876 40.8502 40.8504 39.8874 40.8504 38.7002C40.8504 37.513 39.8876 36.5502 38.7004 36.5502H35.2907L40.2206 31.6202C40.8357 31.0051 41.0193 30.0813 40.6865 29.2772Z" fill="#AD5191"/>
<path d="M21.5 43C22.6872 43 23.65 42.0372 23.65 40.85C23.65 39.6628 22.6872 38.7 21.5 38.7C12.0161 38.7 4.3 30.9839 4.3 21.5C4.3 12.0161 12.0161 4.3 21.5 4.3C30.9839 4.3 38.7 12.0161 38.7 21.5C38.7 22.6872 39.6628 23.65 40.85 23.65C42.0372 23.65 43 22.6872 43 21.5C43 9.64447 33.3555 0 21.5 0C9.64447 0 0 9.64447 0 21.5C0 33.3555 9.64447 43 21.5 43Z" fill="#AD5191"/>
<path d="M23.6501 15.0498C22.4629 15.0498 21.5001 16.0126 21.5001 17.1998V20.6095L17.83 24.2795C16.9902 25.1193 16.9902 26.4798 17.83 27.3199C18.2499 27.7397 18.7999 27.9498 19.3501 27.9498C19.9003 27.9498 20.4502 27.7397 20.8701 27.3199L25.1701 23.0199C25.5733 22.6167 25.8001 22.0698 25.8001 21.4998V17.1998C25.8001 16.0126 24.8373 15.0498 23.6501 15.0498Z" fill="#AD5191"/>
</svg>
