<svg width="17" height="17" viewBox="0 0 17 17" fill="none" xmlns="http://www.w3.org/2000/svg">
<path d="M8.98828 15.5C5.12828 15.5 1.98828 12.36 1.98828 8.5C1.98828 4.64 5.12828 1.5 8.98828 1.5C12.8483 1.5 15.9883 4.64 15.9883 8.5C15.9883 12.36 12.8483 15.5 8.98828 15.5ZM8.98828 2.5C5.67828 2.5 2.98828 5.19 2.98828 8.5C2.98828 11.81 5.67828 14.5 8.98828 14.5C12.2983 14.5 14.9883 11.81 14.9883 8.5C14.9883 5.19 12.2983 2.5 8.98828 2.5Z" fill="#2B2829"/>
<path d="M10.9883 11C10.8983 11 10.8083 10.98 10.7283 10.93L8.22829 9.43C8.15458 9.38513 8.09374 9.32195 8.05168 9.24659C8.00963 9.17124 7.98779 9.08629 7.98829 9V5C7.98829 4.72 8.20829 4.5 8.48829 4.5C8.76829 4.5 8.98829 4.72 8.98829 5V8.72L11.2483 10.07C11.3414 10.1271 11.4133 10.2129 11.4532 10.3145C11.4931 10.4162 11.4988 10.528 11.4694 10.6332C11.44 10.7383 11.3772 10.831 11.2903 10.8972C11.2035 10.9634 11.0975 10.9995 10.9883 11Z" fill="#2B2829"/>
</svg>
