<svg width="24" height="24" viewBox="0 0 24 24" fill="none" xmlns="http://www.w3.org/2000/svg">
<path d="M3.53027 11.4698V13.5878C3.53014 14.144 3.63959 14.6948 3.85236 15.2088C4.06513 15.7227 4.37705 16.1897 4.77032 16.583C5.16359 16.9764 5.6305 17.2884 6.14438 17.5013C6.65826 17.7142 7.20904 17.8238 7.76527 17.8238H20.4703M3.53027 6.17578H16.2353C16.7916 6.17565 17.3425 6.28513 17.8565 6.49796C18.3705 6.71079 18.8375 7.02281 19.2309 7.41618C19.6242 7.80956 19.9363 8.27658 20.1491 8.79058C20.3619 9.30457 20.4714 9.85546 20.4713 10.4118V12.5288" stroke="black" stroke-width="1.5" stroke-linecap="round" stroke-linejoin="round"/>
<path d="M17.2943 14.647L20.4713 17.823L17.2943 21M6.7063 9.353L3.5293 6.176L6.7063 3" stroke="black" stroke-width="1.5" stroke-linecap="round" stroke-linejoin="round"/>
</svg>
