<svg width="23" height="23" viewBox="0 0 23 23" fill="currentColor" xmlns="http://www.w3.org/2000/svg">
<path d="M11.7481 21.2578C9.84441 21.2578 7.98351 20.6933 6.40069 19.6357C4.81786 18.5781 3.5842 17.0749 2.85571 15.3161C2.12722 13.5574 1.93661 11.6221 2.30799 9.75507C2.67938 7.88801 3.59607 6.17299 4.94215 4.82691C6.28823 3.48083 8.00324 2.56414 9.87031 2.19276C11.7374 1.82138 13.6726 2.01198 15.4314 2.74048C17.1901 3.46897 18.6933 4.70263 19.7509 6.28545C20.8086 7.86828 21.3731 9.72917 21.3731 11.6328C21.3731 14.1855 20.359 16.6337 18.554 18.4387C16.7489 20.2438 14.3008 21.2578 11.7481 21.2578ZM11.7481 3.38282C10.1164 3.38282 8.5213 3.86667 7.1646 4.77319C5.80789 5.67971 4.75047 6.96819 4.12604 8.47568C3.50162 9.98317 3.33824 11.642 3.65657 13.2423C3.9749 14.8427 4.76064 16.3127 5.91442 17.4664C7.0682 18.6202 8.53821 19.406 10.1386 19.7243C11.7389 20.0426 13.3977 19.8792 14.9052 19.2548C16.4127 18.6304 17.7012 17.573 18.6077 16.2163C19.5142 14.8596 19.9981 13.2645 19.9981 11.6328C19.9981 9.44478 19.1289 7.34636 17.5817 5.79919C16.0345 4.25201 13.9361 3.38282 11.7481 3.38282Z" fill="currentColor"/>
<path d="M14.9037 15.7578L11.0605 11.9147V5.44531H12.4355V11.3441L15.873 14.7884L14.9037 15.7578Z" fill="currentColor"/>
</svg>
