<svg width="200" height="161" viewBox="0 0 200 161" fill="none" xmlns="http://www.w3.org/2000/svg">
<path d="M200 141.484H0V141.592H200V141.484Z" fill="#EBEBEB"/>
<path d="M174.269 148.438H166.713V148.547H174.269V148.438Z" fill="#EBEBEB"/>
<path d="M129.009 147.687H117.221V147.795H129.009V147.687Z" fill="#EBEBEB"/>
<path d="M166.311 144.427H147.467V144.535H166.311V144.427Z" fill="#EBEBEB"/>
<path d="M25.3724 145.153H20.9844V145.261H25.3724V145.153Z" fill="#EBEBEB"/>
<path d="M44.3566 145.153H28.9326V145.261H44.3566V145.153Z" fill="#EBEBEB"/>
<path d="M90.0604 146.978H68.4004V147.086H90.0604V146.978Z" fill="#EBEBEB"/>
<path d="M94.8002 122.211H17.5682C16.9624 122.211 16.3815 121.951 15.9531 121.488C15.5248 121.026 15.2842 120.398 15.2842 119.744V2.44595C15.2895 1.79526 15.5324 1.17317 15.9602 0.715075C16.3879 0.256981 16.9659 -2.49461e-05 17.5682 1.81612e-09H94.8002C95.4059 1.81612e-09 95.9869 0.259974 96.4152 0.722731C96.8436 1.18549 97.0842 1.81312 97.0842 2.46756V119.744C97.0842 120.398 96.8436 121.026 96.4152 121.488C95.9869 121.951 95.4059 122.211 94.8002 122.211ZM17.5682 0.0864297C16.9893 0.087572 16.4344 0.33653 16.025 0.778779C15.6157 1.22103 15.3852 1.82052 15.3842 2.44595V119.744C15.3852 120.369 15.6157 120.968 16.025 121.411C16.4344 121.853 16.9893 122.102 17.5682 122.103H94.8002C95.3791 122.102 95.934 121.853 96.3433 121.411C96.7527 120.968 96.9831 120.369 96.9842 119.744V2.44595C96.9831 1.82052 96.7527 1.22103 96.3433 0.778779C95.934 0.33653 95.3791 0.087572 94.8002 0.0864297H17.5682Z" fill="#EBEBEB"/>
<path d="M181.323 122.211H104.083C103.477 122.21 102.897 121.95 102.469 121.487C102.041 121.025 101.8 120.398 101.799 119.744V2.44595C101.805 1.79562 102.048 1.17418 102.476 0.716323C102.904 0.258471 103.481 0.00110124 104.083 0H181.323C181.924 0.00224911 182.5 0.26026 182.926 0.71811C183.352 1.17596 183.594 1.79676 183.599 2.44595V119.744C183.599 120.396 183.359 121.023 182.933 121.485C182.506 121.948 181.927 122.209 181.323 122.211ZM104.083 0.0864297C103.504 0.087572 102.949 0.33653 102.54 0.778779C102.13 1.22103 101.9 1.82052 101.899 2.44595V119.744C101.9 120.369 102.13 120.968 102.54 121.411C102.949 121.853 103.504 122.102 104.083 122.103H181.323C181.902 122.102 182.457 121.853 182.866 121.411C183.275 120.968 183.506 120.369 183.507 119.744V2.44595C183.506 1.82052 183.275 1.22103 182.866 0.778779C182.457 0.33653 181.902 0.087572 181.323 0.0864297H104.083Z" fill="#EBEBEB"/>
<path d="M174.269 148.438H166.713V148.547H174.269V148.438Z" fill="#EBEBEB"/>
<path d="M129.009 147.687H117.221V147.795H129.009V147.687Z" fill="#EBEBEB"/>
<path d="M166.311 144.427H147.467V144.535H166.311V144.427Z" fill="#EBEBEB"/>
<path d="M25.3724 145.153H20.9844V145.261H25.3724V145.153Z" fill="#EBEBEB"/>
<path d="M44.3566 145.153H28.9326V145.261H44.3566V145.153Z" fill="#EBEBEB"/>
<path d="M90.0604 146.978H68.4004V147.086H90.0604V146.978Z" fill="#EBEBEB"/>
<path d="M78.7764 13.2314H55.0244V71.5885H78.7764V13.2314Z" fill="#E6E6E6"/>
<path d="M80.2286 13.2314H56.4766V71.5885H80.2286V13.2314Z" fill="#F5F5F5"/>
<path d="M77.623 68.9616V15.8594L59.079 15.8594V68.9616H77.623Z" fill="white"/>
<path d="M77.6191 68.9616V15.8594H76.5231V68.9616H77.6191Z" fill="#E6E6E6"/>
<path d="M79.1478 53.1934H57.5518V56.7197H79.1478V53.1934Z" fill="#F5F5F5"/>
<path d="M79.1478 20.4922H57.5518V24.0185H79.1478V20.4922Z" fill="#F5F5F5"/>
<path d="M110.8 13.2314H87.0479V71.5885H110.8V13.2314Z" fill="#E6E6E6"/>
<path d="M112.247 13.2314H88.4951V71.5885H112.247V13.2314Z" fill="#F5F5F5"/>
<path d="M109.645 68.9616V15.8594L91.1005 15.8594V68.9616H109.645Z" fill="white"/>
<path d="M109.645 68.9616V15.8594H108.549V68.9616H109.645Z" fill="#E6E6E6"/>
<path d="M111.172 53.1934H89.5762V56.7197H111.172V53.1934Z" fill="#F5F5F5"/>
<path d="M111.172 20.4922H89.5762V24.0185H111.172V20.4922Z" fill="#F5F5F5"/>
<path d="M46.752 13.2314H23V71.5885H46.752V13.2314Z" fill="#E6E6E6"/>
<path d="M48.2051 13.2314H24.4531V71.5885H48.2051V13.2314Z" fill="#F5F5F5"/>
<path d="M45.6006 68.9616V15.8594L27.0566 15.8594L27.0566 68.9616H45.6006Z" fill="white"/>
<path d="M45.5967 68.9577V15.8555H44.5007V68.9577H45.5967Z" fill="#E6E6E6"/>
<path d="M47.1243 53.1934H25.5283V56.7197H47.1243V53.1934Z" fill="#F5F5F5"/>
<path d="M47.1243 20.4922H25.5283V24.0185H47.1243V20.4922Z" fill="#F5F5F5"/>
<path d="M131.689 83.1934H127.805V141.486H131.689V83.1934Z" fill="#E6E6E6"/>
<path d="M132.728 83.1934H130.44V141.486H132.728V83.1934Z" fill="#F0F0F0"/>
<path d="M78.2836 87.5615L133.436 87.5615V83.1882H78.2836V87.5615Z" fill="#F0F0F0"/>
<path d="M26.0451 83.1934H22.1611V141.486H26.0451V83.1934Z" fill="#E6E6E6"/>
<path d="M26.7724 83.1934H24.4844V141.486H26.7724V83.1934Z" fill="#F0F0F0"/>
<path d="M21.4681 87.5615L76.6201 87.5615V83.1882H21.4681V87.5615Z" fill="#E6E6E6"/>
<path d="M77.9524 83.1934H74.0684V141.486H77.9524V83.1934Z" fill="#E6E6E6"/>
<path d="M78.9921 83.1934H76.7041V141.486H78.9921V83.1934Z" fill="#F0F0F0"/>
<path d="M68.0674 63.8018H96.8674L99.1274 82.1723H70.3314L68.0674 63.8018Z" fill="#E6E6E6"/>
<path d="M70.3311 82.1738L70.4471 83.1894H99.2471L99.1311 82.1738H70.3311Z" fill="#E6E6E6"/>
<path d="M68.9561 63.8018H97.7521L100.016 82.1723H71.2161L68.9561 63.8018Z" fill="#F0F0F0"/>
<path d="M71.9124 81.3345L69.8604 64.6406H97.0564L99.1124 81.3345H71.9124Z" fill="white"/>
<path d="M78.7188 82.1738L78.8347 83.1894H110.551L110.431 82.1738H78.7188Z" fill="#F0F0F0"/>
<path d="M130.759 67.4145H116.503C114.076 67.3909 111.725 68.3291 109.896 70.0517C108.066 71.7742 106.885 74.1615 106.575 76.7618L104.491 93.7754L96.7466 93.7452H96.7226C94.9959 93.701 93.3193 94.3743 92.0385 95.6262C90.7576 96.8781 89.9702 98.6131 89.8386 100.474L89.3826 106.308C88.6316 106.422 87.9364 106.8 87.4037 107.384C86.8711 107.967 86.5306 108.723 86.4346 109.536H124.679C127.103 109.559 129.452 108.622 131.28 106.901C133.108 105.18 134.288 102.795 134.599 100.197L137.599 75.7809C137.713 74.7346 137.621 73.6741 137.33 72.6686C137.039 71.6631 136.555 70.7352 135.91 69.9456C135.264 69.156 134.472 68.5224 133.584 68.0863C132.697 67.6501 131.734 67.4212 130.759 67.4145ZM97.1586 106.247H91.4386L91.8706 100.88C91.9646 99.5045 92.5444 98.2208 93.4899 97.2942C94.4354 96.3676 95.6744 95.869 96.9506 95.9016H96.9706L104.235 95.9275L103.727 100.063C103.521 101.786 102.737 103.367 101.525 104.506C100.312 105.646 98.754 106.266 97.1466 106.247H97.1586Z" fill="#E0E0E0"/>
<path d="M95.2687 109.519H93.2847L88.6367 141.484H90.6207L95.2687 109.519Z" fill="#F0F0F0"/>
<path d="M102.715 109.519H100.731L96.0791 141.484H98.0631L102.715 109.519Z" fill="#F0F0F0"/>
<path d="M120.189 109.519H122.173L126.825 141.484H124.841L120.189 109.519Z" fill="#F0F0F0"/>
<path d="M112.745 109.519H114.729L119.377 141.484H117.393L112.745 109.519Z" fill="#F0F0F0"/>
<path d="M175.845 14.2568H137.169V101.555H175.845V14.2568Z" fill="#E6E6E6"/>
<path d="M178.533 14.2568H137.885V101.555H178.533V14.2568Z" fill="#F0F0F0"/>
<path d="M175.123 97.877V17.9385L141.283 17.9385V97.877H175.123Z" fill="#FAFAFA"/>
<path d="M153.283 97.8764L157.475 17.9336H163.131L158.939 97.8764H153.283Z" fill="white"/>
<path d="M160.008 97.8764L164.2 17.9336H169.856L165.664 97.8764H160.008Z" fill="white"/>
<path d="M100 161.001C142.833 161.001 177.556 158.81 177.556 156.109C177.556 153.407 142.833 151.217 100 151.217C57.1673 151.217 22.4443 153.407 22.4443 156.109C22.4443 158.81 57.1673 161.001 100 161.001Z" fill="#F5F5F5"/>
<path d="M96.3231 28.7812L90.1191 126.658H165.767L172.619 18.5264H106.467L96.3231 28.7812Z" fill="#407BFF"/>
<path opacity="0.8" d="M96.3231 28.7812L90.1191 126.658H165.767L172.619 18.5264H106.467L96.3231 28.7812Z" fill="white"/>
<path d="M159.577 51.5707C164.674 46.2502 165.076 37.7687 160.477 32.6268C155.878 27.4849 148.018 27.6297 142.922 32.9503C137.826 38.2708 137.423 46.7523 142.022 51.8942C146.621 57.0361 154.481 56.8913 159.577 51.5707Z" fill="#407BFF"/>
<path d="M159.139 51.0806C163.966 46.0404 164.348 38.0059 159.991 33.1352C155.635 28.2645 148.189 28.4019 143.361 33.4422C138.534 38.4824 138.152 46.5169 142.509 51.3876C146.865 56.2583 154.311 56.1209 159.139 51.0806Z" fill="white"/>
<mask id="mask0_3836_30280" style="mask-type:luminance" maskUnits="userSpaceOnUse" x="139" y="29" width="25" height="26">
<path d="M159.138 51.0806C163.965 46.0404 164.347 38.0059 159.99 33.1352C155.634 28.2645 148.188 28.4019 143.36 33.4422C138.533 38.4824 138.151 46.5169 142.508 51.3876C146.865 56.2583 154.31 56.1209 159.138 51.0806Z" fill="white"/>
</mask>
<g mask="url(#mask0_3836_30280)">
<path d="M148.163 46.6711L145.851 46.5068C145.851 46.5068 144.775 52.4877 144.087 52.989C143.147 53.6934 141.287 55.3961 140.051 56.0141C139.924 56.4187 139.898 56.8525 139.975 57.2716C141.895 57.2716 145.447 55.2059 146.059 54.3071C147.463 52.289 148.163 46.6711 148.163 46.6711Z" fill="#FFC3BD"/>
<path d="M149.268 42.9202C149.968 44.329 147.788 49.4024 147.788 49.4024L144.82 48.3998C144.906 46.8399 145.24 45.3077 145.808 43.8709C146.544 42.2158 148.5 41.3731 149.268 42.9202Z" fill="#263238"/>
<path opacity="0.2" d="M146.999 45.5137C147.399 46.5335 146.875 48.9968 146.463 50.5568C145.459 48.6986 145.319 46.97 146.999 45.5137Z" fill="black"/>
<path d="M146.986 43.1708C146.53 44.9728 145.634 49.7048 146.366 57.1334H154.178C154.358 55.7203 154.13 48.8189 155.966 42.1596C155.036 41.9606 154.094 41.8306 153.146 41.7706C151.939 41.6949 150.729 41.6949 149.522 41.7706C149.007 41.8223 148.497 41.9235 147.998 42.0731C147.756 42.1454 147.535 42.2846 147.358 42.4771C147.18 42.6696 147.052 42.9086 146.986 43.1708Z" fill="#263238"/>
<path opacity="0.2" d="M153.975 43.801C153.739 44.8987 153.831 47.5218 154.539 50.5555C154.749 47.9428 155.168 45.3547 155.791 42.8201C155.235 42.7466 154.199 42.7812 153.975 43.801Z" fill="black"/>
<path d="M152.986 38.1055C152.65 39.3673 152.402 40.9274 153.146 41.7701C153.146 41.7701 152.566 43.0665 150.402 43.0665C148.422 43.0665 149.522 41.7701 149.522 41.7701C150.85 41.433 150.934 39.6958 150.79 38.7191L152.986 38.1055Z" fill="#FFC3BD"/>
<path d="M150.4 43.0463C150.602 43.4125 150.71 43.8302 150.712 44.2563C150.712 44.2563 153.512 43.2235 153.512 41.7067C153.512 41.7067 153.148 41.4603 152.92 41.2745C152.928 41.2616 152.74 42.4413 150.4 43.0463Z" fill="white"/>
<path d="M150.324 43.0452C150.073 43.3742 149.885 43.7549 149.772 44.1644C149.443 43.8918 149.202 43.5129 149.084 43.0824C148.967 42.652 148.98 42.1925 149.12 41.7703C149.353 41.6697 149.592 41.5888 149.836 41.5283C149.836 41.5283 149.496 42.721 150.324 43.0452Z" fill="white"/>
<path opacity="0.2" d="M150.8 38.7191C150.916 39.4132 150.85 40.1282 150.612 40.7848C150.818 40.7529 151.019 40.6889 151.208 40.5946C151.976 40.2187 152.388 39.6309 152.84 38.7623C152.884 38.5376 152.94 38.3302 152.996 38.1055L150.8 38.7191Z" fill="black"/>
<path d="M148.901 37.5527C148.96 37.744 149.056 37.9198 149.182 38.0687C149.308 38.2176 149.462 38.3362 149.633 38.417C150.101 38.6331 150.433 38.1707 150.405 37.6391C150.377 37.1076 150.081 36.468 149.565 36.4766C149.448 36.4827 149.335 36.5181 149.234 36.5801C149.132 36.6421 149.046 36.729 148.981 36.8337C148.917 36.9383 148.876 37.0579 148.862 37.1828C148.848 37.3077 148.861 37.4344 148.901 37.5527Z" fill="#FFC3BD"/>
<path opacity="0.2" d="M148.901 37.5527C148.96 37.744 149.056 37.9198 149.182 38.0687C149.308 38.2176 149.462 38.3362 149.633 38.417C150.101 38.6331 150.433 38.1707 150.405 37.6391C150.377 37.1076 150.081 36.468 149.565 36.4766C149.448 36.4827 149.335 36.5181 149.234 36.5801C149.132 36.6421 149.046 36.729 148.981 36.8337C148.917 36.9383 148.876 37.0579 148.862 37.1828C148.848 37.3077 148.861 37.4344 148.901 37.5527Z" fill="black"/>
<path d="M150.99 34.0215C150.838 33.0233 149.474 34.7778 149.766 35.7026C150.058 36.6274 151.158 35.1451 150.99 34.0215Z" fill="#263238"/>
<path d="M153.912 36.5544C153.412 38.2268 153.196 39.225 152.216 39.9424C151.92 40.1874 151.565 40.3352 151.193 40.3683C150.821 40.4013 150.448 40.3182 150.118 40.1288C149.789 39.9394 149.516 39.6517 149.334 39.3C149.151 38.9482 149.066 38.5472 149.088 38.1447C149.128 36.563 149.94 34.0955 151.596 33.7065C153.252 33.3176 154.4 34.882 153.912 36.5544Z" fill="#FFC3BD"/>
<path d="M153.455 35.5657C151.767 35.3064 149.343 34.9693 150.223 33.4784C151.059 32.0567 154.395 32.3159 153.383 32.9469C154.691 33.029 156.355 33.7075 155.099 34.1742C156.111 34.952 155.711 37.035 153.779 37.761C153.223 36.8881 152.799 36.5034 153.455 35.5657Z" fill="#263238"/>
<path d="M154.151 38.5479C153.865 38.8638 153.482 39.0546 153.075 39.0838C152.547 39.114 152.447 38.5695 152.731 38.0985C153.015 37.6275 153.567 37.1478 154.031 37.3422C154.495 37.5367 154.507 38.1503 154.151 38.5479Z" fill="#FFC3BD"/>
<path d="M151.484 36.5901C151.452 36.7283 151.36 36.8234 151.276 36.8104C151.192 36.7975 151.156 36.6722 151.192 36.5339C151.228 36.3956 151.316 36.2962 151.396 36.3135C151.476 36.3308 151.52 36.4518 151.484 36.5901Z" fill="#263238"/>
<path d="M150.08 36.3217C150.048 36.46 149.956 36.5594 149.876 36.5421C149.796 36.5248 149.756 36.4038 149.788 36.2655C149.82 36.1272 149.912 36.0322 149.996 36.0451C150.08 36.0581 150.116 36.1834 150.08 36.3217Z" fill="#263238"/>
<path d="M150.512 36.4766C150.261 36.869 149.965 37.2262 149.632 37.5396C149.703 37.6228 149.791 37.6872 149.889 37.7277C149.986 37.7682 150.092 37.7837 150.196 37.773L150.512 36.4766Z" fill="#ED847E"/>
<path d="M150.469 38.2218C150.464 38.2208 150.459 38.2188 150.455 38.2158C150.451 38.2128 150.448 38.209 150.445 38.2045C150.442 38.2001 150.441 38.1951 150.44 38.1899C150.439 38.1847 150.439 38.1794 150.441 38.1743C150.444 38.1637 150.451 38.1546 150.459 38.1483C150.468 38.1421 150.478 38.1391 150.489 38.1397C150.648 38.1701 150.813 38.1614 150.969 38.1143C151.126 38.0672 151.27 37.9829 151.393 37.8675C151.396 37.8637 151.4 37.8607 151.404 37.8586C151.409 37.8565 151.414 37.8555 151.419 37.8555C151.423 37.8555 151.428 37.8565 151.433 37.8586C151.437 37.8607 151.441 37.8637 151.445 37.8675C151.452 37.8755 151.456 37.8864 151.456 37.8977C151.456 37.909 151.452 37.9199 151.445 37.928C151.313 38.0541 151.157 38.1461 150.988 38.197C150.819 38.248 150.641 38.2564 150.469 38.2218Z" fill="#263238"/>
<path d="M152.029 36.1665C152.018 36.1647 152.007 36.1598 151.999 36.1522C151.991 36.1445 151.984 36.1345 151.981 36.1233C151.948 36.0317 151.894 35.9508 151.824 35.888C151.754 35.8253 151.67 35.7828 151.581 35.7646C151.571 35.7643 151.562 35.7616 151.553 35.7568C151.545 35.752 151.537 35.7453 151.531 35.737C151.526 35.7287 151.522 35.7191 151.52 35.7089C151.518 35.6987 151.518 35.6882 151.521 35.6782C151.524 35.6564 151.536 35.637 151.552 35.6234C151.568 35.6099 151.588 35.6032 151.609 35.6047C151.722 35.6226 151.829 35.6718 151.919 35.7475C152.01 35.8232 152.08 35.9229 152.125 36.0368C152.131 36.0575 152.13 36.0802 152.122 36.1002C152.114 36.1203 152.099 36.1362 152.081 36.1449C152.074 36.1522 152.066 36.158 152.057 36.1617C152.048 36.1654 152.038 36.167 152.029 36.1665Z" fill="#263238"/>
<path d="M149.599 35.6517C149.59 35.6554 149.58 35.6554 149.571 35.6517C149.564 35.6445 149.558 35.6358 149.555 35.6261C149.551 35.6164 149.549 35.6061 149.549 35.5956C149.549 35.5851 149.551 35.5747 149.555 35.565C149.558 35.5554 149.564 35.5466 149.571 35.5394C149.651 35.4376 149.751 35.3564 149.864 35.3018C149.977 35.2472 150.099 35.2206 150.223 35.2239C150.233 35.2255 150.242 35.2291 150.25 35.2345C150.258 35.24 150.265 35.2471 150.271 35.2556C150.276 35.2641 150.28 35.2736 150.282 35.2838C150.285 35.2939 150.285 35.3044 150.283 35.3147C150.279 35.3372 150.267 35.3573 150.25 35.3709C150.233 35.3846 150.212 35.3907 150.191 35.3881C150.094 35.3868 149.997 35.4091 149.908 35.4532C149.82 35.4973 149.741 35.5622 149.679 35.6431C149.668 35.653 149.654 35.6591 149.64 35.6606C149.626 35.6621 149.612 35.6591 149.599 35.6517Z" fill="#263238"/>
<path d="M156.655 44.4717L154.539 45.686C154.539 45.686 156.583 51.1311 156.235 51.9478C155.759 53.0628 154.971 55.513 154.195 56.7274C154.287 57.1321 154.482 57.5006 154.759 57.7904C156.455 56.6841 158.539 52.9461 158.631 51.8657C158.839 49.3982 156.655 44.4717 156.655 44.4717Z" fill="#FFC3BD"/>
<path d="M155.969 42.1608C157.449 42.4417 158.537 48.1374 158.537 48.1374L154.889 49.2653C154.37 47.9555 153.941 46.6065 153.605 45.2291C153.121 43.1202 154.401 41.854 155.969 42.1608Z" fill="#263238"/>
</g>
<path d="M155.552 115.123C160.648 109.803 161.051 101.321 156.452 96.1795C151.852 91.0376 143.993 91.1825 138.896 96.503C133.8 101.824 133.397 110.305 137.997 115.447C142.596 120.589 150.456 120.444 155.552 115.123Z" fill="#407BFF"/>
<path d="M155.11 114.628C159.938 109.588 160.32 101.554 155.963 96.683C151.606 91.8123 144.161 91.9498 139.333 96.99C134.505 102.03 134.124 110.065 138.48 114.935C142.837 119.806 150.283 119.669 155.11 114.628Z" fill="white"/>
<mask id="mask1_3836_30280" style="mask-type:luminance" maskUnits="userSpaceOnUse" x="135" y="93" width="24" height="26">
<path d="M155.113 114.629C159.941 109.589 160.323 101.555 155.966 96.684C151.609 91.8133 144.164 91.9507 139.336 96.991C134.508 102.031 134.127 110.066 138.483 114.936C142.84 119.807 150.286 119.67 155.113 114.629Z" fill="white"/>
</mask>
<g mask="url(#mask1_3836_30280)">
<path d="M143.136 110.347L140.964 109.582C140.964 109.582 138.6 115.2 137.828 115.537C136.772 115.969 134.628 117.183 133.304 117.473C133.089 117.841 132.966 118.262 132.944 118.696C134.776 119.206 138.628 118.082 139.416 117.352C141.2 115.693 143.136 110.347 143.136 110.347Z" fill="#FFB573"/>
<path d="M145.029 106.921C145.381 108.494 142.165 112.949 142.165 112.949L139.561 111.169C139.99 109.656 140.651 108.231 141.517 106.955C142.589 105.516 144.641 105.196 145.029 106.921Z" fill="#407BFF"/>
<path opacity="0.3" d="M145.029 106.921C145.381 108.494 142.165 112.949 142.165 112.949L139.561 111.169C139.99 109.656 140.651 108.231 141.517 106.955C142.589 105.516 144.641 105.196 145.029 106.921Z" fill="black"/>
<path opacity="0.2" d="M142.997 108.879C143.241 109.968 143.021 111.709 142.377 113.2C141.805 112.263 141.137 110.028 142.997 108.879Z" fill="black"/>
<path d="M142.96 106.744C142.504 108.546 141.612 113.278 142.34 120.707H150.156C150.336 119.294 150.104 112.392 151.94 105.733C151.01 105.534 150.067 105.404 149.12 105.344C147.913 105.268 146.703 105.268 145.496 105.344C144.981 105.396 144.471 105.497 143.972 105.646C143.73 105.719 143.51 105.859 143.333 106.051C143.155 106.244 143.027 106.482 142.96 106.744Z" fill="#407BFF"/>
<path opacity="0.3" d="M142.96 106.744C142.504 108.546 141.612 113.278 142.34 120.707H150.156C150.336 119.294 150.104 112.392 151.94 105.733C151.01 105.534 150.067 105.404 149.12 105.344C147.913 105.268 146.703 105.268 145.496 105.344C144.981 105.396 144.471 105.497 143.972 105.646C143.73 105.719 143.51 105.859 143.333 106.051C143.155 106.244 143.027 106.482 142.96 106.744Z" fill="black"/>
<path opacity="0.2" d="M149.977 108.769C149.741 109.867 149.533 112.473 150.513 114.106C150.724 111.494 151.145 108.905 151.769 106.371C151.201 106.31 150.201 107.741 149.977 108.769Z" fill="black"/>
<g opacity="0.95">
<path d="M146.277 108.716L145.849 108.919L145.521 108.599C145.104 108.226 144.801 107.726 144.652 107.163C144.503 106.601 144.514 106.004 144.685 105.449C144.949 105.392 145.216 105.35 145.485 105.323C146.692 105.248 147.902 105.248 149.109 105.323C149.389 105.323 149.669 105.362 149.941 105.392L149.669 105.768C148.751 107.007 147.593 108.013 146.277 108.716Z" fill="white"/>
</g>
<path d="M148.966 101.656C148.626 102.918 148.378 104.478 149.122 105.321C148.281 106.446 147.225 107.361 146.026 108.004C145.659 107.696 145.405 107.258 145.309 106.767C145.212 106.276 145.279 105.764 145.498 105.321C146.83 104.984 146.91 103.247 146.766 102.27L148.966 101.656Z" fill="#FFB573"/>
<path opacity="0.2" d="M146.765 102.27C146.88 102.964 146.815 103.679 146.577 104.336C146.784 104.303 146.986 104.239 147.177 104.145C147.941 103.769 148.353 103.182 148.805 102.313C148.853 102.088 148.905 101.881 148.965 101.656L146.765 102.27Z" fill="black"/>
<path d="M144.871 101.126C144.931 101.318 145.027 101.494 145.154 101.643C145.281 101.792 145.435 101.91 145.607 101.99C146.075 102.206 146.407 101.744 146.375 101.212C146.343 100.681 146.051 100.041 145.539 100.05C145.423 100.055 145.309 100.09 145.207 100.152C145.105 100.214 145.018 100.3 144.953 100.405C144.888 100.51 144.847 100.63 144.833 100.755C144.818 100.88 144.832 101.007 144.871 101.126Z" fill="#FFB573"/>
<path opacity="0.2" d="M144.871 101.126C144.931 101.318 145.027 101.494 145.154 101.643C145.281 101.792 145.435 101.91 145.607 101.99C146.075 102.206 146.407 101.744 146.375 101.212C146.343 100.681 146.051 100.041 145.539 100.05C145.423 100.055 145.309 100.09 145.207 100.152C145.105 100.214 145.018 100.3 144.953 100.405C144.888 100.51 144.847 100.63 144.833 100.755C144.818 100.88 144.832 101.007 144.871 101.126Z" fill="black"/>
<path d="M146.725 98.1467C146.573 97.0188 145.413 98.3109 145.281 99.1363C145.149 99.9617 145.789 100.796 146.225 100.001C146.661 99.2055 146.801 98.756 146.725 98.1467Z" fill="#263238"/>
<path d="M149.885 100.105C149.385 101.778 149.169 102.772 148.189 103.493C147.893 103.738 147.537 103.886 147.165 103.919C146.793 103.952 146.42 103.869 146.091 103.68C145.761 103.49 145.489 103.203 145.306 102.851C145.124 102.499 145.039 102.098 145.061 101.695C145.101 100.114 145.913 97.6462 147.569 97.2573C149.225 96.8684 150.401 98.4328 149.885 100.105Z" fill="#FFB573"/>
<path d="M149.129 101.855C148.529 101.423 148.421 101.259 148.729 100.87C149.249 100.239 148.477 100.148 148.885 99.366C149.453 98.277 147.641 99.0419 147.609 98.251C147.581 97.6071 146.009 98.7653 145.845 98.022C145.609 96.9071 147.121 97.1145 147.385 96.57C147.649 96.0255 149.201 95.9434 149.449 96.7385C149.697 97.5337 150.477 96.8984 150.985 97.8664C151.493 98.8344 150.441 98.9079 150.949 99.85C151.349 100.606 150.577 101.146 150.029 101.747C149.701 102.136 149.501 102.127 149.129 101.855Z" fill="#263238"/>
<path d="M150.225 101.869C149.966 102.212 149.598 102.439 149.193 102.504C148.665 102.582 148.521 102.072 148.769 101.558C149.017 101.044 149.529 100.538 150.009 100.694C150.489 100.849 150.549 101.441 150.225 101.869Z" fill="#FFB573"/>
<path d="M147.458 100.141C147.426 100.279 147.334 100.374 147.254 100.361C147.174 100.348 147.134 100.223 147.166 100.085C147.198 99.9464 147.29 99.847 147.374 99.8643C147.458 99.8815 147.494 100.003 147.458 100.141Z" fill="#263238"/>
<path d="M146.058 99.8715C146.022 100.01 145.93 100.109 145.85 100.092C145.77 100.075 145.73 99.9536 145.762 99.8153C145.794 99.677 145.89 99.582 145.97 99.5949C146.05 99.6079 146.09 99.7332 146.058 99.8715Z" fill="#263238"/>
<path d="M146.484 100.027C146.235 100.42 145.941 100.777 145.608 101.09C145.679 101.174 145.767 101.238 145.865 101.278C145.963 101.319 146.068 101.334 146.172 101.324L146.484 100.027Z" fill="#ED893E"/>
<path d="M146.442 101.774C146.437 101.773 146.432 101.771 146.428 101.768C146.424 101.765 146.421 101.761 146.419 101.757C146.417 101.752 146.415 101.747 146.415 101.742C146.415 101.737 146.416 101.731 146.418 101.727C146.42 101.716 146.425 101.706 146.433 101.7C146.441 101.694 146.452 101.691 146.462 101.692C146.621 101.722 146.786 101.714 146.942 101.667C147.099 101.62 147.243 101.535 147.366 101.42C147.369 101.416 147.373 101.413 147.377 101.411C147.382 101.409 147.387 101.408 147.392 101.408C147.396 101.408 147.401 101.409 147.406 101.411C147.41 101.413 147.414 101.416 147.418 101.42C147.421 101.424 147.424 101.428 147.426 101.433C147.427 101.438 147.428 101.443 147.428 101.448C147.428 101.453 147.427 101.458 147.426 101.463C147.424 101.468 147.421 101.472 147.418 101.476C147.287 101.603 147.131 101.696 146.962 101.747C146.792 101.799 146.615 101.808 146.442 101.774Z" fill="#263238"/>
<path d="M148.001 99.7173C147.99 99.7155 147.98 99.7106 147.972 99.7029C147.963 99.6953 147.957 99.6853 147.953 99.674C147.92 99.5825 147.866 99.5016 147.796 99.4388C147.726 99.3761 147.643 99.3336 147.553 99.3154C147.544 99.3143 147.535 99.3112 147.527 99.3062C147.519 99.3012 147.511 99.2945 147.506 99.2863C147.5 99.2782 147.496 99.2689 147.494 99.259C147.492 99.2492 147.492 99.2389 147.493 99.2289C147.497 99.2072 147.508 99.1877 147.524 99.1742C147.541 99.1607 147.561 99.154 147.581 99.1555C147.695 99.1734 147.801 99.2226 147.892 99.2983C147.982 99.374 148.053 99.4737 148.097 99.5876C148.104 99.6083 148.103 99.631 148.095 99.651C148.087 99.6711 148.072 99.687 148.053 99.6957C148.047 99.703 148.038 99.7087 148.029 99.7125C148.02 99.7162 148.011 99.7178 148.001 99.7173Z" fill="#263238"/>
<path d="M145.556 99.2018C145.547 99.2046 145.537 99.2046 145.528 99.2018C145.521 99.1946 145.515 99.1859 145.512 99.1762C145.508 99.1666 145.506 99.1562 145.506 99.1457C145.506 99.1352 145.508 99.1248 145.512 99.1151C145.515 99.1055 145.521 99.0968 145.528 99.0895C145.606 98.9865 145.705 98.9045 145.818 98.8498C145.93 98.795 146.053 98.7691 146.176 98.774C146.186 98.7756 146.195 98.7792 146.203 98.7846C146.211 98.7901 146.218 98.7973 146.224 98.8057C146.229 98.8142 146.233 98.8238 146.235 98.8339C146.238 98.844 146.238 98.8545 146.236 98.8648C146.232 98.8865 146.221 98.906 146.205 98.9195C146.189 98.933 146.168 98.9397 146.148 98.9382C146.05 98.9363 145.954 98.9583 145.865 99.0024C145.776 99.0466 145.698 99.1118 145.636 99.1932C145.625 99.2022 145.611 99.2077 145.597 99.2092C145.583 99.2107 145.569 99.2082 145.556 99.2018Z" fill="#263238"/>
<path d="M152.801 108.218L150.577 109.134C150.577 109.134 151.933 114.869 151.493 115.638C150.893 116.688 149.825 119.03 148.917 120.136C148.957 120.553 149.105 120.948 149.345 121.277C151.141 120.413 153.641 116.956 153.861 115.888C154.353 113.447 152.801 108.218 152.801 108.218Z" fill="#FFB573"/>
<path d="M152.401 105.805C153.821 106.294 154.209 112.141 154.209 112.141L150.489 112.763C150.136 111.381 149.877 109.972 149.713 108.549C149.481 106.371 150.873 105.282 152.401 105.805Z" fill="#407BFF"/>
<path opacity="0.3" d="M152.401 105.805C153.821 106.294 154.209 112.141 154.209 112.141L150.489 112.763C150.136 111.381 149.877 109.972 149.713 108.549C149.481 106.371 150.873 105.282 152.401 105.805Z" fill="black"/>
</g>
<path d="M120.576 83.3491C125.673 78.0285 126.075 69.547 121.476 64.4051C116.877 59.2632 109.017 59.408 103.921 64.7286C98.8246 70.0491 98.4218 78.5306 103.021 83.6725C107.62 88.8144 115.48 88.6696 120.576 83.3491Z" fill="#407BFF"/>
<path d="M120.138 82.859C124.965 77.8187 125.347 69.7842 120.99 64.9135C116.634 60.0428 109.188 60.1802 104.36 65.2205C99.5328 70.2607 99.151 78.2952 103.508 83.1659C107.865 88.0367 115.31 87.8992 120.138 82.859Z" fill="white"/>
<mask id="mask2_3836_30280" style="mask-type:luminance" maskUnits="userSpaceOnUse" x="100" y="61" width="25" height="26">
<path d="M120.137 82.856C124.964 77.8158 125.346 69.7813 120.989 64.9106C116.633 60.0399 109.187 60.1773 104.36 65.2175C99.5318 70.2578 99.15 78.2923 103.507 83.163C107.864 88.0337 115.309 87.8963 120.137 82.856Z" fill="white"/>
</mask>
<g mask="url(#mask2_3836_30280)">
<path d="M117.167 77.0293C117.227 78.0578 117.275 79.095 117.311 80.1278L117.427 83.2133L117.447 83.5893L117.475 83.9177C117.507 84.1424 117.531 84.3758 117.575 84.6178C117.659 85.0932 117.767 85.5772 117.895 86.0612C118.135 87.0335 118.427 88.0145 118.695 88.9825L117.867 89.4146C117.366 88.499 116.924 87.5475 116.543 86.5668C116.359 86.0698 116.187 85.5642 116.039 85.0327C115.96 84.763 115.894 84.4889 115.843 84.2116L115.775 83.7794L115.735 83.3819C115.523 81.2903 115.383 79.2289 115.307 77.1503L117.167 77.0293Z" fill="#FF8B7B"/>
<path d="M116.725 74.7617C117.453 74.9649 117.765 78.2751 117.765 78.2751L114.801 80.3797C114.801 80.3797 113.877 76.4601 114.505 75.5785C115.133 74.6969 115.657 74.4679 116.725 74.7617Z" fill="#407BFF"/>
<path opacity="0.2" d="M116.611 75.5029L116.971 78.8348L115.767 79.6818L116.611 75.5029Z" fill="black"/>
<path d="M108.602 66.2391C107.35 66.4335 104.73 72.8984 109.002 75.9148C113.274 78.9312 116.426 75.5043 116.426 75.5043C116.426 75.5043 113.826 72.1681 114.202 69.9901C114.578 67.8121 116.202 65.0679 112.874 64.1518C110.53 63.5252 107.378 64.1302 108.602 66.2391Z" fill="#263238"/>
<path d="M116.726 74.7606C116.726 74.7606 117.562 75.089 115.126 86.5323H107.786C108.114 83.3085 108.242 81.3206 107.234 74.7044C108.271 74.4794 109.322 74.335 110.378 74.2723C111.486 74.1879 112.598 74.1879 113.706 74.2723C115.126 74.4062 116.726 74.7606 116.726 74.7606Z" fill="#407BFF"/>
<path opacity="0.2" d="M107.674 77.3271C108.326 77.5043 108.874 78.2865 108.726 79.7299C108.638 80.3945 108.387 81.0214 107.998 81.5449C107.954 80.4343 107.838 79.1465 107.63 77.5L107.674 77.3271Z" fill="black"/>
<path d="M113.157 76.7994C113.157 76.7994 111.889 77.8711 111.817 79.0077C110.869 78.2168 109.657 76.0648 109.605 74.6862C109.605 74.5716 109.648 74.4617 109.723 74.3806C109.798 74.2996 109.899 74.2541 110.005 74.2541C110.095 74.2467 110.185 74.2338 110.273 74.2152C110.31 74.2064 110.349 74.207 110.385 74.2167C110.422 74.2264 110.456 74.2451 110.485 74.2713L113.157 76.7994Z" fill="#FAFAFA"/>
<path d="M113.158 76.8C113.495 77.0271 113.777 77.3384 113.98 77.7077C114.182 78.0769 114.3 78.4933 114.322 78.9219C115.386 78.1224 115.022 75.7326 114.53 74.5615C114.492 74.4704 114.433 74.3917 114.357 74.3333C114.282 74.2749 114.194 74.2389 114.102 74.2288C113.958 74.2288 113.846 74.1899 113.77 74.1726C113.743 74.1675 113.714 74.1741 113.691 74.191C113.668 74.2079 113.652 74.2338 113.646 74.2633L113.158 76.8Z" fill="#FAFAFA"/>
<path d="M110.962 70.2139C111.098 71.372 111.174 73.4939 110.378 74.2631C111.124 75.3155 112.073 76.1808 113.158 76.7998C114.726 75.5033 113.706 74.2631 113.706 74.2631C112.53 73.9563 112.622 73.0012 112.886 72.1024L110.962 70.2139Z" fill="#FF8B7B"/>
<path opacity="0.2" d="M111.746 70.9844L112.886 72.0993C112.821 72.3076 112.773 72.5216 112.742 72.7389C112.29 72.6654 111.602 72.2462 111.542 71.7104C111.556 71.4545 111.626 71.2058 111.746 70.9844Z" fill="black"/>
<path d="M109.285 68.3565C109.661 70.219 109.785 71.0142 110.817 71.7704C111.163 72.0352 111.568 72.1963 111.99 72.2374C112.412 72.2786 112.836 72.1983 113.22 72.0047C113.604 71.8111 113.934 71.5111 114.176 71.1352C114.418 70.7593 114.563 70.321 114.597 69.8647C114.737 68.0799 114.097 65.3358 112.257 64.9987C111.84 64.9283 111.413 64.968 111.013 65.1144C110.613 65.2607 110.252 65.5094 109.96 65.8392C109.668 66.1689 109.454 66.5701 109.337 67.0084C109.219 67.4467 109.202 67.9092 109.285 68.3565Z" fill="#FF8B7B"/>
<path d="M109.777 70.0329C110.885 68.892 110.925 67.4789 110.645 67.0381C111.597 66.9517 114.061 66.3034 113.665 65.3095C113.269 64.3156 109.433 63.7797 108.905 66.3207C107.633 67.4702 108.445 69.7736 109.777 70.0329Z" fill="#263238"/>
<path d="M112.184 68.1874C112.208 68.3429 112.3 68.4467 112.396 68.425C112.492 68.4034 112.548 68.2608 112.524 68.1096C112.5 67.9583 112.408 67.846 112.316 67.8719C112.224 67.8978 112.164 68.0361 112.184 68.1874Z" fill="#263238"/>
<path d="M113.814 67.8031C113.834 67.9587 113.93 68.0624 114.022 68.0408C114.114 68.0192 114.178 67.8766 114.154 67.721C114.13 67.5654 114.038 67.4617 113.946 67.4833C113.892 67.5106 113.849 67.558 113.825 67.6167C113.801 67.6754 113.797 67.7416 113.814 67.8031Z" fill="#263238"/>
<path d="M113.902 67.5056L114.234 67.3154C114.234 67.3154 114.098 67.6439 113.902 67.5056Z" fill="#263238"/>
<path d="M113.352 68.2002C113.529 68.5206 113.749 68.8117 114.004 69.0645C113.939 69.1376 113.862 69.1953 113.776 69.234C113.689 69.2727 113.597 69.2915 113.504 69.2892L113.352 68.2002Z" fill="#FF5652"/>
<path d="M112.802 70.0665C112.875 70.0622 112.947 70.0521 113.018 70.0362C113.029 70.0332 113.039 70.0258 113.046 70.0154C113.053 70.0051 113.055 69.9925 113.054 69.98C113.054 69.974 113.052 69.9681 113.049 69.9629C113.047 69.9576 113.043 69.9531 113.038 69.9498C113.034 69.9464 113.028 69.9443 113.023 69.9435C113.017 69.9428 113.011 69.9434 113.006 69.9455C112.833 69.9941 112.651 69.9963 112.477 69.9519C112.303 69.9074 112.141 69.8177 112.006 69.6905C111.998 69.6823 111.987 69.6777 111.976 69.6777C111.965 69.6777 111.954 69.6823 111.946 69.6905C111.942 69.6946 111.938 69.6995 111.936 69.7051C111.934 69.7107 111.933 69.7168 111.933 69.7229C111.933 69.729 111.934 69.7351 111.936 69.7407C111.938 69.7463 111.942 69.7513 111.946 69.7553C112.061 69.8692 112.196 69.9558 112.343 70.0094C112.491 70.063 112.647 70.0825 112.802 70.0665Z" fill="#263238"/>
<path d="M109.054 70.2148C109.142 70.3682 109.258 70.5001 109.396 70.602C109.534 70.704 109.69 70.7737 109.854 70.8069C110.302 70.8976 110.514 70.4482 110.382 70.0117C110.25 69.5752 109.886 69.0999 109.442 69.2079C109.345 69.2309 109.255 69.2787 109.179 69.3473C109.103 69.4159 109.043 69.5034 109.005 69.6022C108.967 69.701 108.952 69.8083 108.96 69.915C108.969 70.0216 109.001 70.1245 109.054 70.2148Z" fill="#FF8B7B"/>
<path d="M111.417 67.8459C111.435 67.8437 111.452 67.8354 111.466 67.8223C111.48 67.8091 111.489 67.7917 111.493 67.7724C111.598 67.4803 111.805 67.2443 112.069 67.1156C112.08 67.1108 112.09 67.1038 112.098 67.0949C112.106 67.086 112.113 67.0755 112.117 67.0638C112.122 67.0521 112.124 67.0396 112.124 67.027C112.124 67.0144 112.122 67.0019 112.117 66.9903C112.113 66.9796 112.107 66.97 112.099 66.9621C112.091 66.9541 112.082 66.9479 112.072 66.9439C112.062 66.9398 112.051 66.938 112.04 66.9386C112.029 66.9391 112.019 66.942 112.009 66.947C111.852 67.0228 111.71 67.1318 111.593 67.2677C111.476 67.4035 111.384 67.5634 111.325 67.7379C111.322 67.7495 111.321 67.7617 111.323 67.7737C111.325 67.7856 111.329 67.7971 111.335 67.8072C111.341 67.8174 111.349 67.8261 111.358 67.8328C111.368 67.8394 111.378 67.8439 111.389 67.8459C111.393 67.8482 111.398 67.8494 111.403 67.8494C111.408 67.8494 111.413 67.8482 111.417 67.8459Z" fill="#263238"/>
<path d="M114.21 66.576C114.225 66.576 114.24 66.5721 114.253 66.5646C114.266 66.557 114.278 66.5461 114.286 66.5328C114.301 66.5152 114.31 66.492 114.31 66.468C114.31 66.4439 114.301 66.4208 114.286 66.4032C114.175 66.3206 114.048 66.2677 113.914 66.2489C113.781 66.2301 113.645 66.2459 113.518 66.2951C113.497 66.3047 113.48 66.3224 113.47 66.3448C113.461 66.3672 113.459 66.3926 113.466 66.4161C113.47 66.4277 113.476 66.4382 113.484 66.4472C113.492 66.4561 113.501 66.4632 113.512 66.468C113.522 66.4729 113.533 66.4754 113.545 66.4754C113.556 66.4754 113.568 66.4728 113.578 66.468C113.678 66.4284 113.785 66.416 113.891 66.4318C113.996 66.4476 114.096 66.4912 114.182 66.5587L114.21 66.576Z" fill="#263238"/>
<path d="M112.273 67.8903L112.605 67.7002C112.605 67.7002 112.465 68.0329 112.273 67.8903Z" fill="#263238"/>
<path d="M107.706 86.0708L107.474 86.7795C107.442 86.8357 107.502 86.8919 107.586 86.8919H115.13C115.198 86.8919 115.254 86.8573 115.262 86.8098L115.37 86.101C115.37 86.0535 115.326 86.0103 115.25 86.0103H107.83C107.806 86.0082 107.782 86.0126 107.76 86.0232C107.739 86.0338 107.72 86.0501 107.706 86.0708Z" fill="#407BFF"/>
<path opacity="0.2" d="M107.706 86.0708L107.474 86.7795C107.442 86.8357 107.502 86.8919 107.586 86.8919H115.13C115.198 86.8919 115.254 86.8573 115.262 86.8098L115.37 86.101C115.37 86.0535 115.326 86.0103 115.25 86.0103H107.83C107.806 86.0082 107.782 86.0126 107.76 86.0232C107.739 86.0338 107.72 86.0501 107.706 86.0708Z" fill="white"/>
<path d="M108.669 86.9648H108.469C108.429 86.9648 108.401 86.9432 108.405 86.9172L108.557 85.9968C108.557 85.9708 108.597 85.9492 108.637 85.9492H108.837C108.877 85.9492 108.905 85.9708 108.901 85.9968L108.749 86.9172C108.745 86.9432 108.709 86.9648 108.669 86.9648Z" fill="#407BFF"/>
<path opacity="0.4" d="M108.669 86.9648H108.469C108.429 86.9648 108.401 86.9432 108.405 86.9172L108.557 85.9968C108.557 85.9708 108.597 85.9492 108.637 85.9492H108.837C108.877 85.9492 108.905 85.9708 108.901 85.9968L108.749 86.9172C108.745 86.9432 108.709 86.9648 108.669 86.9648Z" fill="black"/>
<path d="M114.565 86.9648H114.365C114.325 86.9648 114.297 86.9432 114.301 86.9172L114.453 85.9968C114.453 85.9708 114.493 85.9492 114.533 85.9492H114.733C114.773 85.9492 114.801 85.9708 114.797 85.9968L114.645 86.9172C114.641 86.9432 114.605 86.9648 114.565 86.9648Z" fill="#407BFF"/>
<path opacity="0.4" d="M114.565 86.9648H114.365C114.325 86.9648 114.297 86.9432 114.301 86.9172L114.453 85.9968C114.453 85.9708 114.493 85.9492 114.533 85.9492H114.733C114.773 85.9492 114.801 85.9708 114.797 85.9968L114.645 86.9172C114.641 86.9432 114.605 86.9648 114.565 86.9648Z" fill="black"/>
<path d="M111.63 86.9648H111.43C111.39 86.9648 111.362 86.9432 111.366 86.9172L111.518 85.9968C111.518 85.9708 111.558 85.9492 111.598 85.9492H111.798C111.838 85.9492 111.866 85.9708 111.862 85.9968L111.71 86.9172C111.706 86.9432 111.67 86.9648 111.63 86.9648Z" fill="#407BFF"/>
<path opacity="0.4" d="M111.63 86.9648H111.43C111.39 86.9648 111.362 86.9432 111.366 86.9172L111.518 85.9968C111.518 85.9708 111.558 85.9492 111.598 85.9492H111.798C111.838 85.9492 111.866 85.9708 111.862 85.9968L111.71 86.9172C111.706 86.9432 111.67 86.9648 111.63 86.9648Z" fill="black"/>
<path d="M108.05 77.3542C107.842 78.6507 107.606 79.986 107.366 81.2997C107.25 81.9566 107.118 82.5962 106.99 83.266L106.802 84.247L106.718 84.6791C106.708 84.7099 106.708 84.7434 106.718 84.7742C106.783 84.9563 106.887 85.1192 107.022 85.2496C107.208 85.4456 107.411 85.6208 107.63 85.7725C108.12 86.1099 108.632 86.4089 109.162 86.667C109.702 86.9393 110.262 87.1899 110.83 87.4189C111.398 87.648 111.978 87.8511 112.55 88.0758L112.342 89.0395C111.087 88.8173 109.851 88.479 108.65 88.0283C108.026 87.7973 107.423 87.5081 106.846 87.164C106.533 86.9754 106.237 86.7555 105.962 86.5071C105.611 86.2085 105.336 85.819 105.162 85.3749C105.064 85.0996 105.026 84.8041 105.05 84.5106C105.07 84.3248 105.078 84.2859 105.09 84.1951L105.126 83.9445L105.266 82.9549C105.366 82.2937 105.454 81.6325 105.562 80.9713C105.766 79.6533 105.962 78.3352 106.214 77.0215L108.05 77.3542Z" fill="#FF8B7B"/>
<path d="M107.234 74.7097C106.486 74.9517 105.43 77.6828 105.43 77.6828L107.83 80.5393C107.83 80.5393 109.334 77.6007 109.094 76.5765C108.854 75.5524 108.09 74.4331 107.234 74.7097Z" fill="#407BFF"/>
</g>
<path opacity="0.3" d="M102.928 40.99H131.6C131.867 40.9855 132.123 40.8736 132.317 40.6762C132.512 40.4788 132.631 40.2101 132.652 39.9226C132.663 39.7859 132.647 39.6484 132.605 39.5188C132.563 39.3893 132.497 39.2706 132.411 39.1704C132.324 39.0702 132.219 38.9908 132.102 38.9372C131.985 38.8837 131.859 38.8572 131.732 38.8595H103.064C102.797 38.8638 102.542 38.975 102.347 39.1714C102.151 39.3678 102.031 39.6355 102.008 39.9226C101.997 40.0595 102.013 40.1972 102.055 40.327C102.097 40.4568 102.163 40.5757 102.249 40.6762C102.336 40.7767 102.441 40.8566 102.558 40.9106C102.675 40.9646 102.801 40.9917 102.928 40.99Z" fill="#407BFF"/>
<path opacity="0.3" d="M110.847 45.6746H131.291C131.558 45.6692 131.814 45.5571 132.009 45.36C132.204 45.1629 132.324 44.8947 132.347 44.6072C132.358 44.4705 132.342 44.333 132.3 44.2034C132.258 44.0738 132.192 43.9551 132.105 43.855C132.019 43.7548 131.914 43.6754 131.797 43.6218C131.68 43.5683 131.554 43.5418 131.427 43.5441H110.983C110.716 43.5484 110.461 43.6595 110.266 43.856C110.07 44.0524 109.95 44.3201 109.927 44.6072C109.916 44.744 109.932 44.8818 109.974 45.0115C110.016 45.1413 110.082 45.2603 110.168 45.3608C110.255 45.4613 110.36 45.5411 110.477 45.5952C110.594 45.6492 110.72 45.6763 110.847 45.6746Z" fill="#407BFF"/>
<path d="M115.623 36.3014H131.887C132.154 36.298 132.41 36.187 132.604 35.9903C132.799 35.7936 132.918 35.5254 132.939 35.2383C132.95 35.1018 132.934 34.9645 132.893 34.835C132.851 34.7055 132.785 34.5867 132.699 34.4863C132.613 34.3859 132.508 34.3059 132.392 34.2516C132.276 34.1973 132.15 34.1699 132.023 34.1709H115.759C115.492 34.1754 115.237 34.2873 115.042 34.4847C114.848 34.6821 114.728 34.9508 114.707 35.2383C114.697 35.3746 114.713 35.5118 114.754 35.6411C114.795 35.7703 114.861 35.8888 114.948 35.9889C115.034 36.089 115.138 36.1685 115.255 36.2223C115.371 36.2762 115.497 36.3031 115.623 36.3014Z" fill="white"/>
<path opacity="0.3" d="M115.658 109.432H127.258C127.385 109.429 127.511 109.456 127.628 109.51C127.744 109.563 127.85 109.642 127.936 109.743C128.023 109.843 128.089 109.962 128.131 110.091C128.172 110.221 128.188 110.358 128.178 110.495C128.157 110.783 128.037 111.052 127.841 111.25C127.646 111.447 127.389 111.559 127.122 111.562H115.522C115.395 111.564 115.269 111.537 115.152 111.483C115.035 111.429 114.93 111.349 114.843 111.248C114.757 111.148 114.69 111.029 114.649 110.899C114.607 110.769 114.591 110.632 114.602 110.495C114.624 110.207 114.744 109.939 114.939 109.743C115.135 109.546 115.391 109.435 115.658 109.432Z" fill="#407BFF"/>
<path opacity="0.3" d="M99.9508 109.432H111.551C111.678 109.429 111.804 109.456 111.921 109.51C112.037 109.563 112.143 109.642 112.229 109.743C112.316 109.843 112.382 109.962 112.424 110.091C112.465 110.221 112.481 110.358 112.471 110.495C112.448 110.782 112.328 111.051 112.133 111.248C111.938 111.445 111.682 111.557 111.415 111.562H99.8148C99.6877 111.564 99.5616 111.537 99.4448 111.483C99.3279 111.429 99.2228 111.349 99.1362 111.248C99.0495 111.148 98.9833 111.029 98.9417 110.899C98.9002 110.769 98.8842 110.632 98.8948 110.495C98.9158 110.207 99.0359 109.938 99.2314 109.741C99.4269 109.545 99.6836 109.434 99.9508 109.432Z" fill="#407BFF"/>
<path opacity="0.3" d="M107.104 104.747H127.548C127.675 104.745 127.801 104.771 127.918 104.825C128.035 104.878 128.14 104.958 128.227 105.058C128.314 105.158 128.38 105.277 128.421 105.407C128.463 105.536 128.479 105.674 128.468 105.81C128.447 106.098 128.328 106.366 128.134 106.564C127.939 106.761 127.683 106.873 127.416 106.878H106.968C106.841 106.879 106.716 106.852 106.599 106.798C106.482 106.744 106.377 106.664 106.291 106.564C106.205 106.463 106.139 106.344 106.098 106.214C106.057 106.085 106.041 105.947 106.052 105.81C106.073 105.523 106.193 105.255 106.387 105.058C106.582 104.862 106.838 104.751 107.104 104.747Z" fill="#407BFF"/>
<path d="M104.399 100.059H127.839C127.966 100.057 128.092 100.084 128.208 100.138C128.325 100.192 128.43 100.272 128.516 100.373C128.602 100.473 128.668 100.592 128.709 100.722C128.75 100.852 128.766 100.989 128.755 101.126C128.734 101.413 128.614 101.681 128.42 101.878C128.225 102.075 127.969 102.186 127.703 102.189H104.275C104.148 102.191 104.022 102.165 103.905 102.111C103.788 102.058 103.683 101.978 103.596 101.878C103.51 101.778 103.443 101.659 103.402 101.53C103.36 101.4 103.344 101.263 103.355 101.126C103.375 100.84 103.494 100.573 103.687 100.375C103.88 100.178 104.133 100.065 104.399 100.059Z" fill="white"/>
<path opacity="0.3" d="M153.12 77.6563H131.76C131.493 77.6608 131.238 77.7727 131.043 77.9701C130.849 78.1675 130.729 78.4363 130.708 78.7237C130.698 78.86 130.714 78.9972 130.755 79.1265C130.796 79.2557 130.862 79.3742 130.948 79.4743C131.035 79.5744 131.139 79.6539 131.256 79.7078C131.372 79.7616 131.498 79.7885 131.624 79.7868H152.984C153.251 79.7834 153.506 79.6724 153.701 79.4757C153.896 79.279 154.015 79.0108 154.036 78.7237C154.047 78.5871 154.032 78.4494 153.991 78.3197C153.95 78.1899 153.884 78.0709 153.798 77.9703C153.711 77.8697 153.606 77.7898 153.49 77.7357C153.373 77.6816 153.247 77.6546 153.12 77.6563Z" fill="#407BFF"/>
<path opacity="0.3" d="M142.136 72.9718H132.056C131.789 72.9762 131.534 73.0881 131.339 73.2856C131.144 73.483 131.025 73.7517 131.004 74.0392C130.994 74.1758 131.01 74.3134 131.051 74.4429C131.093 74.5725 131.159 74.6912 131.246 74.7914C131.332 74.8915 131.438 74.971 131.554 75.0245C131.671 75.0781 131.797 75.1045 131.924 75.1022H142C142.267 75.0979 142.523 74.9868 142.718 74.7904C142.913 74.5939 143.033 74.3262 143.056 74.0392C143.067 73.9023 143.051 73.7646 143.009 73.6348C142.968 73.505 142.901 73.386 142.815 73.2855C142.728 73.185 142.623 73.1052 142.506 73.0511C142.389 72.9971 142.263 72.9701 142.136 72.9718Z" fill="#407BFF"/>
<path d="M148.036 68.2794H132.356C132.089 68.2837 131.834 68.3949 131.639 68.5913C131.443 68.7877 131.323 69.0554 131.3 69.3425C131.289 69.4794 131.305 69.6171 131.347 69.7469C131.389 69.8767 131.455 69.9956 131.541 70.0962C131.628 70.1967 131.733 70.2765 131.85 70.3305C131.967 70.3846 132.093 70.4116 132.22 70.4099H147.904C148.171 70.4064 148.427 70.2948 148.622 70.0972C148.817 69.8996 148.936 69.6304 148.956 69.3425C148.967 69.2059 148.951 69.0683 148.909 68.9387C148.867 68.8092 148.801 68.6905 148.715 68.5903C148.628 68.4901 148.523 68.4107 148.406 68.3572C148.289 68.3036 148.163 68.2771 148.036 68.2794Z" fill="white"/>
<path opacity="0.3" d="M160.718 72.9718H146.398C146.131 72.9771 145.875 73.0892 145.68 73.2863C145.485 73.4835 145.365 73.7517 145.342 74.0392C145.331 74.1758 145.347 74.3134 145.389 74.4429C145.431 74.5725 145.497 74.6912 145.584 74.7914C145.67 74.8915 145.775 74.971 145.892 75.0245C146.009 75.0781 146.135 75.1045 146.262 75.1022H160.582C160.849 75.0979 161.104 74.9868 161.3 74.7904C161.495 74.5939 161.615 74.3262 161.638 74.0392C161.649 73.9023 161.633 73.7646 161.591 73.6348C161.55 73.505 161.483 73.386 161.397 73.2855C161.31 73.185 161.205 73.1052 161.088 73.0511C160.971 72.9971 160.845 72.9701 160.718 72.9718Z" fill="#407BFF"/>
<path opacity="0.3" d="M96.3223 28.7812H107.034L106.466 18.5264L96.3223 28.7812Z" fill="#407BFF"/>
<path d="M96.3223 28.7812L107.79 27.2989L106.466 18.5264L96.3223 28.7812Z" fill="#407BFF"/>
<path d="M53.1132 59.1604C52.7732 60.0247 52.3972 60.984 52.0652 61.9088C51.7332 62.8336 51.3932 63.78 51.0852 64.7178C50.4588 66.5521 49.9444 68.4287 49.5452 70.3357C49.4892 70.5691 49.4612 70.7981 49.4212 71.0271L49.3652 71.3729L49.3212 71.6451C49.2816 72.0296 49.2736 72.4172 49.2972 72.8033C49.3661 73.7476 49.485 74.6869 49.6532 75.6165C49.9972 77.5569 50.4532 79.5664 50.9052 81.5369L48.8732 82.4661C47.8637 80.601 47.0122 78.6411 46.3292 76.6105C45.9639 75.5429 45.6816 74.4443 45.4852 73.3262C45.3681 72.6831 45.3158 72.0281 45.3292 71.3729V71.092C45.3292 71.0012 45.3292 70.945 45.3292 70.8672L45.3692 70.4351C45.3972 70.1542 45.4132 69.8647 45.4572 69.5708C45.7537 67.3915 46.2207 65.2432 46.8532 63.1491C47.1652 62.1163 47.4852 61.0964 47.8572 60.0982C48.2292 59.0999 48.5892 58.1189 49.0572 57.0947L53.1132 59.1604Z" fill="#7F3E3B"/>
<path d="M50.8359 81.002L52.3959 82.6441L48.9919 84.3727C48.9919 84.3727 48.1679 82.817 48.7359 81.4082L50.8359 81.002Z" fill="#7F3E3B"/>
<path d="M53.6522 85.0928L50.7802 86.3634L48.9922 84.3539L52.3962 82.6426L53.6522 85.0928Z" fill="#7F3E3B"/>
<path d="M127.917 75.6388C132.412 63.917 127.259 50.4785 116.409 45.6232C105.56 40.7679 93.1208 46.3343 88.6266 58.0561C84.1325 69.7779 89.2848 83.2163 100.135 88.0716C110.984 92.927 123.423 87.3606 127.917 75.6388Z" fill="#407BFF"/>
<path d="M108.271 88.6108C119.396 88.6108 128.415 78.8672 128.415 66.8479C128.415 54.8285 119.396 45.085 108.271 45.085C97.1457 45.085 88.127 54.8285 88.127 66.8479C88.127 78.8672 97.1457 88.6108 108.271 88.6108Z" fill="white"/>
<mask id="mask3_3836_30280" style="mask-type:luminance" maskUnits="userSpaceOnUse" x="88" y="45" width="41" height="44">
<path d="M108.273 88.6127C119.398 88.6127 128.417 78.8691 128.417 66.8498C128.417 54.8305 119.398 45.0869 108.273 45.0869C97.1477 45.0869 88.1289 54.8305 88.1289 66.8498C88.1289 78.8691 97.1477 88.6127 108.273 88.6127Z" fill="white"/>
</mask>
<g mask="url(#mask3_3836_30280)">
<path d="M117.015 71.8574C117.239 73.6379 117.415 75.427 117.611 77.2117L118.155 82.5401L118.227 83.1797L118.311 83.7544L118.427 84.3508L118.567 84.9601C118.775 85.7769 119.011 86.6066 119.275 87.4363C119.787 89.1001 120.387 90.7682 120.975 92.4276L119.599 93.2314C118.655 91.6955 117.803 90.0962 117.047 88.4432C116.675 87.6048 116.319 86.7535 116.015 85.8503L115.791 85.1675L115.591 84.4545C115.531 84.2082 115.479 83.9532 115.423 83.7026L115.299 83.0111C114.991 81.2048 114.739 79.4243 114.499 77.6352C114.259 75.8461 114.047 74.0571 113.871 72.2593L117.015 71.8574Z" fill="#FF8B7B"/>
<path d="M116.019 68.0936C117.295 68.4436 118.187 74.1177 118.187 74.1177L113.311 77.7002C113.311 77.7002 111.311 70.976 112.283 69.4635C113.307 67.8862 114.159 67.5837 116.019 68.0936Z" fill="#407BFF"/>
<path opacity="0.2" d="M115.908 69.3613L116.888 75.0786L114.912 76.5263L115.908 69.3613Z" fill="black"/>
<path d="M101.165 53.479C99.0452 53.8118 95.2492 64.8964 102.909 70.0692C110.569 75.242 115.601 69.3648 115.601 69.3648C115.601 69.3648 110.781 63.6388 111.201 59.9051C111.621 56.1713 114.097 51.4652 108.289 49.8966C104.173 48.7859 98.8412 49.8577 101.165 53.479Z" fill="#263238"/>
<path d="M116.019 68.0936C116.019 68.0936 117.495 68.6554 114.543 88.2748H101.971C102.183 82.7477 102.187 79.3424 99.7432 67.9985C101.502 67.6039 103.286 67.3497 105.079 67.2379C106.979 67.0887 108.887 67.0887 110.787 67.2379C113.239 67.4799 116.019 68.0936 116.019 68.0936Z" fill="#407BFF"/>
<path opacity="0.2" d="M100.8 72.4902C101.94 72.7971 102.992 74.1367 102.864 76.6086C102.795 77.7321 102.431 78.8111 101.816 79.72C101.616 77.8186 101.276 75.6147 100.744 72.8057L100.8 72.4902Z" fill="black"/>
<path d="M110.128 71.5858C110.128 71.5858 108.068 73.4181 108.068 75.367C106.356 74.0144 104.048 70.3239 103.804 67.9644C103.797 67.8692 103.807 67.7733 103.834 67.6825C103.862 67.5917 103.906 67.5079 103.964 67.436C104.023 67.3642 104.094 67.3058 104.174 67.2644C104.253 67.223 104.34 67.1995 104.428 67.1952C104.582 67.186 104.734 67.1644 104.884 67.1303C104.949 67.1156 105.015 67.1168 105.079 67.1341C105.143 67.1513 105.202 67.184 105.252 67.2297L110.128 71.5858Z" fill="#FAFAFA"/>
<path d="M110.128 71.587C110.728 71.9729 111.24 72.5001 111.626 73.1293C112.012 73.7585 112.261 74.4736 112.356 75.2213C114.088 73.8514 113.204 69.7547 112.24 67.7495C112.164 67.5934 112.054 67.4598 111.92 67.3603C111.785 67.2608 111.63 67.1986 111.468 67.1791C111.212 67.1445 111.02 67.1099 110.892 67.0797C110.869 67.0747 110.845 67.075 110.822 67.0805C110.799 67.086 110.777 67.0966 110.758 67.1116C110.739 67.1266 110.722 67.1457 110.71 67.1677C110.698 67.1897 110.691 67.2142 110.688 67.2396L110.128 71.587Z" fill="#FAFAFA"/>
<path d="M105.648 60.2949C106.008 62.2785 106.368 65.9128 105.08 67.2395C106.475 69.0406 108.192 70.5192 110.128 71.5869C112.676 69.3916 110.788 67.2395 110.788 67.2395C108.74 66.7123 108.788 65.0788 109.152 63.5274L105.648 60.2949Z" fill="#FF8B7B"/>
<path opacity="0.2" d="M107.077 61.6133L109.149 63.5277C109.062 63.8861 109.003 64.2518 108.973 64.621C108.193 64.5 106.973 63.7783 106.793 62.8579C106.791 62.4241 106.889 61.9965 107.077 61.6133Z" fill="black"/>
<path d="M102.568 57.108C103.416 60.2972 103.712 61.6628 105.568 62.9636C108.368 64.9125 111.796 63.0889 111.844 59.6879C111.888 56.6283 110.492 51.9092 107.3 51.3431C106.596 51.2111 105.872 51.2756 105.198 51.5307C104.523 51.7857 103.92 52.2228 103.446 52.8004C102.972 53.378 102.643 54.0769 102.489 54.8308C102.335 55.5847 102.362 56.3686 102.568 57.108Z" fill="#FF8B7B"/>
<path d="M103.599 59.9834C105.379 58.0214 105.291 55.6014 104.763 54.8452C106.387 54.6982 110.543 53.5876 109.755 51.8893C108.967 50.1909 102.335 49.2661 101.703 53.6179C99.6427 55.5841 101.283 59.5383 103.599 59.9834Z" fill="#263238"/>
<path d="M107.517 56.8186C107.573 57.0822 107.745 57.2508 107.917 57.2248C108.089 57.1989 108.161 56.9439 108.109 56.6803C108.057 56.4167 107.881 56.2482 107.709 56.2741C107.537 56.3 107.465 56.555 107.517 56.8186Z" fill="#263238"/>
<path d="M110.272 56.1796C110.328 56.4432 110.5 56.6117 110.672 56.5858C110.844 56.5599 110.916 56.3049 110.86 56.0413C110.804 55.7777 110.632 55.6092 110.46 55.6308C110.288 55.6524 110.22 55.8944 110.272 56.1796Z" fill="#263238"/>
<path d="M110.401 55.6444L110.949 55.3203C110.949 55.3203 110.745 55.8864 110.401 55.6444Z" fill="#263238"/>
<path d="M109.519 56.8359C109.855 57.3825 110.258 57.8768 110.719 58.3052C110.614 58.431 110.486 58.5306 110.342 58.597C110.198 58.6635 110.043 58.6952 109.887 58.6898L109.519 56.8359Z" fill="#FF5652"/>
<path d="M108.8 60.0441C108.924 60.0351 109.047 60.0163 109.168 59.9879C109.187 59.9827 109.203 59.97 109.213 59.9524C109.224 59.9347 109.227 59.9134 109.224 59.8928C109.219 59.8725 109.207 59.8549 109.191 59.8437C109.175 59.8324 109.155 59.8284 109.136 59.8323C108.834 59.9115 108.519 59.9137 108.217 59.8387C107.914 59.7637 107.632 59.6135 107.392 59.4002C107.378 59.3859 107.359 59.3779 107.34 59.3779C107.321 59.3779 107.302 59.3859 107.288 59.4002C107.281 59.4074 107.275 59.4161 107.271 59.4258C107.268 59.4355 107.266 59.4458 107.266 59.4563C107.266 59.4668 107.268 59.4772 107.271 59.4869C107.275 59.4965 107.281 59.5053 107.288 59.5125C107.494 59.7053 107.735 59.8517 107.994 59.9429C108.254 60.0342 108.528 60.0686 108.8 60.0441Z" fill="#263238"/>
<path d="M102.37 60.2896C102.535 60.5524 102.747 60.7774 102.993 60.9517C103.238 61.126 103.514 61.2461 103.802 61.3051C104.578 61.4607 104.894 60.6958 104.602 59.9439C104.354 59.2697 103.654 58.3795 102.906 58.561C102.745 58.6077 102.597 58.6969 102.475 58.8206C102.353 58.9443 102.262 59.0986 102.209 59.2698C102.156 59.441 102.143 59.6237 102.171 59.8017C102.199 59.9796 102.268 60.1472 102.37 60.2896Z" fill="#FF8B7B"/>
<path d="M106.167 56.2403C106.198 56.2363 106.226 56.222 106.248 56.1995C106.271 56.177 106.286 56.1474 106.291 56.115C106.364 55.8682 106.482 55.6402 106.64 55.4454C106.797 55.2505 106.991 55.093 107.207 54.9828C107.225 54.9744 107.241 54.9622 107.255 54.9469C107.268 54.9315 107.279 54.9134 107.285 54.8936C107.292 54.8738 107.295 54.8527 107.294 54.8316C107.293 54.8106 107.288 54.7899 107.279 54.771C107.271 54.752 107.26 54.735 107.245 54.7209C107.231 54.7069 107.214 54.6961 107.196 54.6893C107.178 54.6824 107.158 54.6796 107.139 54.681C107.12 54.6825 107.101 54.6881 107.083 54.6976C106.824 54.8277 106.593 55.0166 106.407 55.2515C106.22 55.4863 106.083 55.7616 106.003 56.0588C106 56.079 106 56.0997 106.004 56.1197C106.008 56.1398 106.016 56.1588 106.026 56.1756C106.037 56.1925 106.051 56.2069 106.067 56.218C106.083 56.2291 106.101 56.2367 106.119 56.2403C106.135 56.2447 106.152 56.2447 106.167 56.2403Z" fill="#263238"/>
<path d="M110.799 54.0488C110.832 54.0528 110.865 54.0445 110.893 54.0252C110.921 54.0059 110.942 53.9768 110.952 53.9427C110.963 53.9087 110.962 53.8719 110.95 53.8384C110.938 53.805 110.916 53.777 110.887 53.7592C110.696 53.615 110.475 53.5229 110.244 53.4905C110.013 53.4581 109.778 53.4866 109.559 53.5734C109.524 53.5905 109.496 53.6217 109.482 53.6604C109.468 53.6992 109.468 53.7424 109.483 53.7808C109.49 53.8 109.501 53.8174 109.515 53.832C109.529 53.8466 109.545 53.858 109.563 53.8657C109.581 53.8734 109.6 53.8771 109.619 53.8766C109.639 53.8761 109.658 53.8715 109.675 53.8629C109.85 53.7971 110.036 53.7773 110.219 53.8051C110.402 53.8329 110.576 53.9076 110.727 54.0228C110.748 54.0397 110.773 54.0488 110.799 54.0488Z" fill="#263238"/>
<path d="M107.64 56.3056L108.188 55.9814C108.188 55.9814 108 56.5476 107.64 56.3056Z" fill="#263238"/>
<path d="M101.784 87.4797L101.46 88.694C101.42 88.7891 101.52 88.8842 101.668 88.8842H114.604C114.716 88.8842 114.812 88.8237 114.82 88.7502L114.932 87.5316C114.932 87.4495 114.84 87.376 114.716 87.376H102C101.959 87.3703 101.917 87.377 101.879 87.3953C101.841 87.4135 101.808 87.4427 101.784 87.4797Z" fill="#407BFF"/>
<path opacity="0.2" d="M101.784 87.4797L101.46 88.694C101.42 88.7891 101.52 88.8842 101.668 88.8842H114.604C114.716 88.8842 114.812 88.8237 114.82 88.7502L114.932 87.5316C114.932 87.4495 114.84 87.376 114.716 87.376H102C101.959 87.3703 101.917 87.377 101.879 87.3953C101.841 87.4135 101.808 87.4427 101.784 87.4797Z" fill="white"/>
<path d="M103.536 89.0236H103.2C103.132 89.0236 103.08 88.9847 103.084 88.9372L103.244 87.3599C103.244 87.3123 103.308 87.2734 103.376 87.2734H103.716C103.784 87.2734 103.836 87.3123 103.832 87.3599L103.672 88.9372C103.664 88.9804 103.6 89.0236 103.536 89.0236Z" fill="#407BFF"/>
<path opacity="0.4" d="M103.536 89.0236H103.2C103.132 89.0236 103.08 88.9847 103.084 88.9372L103.244 87.3599C103.244 87.3123 103.308 87.2734 103.376 87.2734H103.716C103.784 87.2734 103.836 87.3123 103.832 87.3599L103.672 88.9372C103.664 88.9804 103.6 89.0236 103.536 89.0236Z" fill="black"/>
<path d="M113.647 89.0236H113.303C113.235 89.0236 113.183 88.9847 113.191 88.9372L113.351 87.3599C113.351 87.3123 113.415 87.2734 113.483 87.2734H113.823C113.891 87.2734 113.943 87.3123 113.939 87.3599L113.779 88.9372C113.769 88.9652 113.75 88.9887 113.727 89.0043C113.703 89.0199 113.675 89.0267 113.647 89.0236Z" fill="#407BFF"/>
<path opacity="0.4" d="M113.647 89.0236H113.303C113.235 89.0236 113.183 88.9847 113.191 88.9372L113.351 87.3599C113.351 87.3123 113.415 87.2734 113.483 87.2734H113.823C113.891 87.2734 113.943 87.3123 113.939 87.3599L113.779 88.9372C113.769 88.9652 113.75 88.9887 113.727 89.0043C113.703 89.0199 113.675 89.0267 113.647 89.0236Z" fill="black"/>
<path d="M108.612 89.0236H108.272C108.204 89.0236 108.152 88.9847 108.156 88.9372L108.316 87.3599C108.316 87.3123 108.38 87.2734 108.448 87.2734H108.8C108.868 87.2734 108.92 87.3123 108.916 87.3599L108.756 88.9372C108.74 88.9804 108.68 89.0236 108.612 89.0236Z" fill="#407BFF"/>
<path opacity="0.4" d="M108.612 89.0236H108.272C108.204 89.0236 108.152 88.9847 108.156 88.9372L108.316 87.3599C108.316 87.3123 108.38 87.2734 108.448 87.2734H108.8C108.868 87.2734 108.92 87.3123 108.916 87.3599L108.756 88.9372C108.74 88.9804 108.68 89.0236 108.612 89.0236Z" fill="black"/>
<path d="M101.425 72.4114C101.321 73.5609 101.189 74.7104 101.073 75.8686L100.673 79.3257C100.545 80.4709 100.377 81.6161 100.233 82.7829L100.005 84.5115L99.9329 85.056C99.9374 85.1408 99.9593 85.2234 99.9969 85.298C100.171 85.6286 100.4 85.9216 100.673 86.1623C101.029 86.4799 101.406 86.7688 101.801 87.0266C102.664 87.5941 103.56 88.0994 104.485 88.5391C105.429 89.0015 106.401 89.4034 107.389 89.8053C108.377 90.2072 109.389 90.5745 110.369 90.9246L110.017 92.5754C107.851 92.1981 105.717 91.6286 103.637 90.8727C102.561 90.4923 101.514 90.0183 100.509 89.4553C99.9705 89.1525 99.4567 88.8012 98.9729 88.4051C98.3928 87.9486 97.9032 87.3711 97.5329 86.7068C97.3148 86.2719 97.1788 85.7945 97.1329 85.3023C97.1329 85.1684 97.1129 85.0344 97.1329 84.9004C97.1529 84.7665 97.1329 84.5979 97.1529 84.5547L97.1889 84.1226L97.3249 82.394C97.4249 81.2445 97.5009 80.0906 97.6169 78.9368L97.9409 75.4796C98.0689 74.3301 98.1769 73.1806 98.3169 72.0225L101.425 72.4114Z" fill="#FF8B7B"/>
<path d="M99.7437 67.9986C98.4837 68.4308 96.9717 73.0979 96.9717 73.0979L101.372 77.9985C101.372 77.9985 103.632 72.9596 103.1 71.2008C102.56 69.3685 101.2 67.5232 99.7437 67.9986Z" fill="#407BFF"/>
</g>
<path opacity="0.2" d="M89.007 72.4539C87.9808 68.3383 88.1072 63.9863 89.3703 59.9483C90.6334 55.9104 92.9764 52.3677 96.1031 49.7683C99.2298 47.169 103 45.6296 106.936 45.345C110.873 45.0604 114.799 46.0432 118.218 48.1692C121.638 50.2952 124.397 53.469 126.147 57.2891C127.897 61.1092 128.559 65.4041 128.049 69.6308C127.54 73.8574 125.882 77.8259 123.285 81.0345C120.688 84.2431 117.268 86.5477 113.459 87.6568C110.929 88.3933 108.29 88.5842 105.693 88.2188C103.095 87.8533 100.589 86.9386 98.3184 85.5269C96.0478 84.1151 94.0568 82.234 92.4591 79.9909C90.8615 77.7479 89.6884 75.1868 89.007 72.4539Z" fill="#407BFF"/>
<path opacity="0.2" d="M122.728 51.9948L106.3 88.2951C107.709 88.4505 109.129 88.4375 110.536 88.2562L125.308 55.6292C124.571 54.3209 123.706 53.1024 122.728 51.9948ZM127.528 61.2341L127.42 60.802L115.624 86.869C120.173 84.9176 123.899 81.2275 126.094 76.5008C128.289 71.7741 128.799 66.3406 127.528 61.2341ZM103.076 46.0355C99.5935 47.0495 96.431 49.0642 93.9244 51.8652C91.4177 54.6662 89.6606 58.1489 88.8399 61.9428C88.0192 65.7366 88.1657 69.6999 89.2637 73.411C90.3617 77.1221 92.3701 80.4424 95.0755 83.0186L112 45.6682C109.038 45.0568 105.986 45.1824 103.076 46.0355Z" fill="white"/>
<path d="M85.8238 64.5054L85.4238 64.4622C85.4878 63.7233 85.5878 62.98 85.7158 62.254L86.1158 62.3361C85.9998 63.0491 85.8918 63.7794 85.8238 64.5054ZM86.5998 60.1192L86.1998 59.9982C86.7266 58.0731 87.4653 56.2233 88.3998 54.4883L88.7478 54.7044C87.8342 56.4101 87.113 58.228 86.5998 60.1192Z" fill="#407BFF"/>
<path d="M129.064 60.7884C127.956 56.3455 125.653 52.3574 122.447 49.3283C119.241 46.2991 115.276 44.365 111.053 43.7703C106.829 43.1757 102.538 43.9473 98.7202 45.9875C94.9027 48.0278 91.7309 51.2451 89.6058 55.2327C87.4807 59.2203 86.4977 63.7991 86.7811 68.3902C87.0645 72.9813 88.6016 77.3786 91.198 81.026C93.7944 84.6734 97.3335 87.4072 101.368 88.8817C105.402 90.3563 109.751 90.5053 113.864 89.3101C116.596 88.5162 119.156 87.1485 121.398 85.2854C123.641 83.4222 125.521 81.0999 126.933 78.4513C128.345 75.8026 129.259 72.8795 129.625 69.8488C129.99 66.8182 129.8 63.7394 129.064 60.7884ZM89.0077 72.4563C87.9815 68.3407 88.1079 63.9888 89.371 59.9508C90.6341 55.9128 92.9771 52.3702 96.1038 49.7708C99.2305 47.1714 103 45.6321 106.937 45.3475C110.873 45.0628 114.8 46.0456 118.219 48.1717C121.638 50.2977 124.398 53.4714 126.147 57.2915C127.897 61.1116 128.559 65.4066 128.05 69.6332C127.541 73.8599 125.883 77.8284 123.285 81.037C120.688 84.2456 117.269 86.5502 113.46 87.6593C110.93 88.3957 108.291 88.5864 105.693 88.2207C103.095 87.855 100.589 86.9399 98.318 85.5277C96.0473 84.1156 94.0564 82.234 92.4589 79.9904C90.8614 77.7469 89.6887 75.1853 89.0077 72.452V72.4563Z" fill="#407BFF"/>
<path d="M89.3281 76.0185C89.3281 77.0081 89.0921 77.1377 88.8401 77.168L88.1161 77.3754L86.6641 77.8076L83.7601 78.6373L77.9401 80.2492C74.0548 81.3036 70.1641 82.3307 66.2681 83.3304L54.5801 86.3554L48.7441 87.8852C46.8001 88.4081 44.8481 88.8921 42.9241 89.4971C42.729 89.559 42.5244 89.5787 42.3222 89.5552C42.12 89.5316 41.9241 89.4653 41.7456 89.36C41.5672 89.2546 41.4096 89.1124 41.2821 88.9412C41.1545 88.7701 41.0594 88.5736 41.0021 88.3627C40.9448 88.1519 40.9266 87.931 40.9484 87.7125C40.9701 87.4941 41.0315 87.2824 41.129 87.0896C41.2265 86.8967 41.3582 86.7266 41.5166 86.5887C41.675 86.4509 41.857 86.3481 42.0521 86.2863H42.1161C44.0641 85.7677 45.9761 85.1238 47.8961 84.5231L53.6561 82.6779L65.1641 78.9355C69.0014 77.6822 72.8428 76.4564 76.6881 75.2579L82.4681 73.4645L85.3641 72.6002L86.8121 72.168L87.5361 71.952C87.7681 71.8439 88.0241 71.831 88.4961 72.6823C89.0509 73.6911 89.3387 74.8451 89.3281 76.0185Z" fill="#407BFF"/>
<path d="M64.1592 43.7763C64.1592 44.0313 64.2832 44.2387 64.4392 44.2387C64.5952 44.2387 64.7192 44.0313 64.7192 43.7763C64.7192 43.5213 64.5952 43.3096 64.4392 43.3096C64.2832 43.3096 64.1592 43.517 64.1592 43.7763Z" fill="#263238"/>
<path d="M64.2638 44.2383C64.5449 45.0211 64.9244 45.7584 65.3918 46.4293C65.23 46.5543 65.0448 46.6396 64.8492 46.6792C64.6537 46.7188 64.4525 46.7116 64.2598 46.6583L64.2638 44.2383Z" fill="#630F0F"/>
<path d="M63.3206 42.3491C63.2916 42.3482 63.2635 42.3376 63.2403 42.3187C63.2171 42.2998 63.1999 42.2736 63.1911 42.2436C63.1823 42.2137 63.1824 42.1816 63.1913 42.1517C63.2001 42.1218 63.2174 42.0956 63.2406 42.0768C63.4174 41.9337 63.623 41.8379 63.8406 41.7973C64.0583 41.7568 64.2817 41.7726 64.4926 41.8435C64.527 41.858 64.5547 41.8865 64.5697 41.9229C64.5846 41.9593 64.5857 42.0007 64.5726 42.0379C64.5592 42.075 64.5328 42.1049 64.4991 42.1211C64.4654 42.1373 64.4271 42.1385 64.3926 42.1244C64.2248 42.0704 64.0475 42.0599 63.8752 42.0937C63.7028 42.1274 63.5403 42.2046 63.4006 42.3188C63.3781 42.3387 63.3498 42.3495 63.3206 42.3491Z" fill="#263238"/>
<path d="M56.5278 45.4297C56.7398 47.9318 56.7678 52.4823 55.1318 53.9732C55.1318 53.9732 55.5038 56.5272 59.4798 56.9248C63.8518 57.3569 61.7838 54.6387 61.7838 54.6387C59.4518 53.7442 59.6878 51.7131 60.2678 49.8462L56.5278 45.4297Z" fill="#7F3E3B"/>
<path d="M50.1318 147.927C49.7878 148.083 48.9998 147.707 48.7478 147.547C48.7363 147.54 48.7269 147.53 48.7212 147.518C48.7154 147.505 48.7135 147.491 48.7158 147.478C48.7168 147.463 48.7219 147.449 48.7305 147.437C48.739 147.426 48.7506 147.417 48.7638 147.413C48.8038 147.413 49.7398 147.076 50.1198 147.313C50.1615 147.338 50.1979 147.371 50.2262 147.413C50.2545 147.454 50.2742 147.501 50.2838 147.551C50.3038 147.611 50.3056 147.677 50.2891 147.738C50.2726 147.799 50.2385 147.853 50.1918 147.892C50.1731 147.907 50.153 147.918 50.1318 147.927ZM48.9678 147.495C49.3678 147.711 49.9398 147.892 50.1078 147.763C50.1078 147.763 50.1758 147.711 50.1478 147.573C50.1419 147.543 50.1303 147.516 50.1137 147.492C50.0972 147.468 50.076 147.449 50.0518 147.434C49.6919 147.342 49.3151 147.367 48.9678 147.504V147.495Z" fill="#407BFF"/>
<path d="M49.0047 147.487C48.9388 147.517 48.8705 147.54 48.8007 147.556C48.7887 147.561 48.7757 147.561 48.7634 147.558C48.7512 147.554 48.7404 147.546 48.7327 147.535C48.7267 147.523 48.7236 147.509 48.7236 147.496C48.7236 147.482 48.7267 147.469 48.7327 147.457C48.7327 147.422 49.0567 146.567 49.4647 146.385C49.5131 146.362 49.5656 146.35 49.6187 146.35C49.6718 146.35 49.7243 146.362 49.7727 146.385C49.823 146.4 49.8668 146.434 49.8961 146.481C49.9254 146.528 49.9384 146.584 49.9327 146.64C49.8927 146.93 49.3767 147.319 49.0047 147.487ZM48.9087 147.366C49.2687 147.219 49.7607 146.839 49.7847 146.627C49.7847 146.606 49.7847 146.562 49.7047 146.519C49.6735 146.503 49.6393 146.495 49.6047 146.495C49.5701 146.495 49.5359 146.503 49.5047 146.519C49.2447 146.64 49.0127 147.12 48.9087 147.362V147.366Z" fill="#407BFF"/>
<path d="M68.3032 153.026C68.0015 153.025 67.7004 152.996 67.4032 152.94C67.3894 152.936 67.3768 152.929 67.3668 152.918C67.3569 152.908 67.35 152.894 67.3472 152.879C67.344 152.864 67.3459 152.847 67.3525 152.833C67.359 152.819 67.3699 152.808 67.3832 152.801C67.4272 152.771 68.4512 152.14 68.9432 152.283C69.0353 152.308 69.1144 152.372 69.1632 152.46C69.1945 152.508 69.2113 152.565 69.2113 152.624C69.2113 152.683 69.1945 152.74 69.1632 152.788C69.0472 152.978 68.6832 153.026 68.3032 153.026ZM67.6272 152.827C68.1752 152.909 68.9192 152.905 69.0552 152.702C69.0552 152.676 69.0912 152.628 69.0552 152.533C69.0406 152.507 69.0209 152.484 68.9974 152.466C68.974 152.448 68.9473 152.436 68.9192 152.43C68.6032 152.339 67.9992 152.628 67.6272 152.827Z" fill="#407BFF"/>
<path d="M67.4162 152.939C67.4031 152.943 67.3893 152.943 67.3762 152.939C67.3662 152.931 67.3583 152.921 67.3534 152.909C67.3484 152.896 67.3466 152.883 67.3482 152.87C67.3482 152.835 67.4322 151.98 67.8042 151.647C67.8593 151.597 67.9232 151.56 67.9919 151.538C68.0607 151.516 68.1329 151.509 68.2042 151.517C68.3922 151.539 68.4482 151.643 68.4602 151.729C68.5162 152.088 67.8122 152.775 67.4602 152.948L67.4162 152.939ZM68.1362 151.643C68.0469 151.645 67.961 151.68 67.8922 151.742C67.6702 152.016 67.5306 152.357 67.4922 152.719C67.8562 152.485 68.3322 151.945 68.2922 151.729C68.2922 151.729 68.2922 151.66 68.1562 151.647L68.1362 151.643Z" fill="#407BFF"/>
<path d="M64.1875 152.866H67.1235L67.4155 145.516H64.4795L64.1875 152.866Z" fill="#7F3E3B"/>
<path d="M45.4688 146.8L48.3568 147.387L51.6088 140.564L48.7208 139.98L45.4688 146.8Z" fill="#7F3E3B"/>
<path d="M48.6717 147.063L45.5117 146.035C45.4561 146.017 45.3965 146.02 45.3427 146.044C45.2889 146.067 45.2441 146.11 45.2157 146.165L43.9037 148.688C43.8724 148.75 43.8544 148.819 43.8511 148.889C43.8478 148.959 43.8593 149.029 43.8847 149.094C43.9101 149.159 43.9488 149.217 43.9978 149.263C44.0468 149.31 44.1049 149.344 44.1677 149.362C45.2757 149.699 45.8317 149.795 47.2197 150.257C48.0757 150.534 50.3237 151.553 51.5077 151.929C52.6917 152.305 53.1917 151.1 52.7397 150.827C50.7157 149.613 49.5837 148.299 49.0757 147.4C48.9848 147.237 48.8407 147.117 48.6717 147.063Z" fill="#263238"/>
<path d="M67.1045 152.5H63.9045C63.8464 152.5 63.79 152.521 63.7448 152.56C63.6997 152.6 63.6684 152.655 63.6565 152.716L63.0765 155.538C63.0619 155.606 63.0618 155.676 63.0762 155.744C63.0906 155.812 63.1191 155.875 63.1596 155.93C63.2001 155.984 63.2515 156.027 63.3098 156.057C63.3682 156.086 63.432 156.101 63.4965 156.1C64.6565 156.1 66.3285 156.009 67.7845 156.009C69.4845 156.009 70.9525 156.108 72.9485 156.108C74.1485 156.108 74.4885 154.79 73.9845 154.669C71.6845 154.129 69.8085 154.069 67.8205 152.746C67.6078 152.593 67.3598 152.508 67.1045 152.5Z" fill="#263238"/>
<path d="M49.599 54.7816C47.047 56.0781 45.999 64.963 45.999 64.963L51.859 67.4478C52.7683 65.0424 53.5038 62.5646 54.059 60.0365C54.899 56.0262 52.219 53.4333 49.599 54.7816Z" fill="#407BFF"/>
<path opacity="0.3" d="M49.599 54.7816C47.047 56.0781 45.999 64.963 45.999 64.963L51.859 67.4478C52.7683 65.0424 53.5038 62.5646 54.059 60.0365C54.899 56.0262 52.219 53.4333 49.599 54.7816Z" fill="black"/>
<path opacity="0.2" d="M53.4117 57.3879C53.6115 57.2832 53.8205 57.2006 54.0357 57.1416C54.2695 58.0891 54.2778 59.0851 54.0597 60.037C53.5045 62.5651 52.769 65.0429 51.8597 67.4483L49.9277 66.6315C50.2837 64.3109 51.3757 58.4424 53.4117 57.3879Z" fill="black"/>
<path d="M66.6076 54.7139C66.6076 54.7139 69.7356 58.5297 66.7796 82.1552H51.0636C50.9556 79.5623 52.4716 66.8313 50.1436 54.5497C51.8821 54.1884 53.6404 53.9488 55.4076 53.8323C57.6324 53.6939 59.8627 53.6939 62.0876 53.8323C63.6132 53.9984 65.1245 54.2931 66.6076 54.7139Z" fill="#407BFF"/>
<path opacity="0.3" d="M66.6076 54.7139C66.6076 54.7139 69.7356 58.5297 66.7796 82.1552H51.0636C50.9556 79.5623 52.4716 66.8313 50.1436 54.5497C51.8821 54.1884 53.6404 53.9488 55.4076 53.8323C57.6324 53.6939 59.8627 53.6939 62.0876 53.8323C63.6132 53.9984 65.1245 54.2931 66.6076 54.7139Z" fill="black"/>
<path opacity="0.2" d="M63.4427 59.778C64.1547 57.4703 65.8667 56.7313 67.6107 58.1012C67.9627 60.3398 68.2107 63.9482 67.9267 69.6698L64.8587 69.6396C64.8587 69.6396 62.3987 63.2135 63.4427 59.778Z" fill="black"/>
<path d="M68.4234 58.2021C68.5754 59.1918 68.7434 60.2721 68.9314 61.3006C69.1194 62.3292 69.3314 63.3749 69.5554 64.3948C69.9696 66.401 70.5328 68.3679 71.2394 70.2763C71.4194 70.7085 71.6034 71.1665 71.8074 71.5728L72.0674 72.0827C72.1329 72.1976 72.2094 72.3047 72.2954 72.4025C72.8911 73.013 73.5646 73.5282 74.2954 73.9323C76.0225 74.9025 77.8032 75.7569 79.6274 76.4906L79.1914 78.8242C77.0398 78.6633 74.9174 78.1954 72.8794 77.4327C72.332 77.2269 71.7976 76.9829 71.2794 76.7024C70.712 76.3896 70.1758 76.0145 69.6794 75.5831C69.3874 75.3237 69.1195 75.0343 68.8794 74.7188L68.6874 74.4465L68.5634 74.2434C68.4794 74.1095 68.3954 73.9755 68.3194 73.8415C68.0074 73.3014 67.7314 72.7612 67.4754 72.2167C66.539 70.1005 65.7968 67.8904 65.2594 65.6178C64.9914 64.5072 64.7434 63.4009 64.5434 62.2816C64.3434 61.1624 64.1434 60.069 64.0234 58.8763L68.4234 58.2021Z" fill="#7F3E3B"/>
<path d="M62.6801 57.043C61.8521 59.9427 65.2121 68.5856 65.2121 68.5856L72.2881 66.6626C71.8549 63.9307 71.1259 61.2633 70.1161 58.7154C67.8201 53.3222 63.6761 53.5469 62.6801 57.043Z" fill="#407BFF"/>
<path opacity="0.3" d="M62.6801 57.043C61.8521 59.9427 65.2121 68.5856 65.2121 68.5856L72.2881 66.6626C71.8549 63.9307 71.1259 61.2633 70.1161 58.7154C67.8201 53.3222 63.6761 53.5469 62.6801 57.043Z" fill="black"/>
<path d="M79.6717 76.4904L82.7077 77.964L79.7637 80.5871C79.7637 80.5871 78.4677 80.129 78.2557 77.83L77.8037 75.9199L79.1357 76.2872C79.3197 76.3374 79.4991 76.4054 79.6717 76.4904Z" fill="#7F3E3B"/>
<path d="M84.3197 79.5539L81.3637 81.4596L79.7637 80.5694L82.7037 77.9463L84.3197 79.5539Z" fill="#7F3E3B"/>
<path d="M63.4237 53.5505C62.1557 52.3924 59.0757 51.5583 55.6277 51.3509C53.6557 51.2342 51.6277 51.5842 50.7837 51.9905C49.9397 52.3967 50.9397 55.331 52.0437 55.3958C51.4597 56.3897 52.3077 58.3084 53.5757 58.6844C53.3757 60.3439 57.2477 60.4994 59.5757 59.1598C61.4557 58.0924 64.9437 54.9377 63.4237 53.5505Z" fill="#263238"/>
<path opacity="0.2" d="M67.4151 145.516L67.2671 149.306H64.3271L64.4751 145.516H67.4151Z" fill="black"/>
<path opacity="0.2" d="M48.7151 139.98L51.6071 140.568L49.9311 144.082L47.0391 143.494L48.7151 139.98Z" fill="black"/>
<path d="M56.2559 43.2149C56.4319 46.3609 56.3839 48.2105 57.8559 49.8268C60.0639 52.2554 63.6599 50.8207 64.3559 47.666C64.9839 44.8398 64.5879 40.1726 61.7399 38.9151C61.1119 38.6344 60.4278 38.5323 59.7529 38.6186C59.078 38.7049 58.4348 38.9767 57.8848 39.4079C57.3347 39.8392 56.8962 40.4156 56.6111 41.0821C56.3259 41.7485 56.2036 42.4829 56.2559 43.2149Z" fill="#7F3E3B"/>
<path d="M61.7032 44.9682C62.8032 43.7669 64.6112 41.1481 63.9792 39.1818C63.0472 36.2734 60.2672 37.2587 60.7112 37.8378C59.1112 36.6969 55.8792 36.6408 56.5552 38.1706C53.6472 38.6027 53.4112 39.8775 54.2192 40.3572C52.1472 42.492 52.2472 44.7003 53.8192 44.5361C52.6192 45.8325 54.8272 48.3995 57.2952 49.6225C58.1352 47.2457 62.6312 46.8135 61.7032 44.9682Z" fill="#263238"/>
<path d="M60.4279 46.1049C60.4096 46.1106 60.3902 46.1106 60.3719 46.1049C60.3611 46.0967 60.3518 46.0862 60.3448 46.0742C60.3377 46.0621 60.3329 46.0487 60.3307 46.0346C60.3285 46.0206 60.3288 46.0062 60.3318 45.9923C60.3347 45.9784 60.3402 45.9652 60.3479 45.9536C60.9799 44.951 61.5959 44.1472 62.1399 43.4385C63.1799 42.0816 63.9319 41.1006 63.9959 39.7696C64.0108 39.2242 63.8678 38.6875 63.5866 38.2342C63.3055 37.781 62.9004 37.4339 62.4279 37.2415C61.6839 36.8785 60.8839 36.8569 60.5679 37.194C60.3999 37.3712 60.3839 37.6261 60.5199 37.9805C60.5257 37.9931 60.529 38.007 60.5295 38.0211C60.53 38.0352 60.5277 38.0493 60.5228 38.0623C60.5179 38.0754 60.5105 38.0872 60.501 38.097C60.4915 38.1067 60.4802 38.1141 60.4679 38.1188C60.4558 38.1245 60.4428 38.1276 60.4296 38.1279C60.4164 38.1281 60.4033 38.1256 60.3911 38.1204C60.3788 38.1151 60.3676 38.1073 60.3581 38.0974C60.3487 38.0875 60.3411 38.0757 60.3359 38.0626C60.2476 37.9038 60.2089 37.7185 60.2254 37.5341C60.242 37.3497 60.313 37.1759 60.4279 37.0384C60.8039 36.6408 61.6799 36.6408 62.5119 37.0384C63.0211 37.2472 63.4572 37.6226 63.7591 38.1123C64.0611 38.6021 64.2138 39.1815 64.1959 39.7696C64.1279 41.1741 63.3599 42.1766 62.2959 43.5638C61.7519 44.2725 61.1399 45.072 60.5119 46.0703C60.5013 46.0827 60.4883 46.0923 60.4737 46.0983C60.4591 46.1043 60.4434 46.1066 60.4279 46.1049Z" fill="#263238"/>
<path d="M60.5724 44.6132C60.6256 45.3935 60.9152 46.1331 61.3964 46.7178C62.0364 47.4783 62.7084 47.003 62.8204 46.0782C62.9204 45.2398 62.7124 43.8353 61.9284 43.4162C61.1444 42.997 60.5204 43.6711 60.5724 44.6132Z" fill="#7F3E3B"/>
<path d="M61.2004 82.1543C61.2004 82.1543 62.1924 103.554 60.2604 112.621C57.2004 126.977 51.3484 143.627 51.3484 143.627L45.9004 142.517C45.9004 142.517 50.4884 125.844 51.5004 113.891C52.3924 103.157 51.0724 90.8275 51.0724 82.1543H61.2004Z" fill="#263238"/>
<path opacity="0.2" d="M59.7317 88.4939C60.1317 87.6598 60.9117 90.1447 61.4557 93.3339C61.4557 97.7332 61.3837 102.737 61.0277 106.977C58.3077 101.553 58.8877 90.2225 59.7317 88.4939Z" fill="black"/>
<path d="M52.6843 141.821C52.7083 141.821 51.8323 143.861 51.8323 143.861L45.5283 142.534L46.2163 140.481L52.6843 141.821Z" fill="#2C6BDB"/>
<path d="M66.7992 82.1543C66.7992 82.1543 71.1992 102.418 71.5192 112.102C71.8672 122.962 68.3592 148.571 68.3592 148.571H63.3832C63.3832 148.571 62.7712 122.763 62.5472 112.871C62.3072 102.089 56.4512 82.1543 56.4512 82.1543H66.7992Z" fill="#263238"/>
<path d="M69.3203 146.429C69.3443 146.429 69.0403 148.663 69.0403 148.663H62.9843L62.8203 146.671L69.3203 146.429Z" fill="#2C6BDB"/>
</svg>
