<svg width="21" height="21" viewBox="0 0 21 21" fill="none" xmlns="http://www.w3.org/2000/svg">
<path fill-rule="evenodd" clip-rule="evenodd" d="M8.64462 15.711C8.40493 15.711 8.17567 15.612 8.01154 15.4374L3.78841 10.9399C3.45928 10.5908 3.47751 10.0411 3.82662 9.71279C4.17659 9.38453 4.7263 9.4019 5.0537 9.751L8.63593 13.5642L15.9376 5.57303C16.2624 5.21785 16.8113 5.1944 17.1656 5.51745C17.519 5.8405 17.5433 6.39021 17.2203 6.74366L9.28551 15.4279C9.12312 15.6068 8.89212 15.7092 8.6507 15.711H8.64462Z" fill="#27AE60"/>
<mask id="mask0_5673_16150" style="mask-type:luminance" maskUnits="userSpaceOnUse" x="3" y="5" width="15" height="11">
<path fill-rule="evenodd" clip-rule="evenodd" d="M8.64462 15.711C8.40493 15.711 8.17567 15.612 8.01154 15.4374L3.78841 10.9399C3.45928 10.5908 3.47751 10.0411 3.82662 9.71279C4.17659 9.38453 4.7263 9.4019 5.0537 9.751L8.63593 13.5642L15.9376 5.57303C16.2624 5.21785 16.8113 5.1944 17.1656 5.51745C17.519 5.8405 17.5433 6.39021 17.2203 6.74366L9.28551 15.4279C9.12312 15.6068 8.89212 15.7092 8.6507 15.711H8.64462Z" fill="white"/>
</mask>
<g mask="url(#mask0_5673_16150)">
<rect x="0.0791016" y="0.0791016" width="20.8421" height="20.8421" fill="#27AE60"/>
</g>
</svg>
