<svg width="24" height="27" viewBox="0 0 24 27" fill="none" xmlns="http://www.w3.org/2000/svg">
<path fill-rule="evenodd" clip-rule="evenodd" d="M0.75 2.625C0.75 2.12772 0.947544 1.65081 1.29917 1.29917C1.65081 0.947544 2.12772 0.75 2.625 0.75H21.375C21.8723 0.75 22.3492 0.947544 22.7008 1.29917C23.0525 1.65081 23.25 2.12772 23.25 2.625V5.2325C23.2499 5.89549 22.9864 6.53127 22.5175 7L15.75 13.7675V23.0475C15.75 23.2819 15.6901 23.5124 15.576 23.7172C15.4619 23.9219 15.2973 24.0941 15.0979 24.2173C14.8985 24.3406 14.671 24.4108 14.4368 24.4213C14.2026 24.4318 13.9696 24.3823 13.76 24.2775L9.11375 21.955C8.85421 21.8252 8.63594 21.6258 8.48338 21.3789C8.33082 21.1321 8.25001 20.8477 8.25 20.5575V13.7675L1.4825 7C1.01363 6.53127 0.750142 5.89549 0.75 5.2325V2.625ZM3.25 3.25V5.2325L10.2 12.1825C10.3743 12.3566 10.5126 12.5633 10.607 12.7909C10.7013 13.0185 10.7499 13.2624 10.75 13.5087V19.9775L13.25 21.2275V13.5087C13.25 13.0112 13.4475 12.5338 13.8 12.1838L20.75 5.23125V3.25H3.25Z" fill="black"/>
</svg>
