<svg width="36" height="41" viewBox="0 0 36 41" fill="none" xmlns="http://www.w3.org/2000/svg">
<path d="M16.5 21.5H8.20906C7.89208 22.3966 7.26834 23.1522 6.4481 23.6334C5.62786 24.1146 4.66393 24.2903 3.72667 24.1294C2.78941 23.9686 1.93917 23.4817 1.32623 22.7546C0.713293 22.0276 0.377114 21.1072 0.377114 20.1563C0.377114 19.2053 0.713293 18.285 1.32623 17.5579C1.93917 16.8308 2.78941 16.3439 3.72667 16.1831C4.66393 16.0223 5.62786 16.198 6.4481 16.6791C7.26834 17.1603 7.89208 17.9159 8.20906 18.8125H16.5V6.71876C16.5 5.6496 16.9247 4.62424 17.6807 3.86823C18.4367 3.11223 19.4621 2.68751 20.5312 2.68751H27.4784C27.7954 1.79094 28.4192 1.03529 29.2394 0.554129C30.0596 0.0729623 31.0236 -0.102744 31.9608 0.0580641C32.8981 0.218872 33.7483 0.705841 34.3613 1.4329C34.9742 2.15996 35.3104 3.0803 35.3104 4.03126C35.3104 4.98221 34.9742 5.90255 34.3613 6.62961C33.7483 7.35668 32.8981 7.84364 31.9608 8.00445C31.0236 8.16526 30.0596 7.98955 29.2394 7.50839C28.4192 7.02722 27.7954 6.27158 27.4784 5.37501H20.5312C20.1749 5.37501 19.8331 5.51658 19.5811 5.76858C19.3291 6.02059 19.1875 6.36237 19.1875 6.71876V33.5938C19.1875 33.9501 19.3291 34.2919 19.5811 34.5439C19.8331 34.7959 20.1749 34.9375 20.5312 34.9375H27.4784C27.7954 34.0409 28.4192 33.2853 29.2394 32.8041C30.0596 32.323 31.0236 32.1473 31.9608 32.3081C32.8981 32.4689 33.7483 32.9558 34.3613 33.6829C34.9742 34.41 35.3104 35.3303 35.3104 36.2813C35.3104 37.2322 34.9742 38.1526 34.3613 38.8796C33.7483 39.6067 32.8981 40.0936 31.9608 40.2545C31.0236 40.4153 30.0596 40.2396 29.2394 39.7584C28.4192 39.2772 27.7954 38.5216 27.4784 37.625H20.5312C19.4621 37.625 18.4367 37.2003 17.6807 36.4443C16.9247 35.6883 16.5 34.6629 16.5 33.5938V21.5ZM4.40625 8.06251C3.3371 8.06251 2.31173 7.63779 1.55573 6.88178C0.79972 6.12578 0.375 5.10041 0.375 4.03126C0.375 2.9621 0.79972 1.93674 1.55573 1.18073C2.31173 0.424728 3.3371 8.33398e-06 4.40625 8.33398e-06C5.4754 8.33398e-06 6.50077 0.424728 7.25677 1.18073C8.01278 1.93674 8.4375 2.9621 8.4375 4.03126C8.4375 5.10041 8.01278 6.12578 7.25677 6.88178C6.50077 7.63779 5.4754 8.06251 4.40625 8.06251ZM4.40625 40.3125C3.3371 40.3125 2.31173 39.8878 1.55573 39.1318C0.79972 38.3758 0.375 37.3504 0.375 36.2813C0.375 35.2121 0.79972 34.1867 1.55573 33.4307C2.31173 32.6747 3.3371 32.25 4.40625 32.25C5.4754 32.25 6.50077 32.6747 7.25677 33.4307C8.01278 34.1867 8.4375 35.2121 8.4375 36.2813C8.4375 37.3504 8.01278 38.3758 7.25677 39.1318C6.50077 39.8878 5.4754 40.3125 4.40625 40.3125ZM31.2812 24.1875C30.2121 24.1875 29.1867 23.7628 28.4307 23.0068C27.6747 22.2508 27.25 21.2254 27.25 20.1563C27.25 19.0871 27.6747 18.0617 28.4307 17.3057C29.1867 16.5497 30.2121 16.125 31.2812 16.125C32.3504 16.125 33.3758 16.5497 34.1318 17.3057C34.8878 18.0617 35.3125 19.0871 35.3125 20.1563C35.3125 21.2254 34.8878 22.2508 34.1318 23.0068C33.3758 23.7628 32.3504 24.1875 31.2812 24.1875Z" fill="#AD5191"/>
</svg>
