<svg width="31" height="39" viewBox="0 0 31 39" fill="none" xmlns="http://www.w3.org/2000/svg">
<mask id="mask0_4303_24972" style="mask-type:luminance" maskUnits="userSpaceOnUse" x="0" y="0" width="31" height="39">
<path d="M28.042 1.58301H2.95866C1.96915 1.58301 1.16699 2.38516 1.16699 3.37467V35.6247C1.16699 36.6142 1.96915 37.4163 2.95866 37.4163H28.042C29.0315 37.4163 29.8337 36.6142 29.8337 35.6247V3.37467C29.8337 2.38516 29.0315 1.58301 28.042 1.58301Z" fill="white" stroke="white" stroke-width="2" stroke-linejoin="round"/>
<path d="M12.8125 10.541H23.5625M12.8125 19.4993H23.5625M12.8125 28.4577H23.5625" stroke="black" stroke-width="2" stroke-linecap="round" stroke-linejoin="round"/>
<path fill-rule="evenodd" clip-rule="evenodd" d="M7.43815 12.3333C7.91333 12.3333 8.36905 12.1446 8.70505 11.8086C9.04105 11.4726 9.22982 11.0168 9.22982 10.5417C9.22982 10.0665 9.04105 9.61077 8.70505 9.27477C8.36905 8.93876 7.91333 8.75 7.43815 8.75C6.96297 8.75 6.50725 8.93876 6.17125 9.27477C5.83525 9.61077 5.64648 10.0665 5.64648 10.5417C5.64648 11.0168 5.83525 11.4726 6.17125 11.8086C6.50725 12.1446 6.96297 12.3333 7.43815 12.3333ZM7.43815 21.2917C7.91333 21.2917 8.36905 21.1029 8.70505 20.7669C9.04105 20.4309 9.22982 19.9752 9.22982 19.5C9.22982 19.0248 9.04105 18.5691 8.70505 18.2331C8.36905 17.8971 7.91333 17.7083 7.43815 17.7083C6.96297 17.7083 6.50725 17.8971 6.17125 18.2331C5.83525 18.5691 5.64648 19.0248 5.64648 19.5C5.64648 19.9752 5.83525 20.4309 6.17125 20.7669C6.50725 21.1029 6.96297 21.2917 7.43815 21.2917ZM7.43815 30.25C7.91333 30.25 8.36905 30.0612 8.70505 29.7252C9.04105 29.3892 9.22982 28.9335 9.22982 28.4583C9.22982 27.9832 9.04105 27.5274 8.70505 27.1914C8.36905 26.8554 7.91333 26.6667 7.43815 26.6667C6.96297 26.6667 6.50725 26.8554 6.17125 27.1914C5.83525 27.5274 5.64648 27.9832 5.64648 28.4583C5.64648 28.9335 5.83525 29.3892 6.17125 29.7252C6.50725 30.0612 6.96297 30.25 7.43815 30.25Z" fill="black"/>
</mask>
<g mask="url(#mask0_4303_24972)">
<path d="M-6 -2H37V41H-6V-2Z" fill="#3557FF"/>
</g>
</svg>
