<svg width="39" height="33" viewBox="0 0 39 33" fill="none" xmlns="http://www.w3.org/2000/svg">
<path d="M34.6252 23.6662V13.0953L20.2023 20.9339C19.6648 21.2325 19.0974 21.3818 18.5002 21.3818C17.903 21.3818 17.3356 21.2325 16.7981 20.9339L1.65854 12.6922C1.33007 12.513 1.09835 12.2891 0.963378 12.0203C0.828405 11.7516 0.761517 11.453 0.762711 11.1245C0.763905 10.796 0.831392 10.4974 0.96517 10.2287C1.09895 9.95992 1.33007 9.73597 1.65854 9.5568L16.7981 1.31513C17.0669 1.16583 17.3434 1.05355 17.6277 0.978298C17.9119 0.903048 18.2028 0.866021 18.5002 0.867215C18.7976 0.86841 19.0891 0.906035 19.3745 0.98009C19.66 1.05415 19.9359 1.16583 20.2023 1.31513L37.2679 10.6318C37.5665 10.7811 37.7983 10.9979 37.9631 11.2822C38.1279 11.5665 38.2097 11.8722 38.2085 12.1995V23.6662C38.2085 24.1738 38.0365 24.5996 37.6925 24.9436C37.3485 25.2876 36.9233 25.459 36.4169 25.4578C35.9104 25.4566 35.4852 25.2846 35.1412 24.9418C34.7972 24.599 34.6252 24.1738 34.6252 23.6662ZM16.7981 31.6839L7.83979 26.8464C7.24257 26.5179 6.77973 26.07 6.45125 25.5026C6.12278 24.9353 5.95854 24.3231 5.95854 23.6662V16.8578L16.7981 22.7255C17.3356 23.0242 17.903 23.1735 18.5002 23.1735C19.0974 23.1735 19.6648 23.0242 20.2023 22.7255L31.0419 16.8578V23.6662C31.0419 24.3231 30.8776 24.9353 30.5492 25.5026C30.2207 26.07 29.7579 26.5179 29.1606 26.8464L20.2023 31.6839C19.9335 31.8332 19.6576 31.9455 19.3745 32.0207C19.0915 32.096 18.8 32.133 18.5002 32.1318C18.2004 32.1306 17.909 32.0936 17.6259 32.0207C17.3428 31.9479 17.0669 31.8356 16.7981 31.6839Z" fill="#AD5191"/>
</svg>
