<svg width="70" height="54" viewBox="0 0 70 54" fill="none" xmlns="http://www.w3.org/2000/svg">
<path d="M60.8008 23.8543V21.9443C60.8008 21.5801 60.6531 21.2308 60.3901 20.9732C60.1271 20.7157 59.7705 20.571 59.3986 20.571H54.4491C54.0772 20.571 53.7206 20.4263 53.4576 20.1688C53.1946 19.9112 53.0469 19.5619 53.0469 19.1977V17.2877C53.0469 16.9235 53.1946 16.5742 53.4576 16.3166C53.7206 16.0591 54.0772 15.9144 54.4491 15.9144H54.6054C54.9773 15.9144 55.334 15.7697 55.5969 15.5122C55.8599 15.2546 56.0076 14.9053 56.0076 14.5411V12.6311C56.0076 12.4508 55.9714 12.2722 55.9009 12.1056C55.8304 11.939 55.7271 11.7876 55.5969 11.66C55.4667 11.5325 55.3121 11.4314 55.142 11.3623C54.9719 11.2933 54.7895 11.2578 54.6054 11.2578H18.6449C18.273 11.2578 17.9163 11.4025 17.6533 11.66C17.3904 11.9176 17.2426 12.2669 17.2426 12.6311V14.5411C17.2426 14.9053 17.3904 15.2546 17.6533 15.5122C17.9163 15.7697 18.273 15.9144 18.6449 15.9144C19.0168 15.9144 19.3734 16.0591 19.6364 16.3166C19.8994 16.5742 20.0471 16.9235 20.0471 17.2877V19.1977C20.0471 19.5619 19.8994 19.9112 19.6364 20.1688C19.3734 20.4263 19.0168 20.571 18.6449 20.571H13.2223C12.8504 20.571 12.4937 20.7157 12.2307 20.9732C11.9677 21.2308 11.82 21.5801 11.82 21.9443V23.8543C11.82 24.2185 11.9677 24.5678 12.2307 24.8254C12.4937 25.0829 12.8504 25.2276 13.2223 25.2276H15.35C15.5342 25.2276 15.7165 25.2631 15.8866 25.3321C16.0568 25.4011 16.2113 25.5023 16.3415 25.6298C16.4718 25.7573 16.575 25.9087 16.6455 26.0754C16.716 26.242 16.7523 26.4205 16.7523 26.6009V28.5109C16.7523 28.8751 16.6045 29.2244 16.3415 29.482C16.0786 29.7395 15.7219 29.8842 15.35 29.8842H15.3449C14.973 29.8842 14.6163 30.0289 14.3533 30.2864C14.0904 30.544 13.9426 30.8933 13.9426 31.2575V33.1675C13.9426 33.5317 14.0904 33.881 14.3533 34.1386C14.6163 34.3961 14.973 34.5408 15.3449 34.5408H15.6527C15.8369 34.5408 16.0192 34.5763 16.1893 34.6453C16.3595 34.7143 16.514 34.8155 16.6442 34.943C16.7745 35.0705 16.8777 35.2219 16.9482 35.3885C17.0187 35.5552 17.055 35.7337 17.055 35.9141V37.8241C17.055 38.1883 16.9072 38.5376 16.6442 38.7952C16.3813 39.0527 16.0246 39.1974 15.6527 39.1974H10.6005C10.2286 39.1974 9.87192 39.3421 9.60895 39.5996C9.34598 39.8572 9.19824 40.2065 9.19824 40.5707V42.4807C9.19824 42.8449 9.34598 43.1942 9.60895 43.4518C9.87192 43.7093 10.2286 43.854 10.6005 43.854H55.3582C55.7301 43.854 56.0868 43.7093 56.3498 43.4518C56.6127 43.1942 56.7605 42.8449 56.7605 42.4807V40.5707C56.7605 40.2065 56.6127 39.8572 56.3498 39.5996C56.0868 39.3421 55.7301 39.1974 55.3582 39.1974H54.1424C53.7705 39.1974 53.4138 39.0527 53.1509 38.7952C52.8879 38.5376 52.7402 38.1883 52.7402 37.8241V35.9141C52.7402 35.5499 52.8879 35.2006 53.1509 34.943C53.4138 34.6855 53.7705 34.5408 54.1424 34.5408H57.0092C57.3811 34.5408 57.7378 34.3961 58.0007 34.1386C58.2637 33.881 58.4114 33.5317 58.4114 33.1675V31.2575C58.4114 30.8933 58.2637 30.544 58.0007 30.2864C57.7378 30.0289 57.3811 29.8842 57.0092 29.8842H56.1395C55.7676 29.8842 55.411 29.7395 55.148 29.482C54.885 29.2244 54.7373 28.8751 54.7373 28.5109V26.6009C54.7373 26.2367 54.885 25.8874 55.148 25.6298C55.411 25.3723 55.7676 25.2276 56.1395 25.2276H59.3986C59.7705 25.2276 60.1271 25.0829 60.3901 24.8254C60.6531 24.5678 60.8008 24.2185 60.8008 23.8543Z" fill="#DBE8EC"/>
<path d="M35.0003 45.2289C45.2802 45.2289 53.6138 37.0674 53.6138 26.9997C53.6138 16.932 45.2802 8.77051 35.0003 8.77051C24.7203 8.77051 16.3867 16.932 16.3867 26.9997C16.3867 37.0674 24.7203 45.2289 35.0003 45.2289Z" fill="#DBE8EC"/>
<path d="M45.449 41.8175H20.336C20.2778 41.8175 20.2202 41.8059 20.1667 41.7835C20.1132 41.7611 20.0649 41.7283 20.0247 41.6871C19.9844 41.6459 19.9532 41.5971 19.9327 41.5438C19.9123 41.4904 19.9031 41.4335 19.9057 41.3766L20.9438 18.8316C20.9488 18.7231 20.9963 18.6207 21.0765 18.5456C21.1566 18.4706 21.2632 18.4287 21.3741 18.4287H46.4871C46.5453 18.4287 46.6029 18.4403 46.6564 18.4627C46.7099 18.4851 46.7582 18.5179 46.7985 18.5591C46.8387 18.6003 46.87 18.649 46.8904 18.7024C46.9108 18.7558 46.92 18.8126 46.9174 18.8696L45.8793 41.4146C45.8743 41.5231 45.8268 41.6255 45.7467 41.7005C45.6665 41.7756 45.5599 41.8175 45.449 41.8175Z" fill="#3086A3"/>
<path d="M47.064 18.8316C47.0591 18.7231 47.0115 18.6207 46.9314 18.5456C46.8512 18.4706 46.7446 18.4287 46.6337 18.4287H46.4873C46.5455 18.4287 46.6031 18.4403 46.6566 18.4627C46.7101 18.4851 46.7584 18.5179 46.7987 18.5591C46.8389 18.6003 46.8702 18.649 46.8906 18.7024C46.9111 18.7558 46.9202 18.8126 46.9176 18.8696L45.8795 41.4146C45.8745 41.5231 45.827 41.6255 45.7469 41.7005C45.6667 41.7756 45.5601 41.8175 45.4492 41.8175H49.8256C49.8838 41.8175 49.9414 41.8059 49.995 41.7835C50.0485 41.7611 50.0968 41.7283 50.137 41.6871C50.1772 41.6459 50.2085 41.5971 50.229 41.5438C50.2494 41.4904 50.2586 41.4335 50.256 41.3766L47.064 18.8316Z" fill="#25788E"/>
<path d="M44.0415 40.4509H21.8638C21.8124 40.4509 21.7616 40.4407 21.7143 40.4209C21.667 40.4011 21.6243 40.3722 21.5888 40.3358C21.5533 40.2994 21.5257 40.2563 21.5076 40.2092C21.4896 40.1621 21.4815 40.1118 21.4838 40.0616L22.4005 20.1517C22.4049 20.0559 22.4469 19.9654 22.5177 19.8992C22.5885 19.8329 22.6826 19.7959 22.7806 19.7959H44.9582C45.0096 19.7959 45.0605 19.8061 45.1078 19.8259C45.155 19.8457 45.1977 19.8746 45.2332 19.911C45.2688 19.9474 45.2964 19.9905 45.3144 20.0376C45.3325 20.0847 45.3406 20.135 45.3383 20.1852L44.4215 40.0951C44.4171 40.1909 44.3752 40.2814 44.3044 40.3476C44.2336 40.4139 44.1394 40.4509 44.0415 40.4509Z" fill="#409CB5"/>
<path d="M25.2313 18.357C25.2314 18.382 25.2251 18.4067 25.213 18.4287H24.9265C24.9145 18.4067 24.9082 18.382 24.9082 18.357C24.9082 17.8529 24.6315 17.4268 24.3041 17.4268C23.9767 17.4268 23.701 17.8529 23.701 18.357C23.701 18.3812 23.7021 18.4045 23.7032 18.4287C23.7279 18.9012 23.9929 19.2872 24.3041 19.2872C24.3225 19.2874 24.3409 19.286 24.359 19.283C24.38 19.28 24.4014 19.2811 24.422 19.2863C24.4425 19.2914 24.4619 19.3004 24.4789 19.3128C24.4959 19.3253 24.5102 19.3409 24.521 19.3587C24.5319 19.3766 24.539 19.3964 24.5421 19.417C24.5451 19.4375 24.544 19.4585 24.5388 19.4786C24.5335 19.4988 24.5243 19.5177 24.5116 19.5343C24.4989 19.551 24.483 19.565 24.4648 19.5756C24.4465 19.5863 24.4263 19.5933 24.4053 19.5962C24.3718 19.6013 24.338 19.6038 24.3041 19.6036C23.8119 19.6036 23.407 19.0826 23.379 18.4287C23.3779 18.4045 23.3779 18.3812 23.3779 18.357C23.3779 17.6693 23.7936 17.1104 24.3041 17.1104C24.8156 17.1104 25.2313 17.6693 25.2313 18.357Z" fill="#EE781D"/>
<path d="M28.4883 18.357C28.4883 18.382 28.482 18.4067 28.4699 18.4287H28.1835C28.1714 18.4067 28.1651 18.382 28.1652 18.357C28.1652 17.8529 27.8884 17.4268 27.561 17.4268C27.2336 17.4268 26.9569 17.8529 26.9569 18.357C26.9569 18.3812 26.9579 18.4045 26.959 18.4287C26.9838 18.9012 27.2498 19.2872 27.561 19.2872C27.5794 19.2874 27.5978 19.286 27.6159 19.283C27.6584 19.277 27.7015 19.2877 27.7358 19.3128C27.7701 19.338 27.7929 19.3754 27.799 19.417C27.8052 19.4585 27.7942 19.5007 27.7686 19.5343C27.7429 19.568 27.7047 19.5902 27.6622 19.5962C27.6288 19.6013 27.5949 19.6038 27.561 19.6036C27.0678 19.6036 26.6629 19.0826 26.6349 18.4287C26.6338 18.4045 26.6338 18.3812 26.6338 18.357C26.6338 17.6693 27.0495 17.1104 27.561 17.1104C28.0715 17.1104 28.4883 17.6693 28.4883 18.357Z" fill="#EE781D"/>
<path d="M31.743 18.357C31.7431 18.382 31.7368 18.4067 31.7247 18.4287H31.4383C31.4262 18.4067 31.4199 18.382 31.42 18.357C31.42 17.8529 31.1432 17.4268 30.8169 17.4268C30.4895 17.4268 30.2127 17.8529 30.2127 18.357C30.2127 18.3812 30.2138 18.4045 30.2149 18.4287C30.2397 18.9012 30.5057 19.2872 30.8169 19.2872C30.8349 19.2874 30.8529 19.2859 30.8707 19.283C30.9131 19.2769 30.9563 19.2875 30.9907 19.3125C31.0252 19.3375 31.0481 19.3749 31.0543 19.4164C31.0606 19.458 31.0498 19.5002 31.0243 19.534C30.9987 19.5677 30.9605 19.5901 30.9181 19.5962C30.8846 19.6013 30.8508 19.6037 30.8169 19.6036C30.3237 19.6036 29.9187 19.0826 29.8907 18.4287C29.8896 18.4045 29.8896 18.3812 29.8896 18.357C29.8896 17.6693 30.3053 17.1104 30.8169 17.1104C31.3273 17.1104 31.743 17.6693 31.743 18.357Z" fill="#EE781D"/>
<path d="M35 18.357C35.0001 18.382 34.9938 18.4067 34.9817 18.4287H34.6952C34.6831 18.4067 34.6768 18.382 34.6769 18.357C34.6769 17.8529 34.4001 17.4268 34.0727 17.4268C33.7454 17.4268 33.4686 17.8529 33.4686 18.357C33.4686 18.3812 33.4697 18.4045 33.4707 18.4287C33.4955 18.9012 33.7615 19.2872 34.0727 19.2872C34.0911 19.2874 34.1095 19.286 34.1277 19.283C34.1701 19.277 34.2132 19.2877 34.2475 19.3128C34.2819 19.338 34.3046 19.3754 34.3107 19.417C34.3169 19.4585 34.3059 19.5007 34.2803 19.5343C34.2546 19.568 34.2164 19.5902 34.174 19.5962C34.1405 19.6013 34.1066 19.6038 34.0727 19.6036C33.5806 19.6036 33.1746 19.0826 33.1466 18.4287C33.1455 18.4045 33.1455 18.3812 33.1455 18.357C33.1455 17.6693 33.5623 17.1104 34.0727 17.1104C34.5843 17.1104 35 17.6693 35 18.357Z" fill="#EE781D"/>
<path d="M38.2557 18.357C38.2558 18.382 38.2495 18.4067 38.2374 18.4287H37.951C37.9389 18.4067 37.9326 18.382 37.9327 18.357C37.9327 17.8529 37.657 17.4268 37.3296 17.4268C37.0022 17.4268 36.7254 17.8529 36.7254 18.357C36.7254 18.3812 36.7265 18.4045 36.7276 18.4287C36.7534 18.9286 37.0528 19.3305 37.3834 19.283C37.4258 19.2769 37.469 19.2875 37.5034 19.3125C37.5379 19.3375 37.5608 19.3749 37.567 19.4164C37.5733 19.458 37.5625 19.5002 37.5369 19.534C37.5114 19.5677 37.4732 19.5901 37.4308 19.5962C37.3973 19.6013 37.3635 19.6038 37.3296 19.6036C36.8363 19.6036 36.4314 19.0826 36.4034 18.4287C36.4023 18.4045 36.4023 18.3812 36.4023 18.357C36.4023 17.6693 36.818 17.1104 37.3296 17.1104C37.84 17.1104 38.2557 17.6693 38.2557 18.357Z" fill="#EE781D"/>
<path d="M41.5126 18.357C41.5126 18.382 41.5063 18.4067 41.4943 18.4287H41.2078C41.1957 18.4067 41.1894 18.382 41.1895 18.357C41.1895 17.8529 40.9127 17.4268 40.5853 17.4268C40.2579 17.4268 39.9823 17.8529 39.9823 18.357C39.9823 18.3812 39.9833 18.4045 39.9844 18.4287C40.0092 18.9012 40.2741 19.2872 40.5853 19.2872C40.6037 19.2874 40.6221 19.286 40.6403 19.283C40.6827 19.277 40.7258 19.2877 40.7601 19.3128C40.7945 19.338 40.8172 19.3754 40.8233 19.417C40.8295 19.4585 40.8185 19.5007 40.7929 19.5343C40.7672 19.568 40.729 19.5902 40.6866 19.5962C40.6531 19.6013 40.6192 19.6038 40.5853 19.6036C40.0932 19.6036 39.6883 19.0826 39.6603 18.4287C39.6592 18.4045 39.6592 18.3812 39.6592 18.357C39.6592 17.6693 40.0749 17.1104 40.5853 17.1104C41.0969 17.1104 41.5126 17.6693 41.5126 18.357Z" fill="#EE781D"/>
<path d="M44.5312 18.357C44.5313 18.382 44.525 18.4067 44.5129 18.4287H44.2265C44.2144 18.4067 44.2081 18.382 44.2081 18.357C44.2081 17.8529 43.9314 17.4268 43.604 17.4268C43.2766 17.4268 42.9998 17.8529 42.9998 18.357C42.9998 18.3812 43.0009 18.4045 43.002 18.4287C43.0268 18.9012 43.2928 19.2872 43.604 19.2872C43.6224 19.2874 43.6408 19.286 43.6589 19.283C43.7013 19.277 43.7444 19.2877 43.7788 19.3128C43.8131 19.338 43.8358 19.3754 43.842 19.417C43.8481 19.4585 43.8372 19.5007 43.8115 19.5343C43.7859 19.568 43.7476 19.5902 43.7052 19.5962C43.6717 19.6013 43.6379 19.6038 43.604 19.6036C43.1108 19.6036 42.7058 19.0826 42.6778 18.4287C42.6768 18.4045 42.6768 18.3812 42.6768 18.357C42.6768 17.6693 43.0925 17.1104 43.604 17.1104C44.1145 17.1104 44.5312 17.6693 44.5312 18.357Z" fill="#EE781D"/>
<path d="M47.5158 38.8515H47.1572V38.8389C47.2757 38.8473 47.3952 38.8515 47.5158 38.8515Z" fill="#25788E"/>
<path d="M44.1214 20.6816L43.2683 33.2594C43.2683 33.6087 43.1981 33.9546 43.0616 34.2774C42.9251 34.6001 42.725 34.8933 42.4728 35.1403C42.2206 35.3874 41.9212 35.5833 41.5916 35.717C41.2621 35.8507 40.9089 35.9195 40.5522 35.9195C39.8933 35.9195 39.2569 35.6849 38.7615 35.2595C38.2661 34.8341 37.9455 34.2469 37.8593 33.6072L37.5736 31.4851H21.6494L22.5024 20.6816L44.1214 20.6816Z" fill="#409CB5"/>
<path d="M20.9444 35.9197C20.2856 35.9197 19.6492 35.6852 19.1537 35.2598C18.6583 34.8344 18.3377 34.2471 18.2516 33.6074L17.9658 31.4854H37.5732L37.859 33.6074C37.9451 34.2471 38.2658 34.8344 38.7612 35.2598C39.2566 35.6852 39.893 35.9197 40.5518 35.9197H20.9444Z" fill="#25788E"/>
<mask id="mask0_4248_25512" style="mask-type:luminance" maskUnits="userSpaceOnUse" x="21" y="20" width="24" height="16">
<path d="M44.1214 20.6816L43.2683 33.2594C43.2683 33.6087 43.1981 33.9546 43.0616 34.2774C42.9251 34.6001 42.725 34.8933 42.4728 35.1403C42.2206 35.3874 41.9212 35.5833 41.5916 35.717C41.2621 35.8507 40.9089 35.9195 40.5522 35.9195C39.8933 35.9195 39.2569 35.6849 38.7615 35.2595C38.2661 34.8341 37.9455 34.2469 37.8593 33.6072L37.5736 31.4851H21.6494L22.5024 20.6816L44.1214 20.6816Z" fill="white"/>
</mask>
<g mask="url(#mask0_4248_25512)">
<path d="M28.111 25.4276H24.2322C24.1907 25.4276 24.1496 25.4194 24.1114 25.4034C24.0732 25.3874 24.0387 25.364 24.01 25.3346C23.9813 25.3052 23.959 25.2704 23.9444 25.2323C23.9298 25.1942 23.9232 25.1536 23.9251 25.113L24.0837 21.6684C24.0873 21.591 24.1212 21.5179 24.1784 21.4643C24.2356 21.4107 24.3117 21.3809 24.3909 21.3809H28.2696C28.3112 21.3809 28.3523 21.3891 28.3905 21.4051C28.4287 21.4211 28.4632 21.4445 28.4919 21.4739C28.5206 21.5033 28.5429 21.5381 28.5575 21.5762C28.5721 21.6143 28.5786 21.6549 28.5768 21.6955L28.4182 25.1401C28.4146 25.2175 28.3807 25.2906 28.3235 25.3442C28.2663 25.3977 28.1902 25.4276 28.111 25.4276Z" fill="#DBE8EC"/>
<path d="M33.0075 25.4276H29.1287C29.0872 25.4276 29.0461 25.4194 29.0079 25.4034C28.9697 25.3874 28.9352 25.364 28.9065 25.3346C28.8778 25.3052 28.8555 25.2704 28.8409 25.2323C28.8263 25.1942 28.8197 25.1536 28.8216 25.113L28.9802 21.6684C28.9838 21.591 29.0177 21.5179 29.0749 21.4643C29.1321 21.4107 29.2082 21.3809 29.2873 21.3809H33.1661C33.2077 21.3809 33.2488 21.3891 33.287 21.4051C33.3252 21.4211 33.3597 21.4445 33.3884 21.4739C33.4171 21.5033 33.4394 21.5381 33.454 21.5762C33.4686 21.6143 33.4751 21.6549 33.4733 21.6955L33.3147 25.1401C33.3111 25.2175 33.2772 25.2906 33.22 25.3442C33.1628 25.3977 33.0867 25.4276 33.0075 25.4276Z" fill="#DBE8EC"/>
<path d="M37.905 25.4276H34.0262C33.9847 25.4276 33.9436 25.4194 33.9054 25.4034C33.8672 25.3874 33.8327 25.364 33.804 25.3346C33.7753 25.3052 33.7529 25.2704 33.7383 25.2323C33.7237 25.1942 33.7172 25.1536 33.7191 25.113L33.8777 21.6684C33.8812 21.591 33.9151 21.5179 33.9724 21.4643C34.0296 21.4107 34.1057 21.3809 34.1848 21.3809H38.0636C38.1051 21.3809 38.1462 21.3891 38.1844 21.4051C38.2226 21.4211 38.2571 21.4445 38.2858 21.4739C38.3145 21.5033 38.3369 21.5381 38.3514 21.5762C38.366 21.6143 38.3726 21.6549 38.3707 21.6955L38.2121 25.1401C38.2086 25.2175 38.1746 25.2906 38.1174 25.3442C38.0602 25.3977 37.9841 25.4276 37.905 25.4276Z" fill="#DBE8EC"/>
<path d="M42.8015 25.4276H38.9227C38.8811 25.4276 38.84 25.4194 38.8018 25.4034C38.7636 25.3874 38.7291 25.364 38.7004 25.3346C38.6717 25.3052 38.6494 25.2704 38.6348 25.2323C38.6202 25.1942 38.6137 25.1536 38.6155 25.113L38.7742 21.6684C38.7777 21.591 38.8116 21.5179 38.8688 21.4643C38.926 21.4107 39.0021 21.3809 39.0813 21.3809H42.9601C43.0016 21.3809 43.0427 21.3891 43.0809 21.4051C43.1191 21.4211 43.1536 21.4445 43.1823 21.4739C43.211 21.5033 43.2333 21.5381 43.2479 21.5762C43.2625 21.6143 43.2691 21.6549 43.2672 21.6955L43.1086 25.1401C43.105 25.2175 43.0711 25.2906 43.0139 25.3442C42.9567 25.3977 42.8806 25.4276 42.8015 25.4276Z" fill="#DBE8EC"/>
<path d="M27.8903 29.9081H24.0116C23.97 29.9081 23.9289 29.8998 23.8907 29.8839C23.8525 29.8679 23.818 29.8445 23.7893 29.815C23.7606 29.7856 23.7383 29.7508 23.7237 29.7127C23.7091 29.6747 23.7025 29.6341 23.7044 29.5934L23.863 26.1489C23.8666 26.0714 23.9005 25.9983 23.9577 25.9448C24.0149 25.8912 24.091 25.8613 24.1701 25.8613H28.0489C28.0905 25.8613 28.1316 25.8696 28.1698 25.8856C28.208 25.9016 28.2425 25.925 28.2712 25.9544C28.2999 25.9838 28.3222 26.0186 28.3368 26.0567C28.3514 26.0948 28.3579 26.1353 28.3561 26.176L28.1975 29.6205C28.1939 29.698 28.16 29.7711 28.1028 29.8246C28.0456 29.8782 27.9695 29.9081 27.8903 29.9081Z" fill="#DBE8EC"/>
<path d="M32.7868 29.9081H28.908C28.8665 29.9081 28.8254 29.8998 28.7872 29.8839C28.749 29.8679 28.7145 29.8445 28.6858 29.815C28.6571 29.7856 28.6348 29.7508 28.6202 29.7127C28.6056 29.6747 28.599 29.6341 28.6009 29.5934L28.7595 26.1489C28.7631 26.0714 28.797 25.9983 28.8542 25.9448C28.9114 25.8912 28.9875 25.8613 29.0666 25.8613H32.9454C32.987 25.8613 33.0281 25.8696 33.0663 25.8856C33.1045 25.9016 33.139 25.925 33.1677 25.9544C33.1964 25.9838 33.2187 26.0186 33.2333 26.0567C33.2479 26.0948 33.2544 26.1353 33.2526 26.176L33.094 29.6205C33.0904 29.698 33.0565 29.7711 32.9993 29.8246C32.9421 29.8782 32.866 29.9081 32.7868 29.9081Z" fill="#DBE8EC"/>
<path d="M37.6833 29.9081H33.8045C33.763 29.9081 33.7219 29.8998 33.6837 29.8838C33.6455 29.8679 33.611 29.8445 33.5823 29.815C33.5536 29.7856 33.5313 29.7508 33.5167 29.7127C33.5021 29.6747 33.4955 29.6341 33.4974 29.5934L33.656 26.1489C33.6596 26.0714 33.6935 25.9983 33.7507 25.9448C33.8079 25.8912 33.884 25.8613 33.9631 25.8613H37.8419C37.8834 25.8613 37.9246 25.8696 37.9627 25.8856C38.0009 25.9016 38.0354 25.925 38.0641 25.9544C38.0928 25.9838 38.1152 26.0186 38.1298 26.0567C38.1444 26.0948 38.1509 26.1353 38.149 26.176L37.9904 29.6205C37.9869 29.698 37.953 29.7711 37.8957 29.8246C37.8385 29.8782 37.7624 29.9081 37.6833 29.9081Z" fill="#DBE8EC"/>
<path d="M42.5808 29.9081H38.702C38.6604 29.9081 38.6193 29.8998 38.5811 29.8839C38.5429 29.8679 38.5084 29.8445 38.4797 29.815C38.451 29.7856 38.4287 29.7508 38.4141 29.7127C38.3995 29.6747 38.393 29.6341 38.3948 29.5934L38.5534 26.1489C38.557 26.0714 38.5909 25.9983 38.6481 25.9448C38.7053 25.8912 38.7814 25.8613 38.8606 25.8613H42.7394C42.7809 25.8613 42.822 25.8696 42.8602 25.8856C42.8984 25.9016 42.9329 25.925 42.9616 25.9544C42.9903 25.9838 43.0126 26.0186 43.0272 26.0567C43.0418 26.0948 43.0484 26.1353 43.0465 26.176L42.8879 29.6205C42.8843 29.698 42.8504 29.7711 42.7932 29.8246C42.736 29.8782 42.6599 29.9081 42.5808 29.9081Z" fill="#DBE8EC"/>
<path d="M27.7409 34.3886H23.8621C23.8206 34.3886 23.7795 34.3803 23.7413 34.3643C23.7031 34.3483 23.6686 34.3249 23.6399 34.2955C23.6112 34.2661 23.5889 34.2313 23.5743 34.1932C23.5597 34.1551 23.5531 34.1145 23.555 34.0739L23.7136 30.6293C23.7172 30.5519 23.7511 30.4788 23.8083 30.4252C23.8655 30.3717 23.9416 30.3418 24.0207 30.3418H27.8995C27.9411 30.3418 27.9822 30.35 28.0204 30.366C28.0586 30.382 28.0931 30.4054 28.1218 30.4348C28.1505 30.4642 28.1728 30.499 28.1874 30.5371C28.202 30.5752 28.2085 30.6158 28.2067 30.6565L28.0481 34.101C28.0445 34.1784 28.0106 34.2516 27.9534 34.3051C27.8962 34.3587 27.8201 34.3886 27.7409 34.3886Z" fill="#DBE8EC"/>
<path d="M32.6384 34.3886H28.7596C28.7181 34.3886 28.6769 34.3803 28.6387 34.3643C28.6006 34.3483 28.5661 34.3249 28.5374 34.2955C28.5086 34.2661 28.4863 34.2313 28.4717 34.1932C28.4571 34.1551 28.4506 34.1145 28.4525 34.0739L28.6111 30.6293C28.6146 30.5519 28.6485 30.4788 28.7058 30.4252C28.763 30.3717 28.8391 30.3418 28.9182 30.3418H32.797C32.8385 30.3418 32.8796 30.35 32.9178 30.366C32.956 30.382 32.9905 30.4054 33.0192 30.4348C33.0479 30.4642 33.0702 30.499 33.0848 30.5371C33.0994 30.5752 33.106 30.6158 33.1041 30.6565L32.9455 34.101C32.9419 34.1784 32.908 34.2515 32.8508 34.3051C32.7936 34.3587 32.7175 34.3886 32.6384 34.3886Z" fill="#DBE8EC"/>
<path d="M37.5349 34.3886H33.6561C33.6145 34.3886 33.5734 34.3803 33.5352 34.3643C33.497 34.3483 33.4625 34.3249 33.4338 34.2955C33.4051 34.2661 33.3828 34.2313 33.3682 34.1932C33.3536 34.1551 33.3471 34.1145 33.3489 34.0739L33.5075 30.6293C33.5111 30.5519 33.545 30.4788 33.6022 30.4252C33.6594 30.3717 33.7355 30.3418 33.8147 30.3418H37.6935C37.735 30.3418 37.7761 30.35 37.8143 30.366C37.8525 30.382 37.887 30.4054 37.9157 30.4348C37.9444 30.4642 37.9667 30.499 37.9813 30.5371C37.9959 30.5752 38.0025 30.6158 38.0006 30.6565L37.842 34.101C37.8384 34.1784 37.8045 34.2516 37.7473 34.3051C37.6901 34.3587 37.614 34.3886 37.5349 34.3886Z" fill="#DBE8EC"/>
<path d="M42.4323 34.3886H38.5535C38.512 34.3886 38.4709 34.3803 38.4327 34.3643C38.3945 34.3483 38.36 34.3249 38.3313 34.2955C38.3026 34.2661 38.2803 34.2313 38.2657 34.1932C38.2511 34.1551 38.2445 34.1145 38.2464 34.0739L38.405 30.6293C38.4086 30.5519 38.4425 30.4788 38.4997 30.4252C38.5569 30.3717 38.633 30.3418 38.7122 30.3418H42.5909C42.6325 30.3418 42.6736 30.35 42.7118 30.366C42.75 30.382 42.7845 30.4054 42.8132 30.4348C42.8419 30.4642 42.8642 30.499 42.8788 30.5371C42.8934 30.5752 42.8999 30.6158 42.8981 30.6565L42.7395 34.101C42.7359 34.1784 42.702 34.2516 42.6448 34.3051C42.5876 34.3587 42.5115 34.3886 42.4323 34.3886Z" fill="#DBE8EC"/>
<path d="M27.5642 38.8514H23.6854C23.6438 38.8514 23.6027 38.8432 23.5645 38.8272C23.5263 38.8112 23.4918 38.7878 23.4631 38.7584C23.4344 38.729 23.4121 38.6942 23.3975 38.6561C23.3829 38.618 23.3764 38.5774 23.3782 38.5368L23.5368 35.0922C23.5404 35.0148 23.5743 34.9417 23.6315 34.8881C23.6887 34.8346 23.7648 34.8047 23.844 34.8047H27.7228C27.7643 34.8047 27.8054 34.8129 27.8436 34.8289C27.8818 34.8449 27.9163 34.8683 27.945 34.8977C27.9737 34.9271 27.996 34.9619 28.0106 35C28.0252 35.0381 28.0318 35.0787 28.0299 35.1193L27.8713 38.5639C27.8677 38.6413 27.8338 38.7144 27.7766 38.768C27.7194 38.8216 27.6433 38.8514 27.5642 38.8514Z" fill="#DBE8EC"/>
<path d="M32.4606 38.8514H28.5819C28.5403 38.8514 28.4992 38.8432 28.461 38.8272C28.4228 38.8112 28.3883 38.7878 28.3596 38.7584C28.3309 38.729 28.3086 38.6942 28.294 38.6561C28.2794 38.618 28.2729 38.5774 28.2747 38.5368L28.4333 35.0922C28.4369 35.0148 28.4708 34.9417 28.528 34.8881C28.5852 34.8346 28.6613 34.8047 28.7405 34.8047H32.6193C32.6608 34.8047 32.7019 34.8129 32.7401 34.8289C32.7783 34.8449 32.8128 34.8683 32.8415 34.8977C32.8702 34.9271 32.8925 34.9619 32.9071 35C32.9217 35.0381 32.9283 35.0787 32.9264 35.1193L32.7678 38.5639C32.7642 38.6413 32.7303 38.7144 32.6731 38.768C32.6159 38.8216 32.5398 38.8514 32.4606 38.8514Z" fill="#DBE8EC"/>
<path d="M37.3581 38.8514H33.4793C33.4378 38.8514 33.3967 38.8432 33.3585 38.8272C33.3203 38.8112 33.2858 38.7878 33.2571 38.7584C33.2284 38.729 33.2061 38.6942 33.1915 38.6561C33.1769 38.618 33.1703 38.5774 33.1722 38.5368L33.3308 35.0922C33.3344 35.0148 33.3683 34.9417 33.4255 34.8881C33.4827 34.8346 33.5588 34.8047 33.6379 34.8047H37.5167C37.5582 34.8047 37.5994 34.8129 37.6376 34.8289C37.6758 34.8449 37.7102 34.8683 37.7389 34.8977C37.7677 34.9271 37.79 34.9619 37.8046 35C37.8192 35.0381 37.8257 35.0787 37.8238 35.1193L37.6652 38.5639C37.6617 38.6413 37.6278 38.7144 37.5706 38.768C37.5133 38.8216 37.4373 38.8514 37.3581 38.8514Z" fill="#DBE8EC"/>
<path d="M42.2546 38.8514H38.3758C38.3343 38.8514 38.2932 38.8432 38.255 38.8272C38.2168 38.8112 38.1823 38.7878 38.1536 38.7584C38.1249 38.729 38.1025 38.6942 38.088 38.6561C38.0734 38.618 38.0668 38.5774 38.0687 38.5368L38.2273 35.0922C38.2308 35.0148 38.2648 34.9417 38.322 34.8881C38.3792 34.8346 38.4553 34.8047 38.5344 34.8047H42.4132C42.4547 34.8047 42.4959 34.8129 42.534 34.8289C42.5722 34.8449 42.6067 34.8683 42.6354 34.8977C42.6641 34.9271 42.6865 34.9619 42.7011 35C42.7157 35.0381 42.7222 35.0787 42.7203 35.1193L42.5617 38.5639C42.5582 38.6413 42.5243 38.7144 42.467 38.768C42.4098 38.8216 42.3337 38.8514 42.2546 38.8514Z" fill="#DBE8EC"/>
<path d="M34.5918 22.0303L37.5507 24.7451" stroke="#EE781D" stroke-miterlimit="10" stroke-linecap="round"/>
<path d="M37.6264 22.1143L34.5156 24.6611" stroke="#EE781D" stroke-miterlimit="10" stroke-linecap="round"/>
<path d="M24.5508 26.5303L27.5097 29.2451" stroke="#EE781D" stroke-miterlimit="10" stroke-linecap="round"/>
<path d="M27.5854 26.6143L24.4746 29.1611" stroke="#EE781D" stroke-miterlimit="10" stroke-linecap="round"/>
</g>
<path d="M52.5265 40.9735H43.4389C43.392 40.9735 43.346 40.9617 43.3051 40.9394C43.2641 40.9171 43.2297 40.8848 43.2051 40.8458C43.1805 40.8068 43.1664 40.7623 43.1643 40.7164C43.1622 40.6706 43.1721 40.625 43.1931 40.584L47.7369 28.9925C47.7597 28.9478 47.7948 28.9102 47.8382 28.8839C47.8816 28.8577 47.9316 28.8437 47.9827 28.8438C48.0337 28.8437 48.0837 28.8577 48.1272 28.8839C48.1706 28.9102 48.2057 28.9478 48.2285 28.9925L52.7723 40.584C52.7932 40.625 52.8031 40.6706 52.801 40.7164C52.7989 40.7623 52.7849 40.8068 52.7603 40.8458C52.7356 40.8848 52.7012 40.9171 52.6603 40.9394C52.6194 40.9617 52.5733 40.9735 52.5265 40.9735Z" fill="#D62828"/>
<path d="M53.7166 39.7578H42.2497C41.7898 39.7578 41.417 40.1229 41.417 40.5733V41.0234C41.417 41.4738 41.7898 41.8389 42.2497 41.8389H53.7166C54.1765 41.8389 54.5493 41.4738 54.5493 41.0234V40.5733C54.5493 40.1229 54.1765 39.7578 53.7166 39.7578Z" fill="#F9AE2B"/>
<path d="M46.0952 33.1797L44.752 36.6066H51.2128L49.8696 33.1797H46.0952Z" fill="#F9AE2B"/>
<path d="M42.0391 9.99023H45.5178" stroke="#3086A3" stroke-width="3" stroke-miterlimit="10" stroke-linecap="round"/>
<path d="M42.0391 10.9717H45.5178" stroke="#3086A3" stroke-width="3" stroke-miterlimit="10" stroke-linecap="round"/>
<path d="M42.0391 11.9541H45.5178" stroke="#3086A3" stroke-width="3" stroke-miterlimit="10" stroke-linecap="round"/>
<path d="M13.4336 30.8467H16.9124" stroke="#3086A3" stroke-width="3" stroke-miterlimit="10" stroke-linecap="round"/>
<path d="M13.4336 31.8281H16.9124" stroke="#3086A3" stroke-width="3" stroke-miterlimit="10" stroke-linecap="round"/>
<path d="M13.4336 32.8105H16.9124" stroke="#3086A3" stroke-width="3" stroke-miterlimit="10" stroke-linecap="round"/>
<path d="M56.0328 28.2924C56.854 28.2924 57.5198 27.6404 57.5198 26.8361C57.5198 26.0319 56.854 25.3799 56.0328 25.3799C55.2116 25.3799 54.5459 26.0319 54.5459 26.8361C54.5459 27.6404 55.2116 28.2924 56.0328 28.2924Z" fill="#B9D4DB"/>
<path d="M52.1089 28.643C52.5347 28.643 52.8799 28.3049 52.8799 27.8879C52.8799 27.4709 52.5347 27.1328 52.1089 27.1328C51.6831 27.1328 51.3379 27.4709 51.3379 27.8879C51.3379 28.3049 51.6831 28.643 52.1089 28.643Z" fill="#B9D4DB"/>
<path d="M54.0663 24.3517C54.6746 24.3517 55.1677 23.8688 55.1677 23.273C55.1677 22.6773 54.6746 22.1943 54.0663 22.1943C53.458 22.1943 52.9648 22.6773 52.9648 23.273C52.9648 23.8688 53.458 24.3517 54.0663 24.3517Z" fill="#B9D4DB"/>
<path d="M18.3854 44.8852C19.3625 44.8852 20.1545 44.1095 20.1545 43.1526C20.1545 42.1957 19.3625 41.4199 18.3854 41.4199C17.4083 41.4199 16.6162 42.1957 16.6162 43.1526C16.6162 44.1095 17.4083 44.8852 18.3854 44.8852Z" fill="#B9D4DB"/>
<path d="M14.7809 44.2083C15.2899 44.2083 15.7024 43.8043 15.7024 43.3058C15.7024 42.8074 15.2899 42.4033 14.7809 42.4033C14.272 42.4033 13.8594 42.8074 13.8594 43.3058C13.8594 43.8043 14.272 44.2083 14.7809 44.2083Z" fill="#B9D4DB"/>
<path d="M14.3392 40.6779C14.6328 40.6779 14.8707 40.4448 14.8707 40.1573C14.8707 39.8698 14.6328 39.6367 14.3392 39.6367C14.0456 39.6367 13.8076 39.8698 13.8076 40.1573C13.8076 40.4448 14.0456 40.6779 14.3392 40.6779Z" fill="#B9D4DB"/>
<path d="M17.1962 40.6219C17.8999 40.6219 18.4704 40.0632 18.4704 39.3739C18.4704 38.6847 17.8999 38.126 17.1962 38.126C16.4924 38.126 15.9219 38.6847 15.9219 39.3739C15.9219 40.0632 16.4924 40.6219 17.1962 40.6219Z" fill="#B9D4DB"/>
<path d="M26.045 15.7194C28.1685 15.7194 29.8899 14.0335 29.8899 11.9539C29.8899 9.87433 28.1685 8.18848 26.045 8.18848C23.9216 8.18848 22.2002 9.87433 22.2002 11.9539C22.2002 14.0335 23.9216 15.7194 26.045 15.7194Z" fill="#409CB5"/>
<path d="M26.045 9.48633H26.045C25.9344 9.48633 25.8447 9.57413 25.8447 9.68245V12.7732C25.8447 12.8815 25.9344 12.9693 26.045 12.9693C26.1556 12.9693 26.2452 12.8815 26.2452 12.7732V9.68245C26.2452 9.57413 26.1556 9.48633 26.045 9.48633Z" fill="#F9AE2B"/>
<path d="M26.0453 14.422C26.5285 14.422 26.5293 13.6865 26.0453 13.6865C25.5621 13.6865 25.5613 14.422 26.0453 14.422Z" fill="#F9AE2B"/>
</svg>
