<svg width="49" height="40" viewBox="0 0 49 40" fill="none" xmlns="http://www.w3.org/2000/svg">
<g clip-path="url(#clip0_4260_23288)">
<path d="M33.5932 10.3023C33.8342 10.8348 33.4978 11.4738 33.1439 11.9073C32.7901 12.3408 32.3675 12.8341 32.427 13.4357C32.4819 13.9907 32.9342 14.3737 33.0752 14.9062C33.2255 15.4761 32.9907 16.0927 32.676 16.5579C32.5366 16.7653 32.3816 16.9559 32.2284 17.1502C32.1532 16.9709 32.1125 16.7784 32.1313 16.5785C32.1689 16.1581 32.4569 15.7937 32.4272 15.3715C32.3976 14.9155 32.0217 14.6241 31.7057 14.3662C31.3893 14.1084 31.0592 13.6936 31.1719 13.2564C31.2111 13.1087 31.2971 12.9836 31.341 12.8397C31.5006 12.3221 31.1062 11.8158 30.7524 11.4645C30.7524 11.4645 30.5583 11.1992 30.2719 11.3038C29.9729 11.3393 29.879 11.6719 29.879 11.6719C29.6661 12.1614 29.4673 12.8098 29.7804 13.2134C29.8694 13.3255 29.9884 13.4021 30.0713 13.5198C30.3187 13.8711 30.148 14.4055 29.9399 14.7904C29.7317 15.1734 29.4797 15.6162 29.5986 16.0516C29.7098 16.4533 30.0915 16.657 30.2622 17.0269C30.4455 17.4212 30.3484 17.9219 30.1731 18.3236C29.9993 18.7235 29.7534 19.0822 29.6237 19.5064C29.4953 19.9324 29.5204 20.4742 29.8176 20.7545C30.0242 20.9488 30.3263 20.9862 30.4891 21.2309C30.5064 21.2571 30.5237 21.2851 30.5378 21.3113H26.7638C26.6777 20.9283 26.5854 20.6013 26.4962 20.3322C26.5744 20.2874 26.6402 20.2388 26.6903 20.1846C26.6903 20.1846 25.9718 18.901 25.8793 18.7179C25.8057 18.5703 25.8401 17.8957 25.8998 17.5034C26.18 16.6588 26.4647 15.7246 26.5555 15.3677C26.6197 15.1173 26.6932 14.6969 26.7574 14.2747C26.8435 13.7197 26.9155 13.1611 26.939 12.9817C26.9437 12.9481 26.9468 12.9275 26.9468 12.9238C26.9014 12.7631 26.7936 12.608 26.5915 12.608C26.5461 12.608 26.4944 12.6155 26.4381 12.636C26.0608 12.4361 25.4645 12.3389 25.2124 12.2754C25.1954 12.2698 25.178 12.2642 25.1608 12.2605C25.1487 12.255 25.1362 12.2512 25.1234 12.2493C25.1216 12.2474 25.1202 12.2474 25.1187 12.2474C25.1187 12.2474 24.8526 11.6513 25.042 10.8348C25.042 10.8348 25.0482 10.8218 25.0608 10.7975C25.1218 10.8685 25.1938 10.9226 25.2768 10.9525C25.618 11.0777 26.0015 10.7582 26.1346 10.2388C26.2676 9.72123 26.0986 9.19993 25.7556 9.07661C25.6662 9.044 25.5712 9.04014 25.4801 9.0654C25.4756 8.55157 25.3157 8.04522 24.8211 7.72197C23.4906 6.85127 22.5749 8.47683 22.8191 9.08221C22.7846 9.51383 22.83 10.0688 23.0163 10.7769C23.2229 11.5598 23.5219 11.855 23.835 11.8382C23.8428 11.941 23.8522 12.0549 23.86 12.1708C23.8616 12.2063 23.8647 12.2436 23.8663 12.2792C23.7974 12.3147 23.7567 12.3464 23.7426 12.3614C23.7403 12.3621 23.7382 12.3634 23.7363 12.3651L23.5203 12.4623C23.4654 12.4865 23.4123 12.5071 23.3654 12.5258C23.3341 12.5389 23.3043 12.5501 23.2793 12.5575C23.2589 12.565 23.2401 12.5706 23.2243 12.5744C23.2073 12.5781 23.1869 12.5912 23.1619 12.6117C23.0586 12.5893 22.9584 12.5351 22.8363 12.5034C22.8535 12.5632 22.8754 12.6229 22.8987 12.6771C22.7909 12.7108 22.6672 12.7799 22.5325 12.8995C22.5325 12.8995 22.0801 13.4488 21.7202 15.5153C21.5449 16.5206 21.213 17.9667 21.1269 18.1442C21.0956 18.2096 20.9955 18.3105 20.8546 18.4507L19.9373 14.1906H13.3348L13.1391 14.4092L14.2381 19.5101H16.3418V20.9488H15.5247C15.4401 20.9488 15.3649 20.9899 15.3102 21.0553C15.2554 21.1207 15.2226 21.2104 15.2226 21.3113H9.82049V22.1203H10.2668V28.9533H9.82049V29.7642H10.2668V36.597H10.0944C8.78268 36.27 7.58364 35.775 6.58027 35.0277C4.48916 33.4694 5.57706 29.2074 4.12914 26.9204C2.91273 24.9976 1.25819 23.7347 0.445941 21.326C-0.937802 17.2323 1.0345 11.9015 4.4876 10.4479C6.64445 9.5398 8.92998 9.12313 11.0635 8.12537C13.2659 7.09399 14.1159 5.55064 15.7953 3.72141C18.8336 0.417977 24.004 1.05138 27.7277 2.9815C28.3273 3.29167 28.8892 3.63547 29.3979 4.00355C30.9507 5.11902 32.239 6.68106 33.7026 7.91611C33.3332 8.47478 32.9747 9.21842 33.2831 9.81446C33.3725 9.98842 33.51 10.1229 33.5932 10.3023ZM31.1751 31.1284H32.2515V36.9111H31.1751V31.1284Z" fill="#9D9D9D"/>
<path d="M22.4058 20.1425L22.2618 20.2658V20.2807C22.1475 20.2863 22.016 20.2975 21.8955 20.3162C21.6247 20.3611 20.9922 20.7777 20.8685 20.9496H19.3674C19.6585 20.7404 20.125 20.419 20.6196 20.0995C21.2941 19.6641 21.7811 19.2325 21.9079 19.0046C22.0394 18.7654 22.3554 17.8499 22.6372 16.9736C22.6231 17.1847 22.609 17.4089 22.6606 17.7191C22.761 18.3319 22.5107 19.5147 22.4058 20.1425ZM18.8369 20.2284C18.8369 20.249 18.8369 20.2695 18.8399 20.2882C18.7569 20.2938 18.6708 20.3032 18.5894 20.3162C18.3186 20.3611 17.6846 20.7777 17.561 20.9496H17.3716V19.5109H19.6726C19.236 19.8884 18.8369 20.2284 18.8369 20.2284ZM48.8519 20.178C48.4011 22.465 46.8074 24.0195 45.9935 26.0898C45.1247 28.2946 45.2171 31.0412 43.8349 32.9526C43.2275 33.7916 42.3903 34.3465 41.5293 34.7669C39.9468 35.5386 38.3095 36.0879 36.6408 36.4728L37.5442 24.6996H38.2987V23.4272H37.419C37.4673 23.3936 37.5176 23.3562 37.5677 23.3151C38.2752 22.7396 37.8148 21.8689 38.2407 21.2318C38.4035 20.987 38.7071 20.9496 38.9123 20.7553C39.2095 20.4751 39.2347 19.9332 39.1062 19.5072C38.978 19.083 38.7321 18.7243 38.5568 18.3245C38.3815 17.9227 38.2844 17.422 38.4677 17.0277C38.6383 16.6578 39.0217 16.4541 39.1313 16.0524C39.2504 15.6171 38.9998 15.1742 38.7916 14.7912C38.5818 14.4063 38.4128 13.8719 38.6585 13.5206C38.7415 13.4029 38.8605 13.3263 38.9495 13.2142C39.2643 12.8106 39.0638 12.1623 38.8509 11.6727C38.8509 11.6727 38.757 11.3401 38.4596 11.3046C38.1731 11.2 37.9792 11.4653 37.9792 11.4653C37.6237 11.8166 37.2294 12.323 37.3889 12.8405C37.4343 12.9844 37.5204 13.1096 37.558 13.2572C37.6722 13.6944 37.3419 14.1092 37.0242 14.3671C36.708 14.6249 36.3323 14.9164 36.3027 15.3723C36.2744 15.7946 36.5608 16.1589 36.5986 16.5793C36.6189 16.7979 36.5704 17.0091 36.4796 17.2015C36.3152 16.9904 36.1445 16.7848 35.9928 16.5588C35.6782 16.0935 35.4434 15.4769 35.5936 14.907C35.7344 14.3745 36.1869 13.9915 36.2417 13.4366C36.3012 12.8349 35.8787 12.3416 35.5248 11.9082C35.171 11.4747 34.8329 10.8357 35.0772 10.3032C35.1586 10.1238 35.2962 9.98925 35.3856 9.81548C35.4997 9.59314 35.5233 9.35211 35.4873 9.10547C36.8866 9.77251 38.4442 9.98925 39.9235 10.1481C43.2199 10.5012 50.0932 13.8925 48.8519 20.178Z" fill="#9D9D9D"/>
<path d="M38.9121 20.7544C38.7069 20.9487 38.4033 20.9861 38.2406 21.2309C37.8146 21.868 38.275 22.7387 37.5675 23.3142C37.5174 23.3553 37.4671 23.3927 37.4188 23.4263C36.8318 23.8411 36.298 23.8205 35.8034 23.4263C35.7861 23.4151 35.7705 23.402 35.7548 23.3871C35.6216 23.275 35.4917 23.1348 35.3651 22.9704C35.1207 22.6509 34.8986 22.1726 35.0348 21.7484C35.1647 21.3448 35.5701 21.0758 35.4482 20.5601C35.3762 20.2593 35.1083 20.0855 34.9817 19.8108C34.7986 19.4147 34.9518 18.9046 35.2071 18.572C35.4638 18.2395 35.8066 18.0227 36.0976 17.7331C36.2463 17.5855 36.3857 17.4043 36.4797 17.2006C36.5705 17.0081 36.619 16.797 36.5987 16.5784C36.5611 16.158 36.2747 15.7936 36.3028 15.3714C36.3324 14.9155 36.7083 14.624 37.0243 14.3661C37.3421 14.1083 37.6725 13.6935 37.5581 13.2563C37.5205 13.1087 37.4344 12.9835 37.389 12.8396C37.2294 12.322 37.6238 11.8157 37.9793 11.4644C37.9793 11.4644 38.1732 11.1991 38.4597 11.3037C38.7571 11.3392 38.851 11.6718 38.851 11.6718C39.0639 12.1614 39.2644 12.8097 38.9496 13.2133C38.8606 13.3254 38.7416 13.402 38.6587 13.5197C38.4129 13.871 38.582 14.4054 38.7917 14.7903C38.9999 15.1733 39.2505 15.6161 39.1314 16.0515C39.0218 16.4532 38.6385 16.6569 38.4678 17.0268C38.2845 17.4211 38.3816 17.9218 38.5569 18.3235C38.7322 18.7234 38.978 19.0821 39.1063 19.5063C39.2345 19.9323 39.2093 20.4741 38.9121 20.7544Z" fill="#0B4870"/>
<path d="M38.3228 12.1877C38.1853 12.6559 38.071 13.1334 37.9806 13.6176C37.9347 13.8598 37.8904 14.101 37.8795 14.3435C37.869 14.5829 37.8932 14.8312 37.9134 15.0767C37.9605 15.569 37.98 16.0859 37.8903 16.5875C37.846 16.8381 37.7763 17.0873 37.6595 17.314C37.6301 17.371 37.5976 17.4257 37.5622 17.4777C37.5284 17.5277 37.4816 17.5827 37.454 17.6217C37.3884 17.7021 37.3361 17.8024 37.2861 17.902C37.1007 18.3216 37.0133 18.7931 37.0331 19.2669C37.0409 19.3816 37.052 19.4967 37.0786 19.604C37.0891 19.6589 37.1057 19.7099 37.1236 19.7596L37.1528 19.8448C37.1638 19.8766 37.1752 19.908 37.1843 19.9396C37.256 20.195 37.2915 20.4597 37.2856 20.7258C37.2763 20.9904 37.2341 21.26 37.1265 21.5029C37.076 21.6255 37.0024 21.7357 36.9215 21.8336C36.8766 21.8779 36.8357 21.9272 36.7844 21.9607L36.6571 22.056C36.5103 22.1761 36.4378 22.4059 36.42 22.6417C36.3982 22.8788 36.4204 23.1273 36.4635 23.3684V23.3689C36.4639 23.3708 36.464 23.3728 36.4637 23.3748C36.4634 23.3767 36.4628 23.3786 36.4619 23.3802C36.461 23.3819 36.4599 23.3833 36.4585 23.3844C36.4571 23.3854 36.4556 23.3862 36.4539 23.3865C36.448 23.3884 36.4425 23.3844 36.4402 23.3777C36.3589 23.1418 36.3139 22.8905 36.3073 22.6356C36.3055 22.5025 36.3219 22.3701 36.3559 22.2434C36.3893 22.1122 36.4605 21.9911 36.5485 21.8955L36.6767 21.7772C36.7156 21.7467 36.7459 21.7043 36.78 21.6671C36.8398 21.583 36.8938 21.4926 36.9296 21.388C37.0085 21.1851 37.0381 20.9523 37.0367 20.7219C37.0382 20.4908 37.0059 20.2613 36.9414 20.0434L36.8866 19.8771C36.8642 19.8133 36.8465 19.7473 36.8337 19.6798C36.8042 19.5472 36.7938 19.4134 36.7869 19.2809C36.7802 18.7554 36.8933 18.2376 37.1142 17.783C37.1735 17.672 37.235 17.561 37.3169 17.4651C37.3587 17.4119 37.3876 17.3809 37.4207 17.3359C37.4521 17.2931 37.4812 17.2473 37.5074 17.1987C37.6145 17.0051 37.6852 16.7787 37.7328 16.5455C37.7791 16.3112 37.8043 16.069 37.8106 15.8256C37.8187 15.5827 37.8043 15.3372 37.7896 15.0888C37.778 14.8401 37.7605 14.5913 37.7799 14.3342C37.8009 14.0804 37.8543 13.8362 37.9086 13.5963C38.0152 13.1145 38.1458 12.6406 38.2994 12.1772C38.3007 12.1736 38.3031 12.1707 38.3062 12.1692C38.3092 12.1676 38.3126 12.1676 38.3157 12.169C38.3221 12.172 38.3248 12.1802 38.3228 12.1877Z" fill="#0E538C"/>
<path opacity="0.7" d="M28.5435 22.1211H31.6506V28.9541H28.5435V22.1211Z" fill="#FFBE55"/>
<path d="M33.2833 20.5601C33.1597 21.0758 33.5666 21.3448 33.695 21.7484C33.8312 22.1726 33.6089 22.6509 33.3647 22.9704C33.2223 23.1554 33.0767 23.3086 32.9264 23.4263C32.8873 23.4599 32.8466 23.488 32.8057 23.516C32.4442 23.7551 32.0606 23.7981 31.6505 23.6206V22.1202H32.1733C32.1733 22.1109 32.1751 22.1034 32.1766 22.0941C32.1845 22.038 32.1954 21.982 32.2111 21.9278C32.222 21.883 32.2361 21.8381 32.2518 21.7933V21.3112H30.5379C30.5238 21.285 30.5066 21.257 30.4892 21.2309C30.3264 20.9861 30.0243 20.9487 29.8177 20.7544C29.5204 20.4741 29.4954 19.9323 29.6238 19.5063C29.7535 19.0821 29.9993 18.7234 30.1732 18.3235C30.3485 17.9218 30.4455 17.4211 30.2622 17.0268C30.0916 16.6569 29.7098 16.4532 29.5987 16.0515C29.4796 15.6161 29.7318 15.1733 29.94 14.7903C30.1481 14.4054 30.3188 13.871 30.0714 13.5197C29.9885 13.402 29.8695 13.3254 29.7804 13.2133C29.4674 12.8097 29.6662 12.1614 29.8791 11.6718C29.8791 11.6718 29.973 11.3392 30.272 11.3037C30.5584 11.1991 30.7525 11.4644 30.7525 11.4644C31.1063 11.8157 31.5006 12.322 31.3411 12.8396C31.2972 12.9835 31.2111 13.1087 31.172 13.2563C31.0593 13.6935 31.3896 14.1083 31.7058 14.3661C32.022 14.624 32.3977 14.9155 32.4272 15.3714C32.4571 15.7936 32.1691 16.158 32.1314 16.5784C32.1126 16.7783 32.1533 16.9708 32.2284 17.1501C32.3224 17.3725 32.4711 17.5724 32.6323 17.7331C32.9233 18.0227 33.2663 18.2395 33.5228 18.572C33.7797 18.9046 33.9329 19.4147 33.7484 19.8108C33.6213 20.0855 33.3536 20.2593 33.2833 20.5601Z" fill="#0B4870"/>
<path d="M31.6927 17.9542C31.8617 18.3652 31.9494 18.8155 31.9431 19.2808C31.9353 19.4135 31.9261 19.5461 31.8962 19.6788C31.8884 19.7199 31.879 19.761 31.8664 19.8002C31.8602 19.8264 31.8508 19.8507 31.8431 19.8768L31.7882 20.0431C31.7257 20.258 31.6896 20.4897 31.6928 20.7214C31.6913 20.9232 31.7148 21.1287 31.7727 21.3118H31.5332C31.477 21.1231 31.4504 20.9232 31.4441 20.7251C31.4394 20.4598 31.4737 20.1945 31.5457 19.9385C31.5553 19.9067 31.5661 19.8768 31.577 19.8451L31.6068 19.7591C31.6254 19.7087 31.6412 19.6582 31.6522 19.604L31.6615 19.5629C31.6819 19.4676 31.6913 19.3667 31.6975 19.2658C31.7132 18.9295 31.6692 18.5801 31.5722 18.255C31.5377 18.1317 31.4939 18.014 31.444 17.9019C31.3939 17.8028 31.3422 17.7019 31.2765 17.6216C31.2483 17.5824 31.2013 17.5282 31.1685 17.4777C31.1325 17.4261 31.1002 17.3711 31.0716 17.3133C30.9542 17.0872 30.8837 16.8387 30.8399 16.5865C30.7507 16.0857 30.7695 15.5682 30.8164 15.0768C30.8369 14.8301 30.8618 14.5816 30.851 14.3425C30.8401 14.1014 30.7961 13.8585 30.7493 13.6175C30.6601 13.1336 30.5442 12.6552 30.408 12.1863C30.4047 12.1788 30.408 12.1713 30.4143 12.1694C30.4206 12.1657 30.4284 12.1694 30.4299 12.1769C30.5833 12.6403 30.7148 13.113 30.8213 13.5951C30.8762 13.8361 30.9293 14.079 30.9496 14.3331C30.97 14.591 30.9512 14.8395 30.9401 15.088C30.926 15.3365 30.9119 15.5812 30.9197 15.826C30.926 16.0689 30.951 16.3099 30.9964 16.5454C31.045 16.7789 31.1154 17.005 31.2218 17.1975C31.2485 17.246 31.278 17.2928 31.3095 17.3357C31.3424 17.3806 31.3706 17.4123 31.4128 17.4647C31.4942 17.5599 31.5568 17.6721 31.6163 17.7823C31.6426 17.8383 31.6692 17.8963 31.6927 17.9542Z" fill="#0E538C"/>
<path d="M32.4224 22.634C32.419 22.7571 32.4069 22.8796 32.3863 23.0002C32.3644 23.1292 32.3316 23.2562 32.2893 23.3758C32.2877 23.3833 32.2815 23.387 32.2752 23.3851C32.2689 23.3833 32.2643 23.3758 32.2658 23.3683V23.3664C32.2954 23.202 32.3143 23.0339 32.3158 22.8694C32.3189 22.7928 32.3158 22.7162 32.3095 22.6415C32.297 22.464 32.2533 22.2921 32.1702 22.165C32.1592 22.1501 32.1483 22.1351 32.1357 22.1202H32.1732C32.1732 22.1108 32.1749 22.1034 32.1764 22.094C32.1843 22.038 32.1952 21.9819 32.2109 21.9277C32.225 21.9446 32.2392 21.9632 32.2516 21.9819C32.3079 22.0585 32.3503 22.1482 32.3737 22.2416C32.4081 22.3724 32.4255 22.5051 32.4224 22.634Z" fill="#F2F2F2"/>
<path d="M37.0557 19.4802C37.0354 19.5213 37.0103 19.5624 36.9837 19.5998C36.9446 19.6558 36.8992 19.7063 36.8507 19.753C36.6299 19.9734 36.3465 20.1211 36.2165 20.4256C35.8049 21.3823 36.5892 22.3669 35.7986 23.3348C35.7845 23.3535 35.769 23.3703 35.7549 23.3871C35.744 23.4002 35.7329 23.4151 35.7203 23.4264C34.822 24.4652 33.8748 24.4465 32.8699 23.5721C32.848 23.5534 32.8276 23.5347 32.8057 23.516C32.7761 23.4861 32.7447 23.4563 32.7151 23.4264C32.5945 23.3012 32.4803 23.1573 32.3862 23.0003C32.3612 22.9574 32.3377 22.9144 32.3158 22.8696C32.2093 22.6509 32.1484 22.4118 32.1702 22.1651C32.1702 22.1502 32.1718 22.1353 32.1733 22.1203C32.1733 22.111 32.175 22.1035 32.1766 22.0941C32.1844 22.0381 32.1954 21.982 32.211 21.9279C32.222 21.883 32.2361 21.8382 32.2517 21.7933C32.4004 21.3524 32.673 20.9413 32.4521 20.4256C32.33 20.1435 32.0796 19.9959 31.8667 19.7997C31.8009 19.7399 31.7385 19.6745 31.6853 19.5998C31.6765 19.5882 31.6687 19.5756 31.6618 19.5624C31.4254 19.2018 31.4332 18.6954 31.5725 18.2545C31.6054 18.1498 31.6463 18.0489 31.6931 17.9536C31.6962 17.9424 31.7025 17.9312 31.7072 17.9219C31.8512 17.6379 32.0374 17.3931 32.2284 17.1502C32.3817 16.9559 32.5368 16.7653 32.6761 16.5579C32.9907 16.0927 33.2255 15.4761 33.0753 14.9062C32.9344 14.3737 32.482 13.9906 32.4271 13.4357C32.3676 12.8341 32.7902 12.3408 33.144 11.9073C33.4979 11.4738 33.8343 10.8348 33.5932 10.3023C33.5103 10.1229 33.3725 9.98839 33.2834 9.81462C32.9749 9.21859 33.3334 8.47494 33.7029 7.91627C33.717 7.89385 33.7327 7.87143 33.7468 7.85087C33.7468 7.85087 33.9407 7.44729 34.3353 7.494C34.7282 7.44729 34.9223 7.85087 34.9223 7.85087C35.1681 8.21335 35.4215 8.66552 35.4874 9.10461C35.5234 9.35125 35.4998 9.59228 35.3857 9.81462C35.2964 9.98839 35.1587 10.1229 35.0773 10.3023C34.833 10.8348 35.1712 11.4738 35.5248 11.9073C35.8787 12.3408 36.3012 12.8341 36.2417 13.4357C36.187 13.9906 35.7346 14.3737 35.5937 14.9062C35.4434 15.4761 35.6782 16.0927 35.9929 16.5579C36.1447 16.784 36.3155 16.9895 36.4797 17.2006C36.6581 17.4267 36.8286 17.6584 36.9634 17.9219C36.9806 17.9555 36.9962 17.9891 37.0119 18.0246C37.059 18.1311 37.0981 18.2432 37.1277 18.361C37.2263 18.7421 37.2248 19.1569 37.0557 19.4802Z" fill="#2A94F4"/>
<path d="M31.6504 23.4258H38.2985V24.6982H31.6504V23.4258Z" fill="#0E538C"/>
<path d="M37.5438 24.6997L36.6405 36.4729L36.6062 36.9119H32.2513V36.598H32.0386L31.6504 31.5495V29.7651H32.2513V28.9542H31.6504V24.6997H37.5438ZM34.0841 23.1803C33.9293 22.903 34.0841 23.1803 34.0181 22.8462C33.9867 22.6744 33.9792 22.4975 33.9959 22.3228C34.01 22.1427 34.0757 21.9631 34.1695 21.812L34.3097 21.6186C34.3537 21.5676 34.3836 21.5026 34.4188 21.4439C34.4785 21.3166 34.5285 21.1823 34.5522 21.0362C34.6103 20.7483 34.5977 20.437 34.5461 20.1391C34.4991 19.8389 34.4024 19.548 34.2737 19.2899L34.1666 19.0913C34.1238 19.0156 34.0865 18.9356 34.0552 18.8521C33.9879 18.6892 33.9456 18.5192 33.9076 18.3495C33.7846 17.6707 33.8183 16.9647 34.0049 16.3069C34.0579 16.1448 34.1128 15.982 34.1981 15.8325C34.241 15.7505 34.2712 15.701 34.3041 15.6324C34.3355 15.567 34.3634 15.4986 34.387 15.4276C34.4838 15.1434 34.5257 14.828 34.5364 14.5108C34.5442 14.1904 34.5256 13.8698 34.4808 13.5538C34.4376 13.2367 34.3648 12.923 34.2922 12.6059C34.2233 12.2869 34.1465 11.9695 34.1151 11.6307C34.0865 11.295 34.1029 10.9622 34.1205 10.6347C34.153 9.97696 34.22 9.32151 34.318 8.67446C34.3183 8.6719 34.3191 8.66945 34.3202 8.66725C34.3214 8.66505 34.3229 8.66315 34.3246 8.66167C34.3264 8.66018 34.3284 8.65914 34.3305 8.65861C34.3326 8.65808 34.3348 8.65807 34.3369 8.65858C34.341 8.65957 34.3447 8.66238 34.3471 8.66643C34.3495 8.67049 34.3506 8.67549 34.3501 8.68044C34.2737 9.32983 34.2298 9.98408 34.2186 10.6397C34.2119 10.9674 34.2075 11.2946 34.2452 11.6119C34.2844 11.9252 34.3706 12.2395 34.45 12.5515C34.6182 13.175 34.7565 13.8387 34.7494 14.5166C34.7461 14.8553 34.7109 15.2001 34.6088 15.5304C34.5838 15.6128 34.5534 15.6933 34.5187 15.7722C34.4857 15.8479 34.437 15.9332 34.4094 15.9925C34.3418 16.1173 34.297 16.2638 34.253 16.4078C34.1042 17.0014 34.094 17.6625 34.223 18.2554C34.2588 18.4019 34.2978 18.5474 34.3556 18.678C34.3814 18.7458 34.4136 18.8073 34.4475 18.8665L34.5046 18.9674C34.526 19.0046 34.5472 19.0416 34.566 19.0803C34.7143 19.389 34.8188 19.7208 34.8687 20.0676C34.9149 20.4138 34.9188 20.7759 34.8324 21.124C34.7939 21.2987 34.7226 21.4641 34.6389 21.6158C34.5905 21.6875 34.5486 21.7641 34.4893 21.8237L34.3448 21.9869C34.1812 22.1885 34.1377 22.5084 34.1662 22.8193C34.1892 23.1337 34.2599 22.6799 34.3681 22.9788L34.0841 23.1803Z" fill="#0E538C"/>
<path d="M19.5505 20.7462L19.0465 20.8004L18.7663 20.8303C18.7303 20.8172 18.3702 20.8695 18.1715 20.9499C18.1494 20.9592 18.1306 20.9686 18.1135 20.9779C18.0024 21.0377 17.7895 21.0807 17.6565 21.0713C17.586 21.0657 17.5391 21.0452 17.5391 21.0041C17.5391 20.9985 17.5391 20.9929 17.5406 20.9873C17.5438 20.976 17.55 20.9648 17.561 20.9499C17.6846 20.778 18.3186 20.3613 18.5894 20.3165C18.6708 20.3034 18.7567 20.2941 18.8398 20.2884C19.0576 20.2716 19.247 20.2735 19.247 20.2735L19.5505 20.7462Z" fill="#F1B99E"/>
<path d="M23.5218 12.8876C23.5218 12.8895 23.5186 12.91 23.5139 12.9455C23.5061 13.0147 23.4905 13.138 23.4685 13.2949C23.4261 13.6101 23.3806 13.9246 23.3322 14.2385C23.3322 14.2441 23.3306 14.2478 23.3306 14.2534C23.2993 14.459 23.2649 14.6645 23.232 14.8495C23.1974 15.0382 23.1631 15.2064 23.1317 15.3315C23.0567 15.6193 22.8578 16.2826 22.637 16.9721V16.9739C22.3553 17.8502 22.0392 18.7658 21.9078 19.0049C21.7808 19.2329 21.294 19.6645 20.6195 20.0999C20.1249 20.4194 19.6584 20.7407 19.3672 20.95C19.314 20.9892 19.2655 21.0229 19.2248 21.0528C19.2248 21.0528 19.1935 21.0135 19.1481 20.95C19.117 20.9089 19.0824 20.8585 19.0465 20.8005C18.9542 20.6511 18.8571 20.4605 18.8399 20.2886C18.8369 20.2699 18.8369 20.2493 18.8369 20.2288C18.8369 20.2288 19.2361 19.8887 19.6728 19.5113C19.6869 19.4982 19.7024 19.4851 19.7166 19.4721C20.0782 19.16 20.4584 18.8293 20.6541 18.6481C20.6917 18.6144 20.7216 18.5864 20.7433 18.564C20.7825 18.5247 20.82 18.4874 20.8545 18.4519C20.9953 18.3117 21.0955 18.2108 21.1268 18.1454C21.2129 17.9679 21.5448 16.5218 21.7201 15.5165C21.742 15.3876 21.7655 15.2643 21.7888 15.1466C21.7998 15.0886 21.8123 15.0307 21.8234 14.9747C21.8812 14.6944 21.9408 14.4496 21.9985 14.2366C22.0253 14.1376 22.0519 14.0479 22.0785 13.962C22.0878 13.9283 22.0973 13.8966 22.1081 13.8667C22.1269 13.8069 22.1457 13.7508 22.1631 13.6966C22.1975 13.5976 22.2304 13.5098 22.2617 13.4332C22.282 13.3846 22.3008 13.3379 22.3179 13.2968C22.3429 13.2426 22.365 13.1959 22.3853 13.1548C22.4073 13.1099 22.4276 13.0707 22.4464 13.0371C22.4542 13.0221 22.4636 13.0072 22.4714 12.9941C22.4777 12.9829 22.4824 12.9735 22.4887 12.9661C22.4932 12.9586 22.498 12.9511 22.5012 12.9455C22.509 12.9324 22.5153 12.9231 22.5215 12.9156C22.5231 12.9119 22.5261 12.91 22.5278 12.9082C22.5309 12.9025 22.5323 12.9007 22.5323 12.9007C22.6669 12.7811 22.7906 12.712 22.8986 12.6783C22.9645 12.6578 23.0256 12.6484 23.0802 12.6484C23.096 12.6484 23.1115 12.6484 23.1256 12.6503C23.384 12.6727 23.5218 12.8876 23.5218 12.8876Z" fill="#F7F7F7"/>
<path d="M26.1344 10.2386C26.0012 10.758 25.6177 11.0776 25.2766 10.9524C25.1936 10.9225 25.1216 10.8683 25.0606 10.7973C25.0567 10.7946 25.0534 10.7907 25.051 10.7861C25.0387 10.7711 25.0261 10.7543 25.0136 10.7375V10.7356C24.9901 10.7039 24.9698 10.6684 24.9541 10.6291C24.9402 10.6046 24.9286 10.5783 24.9195 10.5506C24.9164 10.5432 24.9133 10.5338 24.9102 10.5245C24.8976 10.4871 24.8867 10.446 24.8788 10.4049C24.8397 10.2181 24.8428 10.0032 24.8976 9.78832C24.9211 9.69676 24.9524 9.61268 24.9916 9.53607C25.0715 9.36604 25.1827 9.23151 25.3063 9.14743C25.3625 9.11006 25.4204 9.08204 25.4799 9.06522C25.5707 9.04093 25.6648 9.0428 25.7554 9.07643C26.0984 9.19975 26.2674 9.72105 26.1344 10.2386Z" fill="#0B4870"/>
<path d="M26.6652 21.3123H22.334C22.3684 21.1235 22.3997 20.9479 22.4279 20.7928C22.4295 20.7854 22.4312 20.7779 22.4312 20.7704C22.4437 20.6994 22.4562 20.634 22.467 20.5742C22.4891 20.449 22.5077 20.3463 22.5203 20.2734C22.5312 20.2155 22.5375 20.1781 22.5408 20.1613C22.5408 20.1576 22.5423 20.1557 22.5423 20.1538C22.5423 20.1519 22.5439 20.1501 22.5455 20.1482C22.547 20.1426 22.5502 20.1351 22.5533 20.1295C22.5613 20.1146 22.5721 20.0922 22.5862 20.0641V20.0623C22.6034 20.0268 22.6253 19.9838 22.6521 19.9333C22.9305 19.3934 23.718 18.0462 24.6056 18.0219C24.9108 18.0126 25.2286 18.1583 25.5401 18.5469C25.6999 18.7431 25.8578 19.0028 26.0097 19.3354C26.1459 19.625 26.2773 19.9726 26.4057 20.3818C26.5016 20.6881 26.5882 20.9985 26.6652 21.3123Z" fill="#EEBEA7"/>
<path d="M26.7637 21.3108H22.29C22.3245 21.1221 22.3573 20.9483 22.3887 20.7951C22.3934 20.769 22.3982 20.7447 22.4045 20.7204C22.4153 20.6625 22.4278 20.6083 22.4389 20.5578C22.4624 20.4457 22.4859 20.3504 22.5062 20.272C22.5172 20.229 22.5297 20.1916 22.5408 20.1598C22.5408 20.1561 22.5424 20.1542 22.5424 20.1524C22.5424 20.1505 22.5439 20.1486 22.5455 20.1468C22.5471 20.1412 22.5502 20.1337 22.5533 20.1281C22.5613 20.1057 22.5721 20.0832 22.5862 20.0627V20.0608C22.8789 19.5937 24.1312 19.4255 25.0533 19.3657H25.0549C25.4963 19.3377 25.8594 19.334 26.0097 19.334H26.0817C26.0817 19.334 26.2774 19.661 26.4965 20.3317C26.6009 20.6519 26.6901 20.9787 26.7637 21.3108Z" fill="#0E538C"/>
<path d="M25.8791 18.7174C25.9716 18.9005 26.6901 20.1841 26.6901 20.1841C26.64 20.2383 26.5743 20.2869 26.496 20.3317C26.4679 20.3485 26.4381 20.3653 26.4052 20.3803C25.9356 20.6101 25.1248 20.726 24.3531 20.754C23.9226 20.7689 23.5064 20.7577 23.165 20.7241C23.0351 20.711 22.9161 20.6942 22.8128 20.6736C22.6626 20.6475 22.5452 20.612 22.4669 20.5727C22.4575 20.569 22.4481 20.5634 22.4387 20.5578C22.3886 20.5279 22.362 20.4943 22.3634 20.4569C22.3667 20.4102 22.373 20.3485 22.3855 20.2738C22.39 20.2345 22.398 20.1897 22.4058 20.1411C22.5107 19.5133 22.7612 18.3306 22.661 17.7177C22.6093 17.4076 22.6234 17.1834 22.6375 16.9722V16.9703C22.658 16.6807 22.6784 16.4154 22.5218 15.9838C22.2524 15.242 22.1225 14.6086 22.2524 14.1863C22.3119 13.992 22.4841 13.6445 22.6673 13.3231C22.7721 13.14 22.8817 12.9662 22.977 12.8317C23.032 12.7551 23.0821 12.6916 23.1257 12.6486C23.1383 12.6337 23.1508 12.6206 23.1617 12.6112C23.1868 12.5907 23.2071 12.5776 23.2242 12.5739C23.24 12.5701 23.2588 12.5645 23.2791 12.557C23.3042 12.5496 23.3339 12.5384 23.3652 12.5253C23.4122 12.5066 23.4654 12.486 23.5202 12.4618L23.7362 12.3646C23.7362 12.3646 23.7378 12.3627 23.7425 12.3609C23.7863 12.3403 23.83 12.3197 23.8677 12.3011C23.9835 12.2469 24.0665 12.2058 24.0665 12.2058C24.342 12.1572 24.7083 12.1647 24.9431 12.2039C24.9666 12.2076 24.9885 12.2132 25.0118 12.217C25.0542 12.2263 25.0901 12.2357 25.1184 12.2469C25.12 12.2469 25.1215 12.2469 25.1231 12.2487C25.1355 12.2506 25.148 12.2544 25.1605 12.26C25.1777 12.2637 25.1951 12.2693 25.2122 12.2749C25.4642 12.3384 26.0606 12.4356 26.4378 12.6355C26.5161 12.6785 26.5849 12.7233 26.6397 12.7738C27.0561 13.1606 26.5943 14.8366 26.5943 14.8366C26.5943 14.8366 26.0324 17.0208 25.9479 17.2768C25.9306 17.3272 25.915 17.4057 25.8993 17.5029C25.84 17.8952 25.8057 18.5698 25.8791 18.7174Z" fill="#FFBE55"/>
<path d="M25.1183 12.2469C24.4639 13.738 23.8894 13.0504 23.8894 13.0504C23.899 12.8897 23.8864 12.5945 23.8675 12.3011C23.8675 12.2936 23.8675 12.2862 23.8659 12.2787C23.8644 12.2432 23.8612 12.2058 23.8597 12.1703C23.8518 12.0545 23.8425 11.9405 23.8346 11.8377C23.8158 11.6098 23.8018 11.4435 23.8018 11.4435C23.8018 11.4435 24.5829 10.6475 24.9194 10.5504C24.9211 10.5504 24.9225 10.5504 24.9241 10.5485C24.9491 10.541 24.9711 10.5391 24.9898 10.5429C25.0618 10.5466 25.0916 10.6176 25.0509 10.7858C25.0509 10.7877 25.0509 10.7914 25.0493 10.7951C25.0462 10.8082 25.0431 10.8213 25.0415 10.8325V10.8344C24.8522 11.6509 25.1183 12.2469 25.1183 12.2469Z" fill="#EEBEA7"/>
<path d="M25.3064 9.14874C25.2984 9.59156 25.1765 10.0942 24.9901 10.5445C24.9807 10.5706 24.9697 10.5949 24.9605 10.6173C24.9573 10.623 24.9558 10.6267 24.9542 10.6304C24.8838 10.7911 24.8055 10.9425 24.7225 11.0807C24.7085 11.1031 24.6944 11.1256 24.6803 11.1461C24.494 11.4432 24.2794 11.673 24.0635 11.7758C24.0557 11.7795 24.0463 11.7851 24.0385 11.7889C24.0214 11.7982 24.0041 11.8038 23.9886 11.8094C23.9385 11.8262 23.8868 11.8375 23.8381 11.8393H23.835C23.5219 11.8561 23.223 11.5609 23.0163 10.778C22.8302 10.0699 22.7848 9.51496 22.8191 9.08334C22.9132 7.90061 23.6065 7.64089 23.6065 7.64089C23.6065 7.64089 25.1076 7.23544 25.2923 8.85352C25.3033 8.94695 25.308 9.04597 25.3064 9.14874Z" fill="#EEBEA7"/>
<path d="M25.4803 9.0652C25.4881 9.83687 25.1439 10.6198 25.0608 10.7973C25.0483 10.8215 25.042 10.8346 25.042 10.8346V10.8328C25.0373 10.8047 25.0279 10.773 25.0138 10.7375V10.7356C24.9997 10.6982 24.981 10.6571 24.9606 10.616C24.9481 10.5936 24.9371 10.5712 24.9246 10.5488C24.9199 10.5394 24.9152 10.5319 24.9105 10.5245C24.8933 10.4946 24.8761 10.4628 24.8589 10.4329C24.7524 10.2517 24.6335 10.0816 24.6053 10.0405C24.6022 10.0381 24.5995 10.0349 24.5975 10.0312C23.5268 9.93777 22.885 9.18851 22.885 9.18851C22.8568 9.15862 22.8365 9.12125 22.8193 9.08201C22.5751 8.47663 23.4908 6.85107 24.8213 7.72177C25.3159 8.04502 25.4756 8.55137 25.4803 9.0652Z" fill="#0B4870"/>
<path d="M24.6054 10.0175C24.6141 9.82469 24.7137 9.38486 24.954 9.50762C25.1947 9.63093 24.9394 10.5265 24.7794 10.4714C24.7794 10.4714 24.5861 10.4749 24.6054 10.0175Z" fill="#EEBEA7"/>
<path d="M24.7225 11.0801C24.7209 11.0894 24.6912 11.252 24.5691 11.4687C24.447 11.6855 24.2326 11.9526 23.86 12.1713C23.8522 12.0554 23.8428 11.9414 23.835 11.8387H23.8381C23.8506 11.8405 23.904 11.8424 23.9885 11.8088C24.0042 11.8032 24.0214 11.7976 24.0385 11.7882C24.0463 11.7845 24.0557 11.7789 24.0635 11.7751C24.2106 11.6967 24.4235 11.5229 24.6802 11.1455C24.6943 11.1249 24.7084 11.1025 24.7225 11.0801Z" fill="#A77860"/>
<path d="M25.2124 12.2764L23.8021 14.4083L23.7363 12.3661C23.7363 12.3661 23.7379 12.3642 23.7426 12.3624C23.7567 12.3474 23.7974 12.3157 23.8662 12.2802C24.0384 12.1923 24.3858 12.0821 24.9432 12.2054C24.9667 12.2092 24.9886 12.2148 25.0119 12.2185C25.0465 12.2278 25.0823 12.2372 25.1185 12.2484C25.1201 12.2484 25.1216 12.2484 25.1232 12.2503C25.1356 12.2521 25.1481 12.2559 25.1606 12.2615C25.178 12.2652 25.1952 12.2708 25.2124 12.2764Z" fill="#F7F7F7"/>
<path opacity="0.9" d="M32.2517 21.3125V21.7946C32.236 21.8394 32.2221 21.8842 32.211 21.9291C32.1953 21.9833 32.1844 22.0393 32.1766 22.0954C32.175 22.1047 32.1733 22.1122 32.1733 22.1215H28.5435V21.3125H32.2517Z" fill="#FFBE55"/>
<path d="M32.2516 21.793V22.1199H32.1733C32.1733 22.1106 32.1751 22.1031 32.1766 22.0938C32.1845 22.0377 32.1954 21.9817 32.2111 21.9275C32.222 21.8827 32.2361 21.8378 32.2516 21.793Z" fill="#0E538C"/>
<path d="M9.82031 21.3125H28.5431V22.1215H9.82031V21.3125Z" fill="#FFBE55"/>
<path d="M21.0362 19.2923L20.8405 19.5109L19.7166 19.4717L17.3718 19.3932L17.1088 19.3839L17.0712 19.382L16.3418 19.3577L14.4352 19.2923L13.1392 14.41L13.3348 14.1914H19.9372L20.8546 18.4515L21.0362 19.2923Z" fill="#F2F2F2"/>
<path d="M20.8405 19.5111H14.238L13.6541 16.8018L13.1392 14.4102H19.7401L20.6543 18.6478L20.8405 19.5111Z" fill="#D3D3D3"/>
<path d="M17.0713 18.1855H17.3718V20.949H17.0713V18.1855Z" fill="#F2F2F2"/>
<path d="M18.491 21.3115H17.5393V20.949H18.1887C18.3564 20.949 18.491 21.1116 18.491 21.3115ZM16.3418 18.1855H17.1088V20.949H16.3418V18.1855Z" fill="#F7F7F7"/>
<path d="M17.6567 20.9492V21.3117H15.2227C15.2224 21.2642 15.23 21.217 15.245 21.173C15.2601 21.129 15.2823 21.089 15.3104 21.0553C15.3385 21.0216 15.3719 20.9948 15.4087 20.9766C15.4455 20.9584 15.4849 20.9491 15.5248 20.9492H17.6567Z" fill="#D3D3D3"/>
<path opacity="0.5" d="M10.2666 22.1211V28.9541H28.5433V22.1211H10.2666ZM26.0325 26.9006H12.2279V24.0456H26.0325V26.9006Z" fill="#FFBE55"/>
<path opacity="0.9" d="M28.5435 28.9531H32.2515V29.764H28.5435V28.9531Z" fill="#FFBE55"/>
<path d="M9.82031 28.9531H28.5431V29.764H9.82031V28.9531Z" fill="#FFBE55"/>
<path opacity="0.5" d="M10.2666 29.7637H28.5433V36.5964H10.2666V29.7637Z" fill="#FFBE55"/>
<path opacity="0.9" d="M28.5435 36.5977H32.2515V37.4088H28.5435V36.5977Z" fill="#FFBE55"/>
<path opacity="0.7" d="M28.5435 29.7637H31.6506V36.5964H28.5435V29.7637Z" fill="#FFBE55"/>
<path d="M9.82031 36.5977H28.5431V37.4088H9.82031V36.5977Z" fill="#FFBE55"/>
<path d="M22.8581 20.7462L22.4434 20.791L22.4276 20.7929L22.3885 20.7966L22.0723 20.8302C22.0363 20.8172 21.6762 20.8695 21.4774 20.9498C21.4554 20.9592 21.4366 20.9685 21.4195 20.9778C21.2442 21.0731 20.809 21.1273 20.8482 20.9872C20.8513 20.976 20.8577 20.9648 20.8685 20.9498C20.9922 20.7779 21.6246 20.3613 21.8955 20.3164C22.0161 20.2977 22.1474 20.2865 22.2618 20.2809L22.3855 20.2753C22.4354 20.2734 22.4763 20.2734 22.506 20.2734H22.553L22.8128 20.6752L22.8581 20.7462Z" fill="#F1B99E"/>
<path d="M26.9467 12.9232C26.9467 12.9269 26.9436 12.9475 26.9389 12.9811C26.9154 13.1605 26.8434 13.7192 26.7573 14.2741C26.6931 14.6964 26.6196 15.1168 26.5554 15.3671C26.4646 15.724 26.1799 16.6582 25.8997 17.5028C25.7727 17.8914 25.6461 18.2595 25.5395 18.5454C25.452 18.7789 25.3798 18.9546 25.3313 19.0424C25.2859 19.1265 25.1906 19.2386 25.0543 19.3656H25.0527C25.0276 19.3899 25.0026 19.4142 24.9744 19.4385C24.7442 19.6478 24.4248 19.8907 24.0445 20.1354C23.7267 20.341 23.4199 20.5465 23.1648 20.724C23.0458 20.8062 22.9378 20.881 22.8454 20.9482C22.7689 21.0024 22.703 21.0491 22.6482 21.0902C22.6482 21.0902 22.6028 21.0342 22.5449 20.9482C22.512 20.9034 22.4776 20.8492 22.4433 20.7894C22.4386 20.7838 22.4353 20.7763 22.4308 20.7689C22.4212 20.7539 22.412 20.7371 22.4042 20.7203C22.329 20.5801 22.2633 20.4195 22.2617 20.2793V20.2644L22.4057 20.1411C22.4715 20.085 22.556 20.014 22.6515 19.9318C23.1493 19.5058 23.9695 18.7976 24.1681 18.5996C24.3671 18.3996 24.5125 18.2614 24.5516 18.181C24.5642 18.1549 24.5829 18.0988 24.6048 18.0204C24.6956 17.7083 24.8522 17.0319 24.9899 16.3593C25.0463 16.0809 25.1011 15.8025 25.1449 15.5521C25.5049 13.4856 25.9571 12.9363 25.9571 12.9363C26.1497 12.77 26.3078 12.6747 26.4377 12.6354C26.494 12.6149 26.5457 12.6074 26.5911 12.6074C26.7933 12.6074 26.9013 12.7625 26.9467 12.9232Z" fill="#F7F7F7"/>
<path fill-rule="evenodd" clip-rule="evenodd" d="M23.8036 14.4355L23.5704 13.32C23.5375 13.3163 23.5031 13.3069 23.4688 13.2939C23.3013 13.2285 23.1151 13.0659 22.9771 12.8323C22.9177 12.731 22.8704 12.6203 22.8364 12.5035C22.9585 12.5353 23.0587 12.5894 23.162 12.6119C23.3138 12.6474 23.4766 12.6193 23.7365 12.3652L23.8022 14.4075V14.4093L23.8036 14.4355Z" fill="#0E538C"/>
<path fill-rule="evenodd" clip-rule="evenodd" d="M23.8022 14.4084L25.2132 12.2754C25.3388 13.0968 25.6266 12.7171 25.9359 12.8985C25.5457 13.267 24.9069 13.6407 24.6632 13.4518L23.8022 14.4084Z" fill="#0E538C"/>
<path d="M22.292 14.7227L22.3491 14.1211L23.4101 14.2648L23.3529 14.8663L22.292 14.7227Z" fill="#F7F7F7"/>
<path d="M12.228 24.0449H26.0326V26.8999H12.228V24.0449Z" fill="#FFBE55"/>
<path d="M18.189 20.9492H23.8351V21.3117H18.189V20.9492Z" fill="#F7F7F7"/>
</g>
<defs>
<clipPath id="clip0_4260_23288">
<rect width="49" height="40" fill="white"/>
</clipPath>
</defs>
</svg>
