<svg width="35" height="35" viewBox="0 0 35 35" fill="none" xmlns="http://www.w3.org/2000/svg">
<path d="M21.875 26.25C21.875 27.4103 21.4141 28.5231 20.5936 29.3436C19.7731 30.1641 18.6603 30.625 17.5 30.625C16.3397 30.625 15.2269 30.1641 14.4064 29.3436C13.5859 28.5231 13.125 27.4103 13.125 26.25C13.125 25.0897 13.5859 23.9769 14.4064 23.1564C15.2269 22.3359 16.3397 21.875 17.5 21.875C18.6603 21.875 19.7731 22.3359 20.5936 23.1564C21.4141 23.9769 21.875 25.0897 21.875 26.25Z" fill="url(#paint0_linear_4160_22768)"/>
<path d="M17.5004 2.92285C20.4012 2.92285 23.1832 4.07519 25.2344 6.12637C27.2856 8.17755 28.4379 10.9595 28.4379 13.8604V19.6908L30.5059 24.2991C30.6008 24.5101 30.6415 24.7415 30.6241 24.9722C30.6066 25.2029 30.5317 25.4255 30.4061 25.6198C30.2806 25.8141 30.1083 25.9739 29.9051 26.0846C29.702 26.1952 29.4743 26.2532 29.2429 26.2533H5.76378C5.53249 26.2533 5.30486 26.1955 5.10165 26.085C4.89845 25.9746 4.72613 25.815 4.60043 25.6208C4.47472 25.4267 4.39961 25.2042 4.38197 24.9736C4.36432 24.7429 4.40469 24.5116 4.4994 24.3006L6.56294 19.6922V13.8399L6.57023 13.4754C6.66999 10.6431 7.86523 7.96005 9.90413 5.99161C11.943 4.02317 14.6664 2.92298 17.5004 2.92285Z" fill="url(#paint1_linear_4160_22768)"/>
<defs>
<linearGradient id="paint0_linear_4160_22768" x1="17.5" y1="25.5208" x2="17.5277" y2="30.6235" gradientUnits="userSpaceOnUse">
<stop stop-color="#EB4824"/>
<stop offset="1" stop-color="#FFCD0F" stop-opacity="0.988"/>
</linearGradient>
<linearGradient id="paint1_linear_4160_22768" x1="30.6648" y1="26.2431" x2="8.13502" y2="5.50702" gradientUnits="userSpaceOnUse">
<stop stop-color="#FF6F47"/>
<stop offset="1" stop-color="#FFCD0F"/>
</linearGradient>
</defs>
</svg>
