<svg width="38" height="38" viewBox="0 0 38 38" fill="none" xmlns="http://www.w3.org/2000/svg">
<path d="M19 0C8.65962 0 0 7.42461 0 16.8077C0 21.2362 1.98623 25.2086 5.11538 28.1799C4.73492 29.1742 4.19486 30.0998 3.51646 30.9203C2.61732 32.0109 1.62403 33.0203 0.548077 33.9369C0.312062 34.1263 0.140634 34.3842 0.0574516 34.6751C-0.0257313 34.9661 -0.0165684 35.2756 0.0836757 35.5611C0.18392 35.8466 0.370303 36.094 0.617104 36.269C0.863905 36.4441 1.15896 36.5382 1.46154 36.5385C4.69885 36.5385 7.02708 36.5019 9.13461 35.9451C11.02 35.4452 12.6408 34.3988 14.2953 32.9299C15.8007 33.2909 17.3543 33.6154 19 33.6154C29.3404 33.6154 38 26.1908 38 16.8077C38 7.42461 29.3404 0 19 0ZM19 2.92308C27.9519 2.92308 35.0769 9.23692 35.0769 16.8077C35.0769 24.3785 27.9519 30.6923 19 30.6923C17.4084 30.6923 15.7554 30.4175 14.25 30.0068C14.0093 29.9463 13.7571 29.9481 13.5172 30.012C13.2774 30.076 13.0578 30.1999 12.8791 30.3722C11.2348 31.9492 10.0232 32.6844 8.40385 33.1126C7.65846 33.3099 6.22031 33.2632 5.206 33.3421C5.41062 33.1112 5.60208 32.9884 5.80085 32.7472C6.94962 31.3442 7.99754 29.8607 8.31323 28.1799C8.35672 27.9276 8.33316 27.6683 8.24493 27.428C8.15669 27.1876 8.00687 26.9747 7.81046 26.8105C4.74854 24.282 2.92308 20.7378 2.92308 16.8077C2.92308 9.23692 10.0481 2.92308 19 2.92308ZM16.2143 8.63185C15.957 8.68958 15.7202 8.81584 15.5288 8.99723L13.3365 11.0536L15.3008 13.1992L17.0357 11.5549H20.5522L21.9231 13.11V15.257L18.1772 17.7679C17.9769 17.9043 17.8137 18.0883 17.7022 18.3033C17.5908 18.5184 17.5345 18.7578 17.5385 19V21.9231H20.4615V19.8214L24.2075 17.3105C24.4079 17.174 24.5712 16.9898 24.6827 16.7744C24.7942 16.5591 24.8504 16.3194 24.8462 16.0769V12.5605C24.8442 12.2072 24.7144 11.8666 24.4808 11.6017L22.2885 9.13461C22.152 8.97765 21.9837 8.8516 21.7947 8.7649C21.6056 8.6782 21.4003 8.63284 21.1923 8.63185H16.5329C16.427 8.62024 16.3202 8.62024 16.2143 8.63185ZM17.5385 23.3846V26.3077H20.4615V23.3846H17.5385Z" fill="#E7A05E"/>
</svg>
