<svg width="13" height="14" viewBox="0 0 13 14" fill="none" xmlns="http://www.w3.org/2000/svg">
<path d="M11.05 1.4H9.75V0.7C9.75 0.514348 9.68152 0.336301 9.55962 0.205025C9.43772 0.0737498 9.27239 0 9.1 0C8.92761 0 8.76228 0.0737498 8.64038 0.205025C8.51848 0.336301 8.45 0.514348 8.45 0.7V1.4H4.55V0.7C4.55 0.514348 4.48152 0.336301 4.35962 0.205025C4.23772 0.0737498 4.07239 0 3.9 0C3.72761 0 3.56228 0.0737498 3.44038 0.205025C3.31848 0.336301 3.25 0.514348 3.25 0.7V1.4H1.95C1.43283 1.4 0.936838 1.62125 0.571142 2.01508C0.205446 2.4089 0 2.94305 0 3.5V11.9C0 12.457 0.205446 12.9911 0.571142 13.3849C0.936838 13.7788 1.43283 14 1.95 14H11.05C11.5672 14 12.0632 13.7788 12.4289 13.3849C12.7946 12.9911 13 12.457 13 11.9V3.5C13 2.94305 12.7946 2.4089 12.4289 2.01508C12.0632 1.62125 11.5672 1.4 11.05 1.4ZM11.7 11.9C11.7 12.0857 11.6315 12.2637 11.5096 12.395C11.3877 12.5263 11.2224 12.6 11.05 12.6H1.95C1.77761 12.6 1.61228 12.5263 1.49038 12.395C1.36848 12.2637 1.3 12.0857 1.3 11.9V7H11.7V11.9ZM11.7 5.6H1.3V3.5C1.3 3.31435 1.36848 3.1363 1.49038 3.00503C1.61228 2.87375 1.77761 2.8 1.95 2.8H3.25V3.5C3.25 3.68565 3.31848 3.8637 3.44038 3.99497C3.56228 4.12625 3.72761 4.2 3.9 4.2C4.07239 4.2 4.23772 4.12625 4.35962 3.99497C4.48152 3.8637 4.55 3.68565 4.55 3.5V2.8H8.45V3.5C8.45 3.68565 8.51848 3.8637 8.64038 3.99497C8.76228 4.12625 8.92761 4.2 9.1 4.2C9.27239 4.2 9.43772 4.12625 9.55962 3.99497C9.68152 3.8637 9.75 3.68565 9.75 3.5V2.8H11.05C11.2224 2.8 11.3877 2.87375 11.5096 3.00503C11.6315 3.1363 11.7 3.31435 11.7 3.5V5.6Z" fill="#4B4B4B"/>
</svg>
