<svg width="33" height="28" viewBox="0 0 33 28" fill="none" xmlns="http://www.w3.org/2000/svg">
<path d="M17.4178 1.07922C16.8609 0.707969 16.1391 0.707969 15.5822 1.07922L8.57484 5.75078H2.475C1.10859 5.75078 0 6.85938 0 8.22578V24.7258C0 26.0922 1.10859 27.2008 2.475 27.2008H13.2V22.2508C13.2 20.4306 14.6798 18.9508 16.5 18.9508C18.3202 18.9508 19.8 20.4306 19.8 22.2508V27.2008H30.525C31.8914 27.2008 33 26.0922 33 24.7258V8.22578C33 6.85938 31.8914 5.75078 30.525 5.75078H24.4252L17.4178 1.07922ZM4.95 10.7008H6.6C7.05375 10.7008 7.425 11.072 7.425 11.5258V14.8258C7.425 15.2795 7.05375 15.6508 6.6 15.6508H4.95C4.49625 15.6508 4.125 15.2795 4.125 14.8258V11.5258C4.125 11.072 4.49625 10.7008 4.95 10.7008ZM25.575 11.5258C25.575 11.072 25.9462 10.7008 26.4 10.7008H28.05C28.5037 10.7008 28.875 11.072 28.875 11.5258V14.8258C28.875 15.2795 28.5037 15.6508 28.05 15.6508H26.4C25.9462 15.6508 25.575 15.2795 25.575 14.8258V11.5258ZM4.95 17.3008H6.6C7.05375 17.3008 7.425 17.672 7.425 18.1258V21.4258C7.425 21.8795 7.05375 22.2508 6.6 22.2508H4.95C4.49625 22.2508 4.125 21.8795 4.125 21.4258V18.1258C4.125 17.672 4.49625 17.3008 4.95 17.3008ZM25.575 18.1258C25.575 17.672 25.9462 17.3008 26.4 17.3008H28.05C28.5037 17.3008 28.875 17.672 28.875 18.1258V21.4258C28.875 21.8795 28.5037 22.2508 28.05 22.2508H26.4C25.9462 22.2508 25.575 21.8795 25.575 21.4258V18.1258ZM11.9625 9.87578C11.9625 8.67236 12.4406 7.51823 13.2915 6.66728C14.1424 5.81634 15.2966 5.33828 16.5 5.33828C17.7034 5.33828 18.8576 5.81634 19.7085 6.66728C20.5594 7.51823 21.0375 8.67236 21.0375 9.87578C21.0375 11.0792 20.5594 12.2333 19.7085 13.0843C18.8576 13.9352 17.7034 14.4133 16.5 14.4133C15.2966 14.4133 14.1424 13.9352 13.2915 13.0843C12.4406 12.2333 11.9625 11.0792 11.9625 9.87578ZM16.5 7.40078C16.0462 7.40078 15.675 7.77203 15.675 8.22578V9.87578C15.675 10.3295 16.0462 10.7008 16.5 10.7008H18.15C18.6038 10.7008 18.975 10.3295 18.975 9.87578C18.975 9.42203 18.6038 9.05078 18.15 9.05078H17.325V8.22578C17.325 7.77203 16.9538 7.40078 16.5 7.40078Z" fill="#0FBEB3"/>
</svg>
