<svg width="34" height="27" viewBox="0 0 34 27" fill="none" xmlns="http://www.w3.org/2000/svg">
<path d="M17.9387 0.284766C17.3691 -0.0949219 16.6309 -0.0949219 16.0613 0.284766L8.89473 5.0625H2.65625C1.25879 5.0625 0.125 6.19629 0.125 7.59375V24.4688C0.125 25.8662 1.25879 27 2.65625 27H13.625V21.9375C13.625 20.076 15.1385 18.5625 17 18.5625C18.8615 18.5625 20.375 20.076 20.375 21.9375V27H31.3438C32.7412 27 33.875 25.8662 33.875 24.4688V7.59375C33.875 6.19629 32.7412 5.0625 31.3438 5.0625H25.1053L17.9387 0.284766ZM5.1875 10.125H6.875C7.33906 10.125 7.71875 10.5047 7.71875 10.9688V14.3438C7.71875 14.8078 7.33906 15.1875 6.875 15.1875H5.1875C4.72344 15.1875 4.34375 14.8078 4.34375 14.3438V10.9688C4.34375 10.5047 4.72344 10.125 5.1875 10.125ZM26.2812 10.9688C26.2812 10.5047 26.6609 10.125 27.125 10.125H28.8125C29.2766 10.125 29.6562 10.5047 29.6562 10.9688V14.3438C29.6562 14.8078 29.2766 15.1875 28.8125 15.1875H27.125C26.6609 15.1875 26.2812 14.8078 26.2812 14.3438V10.9688ZM5.1875 16.875H6.875C7.33906 16.875 7.71875 17.2547 7.71875 17.7188V21.0938C7.71875 21.5578 7.33906 21.9375 6.875 21.9375H5.1875C4.72344 21.9375 4.34375 21.5578 4.34375 21.0938V17.7188C4.34375 17.2547 4.72344 16.875 5.1875 16.875ZM26.2812 17.7188C26.2812 17.2547 26.6609 16.875 27.125 16.875H28.8125C29.2766 16.875 29.6562 17.2547 29.6562 17.7188V21.0938C29.6562 21.5578 29.2766 21.9375 28.8125 21.9375H27.125C26.6609 21.9375 26.2812 21.5578 26.2812 21.0938V17.7188ZM12.3594 9.28125C12.3594 8.05048 12.8483 6.87012 13.7186 5.99983C14.5889 5.12955 15.7692 4.64062 17 4.64062C18.2308 4.64062 19.4111 5.12955 20.2814 5.99983C21.1517 6.87012 21.6406 8.05048 21.6406 9.28125C21.6406 10.512 21.1517 11.6924 20.2814 12.5627C19.4111 13.433 18.2308 13.9219 17 13.9219C15.7692 13.9219 14.5889 13.433 13.7186 12.5627C12.8483 11.6924 12.3594 10.512 12.3594 9.28125ZM17 6.75C16.5359 6.75 16.1562 7.12969 16.1562 7.59375V9.28125C16.1562 9.74531 16.5359 10.125 17 10.125H18.6875C19.1516 10.125 19.5312 9.74531 19.5312 9.28125C19.5312 8.81719 19.1516 8.4375 18.6875 8.4375H17.8438V7.59375C17.8438 7.12969 17.4641 6.75 17 6.75Z" fill="#AD5191"/>
</svg>
