<svg width="24" height="24" viewBox="0 0 24 24" fill="none" xmlns="http://www.w3.org/2000/svg">
<path fill-rule="evenodd" clip-rule="evenodd" d="M19.083 0.107184H5.22126C4.24943 0.108115 3.31618 0.487583 2.61946 1.1651C1.92274 1.84262 1.51734 2.7649 1.48926 3.73633V20.1489C1.49017 21.1381 1.88376 22.0865 2.58355 22.7856C3.28333 23.4848 4.23206 23.8775 5.22126 23.8775H20.7133C21.0542 23.8775 21.3813 23.742 21.6224 23.5009C21.8635 23.2598 21.999 22.9327 21.999 22.5918C21.999 22.2508 21.8635 21.9237 21.6224 21.6826C21.3813 21.4415 21.0542 21.306 20.7133 21.306H20.3704V18.6849C20.8595 18.4445 21.2713 18.0717 21.5592 17.609C21.847 17.1463 21.9994 16.6121 21.999 16.0672V3.02147C21.9992 2.63847 21.9239 2.25919 21.7775 1.9053C21.631 1.55141 21.4162 1.22986 21.1454 0.959043C20.8746 0.688223 20.553 0.47344 20.1991 0.326978C19.8453 0.180515 19.466 0.105244 19.083 0.105469V0.107184ZM4.40011 20.9649C4.23819 20.8025 4.12802 20.5958 4.08349 20.3708C4.03897 20.1458 4.06209 19.9127 4.14994 19.7009C4.2378 19.489 4.38644 19.308 4.57711 19.1806C4.76778 19.0531 4.99193 18.985 5.22126 18.9849H17.7973V21.306H5.22126C4.91263 21.3057 4.61843 21.1831 4.40011 20.9649ZM14.703 14.2689C14.1003 14.4111 13.4681 14.3577 12.8978 14.1163C10.5916 12.7331 8.66158 10.8031 7.2784 8.4969C7.03913 7.92572 6.9869 7.29345 7.12918 6.69076C7.27146 6.08806 7.60095 5.5459 8.0704 5.14204L8.49211 4.72033C8.63959 4.53622 8.85255 4.41628 9.08644 4.38561C9.32032 4.35493 9.55701 4.4159 9.74697 4.55575L11.1115 5.92033C11.2514 6.11029 11.3124 6.34697 11.2817 6.58086C11.251 6.81475 11.1311 7.02771 10.947 7.17518C10.7631 7.3229 10.6435 7.53598 10.6132 7.76986C10.5828 8.00373 10.6441 8.24029 10.7841 8.43004L12.9647 10.6106C13.1544 10.7507 13.391 10.8119 13.6249 10.7816C13.8587 10.7512 14.0718 10.6316 14.2195 10.4478C14.3673 10.2639 14.5803 10.1443 14.8142 10.114C15.0481 10.0836 15.2846 10.1449 15.4744 10.2849L16.839 11.6478C16.9788 11.8377 17.0398 12.0744 17.0091 12.3083C16.9784 12.5422 16.8585 12.7551 16.6744 12.9026L16.2527 13.326C15.85 13.7969 15.3078 14.1271 14.7047 14.2689H14.703Z" fill="#323F49"/>
</svg>
