<svg width="17" height="18" viewBox="0 0 17 18" fill="none" xmlns="http://www.w3.org/2000/svg">
<path fill-rule="evenodd" clip-rule="evenodd" d="M3.54199 1.91699C2.97841 1.91699 2.43791 2.14088 2.03939 2.53939C1.64088 2.93791 1.41699 3.47841 1.41699 4.04199V13.9587C1.41699 14.5222 1.64088 15.0627 2.03939 15.4613C2.43791 15.8598 2.97841 16.0837 3.54199 16.0837H9.91699V12.542C9.91699 11.9784 10.1409 11.4379 10.5394 11.0394C10.9379 10.6409 11.4784 10.417 12.042 10.417H15.5837V4.04199C15.5837 3.47841 15.3598 2.93791 14.9613 2.53939C14.5627 2.14088 14.0222 1.91699 13.4587 1.91699H3.54199ZM12.2495 15.461C11.9949 15.7156 11.6798 15.9014 11.3337 16.0008V12.542C11.3337 12.3541 11.4083 12.174 11.5411 12.0411C11.674 11.9083 11.8541 11.8337 12.042 11.8337H15.5008C15.4014 12.1798 15.2156 12.4949 14.961 12.7495L12.2495 15.461ZM4.95866 4.75033C4.7708 4.75033 4.59063 4.82495 4.45779 4.95779C4.32495 5.09063 4.25033 5.2708 4.25033 5.45866C4.25033 5.64652 4.32495 5.82669 4.45779 5.95953C4.59063 6.09236 4.7708 6.16699 4.95866 6.16699H12.042C12.2299 6.16699 12.41 6.09236 12.5429 5.95953C12.6757 5.82669 12.7503 5.64652 12.7503 5.45866C12.7503 5.2708 12.6757 5.09063 12.5429 4.95779C12.41 4.82495 12.2299 4.75033 12.042 4.75033H4.95866ZM4.95866 7.58366C4.7708 7.58366 4.59063 7.65829 4.45779 7.79113C4.32495 7.92396 4.25033 8.10413 4.25033 8.29199C4.25033 8.47985 4.32495 8.66002 4.45779 8.79286C4.59063 8.9257 4.7708 9.00033 4.95866 9.00033H12.042C12.2299 9.00033 12.41 8.9257 12.5429 8.79286C12.6757 8.66002 12.7503 8.47985 12.7503 8.29199C12.7503 8.10413 12.6757 7.92396 12.5429 7.79113C12.41 7.65829 12.2299 7.58366 12.042 7.58366H4.95866ZM4.95866 10.417C4.7708 10.417 4.59063 10.4916 4.45779 10.6245C4.32495 10.7573 4.25033 10.9375 4.25033 11.1253C4.25033 11.3132 4.32495 11.4934 4.45779 11.6262C4.59063 11.759 4.7708 11.8337 4.95866 11.8337H7.79199C7.97985 11.8337 8.16002 11.759 8.29286 11.6262C8.4257 11.4934 8.50033 11.3132 8.50033 11.1253C8.50033 10.9375 8.4257 10.7573 8.29286 10.6245C8.16002 10.4916 7.97985 10.417 7.79199 10.417H4.95866Z" fill="#3557FF"/>
</svg>
