<svg width="136" height="28" viewBox="0 0 136 28" fill="none" xmlns="http://www.w3.org/2000/svg">
<rect width="136" height="28" rx="14" fill="#AEBCFF"/>
<path d="M19.3 20C17.9111 20 16.5389 19.6973 15.1833 19.092C13.8278 18.4867 12.5944 17.6282 11.4833 16.5167C10.3722 15.4051 9.514 14.1718 8.90867 12.8167C8.30333 11.4616 8.00044 10.0893 8 8.7C8 8.5 8.06667 8.33333 8.2 8.2C8.33333 8.06667 8.5 8 8.7 8H11.4C11.5556 8 11.6944 8.05289 11.8167 8.15867C11.9389 8.26444 12.0111 8.38933 12.0333 8.53333L12.4667 10.8667C12.4889 11.0444 12.4833 11.1944 12.45 11.3167C12.4167 11.4389 12.3556 11.5444 12.2667 11.6333L10.65 13.2667C10.8722 13.6778 11.136 14.0749 11.4413 14.458C11.7467 14.8411 12.0829 15.2107 12.45 15.5667C12.7944 15.9111 13.1556 16.2307 13.5333 16.5253C13.9111 16.82 14.3111 17.0893 14.7333 17.3333L16.3 15.7667C16.4 15.6667 16.5307 15.5918 16.692 15.542C16.8533 15.4922 17.0116 15.4782 17.1667 15.5L19.4667 15.9667C19.6222 16.0111 19.75 16.0918 19.85 16.2087C19.95 16.3256 20 16.456 20 16.6V19.3C20 19.5 19.9333 19.6667 19.8 19.8C19.6667 19.9333 19.5 20 19.3 20Z" fill="#0027E3"/>
<path d="M37.32 19.168C36.3587 19.168 35.528 18.958 34.828 18.538C34.1373 18.1087 33.6007 17.516 33.218 16.76C32.8447 15.9947 32.658 15.108 32.658 14.1C32.658 13.1013 32.8447 12.2193 33.218 11.454C33.6007 10.6887 34.1373 10.096 34.828 9.676C35.528 9.24667 36.3587 9.032 37.32 9.032C38.468 9.032 39.3967 9.30733 40.106 9.858C40.8247 10.4087 41.282 11.1833 41.478 12.182H39.938C39.798 11.6033 39.5087 11.1413 39.07 10.796C38.6407 10.4507 38.0573 10.278 37.32 10.278C36.6573 10.278 36.0833 10.432 35.598 10.74C35.1127 11.048 34.7393 11.4867 34.478 12.056C34.2167 12.6253 34.086 13.3067 34.086 14.1C34.086 14.8933 34.2167 15.5793 34.478 16.158C34.7393 16.7273 35.1127 17.166 35.598 17.474C36.0833 17.7727 36.6573 17.922 37.32 17.922C38.0573 17.922 38.6407 17.7587 39.07 17.432C39.5087 17.096 39.798 16.6433 39.938 16.074H41.478C41.282 17.0447 40.8247 17.8053 40.106 18.356C39.3967 18.8973 38.468 19.168 37.32 19.168ZM45.4209 19.168C44.8422 19.168 44.3615 19.07 43.9789 18.874C43.5962 18.678 43.3115 18.4167 43.1249 18.09C42.9382 17.754 42.8449 17.3947 42.8449 17.012C42.8449 16.5453 42.9662 16.1487 43.2089 15.822C43.4515 15.486 43.7969 15.2293 44.2449 15.052C44.6929 14.8747 45.2295 14.786 45.8549 14.786H47.6889C47.6889 14.3753 47.6282 14.0347 47.5069 13.764C47.3855 13.4933 47.2035 13.2927 46.9609 13.162C46.7275 13.022 46.4289 12.952 46.0649 12.952C45.6449 12.952 45.2855 13.0547 44.9869 13.26C44.6882 13.456 44.5015 13.75 44.4269 14.142H43.0269C43.0829 13.6473 43.2509 13.2273 43.5309 12.882C43.8202 12.5273 44.1889 12.2567 44.6369 12.07C45.0849 11.874 45.5609 11.776 46.0649 11.776C46.7275 11.776 47.2829 11.8927 47.7309 12.126C48.1789 12.3593 48.5149 12.6907 48.7389 13.12C48.9722 13.54 49.0889 14.044 49.0889 14.632V19H47.8709L47.7589 17.81C47.6562 17.9967 47.5349 18.174 47.3949 18.342C47.2549 18.51 47.0869 18.6547 46.8909 18.776C46.7042 18.8973 46.4849 18.9907 46.2329 19.056C45.9902 19.1307 45.7195 19.168 45.4209 19.168ZM45.6869 18.034C45.9855 18.034 46.2562 17.9733 46.4989 17.852C46.7415 17.7307 46.9469 17.5673 47.1149 17.362C47.2922 17.1473 47.4229 16.9093 47.5069 16.648C47.6002 16.3773 47.6515 16.102 47.6609 15.822V15.78H45.9949C45.5935 15.78 45.2669 15.8313 45.0149 15.934C44.7722 16.0273 44.5949 16.158 44.4829 16.326C44.3709 16.494 44.3149 16.69 44.3149 16.914C44.3149 17.1473 44.3662 17.348 44.4689 17.516C44.5809 17.6747 44.7395 17.8007 44.9449 17.894C45.1502 17.9873 45.3975 18.034 45.6869 18.034ZM50.8758 19V8.92H52.2758V19H50.8758ZM54.1981 19V8.92H55.5981V19H54.1981ZM61.1024 22.08V11.944H62.3624L62.5024 13.036C62.6517 12.8213 62.8384 12.6207 63.0624 12.434C63.2864 12.238 63.5524 12.0793 63.8604 11.958C64.1777 11.8367 64.5464 11.776 64.9664 11.776C65.6384 11.776 66.2264 11.9393 66.7304 12.266C67.2437 12.5927 67.6404 13.036 67.9204 13.596C68.2097 14.1467 68.3544 14.7767 68.3544 15.486C68.3544 16.1953 68.2097 16.83 67.9204 17.39C67.6311 17.9407 67.2297 18.3747 66.7164 18.692C66.2124 19.0093 65.6244 19.168 64.9524 19.168C64.4017 19.168 63.9164 19.0607 63.4964 18.846C63.0764 18.622 62.7451 18.314 62.5024 17.922V22.08H61.1024ZM64.7284 17.95C65.1577 17.95 65.5357 17.8473 65.8624 17.642C66.1984 17.4367 66.4597 17.1473 66.6464 16.774C66.8424 16.4007 66.9404 15.9667 66.9404 15.472C66.9404 14.9773 66.8424 14.548 66.6464 14.184C66.4597 13.8107 66.1984 13.5213 65.8624 13.316C65.5357 13.1013 65.1577 12.994 64.7284 12.994C64.2897 12.994 63.9024 13.1013 63.5664 13.316C63.2397 13.5213 62.9831 13.8107 62.7964 14.184C62.6097 14.548 62.5164 14.9773 62.5164 15.472C62.5164 15.9667 62.6097 16.4007 62.7964 16.774C62.9831 17.1473 63.2397 17.4367 63.5664 17.642C63.9024 17.8473 64.2897 17.95 64.7284 17.95ZM72.3271 19.168C71.7484 19.168 71.2678 19.07 70.8851 18.874C70.5024 18.678 70.2178 18.4167 70.0311 18.09C69.8444 17.754 69.7511 17.3947 69.7511 17.012C69.7511 16.5453 69.8724 16.1487 70.1151 15.822C70.3578 15.486 70.7031 15.2293 71.1511 15.052C71.5991 14.8747 72.1358 14.786 72.7611 14.786H74.5951C74.5951 14.3753 74.5344 14.0347 74.4131 13.764C74.2918 13.4933 74.1098 13.2927 73.8671 13.162C73.6338 13.022 73.3351 12.952 72.9711 12.952C72.5511 12.952 72.1918 13.0547 71.8931 13.26C71.5944 13.456 71.4078 13.75 71.3331 14.142H69.9331C69.9891 13.6473 70.1571 13.2273 70.4371 12.882C70.7264 12.5273 71.0951 12.2567 71.5431 12.07C71.9911 11.874 72.4671 11.776 72.9711 11.776C73.6338 11.776 74.1891 11.8927 74.6371 12.126C75.0851 12.3593 75.4211 12.6907 75.6451 13.12C75.8784 13.54 75.9951 14.044 75.9951 14.632V19H74.7771L74.6651 17.81C74.5624 17.9967 74.4411 18.174 74.3011 18.342C74.1611 18.51 73.9931 18.6547 73.7971 18.776C73.6104 18.8973 73.3911 18.9907 73.1391 19.056C72.8964 19.1307 72.6258 19.168 72.3271 19.168ZM72.5931 18.034C72.8918 18.034 73.1624 17.9733 73.4051 17.852C73.6478 17.7307 73.8531 17.5673 74.0211 17.362C74.1984 17.1473 74.3291 16.9093 74.4131 16.648C74.5064 16.3773 74.5578 16.102 74.5671 15.822V15.78H72.9011C72.4998 15.78 72.1731 15.8313 71.9211 15.934C71.6784 16.0273 71.5011 16.158 71.3891 16.326C71.2771 16.494 71.2211 16.69 71.2211 16.914C71.2211 17.1473 71.2724 17.348 71.3751 17.516C71.4871 17.6747 71.6458 17.8007 71.8511 17.894C72.0564 17.9873 72.3038 18.034 72.5931 18.034ZM77.7821 19V11.944H79.0421L79.1681 13.274C79.3267 12.9567 79.5321 12.6907 79.7841 12.476C80.0361 12.252 80.3301 12.0793 80.6661 11.958C81.0114 11.8367 81.4034 11.776 81.8421 11.776V13.26H81.3381C81.0487 13.26 80.7734 13.2973 80.5121 13.372C80.2507 13.4373 80.0174 13.554 79.8121 13.722C79.6161 13.89 79.4621 14.1187 79.3501 14.408C79.2381 14.6973 79.1821 15.0567 79.1821 15.486V19H77.7821ZM86.1147 19.168C85.4427 19.168 84.8454 19.014 84.3227 18.706C83.8 18.398 83.3894 17.9687 83.0907 17.418C82.8014 16.8673 82.6567 16.228 82.6567 15.5C82.6567 14.7533 82.8014 14.1047 83.0907 13.554C83.3894 12.994 83.8 12.56 84.3227 12.252C84.8454 11.9347 85.452 11.776 86.1427 11.776C86.8334 11.776 87.426 11.93 87.9207 12.238C88.4154 12.546 88.798 12.9567 89.0687 13.47C89.3394 13.974 89.4747 14.534 89.4747 15.15C89.4747 15.2433 89.47 15.346 89.4607 15.458C89.4607 15.5607 89.456 15.6773 89.4467 15.808H83.6787V14.814H88.0747C88.0467 14.226 87.8507 13.7687 87.4867 13.442C87.1227 13.106 86.67 12.938 86.1287 12.938C85.746 12.938 85.396 13.0267 85.0787 13.204C84.7614 13.372 84.5047 13.624 84.3087 13.96C84.122 14.2867 84.0287 14.702 84.0287 15.206V15.598C84.0287 16.1207 84.122 16.564 84.3087 16.928C84.5047 17.2827 84.7614 17.5533 85.0787 17.74C85.396 17.9173 85.7414 18.006 86.1147 18.006C86.5627 18.006 86.9314 17.908 87.2207 17.712C87.51 17.516 87.7247 17.25 87.8647 16.914H89.2647C89.1434 17.3433 88.938 17.7307 88.6487 18.076C88.3594 18.412 88 18.678 87.5707 18.874C87.1507 19.07 86.6654 19.168 86.1147 19.168ZM91.0301 19V11.944H92.2901L92.3741 13.148C92.5981 12.728 92.9155 12.3967 93.3261 12.154C93.7368 11.902 94.2081 11.776 94.7401 11.776C95.3001 11.776 95.7808 11.888 96.1821 12.112C96.5835 12.336 96.8961 12.6767 97.1201 13.134C97.3441 13.582 97.4561 14.1467 97.4561 14.828V19H96.0561V14.968C96.0561 14.3147 95.9115 13.82 95.6221 13.484C95.3328 13.148 94.9128 12.98 94.3621 12.98C93.9981 12.98 93.6715 13.0687 93.3821 13.246C93.0928 13.414 92.8595 13.666 92.6821 14.002C92.5141 14.338 92.4301 14.7487 92.4301 15.234V19H91.0301ZM102.159 19C101.711 19 101.324 18.93 100.997 18.79C100.67 18.65 100.418 18.4167 100.241 18.09C100.064 17.7633 99.9749 17.32 99.9749 16.76V13.134H98.7569V11.944H99.9749L100.143 10.18H101.375V11.944H103.377V13.134H101.375V16.774C101.375 17.1753 101.459 17.4507 101.627 17.6C101.795 17.74 102.084 17.81 102.495 17.81H103.307V19H102.159Z" fill="#0C36FF"/>
</svg>
