<svg width="35" height="35" viewBox="0 0 35 35" fill="none" xmlns="http://www.w3.org/2000/svg">
<path d="M3.82812 22.4219C3.82812 21.8417 4.05859 21.2853 4.46883 20.8751C4.87906 20.4648 5.43546 20.2344 6.01562 20.2344H12.5781C13.1583 20.2344 13.7147 20.4648 14.1249 20.8751C14.5352 21.2853 14.7656 21.8417 14.7656 22.4219V28.9844C14.7656 29.5645 14.5352 30.1209 14.1249 30.5312C13.7147 30.9414 13.1583 31.1719 12.5781 31.1719H6.01562C5.43546 31.1719 4.87906 30.9414 4.46883 30.5312C4.05859 30.1209 3.82813 29.5645 3.82812 28.9844V22.4219Z" fill="#3CD8FA"/>
<path d="M2.73438 8.20312C2.73438 7.62296 2.96484 7.06656 3.37508 6.65633C3.78531 6.24609 4.34171 6.01563 4.92188 6.01562H12.5781C13.1583 6.01563 13.7147 6.24609 14.1249 6.65633C14.5352 7.06656 14.7656 7.62296 14.7656 8.20312V15.8594C14.7656 16.4395 14.5352 16.9959 14.1249 17.4062C13.7147 17.8164 13.1583 18.0469 12.5781 18.0469H4.92188C4.34171 18.0469 3.78531 17.8164 3.37508 17.4062C2.96484 16.9959 2.73438 16.4395 2.73438 15.8594V8.20312ZM16.9531 22.4219C16.9531 21.8417 17.1836 21.2853 17.5938 20.8751C18.0041 20.4648 18.5605 20.2344 19.1406 20.2344H26.7969C27.377 20.2344 27.9334 20.4648 28.3437 20.8751C28.7539 21.2853 28.9844 21.8417 28.9844 22.4219V30.0781C28.9844 30.6583 28.7539 31.2147 28.3437 31.6249C27.9334 32.0352 27.377 32.2656 26.7969 32.2656H19.1406C18.5605 32.2656 18.0041 32.0352 17.5938 31.6249C17.1836 31.2147 16.9531 30.6583 16.9531 30.0781V22.4219Z" fill="#FF639B"/>
<path d="M16.9531 4.92188C16.9531 4.34171 17.1836 3.78531 17.5938 3.37508C18.0041 2.96484 18.5605 2.73438 19.1406 2.73438H30.0781C30.6583 2.73438 31.2147 2.96484 31.6249 3.37508C32.0352 3.78531 32.2656 4.34171 32.2656 4.92188V15.8594C32.2656 16.4395 32.0352 16.9959 31.6249 17.4062C31.2147 17.8164 30.6583 18.0469 30.0781 18.0469H19.1406C18.5605 18.0469 18.0041 17.8164 17.5938 17.4062C17.1836 16.9959 16.9531 16.4395 16.9531 15.8594V4.92188Z" fill="#FFD646"/>
</svg>
