<svg width="43" height="43" viewBox="0 0 43 43" fill="none" xmlns="http://www.w3.org/2000/svg">
<g clip-path="url(#clip0_3836_23101)">
<path d="M21.5 21.5H13.2091C12.8921 22.3966 12.2683 23.1522 11.4481 23.6334C10.6279 24.1146 9.66393 24.2903 8.72667 24.1294C7.78941 23.9686 6.93917 23.4817 6.32623 22.7546C5.71329 22.0276 5.37711 21.1072 5.37711 20.1563C5.37711 19.2053 5.71329 18.285 6.32623 17.5579C6.93917 16.8308 7.78941 16.3439 8.72667 16.1831C9.66393 16.0223 10.6279 16.198 11.4481 16.6791C12.2683 17.1603 12.8921 17.9159 13.2091 18.8125H21.5V6.71876C21.5 5.6496 21.9247 4.62424 22.6807 3.86823C23.4367 3.11223 24.4621 2.68751 25.5312 2.68751H32.4784C32.7954 1.79094 33.4192 1.03529 34.2394 0.554129C35.0596 0.0729623 36.0236 -0.102744 36.9608 0.0580641C37.8981 0.218872 38.7483 0.705841 39.3613 1.4329C39.9742 2.15996 40.3104 3.0803 40.3104 4.03126C40.3104 4.98221 39.9742 5.90255 39.3613 6.62961C38.7483 7.35668 37.8981 7.84364 36.9608 8.00445C36.0236 8.16526 35.0596 7.98955 34.2394 7.50839C33.4192 7.02722 32.7954 6.27158 32.4784 5.37501H25.5312C25.1749 5.37501 24.8331 5.51658 24.5811 5.76858C24.3291 6.02059 24.1875 6.36237 24.1875 6.71876V33.5938C24.1875 33.9501 24.3291 34.2919 24.5811 34.5439C24.8331 34.7959 25.1749 34.9375 25.5312 34.9375H32.4784C32.7954 34.0409 33.4192 33.2853 34.2394 32.8041C35.0596 32.323 36.0236 32.1473 36.9608 32.3081C37.8981 32.4689 38.7483 32.9558 39.3613 33.6829C39.9742 34.41 40.3104 35.3303 40.3104 36.2813C40.3104 37.2322 39.9742 38.1526 39.3613 38.8796C38.7483 39.6067 37.8981 40.0936 36.9608 40.2545C36.0236 40.4153 35.0596 40.2396 34.2394 39.7584C33.4192 39.2772 32.7954 38.5216 32.4784 37.625H25.5312C24.4621 37.625 23.4367 37.2003 22.6807 36.4443C21.9247 35.6883 21.5 34.6629 21.5 33.5938V21.5ZM9.40625 8.06251C8.3371 8.06251 7.31173 7.63779 6.55573 6.88178C5.79972 6.12578 5.375 5.10041 5.375 4.03126C5.375 2.9621 5.79972 1.93674 6.55573 1.18073C7.31173 0.424728 8.3371 8.33398e-06 9.40625 8.33398e-06C10.4754 8.33398e-06 11.5008 0.424728 12.2568 1.18073C13.0128 1.93674 13.4375 2.9621 13.4375 4.03126C13.4375 5.10041 13.0128 6.12578 12.2568 6.88178C11.5008 7.63779 10.4754 8.06251 9.40625 8.06251ZM9.40625 40.3125C8.3371 40.3125 7.31173 39.8878 6.55573 39.1318C5.79972 38.3758 5.375 37.3504 5.375 36.2813C5.375 35.2121 5.79972 34.1867 6.55573 33.4307C7.31173 32.6747 8.3371 32.25 9.40625 32.25C10.4754 32.25 11.5008 32.6747 12.2568 33.4307C13.0128 34.1867 13.4375 35.2121 13.4375 36.2813C13.4375 37.3504 13.0128 38.3758 12.2568 39.1318C11.5008 39.8878 10.4754 40.3125 9.40625 40.3125ZM36.2812 24.1875C35.2121 24.1875 34.1867 23.7628 33.4307 23.0068C32.6747 22.2508 32.25 21.2254 32.25 20.1563C32.25 19.0871 32.6747 18.0617 33.4307 17.3057C34.1867 16.5497 35.2121 16.125 36.2812 16.125C37.3504 16.125 38.3758 16.5497 39.1318 17.3057C39.8878 18.0617 40.3125 19.0871 40.3125 20.1563C40.3125 21.2254 39.8878 22.2508 39.1318 23.0068C38.3758 23.7628 37.3504 24.1875 36.2812 24.1875Z" fill="#EEAA16"/>
</g>
<defs>
<clipPath id="clip0_3836_23101">
<rect width="43" height="43" fill="white"/>
</clipPath>
</defs>
</svg>
