<svg width="24" height="24" viewBox="0 0 24 24" fill="none" xmlns="http://www.w3.org/2000/svg">
<path d="M11.5 14.4047C11.3917 14.4047 11.2901 14.3879 11.1953 14.3543C11.1005 14.3207 11.0125 14.263 10.9312 14.1812L8.00625 11.2563C7.84375 11.0938 7.76575 10.9042 7.77225 10.6875C7.77875 10.4708 7.85675 10.2813 8.00625 10.1188C8.16875 9.95625 8.36185 9.87175 8.58556 9.86525C8.80927 9.85875 9.0021 9.93648 9.16406 10.0984L10.6875 11.6219V5.8125C10.6875 5.58229 10.7655 5.38946 10.9215 5.234C11.0775 5.07854 11.2703 5.00054 11.5 5C11.7297 4.99946 11.9228 5.07746 12.0793 5.234C12.2358 5.39054 12.3136 5.58338 12.3125 5.8125V11.6219L13.8359 10.0984C13.9984 9.93594 14.1915 9.85794 14.4152 9.86444C14.639 9.87094 14.8318 9.95571 14.9937 10.1188C15.1427 10.2813 15.2207 10.4708 15.2277 10.6875C15.2348 10.9042 15.1568 11.0938 14.9937 11.2563L12.0687 14.1812C11.9875 14.2625 11.8995 14.3202 11.8047 14.3543C11.7099 14.3884 11.6083 14.4052 11.5 14.4047ZM6.625 18C6.17812 18 5.79571 17.841 5.47775 17.5231C5.15979 17.2051 5.00054 16.8224 5 16.375V14.75C5 14.5198 5.078 14.327 5.234 14.1715C5.39 14.016 5.58283 13.938 5.8125 13.9375C6.04217 13.937 6.23527 14.015 6.39181 14.1715C6.54835 14.328 6.62608 14.5209 6.625 14.75V16.375H16.375V14.75C16.375 14.5198 16.453 14.327 16.609 14.1715C16.765 14.016 16.9578 13.938 17.1875 13.9375C17.4172 13.937 17.6103 14.015 17.7668 14.1715C17.9233 14.328 18.0011 14.5209 18 14.75V16.375C18 16.8219 17.841 17.2046 17.5231 17.5231C17.2051 17.8416 16.8224 18.0005 16.375 18H6.625Z" fill="#7991A4"/>
</svg>
