<svg width="19" height="19" viewBox="0 0 19 19" fill="none" xmlns="http://www.w3.org/2000/svg">
<g clip-path="url(#clip0_6436_15366)">
<path fill-rule="evenodd" clip-rule="evenodd" d="M10.0593 12.4348C9.91083 12.5832 9.7095 12.6666 9.49958 12.6666C9.28966 12.6666 9.08833 12.5832 8.93987 12.4348L4.46141 7.95632C4.3858 7.88329 4.32549 7.79593 4.284 7.69935C4.24251 7.60276 4.22067 7.49888 4.21976 7.39376C4.21884 7.28864 4.23887 7.1844 4.27868 7.0871C4.31849 6.98981 4.37727 6.90142 4.4516 6.82709C4.52593 6.75276 4.61432 6.69397 4.71162 6.65417C4.80891 6.61436 4.91316 6.59433 5.01827 6.59524C5.12339 6.59616 5.22727 6.618 5.32386 6.65949C5.42044 6.70098 5.5078 6.76129 5.58083 6.8369L9.49958 10.7557L13.4183 6.8369C13.5676 6.69269 13.7676 6.6129 13.9752 6.6147C14.1828 6.6165 14.3813 6.69976 14.5281 6.84654C14.6749 6.99333 14.7581 7.19189 14.7599 7.39946C14.7618 7.60703 14.682 7.80701 14.5377 7.95632L10.0593 12.4348Z" fill="#505050"/>
</g>
<defs>
<clipPath id="clip0_6436_15366">
<rect width="19" height="19" fill="white"/>
</clipPath>
</defs>
</svg>
