<svg width="43" height="43" viewBox="0 0 43 43" fill="none" xmlns="http://www.w3.org/2000/svg">
<g clip-path="url(#clip0_3836_23105)">
<path fill-rule="evenodd" clip-rule="evenodd" d="M14.4786 4.56114C14.4786 2.15314 16.432 0.199707 18.84 0.199707H38.6016C39.7578 0.200521 40.8663 0.660387 41.6836 1.47823C42.5008 2.29606 42.9599 3.40495 42.9599 4.56114V38.439C42.9599 39.5957 42.5004 40.7051 41.6825 41.523C40.8646 42.3409 39.7552 42.8004 38.5985 42.8004H23.5485C23.785 42.1431 23.9171 41.4336 23.9171 40.6965V35.1126C23.9171 34.8587 23.9068 34.6059 23.8864 34.354C24.4228 34.4502 24.9665 34.4984 25.5173 34.4984H29.7313C31.21 34.4984 32.639 33.965 33.7561 32.9961C34.8732 32.0273 35.6033 30.688 35.8124 29.2242C36.0215 27.7604 35.6956 26.2703 34.8945 25.0274C34.0934 23.7846 32.8708 22.8724 31.4513 22.4583C32.4408 21.5342 33.2049 20.3953 33.6849 19.1292C34.1648 17.8632 34.3477 16.5039 34.2195 15.1561C34.0913 13.8082 33.6554 12.5078 32.9454 11.355C32.2354 10.2021 31.2703 9.22768 30.1243 8.50665C28.9783 7.78562 27.6821 7.33727 26.3356 7.19614C24.989 7.05501 23.628 7.22487 22.3575 7.69263C21.0869 8.16039 19.9407 8.91357 19.0071 9.89415C18.0735 10.8747 17.3774 12.0565 16.9726 13.3485C16.1786 13.0109 15.3411 12.7866 14.4847 12.682V4.56114H14.4786ZM20.4064 15.993C20.4064 14.6652 20.9339 13.3918 21.8728 12.4529C22.8117 11.514 24.0851 10.9866 25.4129 10.9866C26.7406 10.9866 28.0141 11.514 28.9529 12.4529C29.8918 13.3918 30.4193 14.6652 30.4193 15.993C30.4193 17.3208 29.8918 18.5942 28.9529 19.5331C28.0141 20.472 26.7406 20.9994 25.4129 20.9994C24.0851 20.9994 22.8117 20.472 21.8728 19.5331C20.9339 18.5942 20.4064 17.3208 20.4064 15.993ZM20.6614 20.9687L20.6675 20.9779L25.2439 25.5543C25.3171 25.6259 25.415 25.6665 25.5173 25.668H29.7282C30.441 25.668 31.1246 25.9511 31.6286 26.4551C32.1326 26.9591 32.4157 27.6427 32.4157 28.3555C32.4157 29.0683 32.1326 29.7518 31.6286 30.2558C31.1246 30.7598 30.441 31.043 29.7282 31.043H25.5173C23.9908 31.043 22.5257 30.4379 21.4446 29.3568L18.7601 26.6724L16.5794 28.8531L18.7724 31.0399C19.8505 32.1211 20.4586 33.5861 20.4586 35.1126V39.9286C20.4586 40.6414 20.1755 41.325 19.6715 41.829C19.1675 42.333 18.4839 42.6161 17.7711 42.6161C17.0584 42.6161 16.3748 42.333 15.8708 41.829C15.3668 41.325 15.0836 40.6414 15.0836 39.9286V35.1126C15.0814 35.0114 15.0408 34.9148 14.97 34.8424L12.7432 32.6125C11.741 33.3725 10.518 33.7845 9.26022 33.7858H3.07129C2.35852 33.7858 1.67494 33.5026 1.17094 32.9986C0.666936 32.4946 0.383789 31.811 0.383789 31.0983C0.383789 30.3855 0.666936 29.7019 1.17094 29.1979C1.67494 28.6939 2.35852 28.4108 3.07129 28.4108H9.26022C9.36253 28.4093 9.46038 28.3686 9.53358 28.2971L14.9577 22.8699L13.6431 21.5584C13.5707 21.4876 13.4741 21.447 13.3729 21.4448H7.789C7.07623 21.4448 6.39266 21.1616 5.88865 20.6576C5.38465 20.1536 5.1015 19.47 5.1015 18.7573C5.1015 18.0445 5.38465 17.3609 5.88865 16.8569C6.39266 16.3529 7.07623 16.0698 7.789 16.0698H13.3759C14.9024 16.0698 16.3675 16.6779 17.4456 17.7591L20.6521 20.9626L20.6614 20.9687Z" fill="#0FBEB3"/>
</g>
<defs>
<clipPath id="clip0_3836_23105">
<rect width="43" height="43" fill="white"/>
</clipPath>
</defs>
</svg>
