<svg width="17" height="17" viewBox="0 0 17 17" fill="none" xmlns="http://www.w3.org/2000/svg">
<path d="M8.5 15.5C4.64 15.5 1.5 12.36 1.5 8.5C1.5 4.64 4.64 1.5 8.5 1.5C12.36 1.5 15.5 4.64 15.5 8.5C15.5 12.36 12.36 15.5 8.5 15.5ZM8.5 2.5C5.19 2.5 2.5 5.19 2.5 8.5C2.5 11.81 5.19 14.5 8.5 14.5C11.81 14.5 14.5 11.81 14.5 8.5C14.5 5.19 11.81 2.5 8.5 2.5Z" fill="#2B2829"/>
<path d="M10.5 11C10.41 11 10.32 10.98 10.24 10.93L7.74001 9.43C7.6663 9.38513 7.60546 9.32195 7.5634 9.24659C7.52134 9.17124 7.49951 9.08629 7.50001 9V5C7.50001 4.72 7.72001 4.5 8.00001 4.5C8.28001 4.5 8.50001 4.72 8.50001 5V8.72L10.76 10.07C10.8531 10.1271 10.925 10.2129 10.9649 10.3145C11.0049 10.4162 11.0105 10.528 10.9811 10.6332C10.9517 10.7383 10.8889 10.831 10.802 10.8972C10.7152 10.9634 10.6092 10.9995 10.5 11Z" fill="#2B2829"/>
</svg>
