<svg width="26" height="26" viewBox="0 0 26 26" fill="none" xmlns="http://www.w3.org/2000/svg">
<path fill-rule="evenodd" clip-rule="evenodd" d="M17.6663 9.49967C17.6663 10.7374 17.1747 11.9243 16.2995 12.7995C15.4243 13.6747 14.2374 14.1663 12.9997 14.1663C11.762 14.1663 10.575 13.6747 9.69984 12.7995C8.82467 11.9243 8.33301 10.7374 8.33301 9.49967C8.33301 8.262 8.82467 7.07501 9.69984 6.19984C10.575 5.32467 11.762 4.83301 12.9997 4.83301C14.2374 4.83301 15.4243 5.32467 16.2995 6.19984C17.1747 7.07501 17.6663 8.262 17.6663 9.49967ZM15.333 9.49967C15.333 10.1185 15.0872 10.712 14.6496 11.1496C14.212 11.5872 13.6185 11.833 12.9997 11.833C12.3808 11.833 11.7873 11.5872 11.3498 11.1496C10.9122 10.712 10.6663 10.1185 10.6663 9.49967C10.6663 8.88084 10.9122 8.28734 11.3498 7.84976C11.7873 7.41217 12.3808 7.16634 12.9997 7.16634C13.6185 7.16634 14.212 7.41217 14.6496 7.84976C15.0872 8.28734 15.333 8.88084 15.333 9.49967Z" fill="#323F49"/>
<path fill-rule="evenodd" clip-rule="evenodd" d="M12.9998 0.166504C5.91234 0.166504 0.166504 5.91234 0.166504 12.9998C0.166504 20.0873 5.91234 25.8332 12.9998 25.8332C20.0873 25.8332 25.8332 20.0873 25.8332 12.9998C25.8332 5.91234 20.0873 0.166504 12.9998 0.166504ZM2.49984 12.9998C2.49984 15.4382 3.33167 17.6828 4.72584 19.4655C5.70518 18.18 6.96835 17.1382 8.41675 16.4214C9.86515 15.7045 11.4596 15.3321 13.0757 15.3332C14.6709 15.3313 16.2456 15.6938 17.6795 16.3929C19.1134 17.0921 20.3687 18.1095 21.3497 19.3675C22.3605 18.0417 23.0411 16.4943 23.3352 14.8532C23.6293 13.2121 23.5283 11.5246 23.0407 9.93032C22.5532 8.33601 21.6929 6.88073 20.5312 5.68488C19.3695 4.48903 17.9398 3.58701 16.3603 3.05343C14.7808 2.51985 13.0969 2.37007 11.448 2.61647C9.79911 2.86287 8.23259 3.49838 6.87807 4.4704C5.52354 5.44242 4.41995 6.72302 3.6586 8.20623C2.89726 9.68944 2.50005 11.3326 2.49984 12.9998ZM12.9998 23.4998C10.5894 23.5037 8.25167 22.6745 6.3825 21.1525C7.13478 20.0752 8.13623 19.1957 9.30159 18.5887C10.467 17.9817 11.7617 17.6654 13.0757 17.6665C14.3732 17.6654 15.6523 17.9739 16.8067 18.5664C17.961 19.1589 18.9573 20.0183 19.7128 21.0732C17.8292 22.6447 15.4529 23.5037 12.9998 23.4998Z" fill="#323F49"/>
</svg>
