<svg width="35" height="39" viewBox="0 0 35 39" fill="none" xmlns="http://www.w3.org/2000/svg">
<path d="M18.167 3.5C15.3822 3.5 12.7115 4.60625 10.7424 6.57538C8.77324 8.54451 7.66699 11.2152 7.66699 14H4.16699L8.70533 18.5383L8.78699 18.7017L13.5003 14H10.0003C10.0003 9.485 13.652 5.83333 18.167 5.83333C22.682 5.83333 26.3337 9.485 26.3337 14C26.3337 18.515 22.682 22.1667 18.167 22.1667C15.9153 22.1667 13.8737 21.245 12.4037 19.7633L10.747 21.42C11.7192 22.3979 12.8754 23.1735 14.1489 23.7022C15.4225 24.2308 16.7881 24.502 18.167 24.5C20.9518 24.5 23.6225 23.3938 25.5916 21.4246C27.5607 19.4555 28.667 16.7848 28.667 14C28.667 11.2152 27.5607 8.54451 25.5916 6.57538C23.6225 4.60625 20.9518 3.5 18.167 3.5ZM17.0003 9.33333V15.1667L21.9937 18.13L22.8337 16.7183L18.7503 14.2917V9.33333H17.0003Z" fill="#002051"/>
<path d="M5.18 36V29H6.18V36H5.18ZM0.73 36V29H1.73V36H0.73ZM1.56 32.84V32.02H5.4V32.84H1.56ZM7.66406 36V30.96H8.66406V36H7.66406ZM8.17406 30.01C7.98073 30.01 7.82073 29.95 7.69406 29.83C7.57406 29.71 7.51406 29.5567 7.51406 29.37C7.51406 29.19 7.57406 29.0433 7.69406 28.93C7.82073 28.81 7.98073 28.75 8.17406 28.75C8.36073 28.75 8.5174 28.81 8.64406 28.93C8.77073 29.0433 8.83406 29.19 8.83406 29.37C8.83406 29.5567 8.77073 29.71 8.64406 29.83C8.5174 29.95 8.36073 30.01 8.17406 30.01ZM12.0441 36.12C11.6174 36.12 11.2441 36.05 10.9241 35.91C10.6041 35.77 10.3507 35.5733 10.1641 35.32C9.9774 35.0667 9.86406 34.77 9.82406 34.43H10.8441C10.8774 34.59 10.9407 34.7367 11.0341 34.87C11.1341 35.0033 11.2674 35.11 11.4341 35.19C11.6074 35.27 11.8107 35.31 12.0441 35.31C12.2641 35.31 12.4441 35.28 12.5841 35.22C12.7307 35.1533 12.8374 35.0667 12.9041 34.96C12.9707 34.8467 13.0041 34.7267 13.0041 34.6C13.0041 34.4133 12.9574 34.2733 12.8641 34.18C12.7774 34.08 12.6441 34.0033 12.4641 33.95C12.2907 33.89 12.0807 33.8367 11.8341 33.79C11.6007 33.75 11.3741 33.6967 11.1541 33.63C10.9407 33.5567 10.7474 33.4667 10.5741 33.36C10.4074 33.2533 10.2741 33.12 10.1741 32.96C10.0741 32.7933 10.0241 32.59 10.0241 32.35C10.0241 32.0633 10.1007 31.8067 10.2541 31.58C10.4074 31.3467 10.6241 31.1667 10.9041 31.04C11.1907 30.9067 11.5274 30.84 11.9141 30.84C12.4741 30.84 12.9241 30.9733 13.2641 31.24C13.6041 31.5067 13.8041 31.8833 13.8641 32.37H12.8941C12.8674 32.1433 12.7674 31.97 12.5941 31.85C12.4207 31.7233 12.1907 31.66 11.9041 31.66C11.6174 31.66 11.3974 31.7167 11.2441 31.83C11.0907 31.9433 11.0141 32.0933 11.0141 32.28C11.0141 32.4 11.0574 32.5067 11.1441 32.6C11.2307 32.6933 11.3574 32.7733 11.5241 32.84C11.6974 32.9 11.9074 32.9567 12.1541 33.01C12.5074 33.0767 12.8241 33.16 13.1041 33.26C13.3841 33.36 13.6074 33.5067 13.7741 33.7C13.9407 33.8933 14.0241 34.17 14.0241 34.53C14.0307 34.8433 13.9507 35.12 13.7841 35.36C13.6241 35.6 13.3941 35.7867 13.0941 35.92C12.8007 36.0533 12.4507 36.12 12.0441 36.12ZM17.0764 36C16.7564 36 16.4797 35.95 16.2464 35.85C16.0131 35.75 15.8331 35.5833 15.7064 35.35C15.5797 35.1167 15.5164 34.8 15.5164 34.4V31.81H14.6464V30.96H15.5164L15.6364 29.7H16.5164V30.96H17.9464V31.81H16.5164V34.41C16.5164 34.6967 16.5764 34.8933 16.6964 35C16.8164 35.1 17.0231 35.15 17.3164 35.15H17.8964V36H17.0764ZM21.2124 36.12C20.7391 36.12 20.3124 36.01 19.9324 35.79C19.5591 35.57 19.2624 35.2633 19.0424 34.87C18.8291 34.47 18.7224 34.01 18.7224 33.49C18.7224 32.9567 18.8324 32.4933 19.0524 32.1C19.2724 31.7 19.5724 31.39 19.9524 31.17C20.3324 30.95 20.7591 30.84 21.2324 30.84C21.7124 30.84 22.1391 30.95 22.5124 31.17C22.8858 31.39 23.1791 31.6967 23.3924 32.09C23.6124 32.4833 23.7224 32.9467 23.7224 33.48C23.7224 34.0133 23.6124 34.4767 23.3924 34.87C23.1791 35.2633 22.8824 35.57 22.5024 35.79C22.1224 36.01 21.6924 36.12 21.2124 36.12ZM21.2124 35.26C21.4858 35.26 21.7324 35.1933 21.9524 35.06C22.1791 34.9267 22.3591 34.73 22.4924 34.47C22.6324 34.2033 22.7024 33.8733 22.7024 33.48C22.7024 33.0867 22.6358 32.76 22.5024 32.5C22.3691 32.2333 22.1891 32.0333 21.9624 31.9C21.7424 31.7667 21.4991 31.7 21.2324 31.7C20.9658 31.7 20.7191 31.7667 20.4924 31.9C20.2658 32.0333 20.0824 32.2333 19.9424 32.5C19.8091 32.76 19.7424 33.0867 19.7424 33.48C19.7424 33.8733 19.8091 34.2033 19.9424 34.47C20.0824 34.73 20.2624 34.9267 20.4824 35.06C20.7091 35.1933 20.9524 35.26 21.2124 35.26ZM24.8988 36V30.96H25.7988L25.8888 31.91C26.0021 31.6833 26.1488 31.4933 26.3288 31.34C26.5088 31.18 26.7188 31.0567 26.9588 30.97C27.2054 30.8833 27.4854 30.84 27.7988 30.84V31.9H27.4388C27.2321 31.9 27.0354 31.9267 26.8488 31.98C26.6621 32.0267 26.4954 32.11 26.3488 32.23C26.2088 32.35 26.0988 32.5133 26.0188 32.72C25.9388 32.9267 25.8988 33.1833 25.8988 33.49V36H24.8988ZM29.2971 38.2L30.5271 35.44H30.2371L28.2471 30.96H29.3271L30.9071 34.62L32.4971 30.96H33.5471L30.3471 38.2H29.2971Z" fill="#002051"/>
</svg>
