<svg width="50" height="50" viewBox="0 0 50 50" fill="none" xmlns="http://www.w3.org/2000/svg">
<g clip-path="url(#clip0_4160_22690)">
<path d="M41.1735 37.1018C41.5296 38.2732 41.4059 39.5381 40.8295 40.6183C40.2532 41.6985 39.2714 42.5055 38.1001 42.8619L16.1469 49.5409C14.9757 49.897 13.711 49.7735 12.6309 49.1975C11.5507 48.6214 10.7435 47.64 10.3868 46.469L0.0781828 12.594C-0.0982295 12.0141 -0.158667 11.4051 -0.0996765 10.8018C-0.0406863 10.1985 0.136575 9.61276 0.421983 9.078C0.707392 8.54324 1.09535 8.06995 1.56371 7.68515C2.03207 7.30036 2.57165 7.0116 3.15162 6.83538L25.1047 0.154131C26.2758 -0.201803 27.5403 -0.0781693 28.6203 0.497857C29.7003 1.07388 30.5074 2.05516 30.8641 3.22601L41.1735 37.101" fill="#C3C3C3"/>
<path d="M44.0701 43.8593C44.1211 45.0823 43.6844 46.2755 42.8559 47.1766C42.0275 48.0777 40.8751 48.613 39.6521 48.6648L16.7232 49.6319C15.5005 49.6823 14.3078 49.2455 13.4068 48.4173C12.5059 47.5892 11.9703 46.4374 11.9177 45.2148L10.4271 9.83976C10.401 9.23401 10.4946 8.62906 10.7026 8.05953C10.9106 7.49 11.2288 6.96706 11.6391 6.52065C12.0493 6.07424 12.5436 5.71311 13.0936 5.45793C13.6436 5.20274 14.2385 5.05852 14.8443 5.03351L37.7732 4.06554C38.9962 4.01453 40.1894 4.45125 41.0906 5.2797C41.9917 6.10816 42.5269 7.26053 42.5787 8.48351L44.0701 43.8593Z" fill="#969698"/>
<path d="M40.2835 36.5702C40.4526 37.1249 40.5106 37.7074 40.4544 38.2844C40.3981 38.8615 40.2287 39.4218 39.9557 39.9334C39.6827 40.4449 39.3116 40.8976 38.8636 41.2656C38.4155 41.6336 37.8993 41.9097 37.3445 42.078L16.3382 48.4726C15.7836 48.6413 15.2012 48.6991 14.6242 48.6427C14.0472 48.5863 13.487 48.4168 12.9756 48.1439C12.4641 47.871 12.0114 47.5 11.6433 47.0521C11.2753 46.6042 10.999 46.0882 10.8304 45.5335L0.967918 13.1218C0.799204 12.5672 0.741395 11.9847 0.797794 11.4078C0.854192 10.8308 1.02369 10.2706 1.29662 9.75912C1.56954 9.24766 1.94054 8.79497 2.38843 8.4269C2.83632 8.05884 3.35233 7.7826 3.90698 7.61398L24.9132 1.22023C25.468 1.05154 26.0505 0.993804 26.6275 1.0503C27.2046 1.1068 27.7649 1.27644 28.2763 1.54952C28.7878 1.82259 29.2405 2.19376 29.6085 2.64182C29.9765 3.08988 30.2526 3.60606 30.421 4.16085L40.282 36.5718" fill="#D1D2D3"/>
<path d="M13.2337 14.8749C13.2602 14.9647 12.7227 15.2069 12.0321 15.417L5.8071 17.3124C5.11648 17.5209 4.53445 17.6209 4.50632 17.5327L4.13289 16.3014C4.10476 16.2131 4.64539 15.9725 5.33601 15.7608L11.561 13.8678C12.2509 13.6561 12.8337 13.5584 12.8602 13.6467L13.2337 14.8749ZM14.2501 18.2084C14.2766 18.2975 13.7391 18.5405 13.0454 18.7467L6.82195 20.6436C6.13132 20.8522 5.54929 20.953 5.52117 20.8631L5.14851 19.635C5.11882 19.5475 5.65789 19.3045 6.35007 19.0944L12.5735 17.1999C13.2665 16.9897 13.8454 16.8905 13.8751 16.9788L14.2501 18.2084ZM15.3298 21.7584C15.3579 21.8483 14.8204 22.0889 14.1266 22.3006L7.90164 24.1936C7.21179 24.4053 6.62898 24.503 6.6032 24.4147L6.22898 23.1866C6.20242 23.0991 6.73992 22.8545 7.43054 22.6467L13.6555 20.7499C14.3477 20.5397 14.9298 20.4413 14.9548 20.5303L15.3298 21.7584ZM36.3501 31.1686C36.3766 31.2577 35.8391 31.5006 35.1462 31.71L28.9235 33.6038C28.2329 33.8155 27.6509 33.9131 27.6219 33.8225L27.2477 32.5952C27.2219 32.5077 27.7618 32.2647 28.4524 32.0553L34.6759 30.16C35.368 29.9499 35.9485 29.8506 35.9766 29.9389L36.3501 31.1686ZM37.3634 34.4999C37.393 34.5889 36.8524 34.8319 36.1618 35.0413L29.9384 36.9366C29.2462 37.1467 28.6657 37.2459 28.6384 37.1553L28.2641 35.9264C28.2344 35.8389 28.7751 35.5975 29.4657 35.3866L35.6907 33.4928C36.3829 33.2811 36.9634 33.1834 36.9891 33.2725L37.3634 34.4999ZM38.4454 38.0538C38.4735 38.1405 37.9344 38.3834 37.2423 38.5928L31.0173 40.4881C30.3266 40.6983 29.7446 40.7975 29.7188 40.7084L29.3438 39.4811C29.3173 39.3928 29.8563 39.1491 30.5469 38.9374L36.7719 37.0444C37.4641 36.835 38.043 36.735 38.0704 36.8233L38.4454 38.0538ZM33.4446 21.6163C33.4719 21.7061 31.8665 22.2709 29.8571 22.8827L11.779 28.3827C9.77273 28.9928 8.12195 29.417 8.09539 29.3295L7.71882 28.1006C7.69382 28.0108 9.30007 27.4452 11.3079 26.8342L29.3782 21.3342C31.386 20.7225 33.0376 20.2991 33.0634 20.3858L33.4376 21.6147M34.4454 24.7514C34.4727 24.8397 32.8673 25.4061 30.8571 26.0178L12.779 31.5178C10.7727 32.1295 9.12351 32.5522 9.09617 32.4631L8.72195 31.2342C8.69538 31.1459 10.3001 30.5788 12.3079 29.9678L30.386 24.4678C32.393 23.8561 34.0415 23.4327 34.0696 23.5209L34.4454 24.7514ZM35.4454 28.0452C35.4719 28.1327 33.8673 28.6999 31.8563 29.3116L13.7782 34.8116C11.7727 35.4225 10.1212 35.8459 10.0954 35.76L9.72117 34.5303C9.69539 34.4413 11.2993 33.8741 13.3071 33.2639L31.3852 27.7639C33.3954 27.1545 35.0438 26.7295 35.0712 26.8178L35.4454 28.0467" fill="#AAAAAA"/>
<path d="M27.4766 7.5321C27.6785 7.47032 27.8907 7.44902 28.1009 7.46941C28.3111 7.4898 28.5152 7.55148 28.7015 7.65091C28.8878 7.75035 29.0527 7.88558 29.1866 8.04886C29.3206 8.21214 29.421 8.40025 29.4821 8.60241L31.8118 16.2524C31.8735 16.4547 31.8947 16.6671 31.8743 16.8776C31.8538 17.0881 31.7921 17.2925 31.6926 17.4791C31.5932 17.6657 31.4579 17.8309 31.2945 17.9652C31.1312 18.0995 30.943 18.2003 30.7407 18.2618L18.936 21.854C18.528 21.9777 18.0876 21.9345 17.7115 21.7338C17.3353 21.5331 17.0542 21.1914 16.9297 20.7837L14.5993 13.1305C14.4757 12.7221 14.5193 12.2814 14.7206 11.9052C14.9219 11.529 15.2644 11.2481 15.6727 11.1243L27.4766 7.5321Z" fill="#27A8E0"/>
<path d="M23.4689 33.047C24.2993 32.7954 25.1548 33.1946 25.3837 33.9415L27.4298 40.6712C27.6579 41.4188 27.1689 42.2282 26.3392 42.4813L14.8064 45.9899C13.9759 46.2431 13.1181 45.8415 12.8915 45.0954L10.8454 38.3665C10.615 37.6196 11.1064 36.8102 11.9361 36.5556L23.4689 33.047Z" fill="#AEADAD"/>
</g>
<defs>
<clipPath id="clip0_4160_22690">
<rect width="50" height="50" fill="white"/>
</clipPath>
</defs>
</svg>
