<svg width="16" height="17" viewBox="0 0 16 17" fill="none" xmlns="http://www.w3.org/2000/svg">
<path d="M5.59089 5.16237V4.28396C5.59089 4.20783 5.67839 4.16578 5.73748 4.21237L10.8602 8.21351C10.9037 8.24736 10.939 8.2907 10.9632 8.34023C10.9874 8.38976 11 8.44417 11 8.49931C11 8.55444 10.9874 8.60885 10.9632 8.65838C10.939 8.70791 10.9037 8.75125 10.8602 8.7851L5.73748 12.7862C5.67726 12.8328 5.59089 12.7908 5.59089 12.7146V11.8362C5.59089 11.7806 5.61703 11.7271 5.66021 11.6931L9.75112 8.49987L5.66021 5.30555C5.61703 5.27146 5.59089 5.21806 5.59089 5.16237Z" fill="black"/>
</svg>
