<svg width="16" height="16" viewBox="0 0 16 16" fill="none" xmlns="http://www.w3.org/2000/svg">
<path d="M4.28629 1.60823C4.37034 1.50791 4.41171 1.37864 4.40151 1.24816C4.39132 1.11769 4.33038 0.996412 4.23177 0.910368C4.13316 0.824324 4.00474 0.780372 3.87409 0.787949C3.74343 0.795525 3.62096 0.854026 3.53296 0.950892L2.67162 1.93756C2.18321 2.49727 1.90711 3.21087 1.89162 3.95356L1.85362 5.76622C1.85227 5.83189 1.86385 5.89717 1.88773 5.95835C1.9116 6.01954 1.94729 6.07542 1.99276 6.12281C2.03823 6.17019 2.09259 6.20816 2.15273 6.23454C2.21288 6.26092 2.27763 6.2752 2.34329 6.27656C2.40895 6.27792 2.47424 6.26633 2.53542 6.24245C2.5966 6.21858 2.65248 6.18289 2.69987 6.13742C2.74726 6.09195 2.78523 6.03759 2.81161 5.97745C2.83799 5.9173 2.85227 5.85255 2.85362 5.78689L2.89096 3.97489C2.90165 3.46671 3.09067 2.97847 3.42496 2.59556L4.28629 1.60823Z" fill="#E23F36"/>
<path fill-rule="evenodd" clip-rule="evenodd" d="M4.15829 5.13398C4.20306 4.42074 4.51797 3.75137 5.03891 3.26214C5.55984 2.77291 6.24765 2.5006 6.96229 2.50065H7.33363V2.00065C7.33363 1.82384 7.40386 1.65427 7.52889 1.52925C7.65391 1.40422 7.82348 1.33398 8.00029 1.33398C8.1771 1.33398 8.34667 1.40422 8.4717 1.52925C8.59672 1.65427 8.66696 1.82384 8.66696 2.00065V2.50065H9.03829C9.75294 2.5006 10.4407 2.77291 10.9617 3.26214C11.4826 3.75137 11.7975 4.42074 11.8423 5.13398L11.9896 7.48998C12.0466 8.38813 12.3481 9.25358 12.8616 9.99265C12.9679 10.1454 13.0328 10.323 13.0501 10.5082C13.0673 10.6934 13.0364 10.88 12.9602 11.0497C12.884 11.2194 12.7652 11.3665 12.6154 11.4768C12.4655 11.587 12.2897 11.6565 12.105 11.6787L9.83363 11.9507V12.6673C9.83363 13.1535 9.64047 13.6199 9.29665 13.9637C8.95284 14.3075 8.48652 14.5007 8.00029 14.5007C7.51406 14.5007 7.04775 14.3075 6.70393 13.9637C6.36011 13.6199 6.16696 13.1535 6.16696 12.6673V11.9507L3.89563 11.678C3.71102 11.6558 3.5353 11.5862 3.38552 11.4761C3.23575 11.3659 3.11701 11.2188 3.04086 11.0492C2.96471 10.8796 2.93372 10.6932 2.95091 10.508C2.9681 10.3229 3.03288 10.1454 3.13896 9.99265C3.65245 9.25358 3.954 8.38813 4.01096 7.48998L4.15829 5.13398ZM6.96229 3.50065C6.50201 3.5006 6.05901 3.67597 5.72348 3.99106C5.38795 4.30615 5.18512 4.73727 5.15629 5.19665L5.00963 7.55265C4.94108 8.63315 4.5782 9.6743 3.96029 10.5633C3.9526 10.5744 3.9479 10.5872 3.94665 10.6006C3.94539 10.614 3.94763 10.6275 3.95313 10.6398C3.95863 10.6521 3.96722 10.6627 3.97805 10.6707C3.98889 10.6787 4.0016 10.6837 4.01496 10.6853L6.50629 10.9847C7.49896 11.1033 8.50163 11.1033 9.49429 10.9847L11.9856 10.6853C11.999 10.6837 12.0117 10.6787 12.0225 10.6707C12.0334 10.6627 12.042 10.6521 12.0475 10.6398C12.053 10.6275 12.0552 10.614 12.0539 10.6006C12.0527 10.5872 12.048 10.5744 12.0403 10.5633C11.4226 9.67422 11.06 8.63308 10.9916 7.55265L10.8443 5.19665C10.8155 4.73727 10.6126 4.30615 10.2771 3.99106C9.94158 3.67597 9.49858 3.5006 9.03829 3.50065H6.96229ZM8.00029 13.5007C7.54029 13.5007 7.16696 13.1273 7.16696 12.6673V12.1673H8.83363V12.6673C8.83363 13.1273 8.46029 13.5007 8.00029 13.5007Z" fill="#E23F36"/>
<path d="M11.762 0.902489C11.6621 0.989672 11.601 1.11295 11.592 1.24522C11.583 1.37749 11.6269 1.50791 11.714 1.60782L12.5753 2.59449C12.9095 2.97766 13.0983 3.46616 13.1087 3.97449L13.1467 5.78582C13.1494 5.91843 13.2047 6.04452 13.3004 6.13635C13.3961 6.22818 13.5244 6.27823 13.657 6.27549C13.7896 6.27275 13.9157 6.21744 14.0075 6.12174C14.0994 6.02603 14.1494 5.89776 14.1467 5.76516L14.1087 3.95316C14.0932 3.21047 13.8171 2.49687 13.3287 1.93716L12.4673 0.950489C12.3802 0.850615 12.2569 0.789453 12.1246 0.780452C11.9923 0.77145 11.8619 0.815347 11.762 0.902489Z" fill="#E23F36"/>
</svg>
