<svg width="30" height="30" viewBox="0 0 30 30" fill="none" xmlns="http://www.w3.org/2000/svg">
<rect width="30" height="30" rx="15" fill="#A4F4E7"/>
<path d="M19.0002 9C19.7074 9 20.3857 9.28095 20.8858 9.78105C21.3859 10.2811 21.6668 10.9594 21.6668 11.6667V17C21.6668 17.7072 21.3859 18.3855 20.8858 18.8856C20.3857 19.3857 19.7074 19.6667 19.0002 19.6667H15.8508L12.6762 21.5713C12.5806 21.6287 12.4721 21.6612 12.3607 21.6658C12.2493 21.6704 12.1385 21.647 12.0385 21.5977C11.9384 21.5484 11.8524 21.4749 11.7882 21.3837C11.7239 21.2926 11.6836 21.1868 11.6708 21.076L11.6668 21V19.6667H11.0002C10.316 19.6667 9.65801 19.4037 9.16229 18.9322C8.66657 18.4607 8.37104 17.8166 8.33683 17.1333L8.3335 17V11.6667C8.3335 10.9594 8.61445 10.2811 9.11454 9.78105C9.61464 9.28095 10.2929 9 11.0002 9H19.0002ZM16.3335 15H12.3335C12.1567 15 11.9871 15.0702 11.8621 15.1953C11.7371 15.3203 11.6668 15.4899 11.6668 15.6667C11.6668 15.8435 11.7371 16.013 11.8621 16.1381C11.9871 16.2631 12.1567 16.3333 12.3335 16.3333H16.3335C16.5103 16.3333 16.6799 16.2631 16.8049 16.1381C16.9299 16.013 17.0002 15.8435 17.0002 15.6667C17.0002 15.4899 16.9299 15.3203 16.8049 15.1953C16.6799 15.0702 16.5103 15 16.3335 15ZM17.6668 12.3333H12.3335C12.1567 12.3333 11.9871 12.4036 11.8621 12.5286C11.7371 12.6536 11.6668 12.8232 11.6668 13C11.6668 13.1768 11.7371 13.3464 11.8621 13.4714C11.9871 13.5964 12.1567 13.6667 12.3335 13.6667H17.6668C17.8436 13.6667 18.0132 13.5964 18.1382 13.4714C18.2633 13.3464 18.3335 13.1768 18.3335 13C18.3335 12.8232 18.2633 12.6536 18.1382 12.5286C18.0132 12.4036 17.8436 12.3333 17.6668 12.3333Z" fill="#0B7B69"/>
</svg>
