<svg width="45" height="45" viewBox="0 0 45 45" fill="none" xmlns="http://www.w3.org/2000/svg">
<g clip-path="url(#clip0_6514_21352)">
<path d="M44.8141 43.0508C44.8212 43.042 44.8264 43.0341 44.8326 43.0254L44.8528 42.999L44.8704 42.9691C44.8756 42.9604 44.8809 42.9524 44.8853 42.9437C44.891 42.9335 44.896 42.9229 44.9002 42.912L44.9134 42.8848C44.9177 42.8747 44.9215 42.8645 44.9248 42.854L44.9354 42.8242L44.9433 42.7926C44.9433 42.782 44.9485 42.7723 44.9503 42.7618C44.9521 42.7513 44.9503 42.7363 44.9565 42.724C44.9626 42.7117 44.9565 42.7065 44.9565 42.6977C44.9608 42.6544 44.9608 42.6109 44.9565 42.5677V42.5413C44.9565 42.5325 44.9565 42.5158 44.9503 42.5035C44.9441 42.4912 44.9459 42.4833 44.9433 42.4728L44.9354 42.4411L44.9248 42.4113C44.9215 42.4008 44.9177 42.3906 44.9134 42.3805L44.9002 42.3533C44.896 42.3424 44.891 42.3319 44.8853 42.3217L44.8704 42.2971C44.8651 42.2865 44.8589 42.2769 44.8528 42.2663L44.8326 42.24C44.8264 42.2321 44.8212 42.2233 44.8141 42.2154C44.8071 42.2075 44.7878 42.1846 44.7737 42.1697L43.0799 40.4759C42.955 40.3595 42.7898 40.2962 42.6191 40.2992C42.4484 40.3022 42.2856 40.3713 42.1649 40.4921C42.0441 40.6128 41.975 40.7756 41.972 40.9463C41.969 41.117 42.0323 41.2822 42.1487 41.4071L42.7171 41.9764H2.99511V2.25353L3.56439 2.82193C3.62471 2.88666 3.69745 2.93859 3.77827 2.9746C3.85909 3.01061 3.94634 3.02997 4.03481 3.03154C4.12328 3.0331 4.21116 3.01682 4.2932 2.98368C4.37524 2.95055 4.44977 2.90122 4.51234 2.83865C4.5749 2.77609 4.62423 2.70156 4.65737 2.61952C4.6905 2.53747 4.70678 2.4496 4.70522 2.36113C4.70366 2.27266 4.68429 2.18541 4.64828 2.10459C4.61227 2.02377 4.56035 1.95103 4.49561 1.8907L2.80184 0.19693C2.78778 0.182874 2.77285 0.169696 2.75791 0.156519L2.74473 0.147733C2.73282 0.13613 2.72021 0.125274 2.70696 0.115228L2.69554 0.1082C2.68141 0.098583 2.66674 0.0897834 2.65161 0.0818448L2.64283 0.0774523C2.61911 0.0695456 2.60593 0.0607605 2.58836 0.0537324H2.58309C2.56621 0.045765 2.5489 0.0387264 2.53125 0.0326481H2.52511C2.50666 0.027377 2.48821 0.0221059 2.46976 0.0185918C2.4642 0.0181684 2.45862 0.0181684 2.45307 0.0185918L2.40211 0.0036571C2.35744 -0.00121903 2.31237 -0.00121903 2.2677 0.0036571L2.22026 0.0106852C2.21471 0.0101948 2.20912 0.0101948 2.20357 0.0106852C2.18512 0.0106852 2.16667 0.0194703 2.14822 0.0247414H2.14119C2.12436 0.033006 2.10794 0.042095 2.092 0.0519754H2.08585L2.03577 0.0756952L2.02787 0.0800878C2.01273 0.0880264 1.99807 0.0968259 1.98394 0.106443L1.97252 0.113471C1.95964 0.122256 1.94646 0.13192 1.93299 0.142462L1.9163 0.153004C1.90136 0.166182 1.88643 0.17936 1.87237 0.193416L0.176838 1.8907C0.0604522 2.01561 -0.00290908 2.18081 0.000102652 2.35151C0.00311439 2.5222 0.0722639 2.68506 0.192983 2.80578C0.313702 2.9265 0.476566 2.99565 0.647262 2.99866C0.817958 3.00168 0.98316 2.93832 1.10806 2.82193L1.67734 2.25353V42.6309C1.67734 42.8057 1.74676 42.9732 1.87032 43.0968C1.99389 43.2204 2.16148 43.2898 2.33622 43.2898H42.7136L42.1452 43.8591C42.0805 43.9194 42.0285 43.9921 41.9925 44.073C41.9565 44.1538 41.9372 44.241 41.9356 44.3295C41.934 44.418 41.9503 44.5058 41.9834 44.5879C42.0166 44.6699 42.0659 44.7444 42.1285 44.807C42.191 44.8696 42.2656 44.9189 42.3476 44.952C42.4297 44.9852 42.5175 45.0015 42.606 44.9999C42.6945 44.9983 42.7817 44.979 42.8625 44.943C42.9434 44.9069 43.0161 44.855 43.0764 44.7903L44.7702 43.0965L44.8141 43.0508Z" fill="#918291"/>
<path d="M30.3828 42.6465V30.166C30.3828 29.8164 30.5216 29.481 30.7686 29.2338C31.0156 28.9866 31.3507 28.8477 31.7 28.8477H35.6515C36.0009 28.8477 36.3359 28.9866 36.5829 29.2338C36.8299 29.481 36.9687 29.8164 36.9687 30.166V42.6465" fill="#A2E62E"/>
<path d="M35.6517 28.8457H33.8955C34.2448 28.8457 34.5799 28.9846 34.8269 29.2318C35.0739 29.4791 35.2127 29.8144 35.2127 30.1641V42.6445H36.9689V30.1641C36.9689 29.8144 36.8302 29.4791 36.5831 29.2318C36.3361 28.9846 36.0011 28.8457 35.6517 28.8457Z" fill="#97D729"/>
<path d="M19.8457 42.6465V34.1211C19.8457 33.7714 19.9845 33.4361 20.2315 33.1889C20.4785 32.9416 20.8135 32.8027 21.1629 32.8027H25.1144C25.4638 32.8027 25.7988 32.9416 26.0458 33.1889C26.2928 33.4361 26.4316 33.7714 26.4316 34.1211V42.6465" fill="#26A6FE"/>
<path d="M25.1142 32.8008H23.3579C23.7072 32.8008 24.0423 32.9397 24.2893 33.1869C24.5363 33.4342 24.6751 33.7695 24.6751 34.1191V42.6445H26.4313V34.1191C26.4313 33.7695 26.2926 33.4342 26.0455 33.1869C25.7985 32.9397 25.4635 32.8008 25.1142 32.8008Z" fill="#0593FC"/>
<path d="M9.15088 42.6465V38.0762C9.15088 37.7265 9.28965 37.3912 9.53667 37.144C9.78369 36.8967 10.1187 36.7578 10.4681 36.7578H14.4196C14.7689 36.7578 15.104 36.8967 15.351 37.144C15.598 37.3912 15.7368 37.7265 15.7368 38.0762V42.6465" fill="#A2E62E"/>
<path d="M14.4198 36.7559H12.6636C13.0129 36.7559 13.3479 36.8948 13.595 37.142C13.842 37.3892 13.9808 37.7246 13.9808 38.0742V42.6445H15.737V38.0742C15.737 37.7246 15.5982 37.3892 15.3512 37.142C15.1042 36.8948 14.7692 36.7559 14.4198 36.7559Z" fill="#97D729"/>
<path d="M44.301 5.10629V11.6322C44.3009 11.7272 44.2732 11.8202 44.2214 11.8998C44.1696 11.9794 44.0958 12.0423 44.009 12.0808C43.9222 12.1194 43.8261 12.1318 43.7323 12.1168C43.6386 12.1017 43.5512 12.0598 43.4808 11.996L41.916 10.5775C41.8683 10.5341 41.8125 10.5006 41.7518 10.4789C41.6912 10.4572 41.6268 10.4476 41.5625 10.4508C41.4981 10.454 41.435 10.4698 41.3768 10.4974C41.3186 10.5251 41.2664 10.5639 41.2231 10.6118L28.9295 24.1882C28.6012 24.5498 28.143 24.7664 27.6555 24.7905C27.1679 24.8145 26.6907 24.6441 26.3285 24.3165L21.3759 19.8245L19.8585 21.5005L17.182 24.4563C16.8462 24.7856 16.3974 24.9741 15.9274 24.9833C15.4574 24.9925 15.0017 24.8216 14.6533 24.5057C14.3049 24.1898 14.0902 23.7526 14.0531 23.2836C14.016 22.8145 14.1593 22.349 14.4537 21.9822L17.3576 18.775L19.8831 15.9845C20.1051 15.7394 20.3888 15.5586 20.7045 15.4608C21.0203 15.3631 21.3565 15.3521 21.678 15.429C21.9888 15.5066 22.2749 15.6617 22.5095 15.8799L27.4367 20.3474L38.4913 8.13676C38.5346 8.08901 38.5681 8.03317 38.5898 7.97246C38.6115 7.91174 38.6211 7.84733 38.6179 7.78292C38.6147 7.71851 38.5989 7.65536 38.5713 7.59708C38.5437 7.5388 38.5049 7.48655 38.4571 7.4433L36.9924 6.1144C36.9222 6.05041 36.872 5.96746 36.8479 5.87557C36.8238 5.78368 36.8268 5.68677 36.8565 5.59654C36.8862 5.50631 36.9414 5.42661 37.0154 5.36707C37.0893 5.30752 37.1789 5.27068 37.2734 5.26098L43.7618 4.61762C43.83 4.61087 43.8988 4.61848 43.9639 4.63997C44.0289 4.66145 44.0888 4.69633 44.1396 4.74236C44.1904 4.78839 44.231 4.84455 44.2588 4.90723C44.2865 4.96991 44.3009 5.03772 44.301 5.10629Z" fill="#FE646F"/>
<path d="M19.8595 21.4989L17.183 24.4547C16.8472 24.784 16.3984 24.9725 15.9284 24.9817C15.4584 24.9909 15.0026 24.82 14.6543 24.5041C14.3059 24.1882 14.0912 23.751 14.0541 23.282C14.017 22.8129 14.1603 22.3474 14.4546 21.9806L17.3586 18.7734C18.3702 19.5002 19.2215 20.4277 19.8595 21.498V21.4989Z" fill="#FD4755"/>
<path d="M12.1621 32.9336C10.5734 32.9334 9.0339 32.3819 7.80594 31.373C6.57797 30.3641 5.7375 28.9603 5.42772 27.4007C5.11794 25.8412 5.35802 24.2223 6.10706 22.82C6.85609 21.4178 8.06774 20.3188 9.53555 19.7104C11.0034 19.1021 12.6365 19.0219 14.1567 19.4836C15.677 19.9453 16.9902 20.9204 17.8727 22.2426C18.7553 23.5648 19.1524 25.1523 18.9966 26.7348C18.8407 28.3172 18.1415 29.7966 17.0181 30.9209C16.3818 31.5611 15.625 32.0686 14.7915 32.4141C13.958 32.7596 13.0642 32.9361 12.1621 32.9336Z" fill="#FEDF30"/>
<path d="M17.0181 21.1998C15.9321 20.1071 14.5083 19.415 12.9788 19.2363C14.2849 19.9956 15.3045 21.1647 15.8797 22.5626C16.455 23.9605 16.5537 25.5092 16.1607 26.9689C15.7677 28.4286 14.9048 29.718 13.7058 30.6373C12.5067 31.5566 11.0382 32.0547 9.52779 32.0543C9.25543 32.0539 8.98333 32.0374 8.71289 32.0051C10.1551 32.8437 11.8529 33.1284 13.4894 32.806C15.1259 32.4835 16.5893 31.576 17.6063 30.2529C18.6233 28.9297 19.1245 27.2813 19.0163 25.6154C18.908 23.9495 18.1978 22.38 17.0181 21.1998Z" fill="#FED402"/>
</g>
<defs>
<clipPath id="clip0_6514_21352">
<rect width="44.9597" height="45" fill="white"/>
</clipPath>
</defs>
</svg>
