<svg width="40" height="40" viewBox="0 0 40 40" fill="none" xmlns="http://www.w3.org/2000/svg">
<path d="M36.8843 31.9748L22.5906 38.4373C21.7093 38.8529 20.7906 38.8123 19.9468 38.3248L1.90309 29.1623C1.38746 28.8311 1.23434 28.3467 1.26559 28.0092C1.29684 27.6717 1.37496 27.3061 2.28121 27.0436L3.61871 26.5498L21.7187 36.4154L34.5812 31.1592L36.8843 31.9748Z" fill="#01579B"/>
<path d="M22.4186 37.4033C22.0611 37.571 21.6689 37.6511 21.2744 37.637C20.8798 37.6229 20.4943 37.5149 20.1498 37.3221L2.53419 28.4471C2.28419 28.3096 2.20919 27.9939 2.35919 27.7502C2.74669 27.1096 3.45919 25.0846 2.28419 23.4033L22.1779 32.9814L22.4186 37.4033Z" fill="#F5F5F5"/>
<path d="M36.1215 31.2442L22.4184 37.4036C21.9652 37.6005 21.0621 37.9505 20.0215 37.2505C20.8434 37.3098 21.4215 36.9692 21.7184 36.4161C22.009 35.8786 21.9215 34.9973 21.5684 34.5005C21.3527 34.2005 20.7746 33.7223 20.5215 33.4536L35.3434 27.6567C36.6559 27.1161 37.8871 27.9255 38.084 28.9098C38.3027 30.0223 36.884 30.9317 36.1215 31.2442Z" fill="#94C6D6"/>
<path d="M36.8065 27.1754L22.6596 33.4879C21.769 33.841 20.7721 33.7941 19.919 33.3629L1.844 24.1816C1.669 24.0941 1.40962 23.8535 1.3065 23.5254C1.13775 22.9785 1.35025 22.291 1.99087 22.0723L21.5784 32.0566L34.9909 26.316L36.8065 27.1754Z" fill="#01579B"/>
<path d="M37.8722 28.0903L36.3316 27.5309L33.1566 27.7153L22.6628 32.3997C21.7722 32.7528 20.7753 32.7059 19.9222 32.2747L1.84408 23.0966C1.37846 22.8591 1.47846 22.1684 1.99096 22.0716L15.0191 16.2434C15.391 16.1747 15.7722 16.2153 16.1191 16.3622L34.7097 25.2247C34.7097 25.2247 37.6628 27.2466 37.8722 28.0903Z" fill="#0091EA"/>
<path d="M32.9783 27.806C32.9783 27.806 34.9346 27.0404 36.4721 27.1091C38.0096 27.1779 38.5439 28.256 38.5439 28.256C38.2533 26.9341 36.8877 26.2591 36.8877 26.2591L16.5752 16.031C16.4346 15.9716 15.9158 15.8498 15.1189 16.1779C14.4752 16.4435 12.3721 17.4279 12.3721 17.4279L32.9783 27.806Z" fill="#616161"/>
<path d="M38.6316 28.5059C38.4848 27.9215 38.1223 27.2965 37.4535 26.9934C36.5723 26.5965 35.316 26.6997 34.5129 27.1184L32.9785 27.7997V28.8809L34.9191 28.0184C36.8066 27.1778 37.6441 28.4372 37.716 28.734C38.016 29.9434 37.4348 30.6434 35.7191 31.4309L32.9316 32.6872V33.7747L36.1379 32.3465C37.5566 31.7778 39.1754 30.709 38.6316 28.5059Z" fill="#424242"/>
<path d="M10.3158 28.2223L4.91895 20.7629L5.76582 20.3848L11.8377 28.7285L10.3158 28.2223ZM17.2377 31.6598L16.2752 30.8973L32.9783 27.4879V28.0348L30.6377 28.9223L17.2377 31.6598Z" fill="#01579B"/>
<path d="M4.625 14.4312L25.7219 10.9062L34.9375 21.0531C35.4031 21.5438 35.15 22.3562 34.4875 22.4906L12.7063 26.9594L4.625 14.4312Z" fill="#9CCC65"/>
<path d="M34.4871 21.6152L12.8559 25.9965L12.7871 27.0277L34.4871 22.5777C35.0996 22.4496 35.3559 21.7496 35.0215 21.2559C34.9027 21.4309 34.7215 21.5684 34.4871 21.6152ZM35.6527 26.3434C35.8809 26.7059 35.6746 27.184 35.2559 27.2684L15.3434 31.3059C14.1465 31.5527 12.9715 30.7684 12.8652 29.5496C12.7746 28.5184 13.4715 27.584 14.4871 27.3715L33.6371 23.0715L35.6527 26.3434Z" fill="#689F38"/>
<path d="M17.3723 25.0316L9.44107 13.6816L4.91607 14.8785C3.86919 15.9191 4.25982 17.6285 4.25982 17.6285C4.25982 17.6285 11.1879 28.7473 12.2817 30.1691C13.3754 31.591 14.9723 31.3691 14.9723 31.3691L17.6692 30.8254L17.3879 25.7941L17.3723 25.0316Z" fill="#616161"/>
<path d="M17.3721 25.1059L13.5627 25.8934C12.5221 26.1277 12.3346 27.1059 12.3346 27.1059L3.1377 13.9277C3.1377 13.9277 1.82832 15.5121 2.69707 16.859L12.2814 30.1684C13.3283 31.659 14.9721 31.3809 14.9721 31.3809L17.6689 30.8371L17.3908 25.9059L17.3721 25.1059Z" fill="#424242"/>
<path d="M34.4528 25.9373C34.5497 26.1498 34.4247 26.3967 34.1965 26.4436L15.1559 30.3498C13.959 30.5967 13.1122 29.8029 13.1559 28.7217C13.2122 27.3561 13.9778 26.7779 14.9903 26.5686L34.1247 22.6592C34.1247 22.6592 33.4747 23.3904 33.9715 24.7592C34.1403 25.2311 34.3215 25.6498 34.4528 25.9373Z" fill="#B9E4EA"/>
<path d="M14.1281 26.1561L5.96875 14.6123" stroke="#424242" stroke-width="0.258875" stroke-miterlimit="10"/>
<path d="M14.7684 21.2348L4.27461 15.9473L3.84961 16.7848L15.9746 22.9629L14.7684 21.2348Z" fill="#424242"/>
<path d="M33.9967 20.0098L33.2279 19.166L21.4061 24.591L14.7686 21.3066L15.8998 22.9254L20.2967 25.1723L23.5717 24.6691L33.9967 20.0098Z" fill="#689F38"/>
<path d="M36.8812 17.9215L22.5906 24.384C21.7093 24.7996 20.7906 24.759 19.9468 24.2715L1.90309 15.109C1.38746 14.7777 1.23434 14.2934 1.26559 13.9559C1.29684 13.6184 1.37496 13.2527 2.28121 12.9902L3.12809 12.6777L21.6656 21.7746L36.7187 15.5465L36.8812 17.9215Z" fill="#C62828"/>
<path d="M22.4156 23.3496C22.0582 23.5173 21.666 23.5974 21.2714 23.5833C20.8769 23.5692 20.4914 23.4612 20.1469 23.2684L2.53126 14.3934C2.28126 14.2559 2.20626 13.9402 2.35626 13.6965C2.74376 13.0559 3.45626 11.0309 2.28126 9.34961L21.7313 19.2434L22.4156 23.3496Z" fill="#F5F5F5"/>
<path d="M36.1186 17.1905L22.4154 23.3499C21.9623 23.5468 21.0592 23.8968 20.0186 23.1968C20.8404 23.2561 21.4186 22.9155 21.7154 22.3624C22.0061 21.8249 21.9186 20.9436 21.5654 20.4468C21.3498 20.1468 20.7717 19.6686 20.5186 19.3999L35.3404 13.603C36.6529 13.0624 37.8842 13.8718 38.0811 14.8561C38.2998 15.9686 36.8811 16.878 36.1186 17.1905Z" fill="#94C6D6"/>
<path d="M36.8063 13.1223L22.6595 19.4348C21.7688 19.7879 20.772 19.741 19.9188 19.3098L1.84071 10.1285C1.65321 10.0348 1.37196 9.79414 1.28133 9.45352C1.14696 8.94727 1.32196 8.28164 1.98758 8.01914L18.5532 4.50977L36.8063 13.1223Z" fill="#C62828"/>
<path d="M37.8692 14.0376L36.3286 13.4782L33.1536 13.6626L22.6598 18.347C21.7692 18.7001 20.7723 18.6532 19.9192 18.222L1.84107 9.04071C1.37545 8.80321 1.54107 8.17509 1.98795 8.01571L15.0192 2.19071C15.3911 2.12196 15.7723 2.16259 16.1192 2.30946L34.7098 11.172C34.7098 11.172 37.6598 13.1907 37.8692 14.0376Z" fill="#F44336"/>
<path d="M32.9781 13.7503C32.9781 13.7503 34.6063 13.1785 36.1438 13.2472C37.6813 13.316 38.5469 14.2003 38.5469 14.2003C38.2313 12.7878 36.8906 12.2035 36.8906 12.2035L16.5781 1.97535C16.4375 1.91597 15.9188 1.7941 15.1219 2.12222C14.4781 2.38785 12.375 3.37222 12.375 3.37222L32.9781 13.7503Z" fill="#616161"/>
<path d="M34.8371 13.0809L14.0527 2.59648L14.7402 2.28711L35.8777 12.8809L34.8371 13.0809Z" fill="#424242"/>
<path d="M38.6277 14.4534C38.4809 13.869 38.234 13.3034 37.5371 13.0096C36.6465 12.6346 35.834 12.5565 34.509 13.0659L32.9746 13.7471V14.8284L34.9152 13.9659C35.8996 13.5034 37.3496 13.6034 37.7121 14.6815C38.109 15.8627 37.4309 16.5909 35.7152 17.3784L32.9277 18.6346V19.7221L36.134 18.294C37.5559 17.7252 39.1746 16.6565 38.6277 14.4534Z" fill="#424242"/>
</svg>
