<svg width="31" height="24" viewBox="0 0 31 24" fill="none" xmlns="http://www.w3.org/2000/svg">
<path d="M16.3622 0.253125C15.8391 -0.084375 15.1609 -0.084375 14.6378 0.253125L8.05516 4.5H2.325C1.04141 4.5 0 5.50781 0 6.75V21.75C0 22.9922 1.04141 24 2.325 24H12.4V19.5C12.4 17.8453 13.7902 16.5 15.5 16.5C17.2098 16.5 18.6 17.8453 18.6 19.5V24H28.675C29.9586 24 31 22.9922 31 21.75V6.75C31 5.50781 29.9586 4.5 28.675 4.5H22.9448L16.3622 0.253125ZM4.65 9H6.2C6.62625 9 6.975 9.3375 6.975 9.75V12.75C6.975 13.1625 6.62625 13.5 6.2 13.5H4.65C4.22375 13.5 3.875 13.1625 3.875 12.75V9.75C3.875 9.3375 4.22375 9 4.65 9ZM24.025 9.75C24.025 9.3375 24.3737 9 24.8 9H26.35C26.7762 9 27.125 9.3375 27.125 9.75V12.75C27.125 13.1625 26.7762 13.5 26.35 13.5H24.8C24.3737 13.5 24.025 13.1625 24.025 12.75V9.75ZM4.65 15H6.2C6.62625 15 6.975 15.3375 6.975 15.75V18.75C6.975 19.1625 6.62625 19.5 6.2 19.5H4.65C4.22375 19.5 3.875 19.1625 3.875 18.75V15.75C3.875 15.3375 4.22375 15 4.65 15ZM24.025 15.75C24.025 15.3375 24.3737 15 24.8 15H26.35C26.7762 15 27.125 15.3375 27.125 15.75V18.75C27.125 19.1625 26.7762 19.5 26.35 19.5H24.8C24.3737 19.5 24.025 19.1625 24.025 18.75V15.75ZM11.2375 8.25C11.2375 7.15598 11.6866 6.10677 12.486 5.33318C13.2853 4.5596 14.3695 4.125 15.5 4.125C16.6305 4.125 17.7147 4.5596 18.514 5.33318C19.3134 6.10677 19.7625 7.15598 19.7625 8.25C19.7625 9.34402 19.3134 10.3932 18.514 11.1668C17.7147 11.9404 16.6305 12.375 15.5 12.375C14.3695 12.375 13.2853 11.9404 12.486 11.1668C11.6866 10.3932 11.2375 9.34402 11.2375 8.25ZM15.5 6C15.0737 6 14.725 6.3375 14.725 6.75V8.25C14.725 8.6625 15.0737 9 15.5 9H17.05C17.4762 9 17.825 8.6625 17.825 8.25C17.825 7.8375 17.4762 7.5 17.05 7.5H16.275V6.75C16.275 6.3375 15.9262 6 15.5 6Z" fill="#323F49"/>
</svg>
