<svg width="40" height="40" viewBox="0 0 40 40" fill="none" xmlns="http://www.w3.org/2000/svg">
<path d="M5.8623 36.9032V39.9938H33.0936V36.9032C33.0936 32.1625 26.4092 29.7563 19.5811 29.7657C12.7936 29.775 5.8623 31.8844 5.8623 36.9032Z" fill="#424242"/>
<path d="M19.4781 28.2031H16.6406V31.2C16.6406 32.5562 17.7969 33.6562 19.2219 33.6562H19.7375C21.1625 33.6562 22.3187 32.5562 22.3187 31.2V28.2031H19.4781Z" fill="#E49500"/>
<path d="M22.5533 40H16.4033V29.9062L19.4783 33.6562L22.5533 29.9062V40Z" fill="#424242"/>
<path d="M29.5531 16.3564C29.5531 16.3564 31.3937 16.6752 31.3937 18.6596C31.3937 20.4096 30.05 21.1002 28.7062 21.1002V16.3564H29.5531ZM9.46563 16.3564C9.46563 16.3564 7.625 16.6752 7.625 18.6596C7.625 20.4096 8.96875 21.1002 10.3125 21.1002V16.3564H9.46563Z" fill="#E39400"/>
<path d="M19.5096 3.36523C11.5721 3.36523 9.49707 9.51836 9.49707 18.1621C9.49707 27.1246 15.2564 29.4434 19.5096 29.4434C23.7002 29.4434 29.5221 27.1934 29.5221 18.1621C29.5252 9.51836 27.4471 3.36523 19.5096 3.36523Z" fill="#FAC01B"/>
<path d="M16.2123 18.9654C16.2123 19.8592 15.6154 20.5811 14.8748 20.5811C14.1373 20.5811 13.5342 19.8561 13.5342 18.9654C13.5342 18.0717 14.1342 17.3467 14.8748 17.3467C15.6154 17.3467 16.2123 18.0686 16.2123 18.9654ZM22.8061 18.9654C22.8061 19.8592 23.4029 20.5811 24.1467 20.5811C24.8842 20.5811 25.4842 19.8561 25.4842 18.9654C25.4842 18.0717 24.8842 17.3467 24.1467 17.3467C23.4029 17.3467 22.8061 18.0686 22.8061 18.9654Z" fill="#444444"/>
<path d="M22.4093 24.4248H16.6156C16.2843 24.4248 16.1406 24.6467 16.3593 24.9842C16.6656 25.4529 17.8093 26.3529 19.5124 26.3529C21.2156 26.3529 22.3593 25.4529 22.6656 24.9842C22.8843 24.6467 22.7406 24.4248 22.4093 24.4248Z" fill="#513F35"/>
<path d="M20.909 21.963C20.4152 22.1036 19.9027 22.1692 19.509 22.1692C19.1152 22.1692 18.6027 22.1005 18.109 21.963C17.8996 21.9036 17.8152 22.1036 17.8902 22.2348C18.0465 22.5098 18.6777 23.0661 19.509 23.0661C20.3402 23.0661 20.9715 22.5098 21.1277 22.2348C21.2027 22.1005 21.1215 21.9005 20.909 21.963Z" fill="#E39400"/>
<path d="M19.7498 2.2374C19.7498 2.2374 19.5936 2.23115 19.5279 2.23427C19.4623 2.23427 19.3061 2.2374 19.3061 2.2374C10.7404 2.40302 8.15918 7.55615 8.15918 11.128C8.15918 14.5999 8.1623 17.153 8.1623 17.153C8.1623 17.153 8.2998 17.0124 8.5498 16.8155C8.81855 16.6061 9.11543 16.4905 9.11543 16.4905L9.54668 19.3905L12.3998 13.428C12.4186 13.3905 12.4561 13.3686 12.4967 13.3749L14.1873 13.5624C15.8873 13.7499 17.5967 13.8436 19.3029 13.8468V13.8499C19.3779 13.8499 19.4498 13.8468 19.5248 13.8468C19.5998 13.8468 19.6717 13.8499 19.7467 13.8499V13.8436C21.4529 13.8374 23.1623 13.7468 24.8623 13.5593L26.5529 13.3718C26.5936 13.3686 26.6311 13.3905 26.6498 13.4249L29.5029 19.3874L29.9342 16.4874C29.9342 16.4874 30.2311 16.6061 30.4998 16.8124C30.7529 17.0093 30.8873 17.1499 30.8873 17.1499C30.8873 17.1499 30.8904 14.5999 30.8904 11.1249C30.8967 7.55615 28.3154 2.40302 19.7498 2.2374Z" fill="#6D4C41"/>
<path d="M19.4875 0L3.90625 2.88125L19.5281 0.00625L19.4875 0Z" fill="#262626"/>
<path d="M19.5752 0.003125L19.5658 0L19.5283 0.00625L19.5752 0.015625V0.003125Z" fill="#424143"/>
<path d="M19.6625 0L35.2469 2.88125L19.625 0.00625L19.6625 0Z" fill="#262626"/>
<path d="M35.2535 3.67461L35.2473 2.88086L19.5879 5.14961H19.5691L3.90664 2.88086L3.90039 3.67461L10.1723 4.77148L9.63477 6.29023C10.7848 6.79648 14.9504 8.47773 19.5754 8.59961C24.2004 8.47461 28.2191 6.79648 29.3691 6.29023L28.8316 4.77148L35.2535 3.67461Z" fill="#262626"/>
<path d="M19.5752 0.003125L19.5877 0L19.6252 0.00625L19.5752 0.015625V0.003125Z" fill="#424143"/>
<path d="M19.625 0.00585938L19.575 0.0152344L19.5281 0.00585938L3.90625 2.88086L19.5656 5.14961L19.575 5.14648L19.5875 5.14961L35.2469 2.88086L19.625 0.00585938Z" fill="#424143"/>
<path d="M35.5314 14.3438C35.2158 14.3438 34.9627 14.6 34.9627 14.9125V17.3594C34.9627 17.5102 35.0226 17.6549 35.1293 17.7615C35.2359 17.8682 35.3806 17.9281 35.5314 17.9281C35.6823 17.9281 35.827 17.8682 35.9336 17.7615C36.0403 17.6549 36.1002 17.5102 36.1002 17.3594V14.9125C36.1002 14.6 35.8471 14.3438 35.5314 14.3438ZM34.3939 14.3438C34.0783 14.3438 33.8252 14.6 33.8252 14.9125V17.3594C33.8252 17.5102 33.8851 17.6549 33.9918 17.7615C34.0984 17.8682 34.2431 17.9281 34.3939 17.9281C34.5448 17.9281 34.6895 17.8682 34.7961 17.7615C34.9028 17.6549 34.9627 17.5102 34.9627 17.3594V14.9125C34.9627 14.6 34.7096 14.3438 34.3939 14.3438Z" fill="#FBC11B"/>
<path d="M34.7562 14.3438C34.4406 14.3438 34.1875 14.6 34.1875 14.9125V17.3594C34.1875 17.5102 34.2474 17.6549 34.3541 17.7615C34.4607 17.8682 34.6054 17.9281 34.7562 17.9281C34.9071 17.9281 35.0518 17.8682 35.1584 17.7615C35.2651 17.6549 35.325 17.5102 35.325 17.3594V14.9125C35.325 14.6 35.0719 14.3438 34.7562 14.3438Z" fill="#E49500"/>
<path d="M35.1908 14.3438C34.8752 14.3438 34.6221 14.6 34.6221 14.9125V17.3594C34.6221 17.675 34.8783 17.9281 35.1908 17.9281C35.5033 17.9281 35.7596 17.6719 35.7596 17.3594V14.9125C35.7596 14.6 35.5064 14.3438 35.1908 14.3438Z" fill="#E49500"/>
<path d="M34.9623 14.3438C34.6467 14.3438 34.3936 14.6 34.3936 14.9125V17.8875C34.3936 18.0383 34.4535 18.183 34.5601 18.2897C34.6668 18.3963 34.8115 18.4562 34.9623 18.4562C35.1131 18.4562 35.2578 18.3963 35.3645 18.2897C35.4711 18.183 35.5311 18.0383 35.5311 17.8875V14.9125C35.5311 14.6 35.2779 14.3438 34.9623 14.3438Z" fill="#FBC11B"/>
<path d="M34.9621 14.8246C35.3176 14.8246 35.6059 14.5364 35.6059 14.1809C35.6059 13.8253 35.3176 13.5371 34.9621 13.5371C34.6066 13.5371 34.3184 13.8253 34.3184 14.1809C34.3184 14.5364 34.6066 14.8246 34.9621 14.8246Z" fill="#E49500"/>
<path d="M34.9621 14.6596C35.3176 14.6596 35.6059 14.3714 35.6059 14.0158C35.6059 13.6603 35.3176 13.3721 34.9621 13.3721C34.6066 13.3721 34.3184 13.6603 34.3184 14.0158C34.3184 14.3714 34.6066 14.6596 34.9621 14.6596Z" fill="#FBC11B"/>
<path d="M34.6816 2.95312V13.875H34.6879C34.7004 14.0188 34.8191 14.1344 34.966 14.1344C35.1129 14.1344 35.2316 14.0219 35.2441 13.875H35.2504V2.95312H34.6816Z" fill="#262626"/>
</svg>
