<svg width="24" height="24" viewBox="0 0 24 24" fill="none" xmlns="http://www.w3.org/2000/svg">
<g clip-path="url(#clip0_5469_15971)">
<path fill-rule="evenodd" clip-rule="evenodd" d="M8.08072 2.54561C8.08072 1.20161 9.17101 0.111328 10.515 0.111328H21.5447C22.19 0.111783 22.8088 0.368452 23.2649 0.82492C23.7211 1.28139 23.9773 1.9003 23.9773 2.54561V21.4542C23.9773 22.0998 23.7208 22.719 23.2643 23.1755C22.8078 23.632 22.1886 23.8885 21.543 23.8885H13.143C13.275 23.5216 13.3487 23.1256 13.3487 22.7142V19.5976C13.3487 19.4559 13.343 19.3148 13.3316 19.1742C13.631 19.2279 13.9344 19.2548 14.2419 19.2548H16.5939C17.4192 19.2548 18.2168 18.9571 18.8403 18.4163C19.4638 17.8756 19.8713 17.1281 19.988 16.3111C20.1047 15.494 19.9228 14.6623 19.4757 13.9687C19.0285 13.275 18.3462 12.7658 17.5539 12.5348C18.1061 12.019 18.5326 11.3833 18.8005 10.6767C19.0684 9.97004 19.1705 9.21136 19.0989 8.45908C19.0274 7.70679 18.7841 6.98097 18.3878 6.33753C17.9915 5.69408 17.4528 5.1502 16.8132 4.74776C16.1736 4.34532 15.4501 4.09508 14.6986 4.01631C13.947 3.93754 13.1874 4.03235 12.4783 4.29343C11.7691 4.5545 11.1293 4.97488 10.6083 5.52218C10.0872 6.06947 9.6987 6.72908 9.47272 7.45018C9.02957 7.26179 8.56214 7.13656 8.08415 7.07818V2.54561H8.08072ZM11.3893 8.92618C11.3893 8.18509 11.6837 7.47436 12.2077 6.95033C12.7318 6.4263 13.4425 6.1319 14.1836 6.1319C14.9247 6.1319 15.6354 6.4263 16.1594 6.95033C16.6835 7.47436 16.9779 8.18509 16.9779 8.92618C16.9779 9.66727 16.6835 10.378 16.1594 10.902C15.6354 11.4261 14.9247 11.7205 14.1836 11.7205C13.4425 11.7205 12.7318 11.4261 12.2077 10.902C11.6837 10.378 11.3893 9.66727 11.3893 8.92618ZM11.5316 11.7033L11.535 11.7085L14.0893 14.2628C14.1301 14.3027 14.1848 14.3254 14.2419 14.3262H16.5922C16.99 14.3262 17.3715 14.4842 17.6528 14.7655C17.9341 15.0468 18.0922 15.4284 18.0922 15.8262C18.0922 16.224 17.9341 16.6055 17.6528 16.8868C17.3715 17.1681 16.99 17.3262 16.5922 17.3262H14.2419C13.3899 17.3262 12.5722 16.9885 11.9687 16.385L10.4704 14.8868L9.2533 16.1039L10.4773 17.3245C11.079 17.9279 11.4184 18.7456 11.4184 19.5976V22.2856C11.4184 22.6834 11.2604 23.065 10.9791 23.3463C10.6978 23.6276 10.3163 23.7856 9.91844 23.7856C9.52061 23.7856 9.13908 23.6276 8.85778 23.3463C8.57647 23.065 8.41844 22.6834 8.41844 22.2856V19.5976C8.41719 19.5411 8.39452 19.4872 8.35501 19.4468L7.11215 18.2022C6.55277 18.6264 5.87018 18.8563 5.16815 18.857H1.71387C1.31604 18.857 0.934512 18.699 0.653207 18.4177C0.371902 18.1364 0.213867 17.7549 0.213867 17.357C0.213867 16.9592 0.371902 16.5777 0.653207 16.2964C0.934512 16.0151 1.31604 15.857 1.71387 15.857H5.16815C5.22526 15.8562 5.27987 15.8335 5.32072 15.7936L8.34815 12.7645L7.61444 12.0325C7.57402 11.993 7.52009 11.9703 7.46358 11.969H4.34701C3.94919 11.969 3.56765 11.811 3.28635 11.5297C3.00505 11.2484 2.84701 10.8669 2.84701 10.469C2.84701 10.0712 3.00505 9.68969 3.28635 9.40838C3.56765 9.12708 3.94919 8.96904 4.34701 8.96904H7.4653C8.3173 8.96904 9.13501 9.30847 9.73672 9.9119L11.5264 11.6999L11.5316 11.7033Z" fill="#323F49"/>
</g>
<defs>
<clipPath id="clip0_5469_15971">
<rect width="24" height="24" fill="white"/>
</clipPath>
</defs>
</svg>
