<svg width="43" height="43" viewBox="0 0 43 43" fill="none" xmlns="http://www.w3.org/2000/svg">
<mask id="mask0_6661_26722" style="mask-type:luminance" maskUnits="userSpaceOnUse" x="0" y="0" width="43" height="43">
<path d="M0 0H43V43H0V0Z" fill="white"/>
<path fill-rule="evenodd" clip-rule="evenodd" d="M29.8141 16.9221C30.1511 16.6415 30.5856 16.5062 31.0223 16.5459C31.4589 16.5856 31.862 16.797 32.1428 17.1338L35.5877 21.2684C35.8561 21.6066 35.9815 22.0364 35.9373 22.4659C35.893 22.8953 35.6826 23.2905 35.3509 23.5669C35.0192 23.8433 34.5926 23.979 34.1622 23.9451C33.7318 23.9112 33.3317 23.7103 33.0474 23.3853L29.6008 19.2507C29.3202 18.9138 29.1849 18.4792 29.2246 18.0426C29.2643 17.6059 29.4757 17.2029 29.8125 16.9221" fill="black"/>
<path fill-rule="evenodd" clip-rule="evenodd" d="M29.8135 27.7317C29.4765 27.4511 29.2647 27.0482 29.2247 26.6115C29.1847 26.1749 29.3197 25.7402 29.6001 25.4031L33.0467 21.2685C33.1838 21.0957 33.354 20.9521 33.5474 20.8461C33.7408 20.7401 33.9534 20.6739 34.1728 20.6513C34.3922 20.6287 34.6139 20.6502 34.8248 20.7145C35.0357 20.7789 35.2317 20.8847 35.4011 21.0259C35.5705 21.1671 35.7099 21.3407 35.8113 21.5366C35.9126 21.7325 35.9737 21.9466 35.991 22.1665C36.0084 22.3863 35.9815 22.6074 35.9122 22.8167C35.8428 23.0261 35.7322 23.2194 35.587 23.3854L32.1421 27.52C31.8613 27.8567 31.4583 28.0682 31.0216 28.1079C30.5849 28.1476 30.1504 28.0123 29.8135 27.7317Z" fill="black"/>
<path fill-rule="evenodd" clip-rule="evenodd" d="M33.9036 22.3265C33.9036 22.7651 33.7294 23.1858 33.4192 23.4959C33.1091 23.8061 32.6884 23.9803 32.2498 23.9803H21.4998C21.0611 23.9803 20.6405 23.8061 20.3303 23.4959C20.0202 23.1858 19.8459 22.7651 19.8459 22.3265C19.8459 21.8878 20.0202 21.4672 20.3303 21.157C20.6405 20.8469 21.0611 20.6726 21.4998 20.6726H32.2498C32.6884 20.6726 33.1091 20.8469 33.4192 21.157C33.7294 21.4672 33.9036 21.8878 33.9036 22.3265ZM9.92285 10.7495C9.92285 10.3109 10.0971 9.89026 10.4073 9.5801C10.7174 9.26995 11.1381 9.0957 11.5767 9.0957H26.4613C26.8999 9.0957 27.3206 9.26995 27.6308 9.5801C27.9409 9.89026 28.1152 10.3109 28.1152 10.7495C28.1152 11.1882 27.9409 11.6088 27.6308 11.919C27.3206 12.2292 26.8999 12.4034 26.4613 12.4034H11.5767C11.1381 12.4034 10.7174 12.2292 10.4073 11.919C10.0971 11.6088 9.92285 11.1882 9.92285 10.7495ZM9.92285 33.9034C9.92285 33.4648 10.0971 33.0441 10.4073 32.7339C10.7174 32.4238 11.1381 32.2495 11.5767 32.2495H26.4613C26.8999 32.2495 27.3206 32.4238 27.6308 32.7339C27.9409 33.0441 28.1152 33.4648 28.1152 33.9034C28.1152 34.342 27.9409 34.7627 27.6308 35.0728C27.3206 35.383 26.8999 35.5572 26.4613 35.5572H11.5767C11.1381 35.5572 10.7174 35.383 10.4073 35.0728C10.0971 34.7627 9.92285 34.342 9.92285 33.9034Z" fill="black"/>
<path fill-rule="evenodd" clip-rule="evenodd" d="M26.4613 9.0957C26.8999 9.0957 27.3206 9.26995 27.6308 9.5801C27.9409 9.89026 28.1152 10.3109 28.1152 10.7495V17.3649C28.1152 17.8036 27.9409 18.2242 27.6308 18.5344C27.3206 18.8445 26.8999 19.0188 26.4613 19.0188C26.0227 19.0188 25.602 18.8445 25.2919 18.5344C24.9817 18.2242 24.8075 17.8036 24.8075 17.3649V10.7495C24.8075 10.3109 24.9817 9.89026 25.2919 9.5801C25.602 9.26995 26.0227 9.0957 26.4613 9.0957ZM26.4613 25.6342C26.8999 25.6342 27.3206 25.8084 27.6308 26.1186C27.9409 26.4287 28.1152 26.8494 28.1152 27.288V33.9034C28.1152 34.342 27.9409 34.7627 27.6308 35.0728C27.3206 35.383 26.8999 35.5572 26.4613 35.5572C26.0227 35.5572 25.602 35.383 25.2919 35.0728C24.9817 34.7627 24.8075 34.342 24.8075 33.9034V27.288C24.8075 26.8494 24.9817 26.4287 25.2919 26.1186C25.602 25.8084 26.0227 25.6342 26.4613 25.6342ZM11.5767 9.0957C12.0153 9.0957 12.436 9.26995 12.7461 9.5801C13.0563 9.89026 13.2305 10.3109 13.2305 10.7495V33.9034C13.2305 34.342 13.0563 34.7627 12.7461 35.0728C12.436 35.383 12.0153 35.5572 11.5767 35.5572C11.1381 35.5572 10.7174 35.383 10.4073 35.0728C10.0971 34.7627 9.92285 34.342 9.92285 33.9034V10.7495C9.92285 10.3109 10.0971 9.89026 10.4073 9.5801C10.7174 9.26995 11.1381 9.0957 11.5767 9.0957Z" fill="black"/>
</mask>
<g mask="url(#mask0_6661_26722)">
<path d="M21.5 43C33.3741 43 43 33.3741 43 21.5C43 9.62588 33.3741 0 21.5 0C9.62588 0 0 9.62588 0 21.5C0 33.3741 9.62588 43 21.5 43Z" fill="#AD5191"/>
</g>
</svg>
