<svg width="57" height="57" viewBox="0 0 57 57" fill="none" xmlns="http://www.w3.org/2000/svg">
<path d="M9.94141 41.4011C10.3407 41.4011 18.8427 46.4013 22.0175 46.1209C25.1922 45.8404 46.3618 42.3497 46.3618 41.4284C46.3618 40.507 12.9664 39.7273 12.0638 40.2402C11.1612 40.7532 9.94141 41.4011 9.94141 41.4011Z" fill="#DFE4EF"/>
<path d="M30.9277 19.6067C28.5982 18.5881 23.9168 18.1422 18.2894 21.1426C10.1247 25.4957 21.172 30.9341 29.2171 26.9566C33.8426 24.6697 34.0789 20.9847 30.9277 19.6067Z" fill="#DFE4EF"/>
<path d="M42.3645 24.0646C44.4478 26.7096 38.8755 27.3195 36.7871 24.8522C35.5865 23.4337 35.9319 21.7702 37.0845 21.4276C37.9366 21.1743 40.9286 22.2415 42.3645 24.0646Z" fill="#DFE4EF"/>
<path d="M37.8213 44.6263C46.8272 43.1076 49.1696 41.6144 47.7611 43.1284C43.89 47.2892 37.5277 44.6758 37.8213 44.6263Z" fill="#DFE4EF"/>
<path d="M9.24841 43.1729C11.903 44.0182 20.4038 46.0644 20.1872 47.073C19.9706 48.0817 15.6926 46.1989 13.4723 46.2661C11.2521 46.3334 7.13646 42.5005 9.24841 43.1729Z" fill="#DFE4EF"/>
<path d="M36.3577 44.9872C37.1441 45.1499 38.3855 45.4053 38.3657 45.8481C38.3458 46.2909 32.4707 48.0939 30.9069 47.5392C29.3432 46.9844 27.4891 46.071 28.9634 45.8481C30.4378 45.6252 36.2236 44.9594 36.3577 44.9872Z" fill="#DFE4EF"/>
<g opacity="0.2">
<path d="M45.4221 32.1631H11.5782C9.80912 32.1631 8.375 33.5972 8.375 35.3663C8.375 37.1353 9.80912 38.5695 11.5782 38.5695H45.4221C47.1911 38.5695 48.6253 37.1353 48.6253 35.3663C48.6253 33.5972 47.1911 32.1631 45.4221 32.1631Z" fill="#DFE4EF"/>
</g>
<g opacity="0.5">
<path d="M11.7044 32.8574H16.8901V37.8748H11.7044C10.3184 37.8748 9.19434 36.7522 9.19434 35.3661C9.19434 33.98 10.3184 32.8574 11.7044 32.8574Z" fill="#B9C1E1"/>
<path d="M23.33 32.8574H17.3906V37.8748H23.33V32.8574Z" fill="#B9C1E1"/>
<path d="M29.7705 32.8574H23.8311V37.8748H29.7705V32.8574Z" fill="#B9C1E1"/>
</g>
<path d="M35.9659 34.5583L35.9569 35.3657C35.9569 35.4908 35.9605 35.6093 35.9678 35.7211C36.0407 35.726 36.1069 35.7283 36.1664 35.7283L36.5492 35.7211C36.6087 35.7211 36.6384 35.7381 36.6384 35.7721C36.6384 35.8122 36.5109 35.8323 36.2557 35.8323C36.1937 35.8323 36.1142 35.8292 36.0169 35.8231C35.9198 35.817 35.8608 35.8073 35.8402 35.794C35.8341 35.6653 35.8311 35.455 35.8311 35.1633L35.8402 34.5217C35.8717 34.4976 35.8972 34.4854 35.9167 34.4854C35.9496 34.4854 35.9659 34.5097 35.9659 34.5583Z" fill="#929ED3"/>
<path d="M37.9173 34.8876C37.9556 34.966 37.9747 35.0574 37.9747 35.162C37.9747 35.2664 37.9534 35.3642 37.9109 35.4553C37.8684 35.5465 37.8131 35.6187 37.7451 35.6723C37.6053 35.7816 37.4507 35.8362 37.2811 35.8362C37.1116 35.8362 36.9668 35.7813 36.8464 35.6713C36.7262 35.5613 36.666 35.4109 36.666 35.2203C36.666 35.1108 36.684 35.0125 36.7198 34.9249C36.7557 34.8375 36.8039 34.7669 36.8648 34.7135C36.9911 34.6017 37.1405 34.5459 37.3131 34.5459C37.4832 34.5459 37.6339 34.5962 37.765 34.6971C37.8283 34.7457 37.8791 34.8092 37.9173 34.8876ZM36.7864 35.2239C36.7864 35.3806 36.8311 35.5058 36.9203 35.5993C37.0096 35.6929 37.1284 35.7396 37.2767 35.7396C37.4479 35.7396 37.5856 35.6872 37.6894 35.582C37.7933 35.477 37.8453 35.3438 37.8453 35.1828C37.8453 35.0219 37.7931 34.8933 37.6885 34.7974C37.5841 34.7015 37.4571 34.6533 37.3076 34.6533C37.1581 34.6533 37.0339 34.7022 36.9349 34.8C36.8358 34.898 36.7864 35.0392 36.7864 35.2239Z" fill="#929ED3"/>
<path d="M39.2664 35.7899C39.2469 35.8166 39.219 35.83 39.1826 35.83C39.1728 35.83 39.163 35.8288 39.1533 35.8264C39.1266 35.7657 39.1069 35.6796 39.0941 35.5685C39.0813 35.4573 39.072 35.3841 39.0659 35.3489C38.9335 35.344 38.801 35.3416 38.6685 35.3416C38.5361 35.3416 38.4177 35.347 38.3131 35.3579C38.3022 35.4077 38.2904 35.4822 38.2777 35.5812C38.2649 35.6802 38.2555 35.7468 38.2494 35.7808C38.2056 35.816 38.1661 35.8209 38.1309 35.7954C38.1346 35.7662 38.14 35.7201 38.1473 35.6568C38.1546 35.5937 38.161 35.5399 38.1665 35.4955C38.1719 35.4512 38.1801 35.395 38.1911 35.327C38.2019 35.259 38.2126 35.2003 38.2229 35.1511C38.2333 35.1019 38.2475 35.0466 38.2657 34.9852C38.284 34.9238 38.3028 34.8712 38.3223 34.8275C38.3417 34.7838 38.3657 34.7394 38.3943 34.6945C38.4228 34.6495 38.4534 34.6131 38.4863 34.5852C38.5616 34.5231 38.6437 34.4922 38.7323 34.4922C38.821 34.4922 38.8948 34.5262 38.9538 34.5942C39.0128 34.6622 39.0574 34.7517 39.0877 34.8622C39.1181 34.9727 39.1424 35.0839 39.1606 35.1957C39.1788 35.3075 39.1965 35.4217 39.2135 35.5383C39.2305 35.655 39.2482 35.7389 39.2664 35.7899ZM38.9283 34.7784C38.9046 34.7189 38.8745 34.6724 38.8381 34.6389C38.8016 34.6056 38.7566 34.5888 38.7032 34.5888C38.6497 34.5888 38.5981 34.615 38.5483 34.6672C38.4985 34.7194 38.459 34.7846 38.4298 34.8623C38.3776 35.0068 38.3448 35.1405 38.3313 35.2632C38.4529 35.2498 38.575 35.2432 38.6978 35.2432C38.8204 35.2432 38.9389 35.2468 39.0532 35.2541C39.0483 35.2359 39.0392 35.1927 39.0258 35.1247C39.0124 35.0567 38.9987 34.9969 38.9847 34.9452C38.9708 34.8935 38.9519 34.8379 38.9283 34.7784Z" fill="#929ED3"/>
<path d="M39.8077 35.8107L39.6564 35.8162C39.5714 35.8162 39.5161 35.8046 39.4906 35.7816C39.4748 35.7695 39.4668 35.7524 39.4668 35.7306C39.4668 35.5932 39.4717 35.4132 39.4814 35.1901C39.4911 34.9672 39.496 34.7937 39.496 34.6699C39.496 34.62 39.5421 34.5799 39.6345 34.5495C39.7268 34.5192 39.8259 34.5039 39.9317 34.5039C40.1297 34.5039 40.294 34.5598 40.4246 34.6716C40.5552 34.7834 40.6206 34.9287 40.6206 35.1072C40.6206 35.1971 40.605 35.2803 40.5741 35.3568C40.5431 35.4335 40.5015 35.4994 40.4493 35.5547C40.3969 35.61 40.3362 35.657 40.267 35.6959C40.1284 35.7725 39.9754 35.8107 39.8077 35.8107ZM40.4911 35.151C40.4911 34.9942 40.438 34.8628 40.3317 34.7564C40.2253 34.6501 40.0878 34.5969 39.9188 34.5969C39.8361 34.5969 39.7378 34.6243 39.6235 34.6789C39.6235 34.7774 39.6186 34.9247 39.6089 35.1209C39.5992 35.3171 39.5944 35.4527 39.5944 35.5273C39.5944 35.6021 39.595 35.6553 39.5962 35.6868C39.6642 35.7002 39.7371 35.7068 39.815 35.7068C40.0118 35.7068 40.1737 35.6589 40.3006 35.5629C40.4276 35.4669 40.4911 35.3296 40.4911 35.151Z" fill="#929ED3"/>
<path d="M41.0032 34.5162C40.9911 35.0655 40.9843 35.4945 40.9831 35.803C40.9649 35.8225 40.9488 35.8322 40.9349 35.8322C40.9208 35.8322 40.909 35.8291 40.8993 35.8231C40.8714 35.8048 40.8574 35.7708 40.8574 35.721C40.8598 35.1366 40.8641 34.7946 40.8702 34.6949C40.8762 34.5953 40.8853 34.5375 40.8974 34.5217C40.9096 34.506 40.9241 34.498 40.9412 34.498C40.9583 34.4981 40.9788 34.5042 41.0032 34.5162Z" fill="#929ED3"/>
<path d="M42.2816 35.6572L42.298 34.5272C42.3174 34.5077 42.3382 34.498 42.3599 34.498C42.3819 34.498 42.3989 34.5016 42.411 34.5089C42.4195 34.6706 42.4237 34.8036 42.4237 34.9082L42.4093 35.752C42.4093 35.7763 42.4093 35.7994 42.4093 35.8213C42.3679 35.848 42.3339 35.8613 42.3071 35.8613L42.2853 35.8577C42.2731 35.8516 42.2637 35.8471 42.257 35.844C42.2504 35.841 42.2416 35.8325 42.2306 35.8185C42.2197 35.8046 42.2124 35.7946 42.2087 35.7885C42.205 35.7824 42.1969 35.7691 42.1841 35.7484C42.1713 35.7277 42.1625 35.7135 42.1577 35.7056C42.1528 35.6976 42.1186 35.6424 42.0547 35.5397C41.9909 35.437 41.9505 35.3729 41.9335 35.3474C41.9165 35.3219 41.8803 35.2679 41.8251 35.1852C41.7698 35.1026 41.7264 35.0412 41.6948 35.0011C41.6012 34.882 41.5148 34.7861 41.4359 34.7132C41.4421 34.8723 41.4451 35.0424 41.4451 35.2235C41.4451 35.4046 41.4414 35.5977 41.4341 35.803C41.4196 35.8249 41.3788 35.8358 41.312 35.8358C41.312 35.1494 41.3096 34.7266 41.3047 34.5673C41.3278 34.5455 41.3503 34.5344 41.3722 34.5344C41.3941 34.5344 41.4152 34.5406 41.4359 34.5528C41.4676 34.5722 41.5028 34.6013 41.5417 34.6402C41.6705 34.7691 41.7923 34.9155 41.9071 35.0795C42.0219 35.2435 42.1467 35.4362 42.2816 35.6572Z" fill="#929ED3"/>
<path d="M43.3383 35.2435C43.2703 35.2435 43.2363 35.232 43.2363 35.2089C43.2363 35.1822 43.2782 35.1612 43.362 35.146C43.4458 35.1309 43.5308 35.1231 43.6172 35.1231C43.7035 35.1231 43.766 35.1257 43.8049 35.1305C43.8439 35.1354 43.869 35.142 43.8805 35.1505C43.8921 35.159 43.8979 35.1712 43.8979 35.187C43.8979 35.4057 43.8456 35.5668 43.7412 35.67C43.6366 35.7732 43.4862 35.8249 43.29 35.8249C43.0937 35.8249 42.9402 35.7769 42.829 35.6809C42.7178 35.585 42.6621 35.4525 42.6621 35.2837C42.6621 35.0503 42.732 34.861 42.8718 34.7158C43.0115 34.5707 43.1853 34.498 43.3931 34.498C43.4841 34.498 43.5704 34.5169 43.6519 34.5545C43.7332 34.5923 43.783 34.6409 43.8012 34.7004C43.7842 34.715 43.7679 34.7222 43.7521 34.7222C43.7363 34.7222 43.7171 34.7186 43.6947 34.7112C43.6722 34.704 43.6494 34.69 43.6264 34.6694C43.6033 34.6487 43.5681 34.6277 43.5206 34.6064C43.4732 34.5852 43.4234 34.5745 43.3712 34.5745C43.2096 34.5745 43.0696 34.6435 42.9511 34.7814C42.8326 34.9193 42.7733 35.0819 42.7733 35.269C42.7733 35.4173 42.8278 35.5333 42.9365 35.6171C43.0451 35.7009 43.1726 35.7429 43.3183 35.7429C43.4848 35.7429 43.6026 35.6912 43.6719 35.588C43.7375 35.4932 43.7703 35.3722 43.7703 35.2253C43.7606 35.2168 43.7478 35.2125 43.732 35.2125C43.7162 35.2125 43.6975 35.2131 43.6756 35.2143C43.6196 35.2168 43.5553 35.2222 43.4824 35.2307C43.4094 35.2393 43.3615 35.2435 43.3383 35.2435Z" fill="#929ED3"/>
<path d="M44.5751 35.8542C44.5527 35.8542 44.5286 35.8459 44.5031 35.8294C44.4776 35.8131 44.4648 35.7933 44.4648 35.7703C44.4648 35.7472 44.4781 35.725 44.505 35.7038C44.5317 35.6825 44.559 35.6719 44.5869 35.6719C44.6148 35.6719 44.6386 35.6797 44.658 35.6955C44.6774 35.7113 44.6872 35.7311 44.6872 35.7548C44.6872 35.7784 44.6741 35.8009 44.648 35.8221C44.6219 35.8434 44.5976 35.8542 44.5751 35.8542Z" fill="#929ED3"/>
<path d="M44.9872 35.8542C44.9648 35.8542 44.9407 35.8459 44.9152 35.8294C44.8897 35.8131 44.877 35.7933 44.877 35.7703C44.877 35.7472 44.8902 35.725 44.917 35.7038C44.9438 35.6825 44.9711 35.6719 44.999 35.6719C45.027 35.6719 45.0507 35.6797 45.0701 35.6955C45.0895 35.7113 45.0993 35.7311 45.0993 35.7548C45.0993 35.7784 45.0862 35.8009 45.0602 35.8221C45.034 35.8434 45.0097 35.8542 44.9872 35.8542Z" fill="#929ED3"/>
<path d="M45.3984 35.8542C45.3759 35.8542 45.3519 35.8459 45.3264 35.8294C45.3009 35.8131 45.2881 35.7933 45.2881 35.7703C45.2881 35.7472 45.3014 35.725 45.3282 35.7038C45.3549 35.6825 45.3823 35.6719 45.4102 35.6719C45.4381 35.6719 45.4619 35.6797 45.4813 35.6955C45.5007 35.7113 45.5105 35.7311 45.5105 35.7548C45.5105 35.7784 45.4974 35.8009 45.4713 35.8221C45.4452 35.8434 45.4209 35.8542 45.3984 35.8542Z" fill="#929ED3"/>
<path d="M45.8105 35.8542C45.788 35.8542 45.764 35.8459 45.7385 35.8294C45.713 35.8131 45.7002 35.7933 45.7002 35.7703C45.7002 35.7472 45.7135 35.725 45.7403 35.7038C45.767 35.6825 45.7944 35.6719 45.8223 35.6719C45.8502 35.6719 45.874 35.6797 45.8934 35.6955C45.9128 35.7113 45.9226 35.7311 45.9226 35.7548C45.9226 35.7784 45.9095 35.8009 45.8834 35.8221C45.8573 35.8434 45.8329 35.8542 45.8105 35.8542Z" fill="#929ED3"/>
<path d="M45.422 38.8498H11.5782C9.65732 38.8498 8.09473 37.287 8.09473 35.3663C8.09473 33.4455 9.65734 31.8828 11.5782 31.8828H45.422C47.3429 31.8828 48.9056 33.4455 48.9056 35.3663C48.9056 37.287 47.3429 38.8498 45.422 38.8498ZM11.5782 32.4433C9.96645 32.4433 8.65526 33.7545 8.65526 35.3663C8.65526 36.9779 9.96645 38.2892 11.5782 38.2892H45.422C47.0338 38.2892 48.345 36.9779 48.345 35.3663C48.345 33.7545 47.0338 32.4433 45.422 32.4433H11.5782Z" fill="#929ED3"/>
<path d="M27.9471 19.7227L30.4111 21.1416C30.4111 21.1416 30.5973 22.8071 30.358 23.1108C29.9772 23.5941 27.4834 22.2154 27.4834 22.2154L27.9471 19.7227Z" fill="#FAB19E"/>
<path d="M28.9486 20.3002C28.9441 20.9096 28.8845 22.1218 28.5268 22.7357C27.9594 22.4773 27.4824 22.2146 27.4824 22.2146L27.9461 19.7217L28.9486 20.3002Z" fill="#EBA090"/>
<path d="M19.3209 31.0871L20.2318 31.7815C20.2318 31.7815 20.1354 31.9565 20.0656 31.9441C19.9958 31.9317 19.5584 31.7929 19.5584 31.7929C19.5584 31.7929 19.1896 31.8566 19.0643 31.3603C18.939 30.864 19.3209 31.0871 19.3209 31.0871Z" fill="#EBA090"/>
<path d="M25.7409 18.2114C25.7409 18.2114 28.3513 19.782 28.9469 19.9295C29.1548 19.9811 27.7878 22.3516 27.6488 22.4271C27.5099 22.5025 26.4533 21.785 26.0628 21.5045C25.6724 21.224 25.4182 20.2463 25.3558 19.9995C25.3118 19.8255 24.925 18.5001 25.091 18.1647C25.3686 18.1171 25.5935 18.1399 25.7409 18.2114Z" fill="url(#paint0_linear_4248_25572)"/>
<path d="M27.6488 22.4274C27.5094 22.5028 26.4529 21.7858 26.0626 21.5054C25.745 21.2772 25.5187 20.5905 25.4092 20.2072C26.016 20.6331 26.9662 21.2582 27.5738 21.4577C28.2491 21.6783 28.6322 20.5343 28.7934 19.8789C28.8542 19.9025 28.905 19.919 28.9462 19.9298C29.1546 19.9817 27.7868 22.3523 27.6488 22.4274Z" fill="#C9A923"/>
<path d="M20.5854 27.9139C20.5854 27.9139 19.6243 30.9994 20.0345 31.5432C20.4447 32.0871 21.4707 31.9703 21.4707 31.9703L28.5261 31.8831C28.5261 31.8831 29.5219 30.5993 29.2061 29.7037C28.8904 28.8082 27.2675 26.4814 27.2675 26.4814L20.5854 27.9139Z" fill="#313055"/>
<path d="M33.1113 38.6004C33.1564 38.697 33.7415 40.2142 33.9359 40.6217C34.1824 40.742 35.0644 40.2858 35.0519 40.0367C35.0394 39.7876 34.4975 38.001 34.4975 38.001L33.1113 38.6004Z" fill="#FAB19E"/>
<path d="M34.243 42.051C34.4001 42.0695 37.3527 41.0887 37.6451 40.998C37.9374 40.9073 37.4991 39.8903 36.5894 40.1489L35.2552 39.619C35.1425 39.4223 35.3836 39.1731 35.2968 39.096C35.1404 38.9584 34.6937 39.0747 34.47 39.3518C34.3662 39.4809 34.3122 39.6354 34.3519 39.8248C34.0657 39.9203 33.537 40.1043 33.5677 40.2694C33.6101 40.4977 34.0851 42.0326 34.243 42.051Z" fill="#FFD600"/>
<path d="M37.645 40.9981C37.3518 41.0883 34.3999 42.069 34.2429 42.0516C34.1701 42.0418 34.0275 41.7081 33.8926 41.3279C34.3914 41.359 35.3391 41.3647 36.006 41.0448C36.006 41.0448 36.8114 40.3806 37.4974 40.3633C37.7448 40.6088 37.8085 40.9468 37.645 40.9981Z" fill="#C9A923"/>
<path d="M35.8549 40.8959C35.8464 40.7861 36.1479 40.2035 36.6331 40.1433C36.6331 40.1433 36.3333 39.9043 35.969 40.2856C35.7001 40.567 35.8549 40.8959 35.8549 40.8959Z" fill="#28264A"/>
<path d="M35.2905 40.3833C35.3964 40.2713 36.0304 40.03 35.8596 39.9873C35.6889 39.9445 35.2383 40.1965 35.2373 40.3205C35.2363 40.4445 35.2905 40.3833 35.2905 40.3833Z" fill="#28264A"/>
<path d="M35.022 40.2251C35.1278 40.113 35.7618 39.8718 35.5911 39.829C35.4204 39.7863 34.9697 40.0382 34.9688 40.1623C34.9678 40.2863 35.022 40.2251 35.022 40.2251Z" fill="#28264A"/>
<path d="M34.7534 40.0669C34.8594 39.9548 35.4932 39.7136 35.3226 39.6708C35.1519 39.6281 34.7012 39.88 34.7002 40.0041C34.6993 40.1281 34.7534 40.0669 34.7534 40.0669Z" fill="#28264A"/>
<path d="M34.082 41.8081C34.0814 41.8058 35.4119 41.4627 36.1439 41.2318C36.2256 41.2059 36.2269 40.9755 36.9576 40.738C37.4611 40.5662 37.683 40.6739 37.7064 40.6862C37.7501 40.7092 37.9121 41.0056 37.7762 41.0754C37.6404 41.1453 34.3494 42.198 34.2762 42.1588C34.1313 42.0813 34.082 41.8081 34.082 41.8081Z" fill="#28264A"/>
<path d="M26.2448 28.4433C26.2448 28.4433 31.5965 27.0627 32.7461 27.7282C33.8956 28.3936 34.9389 38.8768 34.9389 38.8768L33.3057 39.573L30.1584 31.9438L27.4052 31.8023C27.4052 31.8023 23.7607 30.0331 26.2448 28.4433Z" fill="#3A3A60"/>
<path d="M33.5607 39.4638L33.3045 39.5742L30.1581 31.9432L27.4046 31.8019C27.4046 31.8019 22.4818 30.2651 26.1334 27.6486C26.1334 27.6486 29.0805 27.7126 31.0656 27.5713C30.359 27.8914 29.648 28.3728 29.7518 28.9646C29.9505 30.0819 30.2398 31.0711 30.4804 31.0247C30.7211 30.9783 31.7147 30.1083 31.7147 30.3556C31.7147 30.6052 30.5467 31.1108 30.9441 31.4906C31.3416 31.8704 31.8627 31.5988 31.664 31.8969C31.4829 32.1706 32.3904 38.2604 33.5607 39.4638Z" fill="#313055"/>
<path d="M22.4227 18.5973C21.7138 20.9739 20.1143 26.766 19.9121 28.9747C21.3624 30.3459 23.8268 29.4374 25.2714 29.0266C26.716 28.6158 26.9584 28.7349 28.4015 27.3246C26.407 25.7028 26.0799 21.159 25.9495 20.5296C25.8191 19.9002 25.5038 18.1006 25.0546 18.1596C24.6055 18.2185 22.665 18.3822 22.4227 18.5973Z" fill="url(#paint1_linear_4248_25572)"/>
<path d="M22.7725 29.0184C22.9911 28.5392 23.7087 27.9453 23.2715 28.1594C22.8365 28.3714 21.7259 28.5304 22.0726 28.3626C22.4192 28.1948 23.8191 27.5743 23.2097 27.6207C22.5981 27.667 22.1256 27.8039 22.2337 27.4308C22.2912 27.2365 22.3022 26.8633 22.3773 26.605C22.3662 26.4062 21.7259 22.3633 21.8231 22.2154L21.6884 21.8886C21.6331 21.8422 21.5801 21.7981 21.5294 21.7539C20.8228 24.3594 20.05 27.4838 19.9131 28.9742C21.3638 30.3454 23.8279 29.4379 25.272 29.0272C26.7161 28.6165 26.9584 28.7352 28.4024 27.3265C26.8603 28.5398 22.5495 29.4975 22.7725 29.0184Z" fill="#C9A923"/>
<path d="M21.9614 22.4473C21.9614 22.4473 20.9192 29.4758 21.1349 29.5044C21.3506 29.533 22.0817 23.2047 21.9614 22.4473Z" fill="#E06020"/>
<path d="M25.6592 19.8115C25.6562 19.8096 26.3192 23.005 26.5166 23.1087C26.7141 23.2122 25.9132 19.9783 25.6592 19.8115Z" fill="#E06020"/>
<path d="M22.5576 10.5117C22.4622 11.9438 22.4829 13.9985 22.3486 15.8847C22.3486 15.8847 24.1173 15.5685 25.9402 14.622C25.9402 14.622 23.4736 11.5933 22.5576 10.5117Z" fill="#3C5FAD"/>
<path d="M23.1223 11.1861C23.0879 11.2559 23.0262 11.3268 22.9105 11.3682C22.7538 11.426 22.6102 11.3863 22.5146 11.3426C22.526 11.0476 22.539 10.7684 22.5571 10.5117C22.7056 10.686 22.9007 10.9204 23.1223 11.1861Z" fill="#2F5798"/>
<path d="M22.5735 10.9894C22.5735 10.9894 22.7083 11.1016 22.8037 11.0233C22.8992 10.945 22.8292 10.7889 22.8292 10.7889C22.8292 10.7889 22.9882 10.7692 23.0111 10.6117C23.0341 10.4542 22.8244 10.4725 22.8244 10.4725C22.8244 10.4725 22.8602 10.3482 22.7799 10.3144C22.6996 10.2807 22.6167 10.3643 22.5834 10.4163C22.5834 10.4163 22.4432 10.3464 22.3732 10.411C22.3033 10.4757 22.3012 10.6165 22.3563 10.6828C22.3563 10.6828 22.2034 10.8747 22.3312 10.9883C22.459 11.1019 22.5735 10.9894 22.5735 10.9894Z" fill="#224E82"/>
<path d="M22.4245 10.8754C22.4245 10.8754 22.5109 10.9948 22.604 10.9499C22.6973 10.905 22.6723 10.7627 22.6723 10.7627C22.6723 10.7627 22.805 10.7789 22.8555 10.6542C22.9061 10.5297 22.7326 10.5022 22.7326 10.5022C22.7326 10.5022 22.7868 10.4075 22.7286 10.3635C22.6704 10.3196 22.5864 10.3714 22.5487 10.4072C22.5487 10.4072 22.4494 10.3214 22.3796 10.3603C22.3098 10.3992 22.2795 10.5143 22.3107 10.5798C22.3107 10.5798 22.1479 10.7061 22.2284 10.8253C22.3088 10.9445 22.4245 10.8754 22.4245 10.8754Z" fill="#3C5FAD"/>
<path d="M23.4449 11.5762C23.4318 11.5945 23.4142 11.6083 23.3924 11.6191C23.317 11.6566 23.2257 11.6245 23.1882 11.5491C23.1525 11.4746 23.181 11.3861 23.2546 11.3477C23.3172 11.4216 23.3808 11.4983 23.4449 11.5762Z" fill="#929ED3"/>
<path opacity="0.5" d="M23.0809 12.0857C23.0098 11.94 22.834 11.8796 22.6883 11.9508C22.5426 12.0219 22.4821 12.1977 22.5533 12.3434C22.6244 12.4891 22.8002 12.5496 22.946 12.4784C23.0916 12.4073 23.1521 12.2315 23.0809 12.0857Z" fill="#929ED3"/>
<path opacity="0.5" d="M23.1045 12.8564C23.0285 12.8935 22.997 12.9851 23.0341 13.0611C23.0712 13.1371 23.1629 13.1686 23.2389 13.1315C23.3148 13.0944 23.3464 13.0027 23.3092 12.9268C23.2721 12.8508 23.1805 12.8193 23.1045 12.8564Z" fill="#929ED3"/>
<path opacity="0.25" d="M22.6128 13.7132C22.5606 13.7439 22.503 13.7555 22.4473 13.7513C22.4537 13.5548 22.4588 13.3587 22.4641 13.1671C22.5672 13.1648 22.6669 13.2164 22.7224 13.3125C22.8013 13.453 22.7528 13.633 22.6128 13.7132Z" fill="#929ED3"/>
<path d="M23.0273 14.0898C22.9514 14.1269 22.9199 14.2185 22.957 14.2945C22.9941 14.3705 23.0857 14.402 23.1617 14.3649C23.2377 14.3278 23.2692 14.2361 23.2321 14.1602C23.195 14.0842 23.1033 14.0527 23.0273 14.0898Z" fill="#929ED3"/>
<path opacity="0.5" d="M22.6142 15.1838C22.5423 15.2185 22.4626 15.223 22.3916 15.1972C22.4014 15.0099 22.4094 14.8219 22.4178 14.6351C22.5481 14.6036 22.6876 14.6651 22.7491 14.7907C22.8196 14.9371 22.7588 15.1124 22.6142 15.1838Z" fill="#929ED3"/>
<path opacity="0.25" d="M24.381 12.7148C24.3696 12.7249 24.3572 12.7323 24.343 12.7389C24.2657 12.7711 24.1751 12.7327 24.1443 12.6549C24.1182 12.5905 24.1382 12.52 24.1884 12.4795C24.2529 12.5588 24.317 12.6368 24.381 12.7148Z" fill="#929ED3"/>
<path d="M24.1991 13.0672C24.1279 12.9215 23.9521 12.861 23.8064 12.9322C23.6607 13.0034 23.6003 13.1791 23.6715 13.3249C23.7426 13.4706 23.9184 13.531 24.0641 13.4599C24.2098 13.3887 24.2702 13.2129 24.1991 13.0672Z" fill="#929ED3"/>
<path opacity="0.5" d="M24.165 13.8203C24.0891 13.8574 24.0576 13.949 24.0947 14.025C24.1318 14.101 24.2234 14.1325 24.2994 14.0954C24.3754 14.0583 24.4069 13.9666 24.3698 13.8906C24.3327 13.8147 24.241 13.7831 24.165 13.8203Z" fill="#929ED3"/>
<path opacity="0.25" d="M24.2264 14.6238C24.1553 14.4781 23.9795 14.4177 23.8337 14.4888C23.6881 14.56 23.6276 14.7358 23.6988 14.8815C23.7699 15.0272 23.9457 15.0876 24.0915 15.0165C24.2371 14.9453 24.2976 14.7695 24.2264 14.6238Z" fill="#929ED3"/>
<path d="M25.3868 13.9428L25.3872 13.9441C25.3928 14.0566 25.3311 14.166 25.2237 14.2195C25.0791 14.2908 24.9024 14.2306 24.832 14.0841C24.7601 13.9381 24.8209 13.7628 24.9669 13.691C25.0312 13.6604 25.1002 13.6553 25.1641 13.6701L25.1646 13.6714C25.2425 13.767 25.3176 13.8591 25.3868 13.9428Z" fill="#929ED3"/>
<path d="M25.9395 14.6223C24.1166 15.5688 22.3486 15.8864 22.3486 15.8864C22.3562 15.7576 22.3666 15.6301 22.3735 15.4993C22.7526 15.2539 23.3147 14.985 23.9624 14.7532C24.6246 14.5163 25.2408 14.3658 25.693 14.3184C25.8473 14.5082 25.9395 14.6223 25.9395 14.6223Z" fill="#224E82"/>
<path d="M25.9397 14.6225C25.99 14.7966 25.2359 15.2205 24.2559 15.5712C23.276 15.9219 22.4241 16.0727 22.3525 15.9063C22.28 15.7378 23.0324 15.3092 24.0339 14.9508C25.0354 14.5924 25.8889 14.4463 25.9397 14.6225Z" fill="#3A3A60"/>
<path d="M25.7221 15.3482C25.6469 15.4797 25.4661 15.5321 25.4066 15.6734C25.3605 15.7821 25.4039 15.9055 25.4118 16.0221C25.4224 16.1953 25.354 16.3705 25.2305 16.4912L25.2657 16.4431C25.0527 16.6691 24.7895 16.846 24.4977 16.9562C24.3538 17.011 24.2011 17.0489 24.0468 17.0362C23.8264 17.0175 23.629 16.8977 23.4143 16.8497C23.2503 16.8141 23.0562 16.8075 22.9544 16.675C22.8223 16.5044 22.934 16.2412 22.8295 16.0521C22.7561 15.9192 22.5594 15.8704 22.4953 15.732C22.4705 15.6769 25.1219 14.3823 25.5503 14.6575C25.6305 14.7089 25.585 14.9223 25.6559 14.9865C25.7533 15.0771 25.7878 15.2343 25.7221 15.3482Z" fill="#28264A"/>
<path d="M22.9989 18.37L23.1645 16.2236L24.2751 17.1025L24.3317 18.0687C24.5245 18.0746 24.5822 18.6403 23.9588 18.788C23.0639 18.9999 22.9119 18.3959 22.9989 18.37Z" fill="#FAB19E"/>
<path d="M24.3249 17.9668L24.6279 18.2066C24.6279 18.2066 24.6787 18.8706 23.9986 19.0476C23.3184 19.2246 22.8721 18.4484 22.8721 18.4484L23.0123 18.1905C23.0123 18.1905 23.255 18.6784 23.8629 18.5345C24.3556 18.4178 24.3249 17.9668 24.3249 17.9668Z" fill="#E06020"/>
<path d="M24.3315 18.0786L24.2742 17.103L23.6772 16.6309L23.3066 16.8677C23.3066 16.8677 23.3909 18.0125 24.3315 18.0786Z" fill="#EBA090"/>
<path d="M22.7875 16.3873C22.8546 16.5982 23.0598 16.4488 23.0598 16.4488C23.0598 16.4488 23.0599 16.7397 23.0986 16.8015C23.2758 17.0847 23.7995 17.8485 24.7533 17.7003C25.9155 17.5195 25.5666 15.0695 25.5666 15.0695C25.5662 15.0614 24.7737 15.3725 24.268 15.1449C23.8657 14.9633 23.7555 15.9052 23.3283 15.4497C23.3283 15.4497 23.4019 15.8082 23.1979 15.8813C23.1417 15.9014 23.0245 15.7175 23.0245 15.7175C23.0153 15.6983 22.9146 15.4974 22.6801 15.6521C22.4344 15.8156 22.7195 16.1756 22.7875 16.3873Z" fill="#FAB19E"/>
<path d="M22.9227 15.8613C22.9227 15.8613 22.9772 15.9977 22.9589 16.0623L22.8174 16.0265L22.9527 16.1253L22.9323 16.2889C22.9323 16.2889 23.1612 16.0504 22.9227 15.8613Z" fill="#28264A"/>
<path d="M23.6518 16.4976C23.6442 16.5804 23.7395 16.6568 23.8647 16.6683C23.9899 16.6798 24.0975 16.6221 24.1051 16.5393C24.1127 16.4566 24.0174 16.3802 23.8922 16.3686C23.767 16.3571 23.6594 16.4149 23.6518 16.4976Z" fill="#EBA090"/>
<path d="M25.0522 16.4C25.0445 16.4827 25.1399 16.5591 25.2651 16.5706C25.3902 16.5821 25.4979 16.5244 25.5055 16.4416C25.5131 16.3589 25.4178 16.2825 25.2926 16.271C25.1674 16.2595 25.0598 16.3172 25.0522 16.4Z" fill="#EBA090"/>
<path d="M25.0614 15.9143C25.0695 16.0219 25.1358 16.1046 25.2094 16.099C25.2831 16.0935 25.3362 16.0018 25.3281 15.8941C25.32 15.7865 25.2536 15.7037 25.18 15.7092C25.1063 15.7149 25.0532 15.8066 25.0614 15.9143Z" fill="#28264A"/>
<path d="M23.8612 16.005C23.8693 16.1127 23.9356 16.1954 24.0092 16.1899C24.0829 16.1843 24.136 16.0925 24.1279 15.9849C24.1198 15.8773 24.0535 15.7945 23.9798 15.8001C23.9062 15.8056 23.853 15.8974 23.8612 16.005Z" fill="#28264A"/>
<path d="M24.5983 16.383C24.6102 16.3679 24.632 16.3653 24.6469 16.3772C24.6864 16.4083 24.7387 16.4009 24.7728 16.3908C24.644 16.1937 24.6746 15.9011 24.6939 15.9023C24.713 15.9035 24.7127 16.201 24.8511 16.3819C24.8558 16.3881 24.8575 16.3953 24.8576 16.4025C24.86 16.4168 24.8536 16.4315 24.8401 16.4387C24.8368 16.4404 24.789 16.4652 24.73 16.4686C24.6897 16.4709 24.6442 16.4633 24.604 16.4316C24.589 16.4198 24.5864 16.3979 24.5983 16.383Z" fill="#28264A"/>
<path d="M25.4041 15.4477C25.4059 15.4908 25.2155 15.4802 25.1073 15.4847C24.9991 15.4891 24.8758 15.579 24.874 15.5358C24.8723 15.4927 25.0088 15.3582 25.117 15.3538C25.2252 15.3493 25.4023 15.4045 25.4041 15.4477Z" fill="#28264A"/>
<path d="M24.2821 15.5951C24.2838 15.6383 24.0934 15.6277 23.9853 15.6322C23.8771 15.6367 23.7537 15.7265 23.752 15.6833C23.7502 15.6402 23.8867 15.5057 23.9949 15.5012C24.1031 15.4968 24.2803 15.552 24.2821 15.5951Z" fill="#28264A"/>
<path d="M25.1182 16.9618C25.1378 16.9809 24.9936 17.1507 24.7984 17.1562C24.485 17.165 24.2887 16.8308 24.3091 16.8124C24.3294 16.7942 24.5535 17.0613 24.8002 17.0573C24.9529 17.0548 25.1111 16.9551 25.1182 16.9618Z" fill="#28264A"/>
<path d="M18.7539 22.5621C18.7539 22.5621 18.8982 23.1015 20.0187 23.519C21.1391 23.9365 21.4738 23.709 21.4738 23.709C21.4738 23.709 21.5797 23.1129 20.6581 22.5466C19.7366 21.9802 18.7539 22.5621 18.7539 22.5621Z" fill="#28264A"/>
<path d="M21.6558 22.8972L19.4192 21.9248C19.4192 21.9248 18.3687 23.5319 18.4156 24.0638C18.4424 24.3675 19.119 24.6721 19.3069 24.7592C19.4947 24.8463 19.9438 24.9217 19.9438 24.9217L21.6558 22.8972Z" fill="#FAB19E"/>
<path d="M21.655 22.8973L20.8623 23.8357C20.498 23.2661 19.4691 22.9238 18.9082 22.7759C19.1621 22.3166 19.4183 21.9258 19.4183 21.9258L21.655 22.8973Z" fill="#EBA090"/>
<path d="M18.7539 22.5625C19.7517 22.5553 20.6207 22.953 21.4738 23.7094C22.0681 22.6567 22.8391 20.6148 22.968 20.1819C23.0419 19.9339 22.7757 18.6852 22.557 18.5823C22.4087 18.5124 21.2539 18.8659 21.1338 18.9926C21.0138 19.1192 18.8541 21.9556 18.7539 22.5625Z" fill="url(#paint2_linear_4248_25572)"/>
<path d="M22.5888 21.2188C22.2818 22.0136 21.8447 23.0536 21.4737 23.7094C21.1558 23.4268 20.8378 23.1972 20.5088 23.0161C21.6088 23.498 22.1185 21.7708 22.5888 21.2188Z" fill="#C9A923"/>
<path d="M20.1617 21.6104C19.9068 21.4755 21.1224 18.9735 21.6038 19.2168C22.2267 19.5316 20.7219 21.907 20.1617 21.6104Z" fill="#FFD600"/>
<path d="M21.4734 23.7092C21.5446 23.7197 22.9758 20.8177 22.815 20.7211C22.7455 20.6794 21.4023 23.6988 21.4734 23.7092Z" fill="#E06020"/>
<path d="M23.1568 21.7272C23.0703 22.265 22.7425 22.7674 22.9807 23.1649C23.2189 23.5623 24.1909 22.8043 24.6007 22.8803C25.0106 22.9563 25.8893 23.4036 25.9141 23.1103C25.939 22.8171 25.7108 20.7926 25.3778 20.9789C25.0447 21.1652 24.4734 21.8838 24.0884 21.6611C23.7033 21.4384 23.3183 20.7242 23.1568 21.7272Z" fill="#C9A923"/>
<path d="M20.4201 24.3585L19.5186 31.3455L18.2955 31.4902C18.2955 31.4902 18.0774 24.5001 18.4587 23.7712C18.7767 23.1636 20.2169 23.663 20.4201 24.3585Z" fill="#FAB19E"/>
<path d="M19.5918 24.0555C19.5918 23.7987 20.4788 24.2377 20.3784 24.2956C20.2781 24.3536 19.5918 24.0969 19.5918 24.0555Z" fill="#EBA090"/>
<path d="M18.9628 24.2171C18.8243 24.134 20.3933 24.2711 20.2815 24.362C20.1697 24.4529 19.1491 24.3289 18.9628 24.2171Z" fill="#EBA090"/>
<path d="M19.5816 30.8483L19.5175 31.3452L18.2943 31.4909C18.2943 31.4909 18.2855 31.2325 18.2744 30.8108C18.5261 30.7026 19.0494 30.5017 19.1444 30.5723C19.2195 30.6275 19.427 30.7556 19.5816 30.8483Z" fill="#EBA090"/>
<path d="M18.5014 31.1282C18.4899 31.1508 18.5236 31.227 18.5236 31.227C18.5236 31.227 18.4702 31.1626 18.4443 31.1597C18.361 31.1504 18.1875 31.2418 18.1469 31.3153C18.1296 31.3468 18.1585 31.4587 18.1585 31.4587L18.0955 31.4096C18.0955 31.4096 17.9148 31.4556 17.8906 31.581C17.9214 32.0327 18.3027 32.6117 18.4969 32.721C18.5493 32.7505 18.7442 32.7106 18.7442 32.7106C18.7442 32.7106 18.6871 32.4431 18.6829 32.4242C18.8 32.5868 18.8211 32.6892 18.9298 32.7543C18.9871 32.788 19.1856 32.7489 19.1856 32.7489C19.1856 32.7489 19.0855 32.4216 19.0713 32.3149C19.155 32.4379 19.275 32.687 19.3577 32.7204C19.4189 32.7457 19.5891 32.6687 19.5891 32.6687C19.5891 32.6687 19.4707 32.3652 19.4254 32.2189C19.5709 32.3857 19.6089 32.5166 19.7159 32.5253C19.7817 32.5307 19.9271 32.4603 19.9271 32.4603C19.9271 32.4603 19.6929 31.5591 19.5145 31.2903C19.4836 31.2433 19.1787 30.9614 19.0885 30.9276C19.0309 30.9061 18.9211 30.9834 18.9211 30.9834L18.901 31.0508C18.901 31.0508 18.8402 30.9955 18.8143 30.9932C18.7294 30.9856 18.54 31.0523 18.5014 31.1282Z" fill="#FAB19E"/>
<path d="M19.2201 31.715C19.2308 31.7095 19.2989 31.8295 19.3617 31.9861C19.4253 32.1423 19.4639 32.2738 19.4529 32.2778C19.4419 32.2819 19.3857 32.1576 19.3224 32.0021C19.2599 31.8463 19.2099 31.7202 19.2201 31.715Z" fill="#DB8F82"/>
<path d="M18.8618 31.8596C18.8722 31.8543 18.9371 31.9641 19.0005 32.1072C19.0641 32.2501 19.1033 32.3712 19.0924 32.3756C19.0816 32.38 19.025 32.2667 18.9617 32.1244C18.8987 31.982 18.8513 31.8648 18.8618 31.8596Z" fill="#DB8F82"/>
<path d="M18.4882 31.9914C18.4989 31.9866 18.5519 32.0824 18.6065 32.2054C18.6612 32.3283 18.6968 32.4319 18.6861 32.4367C18.6753 32.4414 18.6224 32.3456 18.5677 32.2226C18.5131 32.0997 18.4775 31.9961 18.4882 31.9914Z" fill="#DB8F82"/>
<path d="M22.0899 40.584C22.0598 40.6862 21.4949 42.2111 21.3711 42.6453C21.4763 42.8985 22.4396 43.1399 22.595 42.9449C22.7504 42.7498 23.526 41.0515 23.526 41.0515L22.0899 40.584Z" fill="#FAB19E"/>
<path d="M20.792 44.0662C20.9126 44.1686 23.9146 44.9857 24.2083 45.072C24.502 45.1583 24.6998 44.0686 23.799 43.7805L22.981 42.6008C22.996 42.3746 23.3347 42.3005 23.3051 42.1882C23.2509 41.9871 22.8145 41.8367 22.4748 41.9437C22.317 41.9938 22.1865 42.0926 22.1147 42.2723C21.8235 42.1934 21.2813 42.0541 21.2155 42.2086C21.1245 42.4222 20.6706 43.9635 20.792 44.0662Z" fill="#FFD600"/>
<path d="M24.2082 45.0716C23.9141 44.9844 20.9127 44.1675 20.7916 44.0661C20.7364 44.0178 20.8023 43.6608 20.9003 43.2695C21.2986 43.5715 22.0848 44.1007 22.8173 44.2033C22.8173 44.2033 23.8557 44.0959 24.4367 44.4611C24.5068 44.8025 24.3728 45.1193 24.2082 45.0716Z" fill="#C9A923"/>
<path d="M22.7734 43.9963C22.8272 43.9001 23.4007 43.5817 23.8381 43.8001C23.8381 43.8001 23.7208 43.4351 23.2063 43.5511C22.8266 43.6367 22.7734 43.9963 22.7734 43.9963Z" fill="#28264A"/>
<path d="M22.5859 43.2563C22.7362 43.2216 23.3977 43.3716 23.2792 43.2414C23.1607 43.1113 22.6459 43.0718 22.5764 43.1746C22.507 43.2773 22.5859 43.2563 22.5859 43.2563Z" fill="#28264A"/>
<path d="M22.4502 42.9761C22.6004 42.9413 23.2619 43.0913 23.1434 42.9612C23.0249 42.8311 22.5101 42.7915 22.4407 42.8943C22.3712 42.9971 22.4502 42.9761 22.4502 42.9761Z" fill="#28264A"/>
<path d="M22.3145 42.6958C22.4647 42.6611 23.1262 42.8109 23.0077 42.6809C22.8892 42.5508 22.3744 42.5113 22.3049 42.614C22.2355 42.7168 22.3145 42.6958 22.3145 42.6958Z" fill="#28264A"/>
<path d="M20.7916 43.7744C20.7923 43.7722 22.0904 44.2227 22.8279 44.4355C22.9102 44.4592 23.0389 44.268 23.7789 44.4746C24.2934 44.6102 24.4186 44.8226 24.4312 44.8459C24.4549 44.8891 24.4258 45.2257 24.274 45.2087C24.1222 45.1917 20.7985 44.2471 20.7593 44.174C20.6814 44.0293 20.7916 43.7744 20.7916 43.7744Z" fill="#28264A"/>
<path d="M24.858 29.6359C23.5784 32.4958 21.5665 40.8758 21.6847 41.3606C21.776 41.7352 22.8277 42.0313 23.2176 42.0313C23.6075 42.0313 29.7587 31.0915 29.4156 30.3761C29.0724 29.6607 28.9815 29.0397 28.0431 28.7949C27.2462 28.587 25.2967 28.6555 24.858 29.6359Z" fill="#3A3A60"/>
<path d="M30.8681 16.4171C30.8681 16.4171 31.2376 22.3149 31.153 22.6332C31.0684 22.9515 30.4872 23.2699 30.0304 23.2422C29.5737 23.2145 29.2139 22.896 29.2139 22.896L29.6066 16.2021L30.8681 16.4171Z" fill="#FAB19E"/>
<path d="M31.2769 14.6734C31.2769 14.6734 31.3232 15.7724 31.2406 15.9952C31.158 16.218 30.8677 16.5086 30.8677 16.5086L30.8209 16.9258C30.8209 16.9258 29.6929 16.7889 29.6677 16.7578C29.6425 16.7266 29.5027 15.4172 29.474 15.3287C29.4453 15.2402 31.0887 13.973 31.193 14.2217" fill="#FAB19E"/>
<path d="M30.325 16.0006C30.325 16.0006 30.4629 16.4059 30.4726 16.4573C30.4823 16.5087 30.3131 16.5771 30.3812 16.6375C30.4493 16.6979 30.5255 16.7953 30.5427 16.813C30.5598 16.8307 30.4952 16.8645 30.4952 16.8645C30.4952 16.8645 30.2652 16.7262 30.2716 16.6516C30.278 16.5771 30.3505 16.4443 30.3505 16.4443C30.3505 16.4443 30.1273 16.2203 30.1655 16.1214C30.2038 16.0226 30.1948 15.9157 30.325 16.0006Z" fill="#DFE4EF"/>
<path d="M30.4155 15.2941C30.3154 15.2198 29.3856 18.6947 29.5509 18.4479C29.7372 18.1695 30.5101 15.3645 30.4155 15.2941Z" fill="#929ED3"/>
<path d="M31.0516 16.0503C31.0516 16.0503 31.0024 16.17 30.957 16.2084C30.8781 16.2488 30.0097 16.4747 29.6152 15.7781C29.5863 15.7272 29.6361 15.5996 29.6618 15.583L31.0516 16.0503Z" fill="#2F5798"/>
<path d="M31.4982 13.1134C31.4855 13.1997 31.4596 13.3757 31.4468 13.4613C31.3217 14.3142 31.1903 15.2013 31.0652 16.0544C31.0168 16.1889 29.6448 15.9639 29.6045 15.5525C29.9052 14.7931 30.3624 13.5963 30.6554 12.9053C30.7193 12.9211 31.4614 13.1045 31.4982 13.1134Z" fill="#3C5FAD"/>
<path d="M31.3939 13.0877L31.4704 13.3034L31.447 13.4613C31.447 13.4613 31.447 13.4613 31.447 13.4617C31.447 13.462 31.4469 13.4624 31.4469 13.4631L31.407 13.7337C30.825 13.697 30.4333 13.4464 30.4436 13.4208C30.5613 13.1253 30.6449 12.9198 30.6556 12.9053L31.3939 13.0877Z" fill="#2F5798"/>
<path opacity="0.25" d="M31.345 14.1537L30.2959 13.7933C30.3366 13.6899 30.3756 13.5915 30.4119 13.5L31.3916 13.8366L31.345 14.1537Z" fill="#929ED3"/>
<path d="M30.2422 13.1537C30.2744 13.1593 30.4009 13.4466 30.8751 13.5817C31.4566 13.7473 31.734 13.5162 31.734 13.5162L31.2659 12.1953L30.2422 13.1537Z" fill="#3C5FAD"/>
<path opacity="0.25" d="M31.2514 14.7869L30.0645 14.379C30.1029 14.2805 30.1419 14.182 30.1801 14.085L31.298 14.4699L31.2514 14.7869Z" fill="#929ED3"/>
<path opacity="0.25" d="M31.158 15.4205L29.834 14.9652C29.871 14.8709 29.9095 14.7723 29.9495 14.6719L31.205 15.1035L31.158 15.4205Z" fill="#929ED3"/>
<path opacity="0.25" d="M31.0653 16.0542L29.6045 15.5523C29.6365 15.4705 29.6754 15.3706 29.7192 15.2588L31.1119 15.7371L31.0653 16.0542Z" fill="#929ED3"/>
<path d="M31.2742 13.1827C31.2536 13.2758 31.1617 13.3831 31.0031 13.3417C30.8444 13.3003 30.8057 13.1709 30.8264 13.0767C30.8472 12.9824 30.9348 12.8579 31.0999 12.8927C31.2651 12.9275 31.2948 13.0897 31.2742 13.1827Z" fill="#2F5798"/>
<path d="M31.2437 13.1468C31.2248 13.2324 31.1431 13.3296 30.9978 13.2937C30.8527 13.2578 30.8192 13.137 30.8376 13.052C30.8562 12.9669 30.9345 12.8513 31.0856 12.8834C31.2367 12.9156 31.2627 13.0611 31.2437 13.1468Z" fill="#929ED3"/>
<path d="M31.2083 13.1379C31.1925 13.209 31.1258 13.2892 31.0046 13.2601C30.8834 13.231 30.8567 13.1305 30.8721 13.0599C30.8876 12.9894 30.9524 12.894 31.0774 12.9206C31.2023 12.9472 31.2241 13.0667 31.2083 13.1379Z" fill="#FFD600"/>
<path d="M31.4035 14.4289C31.4035 14.4289 31.6186 14.3337 31.3995 14.106C31.1804 13.8783 31.0023 13.9925 31.0204 14.0932C31.0385 14.1939 31.0426 14.2599 31.2045 14.3234C31.2045 14.3234 31.0537 14.3352 31.0571 14.4512C31.0605 14.5671 31.1533 14.6357 31.1533 14.6357C31.1533 14.6357 31.0172 14.6184 30.9917 14.6719C30.9661 14.7253 31.0057 14.8695 31.1406 14.9368C31.1406 14.9368 30.9893 14.9664 31.0693 15.1308C31.1493 15.2952 31.1805 15.2445 31.1805 15.2445L31.1602 15.4572C31.1602 15.4572 31.444 15.3914 31.3708 15.0598C31.3708 15.0598 31.5539 14.938 31.3675 14.7597C31.3675 14.7597 31.6336 14.6172 31.4035 14.4289Z" fill="#FAB19E"/>
<path d="M31.4004 14.4297C31.3934 14.4369 31.3528 14.4044 31.2972 14.3762C31.242 14.3471 31.1927 14.3341 31.1934 14.3253C31.1935 14.3156 31.2517 14.3147 31.3125 14.3466C31.3737 14.3779 31.4067 14.4242 31.4004 14.4297Z" fill="#DB8F82"/>
<path d="M31.3737 14.7609C31.37 14.7641 31.358 14.7565 31.3385 14.7455C31.3191 14.7343 31.2918 14.7196 31.2611 14.7036C31.1998 14.6716 31.1492 14.6451 31.1525 14.6363C31.1556 14.6278 31.2128 14.6408 31.2766 14.6741C31.3084 14.6907 31.3356 14.7097 31.3528 14.7267C31.3702 14.7438 31.377 14.7581 31.3737 14.7609Z" fill="#DB8F82"/>
<path d="M31.3705 15.0604C31.3662 15.0633 31.355 15.0534 31.3357 15.0405C31.3161 15.0277 31.2877 15.0123 31.2544 14.9975C31.1881 14.9678 31.1308 14.9486 31.1329 14.9394C31.1346 14.9306 31.1974 14.9356 31.2681 14.9672C31.3034 14.9828 31.3331 15.0033 31.3509 15.0226C31.3687 15.0421 31.3739 15.0583 31.3705 15.0604Z" fill="#DB8F82"/>
<path d="M29.8816 14.3984C29.8253 14.5814 29.752 14.6795 29.553 14.8895C29.3541 15.0996 29.4747 15.3283 29.4747 15.3283C29.5939 15.3537 29.7786 15.4109 29.9408 15.0357C30.1248 14.6103 29.9379 14.2155 29.8816 14.3984Z" fill="#FAB19E"/>
<path d="M30.0264 14.7461C30.0309 14.7471 30.0256 14.7877 30.0131 14.853C29.9975 14.9174 29.9746 15.0072 29.9299 15.0995C29.8853 15.1915 29.8269 15.268 29.7701 15.3069C29.7145 15.3484 29.6674 15.3489 29.668 15.344C29.6672 15.3396 29.7075 15.3315 29.7555 15.2883C29.8047 15.2477 29.8567 15.1738 29.8998 15.085C29.9839 14.9052 30.0148 14.7432 30.0264 14.7461Z" fill="#DB8F82"/>
<path d="M29.3729 20.1915C29.5671 20.2252 29.3766 21.5623 29.3425 21.4266C29.3084 21.2909 29.3239 20.1829 29.3729 20.1915Z" fill="#EBA090"/>
<path d="M29.5534 20.7617C29.5161 20.8859 29.6465 21.3268 29.7645 21.4014C29.8825 21.4759 29.5534 20.7617 29.5534 20.7617Z" fill="#EBA090"/>
<path d="M18.2324 16.587L18.3203 16.171C18.7025 15.9904 19.0827 15.7834 19.4572 15.5488L19.4203 15.4658C18.9639 15.7523 18.499 15.9968 18.0322 16.2034L17.2456 16.5176C16.9718 16.6155 16.6988 16.702 16.4281 16.7778L16.4297 16.7731L15.7561 16.9468C14.9602 17.1243 14.1961 17.2172 13.5034 17.2578C11.8577 17.3542 10.4015 17.1767 9.45367 17.0067L9.32031 17.0751C9.51913 17.1123 9.74016 17.1503 9.98681 17.1865C10.2862 17.2304 10.6184 17.2711 10.9762 17.3036C10.9762 17.3036 11.2666 19.0418 11.5934 19.0641C11.937 19.0874 12.713 17.3757 12.713 17.3757C12.7658 17.3752 13.3608 19.0202 13.6828 19.0181C14.1525 19.0151 14.5733 17.2478 14.5733 17.2478C14.6243 17.2411 15.4028 18.7972 15.7707 18.736C16.2272 18.66 16.3931 16.882 16.3931 16.882C16.5045 16.8513 17.4926 18.2375 17.9102 18.1112C18.2639 18.0043 18.2324 16.587 18.2324 16.587L18.2324 16.587Z" fill="#B9C1E1"/>
<path d="M46.0527 14.6176L44.7958 14.4393C44.3659 14.3628 43.945 14.2724 43.5342 14.1704L43.5394 14.1656L42.5272 13.8928C41.3497 13.5354 40.2711 13.0947 39.3226 12.64C37.0693 11.56 35.2516 10.2729 34.1051 9.36657L33.8818 9.35547C34.1213 9.54756 34.3897 9.75683 34.6935 9.98251C35.0623 10.2564 35.4767 10.5503 35.9308 10.8526C35.9308 10.8526 35.1515 13.2559 35.5713 13.5225C36.0125 13.8028 38.1924 12.2115 38.1924 12.2115C38.2629 12.2495 37.9511 14.7576 38.3808 14.9901C39.0075 15.3293 40.7521 13.4087 40.7521 13.4087C40.8245 13.4375 40.8164 15.9675 41.3468 16.1589C42.0049 16.3965 43.4177 14.2763 43.4177 14.2763C43.5864 14.3189 43.9711 16.7878 44.6111 16.9335C45.1533 17.057 46.0617 15.2473 46.0617 15.2473H46.0617L46.4576 14.787C47.087 14.8385 47.7314 14.8551 48.3868 14.8327L48.3933 14.7012C47.5943 14.7292 46.8119 14.698 46.0527 14.6176Z" fill="#B9C1E1"/>
<defs>
<linearGradient id="paint0_linear_4248_25572" x1="33.4256" y1="24.6474" x2="19.079" y2="15.1379" gradientUnits="userSpaceOnUse">
<stop stop-color="#C9A923"/>
<stop offset="1" stop-color="#FFD600"/>
</linearGradient>
<linearGradient id="paint1_linear_4248_25572" x1="28.3625" y1="29.3262" x2="16.2889" y2="17.3996" gradientUnits="userSpaceOnUse">
<stop stop-color="#C9A923"/>
<stop offset="1" stop-color="#FFD600"/>
</linearGradient>
<linearGradient id="paint2_linear_4248_25572" x1="21.7087" y1="32.4072" x2="20.2414" y2="13.0134" gradientUnits="userSpaceOnUse">
<stop stop-color="#C9A923"/>
<stop offset="1" stop-color="#FFD600"/>
</linearGradient>
</defs>
</svg>
