<svg width="14" height="7" viewBox="0 0 14 7" fill="none" xmlns="http://www.w3.org/2000/svg">
<path d="M1.5759 0H0.148069C0.0243115 0 -0.0440324 0.113235 0.0317 0.189706L6.53545 6.8191C6.59047 6.87542 6.66092 6.921 6.74143 6.95235C6.82194 6.9837 6.91038 7 7 7C7.08962 7 7.17806 6.9837 7.25857 6.95235C7.33908 6.921 7.40953 6.87542 7.46455 6.8191L13.9683 0.189706C14.044 0.111765 13.9757 0 13.8519 0H12.4241C12.3336 0 12.2468 0.033823 12.1914 0.0897055L7.00092 5.38381L1.80864 0.0897055C1.75323 0.033823 1.66641 0 1.5759 0Z" fill="#637D92"/>
</svg>
