<svg width="24" height="24" viewBox="0 0 24 24" fill="none" xmlns="http://www.w3.org/2000/svg">
<path opacity="0.3" d="M19 12V17.4444C19 17.857 18.8361 18.2527 18.5444 18.5444C18.2527 18.8361 17.857 19 17.4444 19H6.55556C6.143 19 5.74733 18.8361 5.45561 18.5444C5.16389 18.2527 5 17.857 5 17.4444V12H19Z" fill="#323F49"/>
<path d="M15.1111 5C15.3174 5 15.5152 5.07525 15.6611 5.20921C15.8069 5.34316 15.8889 5.52485 15.8889 5.71429V6.42857H17.4444C17.857 6.42857 18.2527 6.57908 18.5444 6.84699C18.8361 7.1149 19 7.47826 19 7.85714V10H5V7.85714C5 7.47826 5.16389 7.1149 5.45561 6.84699C5.74733 6.57908 6.143 6.42857 6.55556 6.42857H8.11111V5.71429C8.11111 5.52485 8.19306 5.34316 8.33892 5.20921C8.48478 5.07525 8.68261 5 8.88889 5C9.09517 5 9.293 5.07525 9.43886 5.20921C9.58472 5.34316 9.66667 5.52485 9.66667 5.71429V6.42857H14.3333V5.71429C14.3333 5.52485 14.4153 5.34316 14.5611 5.20921C14.707 5.07525 14.9048 5 15.1111 5Z" fill="#323F49"/>
</svg>
