<svg width="24" height="24" viewBox="0 0 24 24" fill="none" xmlns="http://www.w3.org/2000/svg">
<path d="M6.5759 9H5.14807C5.02431 9 4.95597 9.11324 5.0317 9.18971L11.5354 15.8191C11.5905 15.8754 11.6609 15.921 11.7414 15.9524C11.8219 15.9837 11.9104 16 12 16C12.0896 16 12.1781 15.9837 12.2586 15.9524C12.3391 15.921 12.4095 15.8754 12.4646 15.8191L18.9683 9.18971C19.044 9.11176 18.9757 9 18.8519 9H17.4241C17.3336 9 17.2468 9.03382 17.1914 9.08971L12.0009 14.3838L6.80864 9.08971C6.75323 9.03382 6.66641 9 6.5759 9Z" fill="#637D92"/>
</svg>
