<svg width="20" height="20" viewBox="0 0 20 20" fill="none" xmlns="http://www.w3.org/2000/svg">
<path d="M1.53027 9.46978V11.5878C1.53014 12.144 1.63959 12.6948 1.85236 13.2088C2.06513 13.7227 2.37705 14.1897 2.77032 14.583C3.16359 14.9764 3.6305 15.2884 4.14438 15.5013C4.65826 15.7142 5.20904 15.8238 5.76527 15.8238H18.4703M1.53027 4.17578H14.2353C14.7916 4.17565 15.3425 4.28513 15.8565 4.49796C16.3705 4.71079 16.8375 5.02281 17.2309 5.41618C17.6242 5.80956 17.9363 6.27658 18.1491 6.79058C18.3619 7.30457 18.4714 7.85546 18.4713 8.41178V10.5288" stroke="black" stroke-width="1.5" stroke-linecap="round" stroke-linejoin="round"/>
<path d="M15.2943 12.647L18.4713 15.823L15.2943 19M4.7063 7.353L1.5293 4.176L4.7063 1" stroke="black" stroke-width="1.5" stroke-linecap="round" stroke-linejoin="round"/>
</svg>
