<?xml version="1.0" encoding="UTF-8"?>
<svg version="1.1" xmlns="http://www.w3.org/2000/svg" width="0" height="0">
<path d="M0 0 C2.5 1.5625 2.5 1.5625 4 4 C4 6.31 4 8.62 4 11 C13.24 11 22.48 11 32 11 C32 8.69 32 6.38 32 4 C33.5 1.5625 33.5 1.5625 36 0 C39.7661263 -0.67913753 42.89762562 -0.45225615 46.4375 1 C48 3 48 3 49 11 C57.91 11 66.82 11 76 11 C76 9.02 76 7.04 76 5 C77.4375 2.125 77.4375 2.125 80 0 C84.32423783 -0.91245385 87.76882754 -0.75071492 91.5625 1.5625 C93.4844884 4.82152381 93.28577701 7.28489886 93 11 C93.59425781 10.95359375 94.18851563 10.9071875 94.80078125 10.859375 C102.96618724 10.50380522 110.69516796 12.25470095 117.375 17.1875 C123.39873746 23.64150442 126.13192554 30.20344339 126.11352539 38.96191406 C126.11344986 40.16285706 126.11337433 41.36380005 126.11329651 42.60113525 C126.10813522 43.89291687 126.10297394 45.18469849 126.09765625 46.515625 C126.09579017 47.85512235 126.09436716 49.19462038 126.09336853 50.53411865 C126.08955835 54.05222472 126.07974091 57.57028921 126.06866455 61.08837891 C126.05841817 64.68130939 126.053864 68.27424661 126.04882812 71.8671875 C126.03811725 78.91147529 126.02105887 85.95573493 126 93 C128.31 93 130.62 93 133 93 C133.0825 92.0925 133.165 91.185 133.25 90.25 C134.13472507 86.41619138 134.87592995 85.34273849 138 83 C140.68172476 82.65040594 142.93937958 82.53076226 145.609375 82.609375 C146.33618469 82.61503479 147.06299438 82.62069458 147.81182861 82.62652588 C150.12523245 82.64885447 152.4370672 82.69903952 154.75 82.75 C156.32159216 82.77006977 157.89320868 82.78831971 159.46484375 82.8046875 C163.31049717 82.84870707 167.15498289 82.91770625 171 83 C171.45246094 81.82522095 171.45246094 81.82522095 171.9140625 80.62670898 C175.21020158 72.65387617 182.39605928 67.54539567 190 64 C199.33868805 60.78402796 209.50662857 61.02092601 218.51171875 65.15234375 C224.81565061 68.63736581 229.86955458 73.06855096 234 79 C234.36821627 80.32412449 234.70742331 81.65713449 235 83 C236.46808105 82.9685791 236.46808105 82.9685791 237.96582031 82.93652344 C241.60352904 82.86402037 245.24117416 82.81816367 248.87939453 82.78027344 C250.45274604 82.7601812 252.02602308 82.73290201 253.59912109 82.69824219 C255.86314272 82.64961506 258.12617573 82.62700865 260.390625 82.609375 C261.09181458 82.58872986 261.79300415 82.56808472 262.51544189 82.54681396 C265.77532226 82.54532257 267.69641137 82.79248839 270.41308594 84.64941406 C272.30043841 87.44501862 272.53558229 89.69419736 273 93 C273.72947845 92.98667633 274.45895691 92.97335266 275.21054077 92.95962524 C282.12380595 92.83883048 289.03691111 92.74776463 295.95096397 92.68912697 C299.50471815 92.65796491 303.05759213 92.61577794 306.61083984 92.54736328 C310.70678595 92.46900333 314.80182434 92.44045792 318.8984375 92.4140625 C320.1592514 92.38309479 321.42006531 92.35212708 322.71908569 92.32022095 C330.9451992 92.31711558 336.56682177 93.7243685 343 99 C350.25356278 106.75303743 350.28983439 115.30369891 350.22705078 125.45288086 C350.22734283 126.69260651 350.22763489 127.93233215 350.22793579 129.20962524 C350.22678518 132.59143129 350.21678826 135.97299 350.20278788 139.3547523 C350.19024423 142.89547537 350.18910716 146.43620211 350.18673706 149.97694397 C350.18053294 156.67390178 350.16413664 163.37079391 350.14403808 170.06772286 C350.12164576 177.69530033 350.11067729 185.32288102 350.10064721 192.9504832 C350.07976941 208.63369344 350.0446143 224.31683823 350 240 C351.08602005 240.2524498 352.1720401 240.5048996 353.29096985 240.76499939 C361.94480944 242.78399374 370.57432867 244.86484546 379.16796875 247.12890625 C380.2172908 247.40468002 381.26661285 247.6804538 382.34773254 247.96458435 C384.52813765 248.5388355 386.70820753 249.11436099 388.88793945 249.69116211 C392.21856428 250.57070336 395.55161406 251.44063697 398.88476562 252.31054688 C401.02098823 252.8744135 403.15706162 253.43884581 405.29296875 254.00390625 C406.77424507 254.38839684 406.77424507 254.38839684 408.28544617 254.78065491 C413.1273394 256.0732961 417.71151131 257.31619161 422 260 C423.5625 263.3125 423.5625 263.3125 424 267 C421.95454545 272.52272727 421.95454545 272.52272727 419 274 C418.80124752 278.16233568 418.65664088 282.32211767 418.56054688 286.48779297 C418.52047275 287.90234503 418.46599105 289.31656889 418.39648438 290.72998047 C417.71002302 298.96403359 417.71002302 298.96403359 420.78125 306.22949219 C422.79177749 307.70597331 424.80072807 308.83757799 427 310 C429.38236624 314.76473248 428.3122546 321.96058598 428.35009766 327.25708008 C428.36664824 328.95546174 428.39392685 330.65377401 428.43212891 332.35180664 C428.48699658 334.80391463 428.50878513 337.25439147 428.5234375 339.70703125 C428.54610687 340.46240677 428.56877625 341.21778229 428.59213257 341.99604797 C428.57620619 345.98549397 428.15696071 347.79832777 425.67822266 350.9831543 C423 353 423 353 419.625 353.5625 C415.19163297 352.87456374 412.73395951 351.43850417 409 349 C408.319375 349.66 407.63875 350.32 406.9375 351 C403.30586782 353.47260063 401.3132535 353.47925039 397 353 C396.01 352.34 395.02 351.68 394 351 C393.53851563 352.01578125 393.07703125 353.0315625 392.6015625 354.078125 C386.83338741 366.3968806 380.43250968 376.23372965 369 384 C370.68802734 384.70962891 370.68802734 384.70962891 372.41015625 385.43359375 C388.45412545 392.29250047 402.09112774 400.22131628 415 412 C415.72574219 412.64324219 416.45148438 413.28648437 417.19921875 413.94921875 C436.32469675 431.83328641 450.36552391 460.12862163 451.375 486.375 C451.47133634 489.6942248 451.42530524 491.3738246 449.55004883 494.134758 C445.74063879 496.9211641 442.34761594 496.55423384 437.73828125 496.50793457 C436.79030167 496.51417453 435.84232208 496.5204145 434.86561584 496.52684355 C431.6809928 496.54283082 428.49712907 496.53014664 425.3125 496.51757812 C423.03271029 496.52299668 420.75292408 496.53011783 418.47314453 496.53881836 C412.2748764 496.55708619 406.07687397 496.54996977 399.87860107 496.53730202 C393.39952871 496.52719233 386.92047948 496.53656204 380.44140625 496.54284668 C368.8623627 496.55059578 357.28344068 496.53814589 345.70441628 496.51780933 C335.20392583 496.49993805 324.70361225 496.50304208 314.203125 496.52148438 C302.01182021 496.54288625 289.8206414 496.55086079 277.62931824 496.53903532 C271.17487337 496.53279123 264.72055037 496.53198999 258.26611328 496.54518127 C252.19874918 496.55671475 246.13171992 496.54875954 240.06439209 496.52560425 C237.83429521 496.5203038 235.60417028 496.52185361 233.37408447 496.53065491 C230.33624555 496.54154098 227.29948823 496.52793033 224.26171875 496.50793457 C222.92923851 496.5213189 222.92923851 496.5213189 221.56983948 496.53497362 C215.62117911 496.45871137 215.62117911 496.45871137 212.47412109 494.134758 C209.66498263 490.06668596 209.8393169 486.31614185 210.56640625 481.6015625 C210.88270864 479.9396375 211.21557866 478.28080418 211.5625 476.625 C211.74522461 475.74303955 211.92794922 474.8610791 212.11621094 473.95239258 C214.60088141 462.57116441 218.63953246 452.24158889 224.203125 442.01953125 C224.57002441 441.3387854 224.93692383 440.65803955 225.31494141 439.95666504 C226.20688986 438.30278342 227.10300088 436.65114779 228 435 C227.23008256 434.99761165 226.46016512 434.99522329 225.66691685 434.99276257 C206.91200226 434.93356368 188.15721872 434.85798232 169.40244389 434.76428509 C160.33267951 434.71936622 151.26295405 434.67994256 142.19311523 434.65356445 C134.28559383 434.63055269 126.37819601 434.59711922 118.47077268 434.55129844 C114.28588158 434.52740901 110.10111254 434.50865224 105.91615486 434.50238609 C101.97215629 434.4963158 98.02846987 434.47624626 94.0845871 434.44572449 C92.64192565 434.4369753 91.19922336 434.43321518 89.75653648 434.43499184 C79.41021323 434.44370553 70.37882559 434.07287486 62.50390625 426.74609375 C58.0533542 421.57882942 55.87353325 415.40416644 55.87695217 408.63470078 C55.87496112 407.76285448 55.87297007 406.89100818 55.87091869 405.9927423 C55.87383153 405.03943849 55.87674437 404.08613468 55.87974548 403.10394287 C55.87889106 402.08780419 55.87803663 401.0716655 55.87715632 400.02473474 C55.87550537 396.60989653 55.88101664 393.19510714 55.88647461 389.78027344 C55.88675659 387.33636476 55.88659853 384.89245599 55.8860321 382.44854736 C55.88580417 377.18185546 55.88864598 371.91517883 55.89426994 366.64849091 C55.90239597 359.0337399 55.9050013 351.41899489 55.90625793 343.80424002 C55.90844672 331.4498936 55.91510211 319.09555378 55.92456055 306.74121094 C55.93373915 294.73990919 55.94081779 282.73860924 55.94506836 270.73730469 C55.94533108 269.99758068 55.94559381 269.25785667 55.94586449 268.49571678 C55.94716953 264.78474966 55.94843323 261.07378252 55.94967639 257.36281538 C55.9600436 226.57520545 55.97773153 195.78760373 56 165 C55.00743195 165.01110306 54.01486389 165.02220612 52.99221802 165.03364563 C43.60653548 165.13530892 34.22096567 165.2101026 24.83485603 165.25906086 C20.01011202 165.28507776 15.18581497 165.32033011 10.36132812 165.37719727 C5.69934616 165.43180072 1.03779222 165.46147992 -3.62448502 165.47438622 C-5.39700171 165.48357551 -7.16949681 165.50151964 -8.94182968 165.52865028 C-20.37303914 165.69656832 -28.78309579 165.27085357 -37.875 157.5625 C-42.19124944 152.35761097 -45.10803711 148.19092866 -45.15390015 141.34068298 C-45.16250061 140.38338287 -45.17110107 139.42608276 -45.17996216 138.43977356 C-45.18422211 137.39093491 -45.18848206 136.34209625 -45.19287109 135.26147461 C-45.20104858 134.15543884 -45.20922607 133.04940308 -45.21765137 131.90985107 C-45.24251112 128.24068748 -45.25902523 124.57156266 -45.2734375 120.90234375 C-45.27876118 119.64883181 -45.28408485 118.39531986 -45.28956985 117.10382271 C-45.31080288 111.83232805 -45.329931 106.56083919 -45.34119225 101.28931332 C-45.35740017 93.75322084 -45.39049956 86.21764649 -45.44759309 78.68174928 C-45.49111815 72.73214454 -45.50695326 66.78265393 -45.51332474 60.83288765 C-45.52003006 58.30959961 -45.53523319 55.78631889 -45.55921555 53.26313591 C-45.59093599 49.72312333 -45.59089233 46.18440529 -45.58349609 42.64428711 C-45.6081041 41.09228355 -45.6081041 41.09228355 -45.63320923 39.50892639 C-45.55621324 30.46543997 -42.77548221 23.47039347 -36.3125 17.0625 C-29.31107827 11.48241952 -21.70046884 10.57900957 -13 11 C-12.9175 9.741875 -12.835 8.48375 -12.75 7.1875 C-12.38174973 4.41334796 -12.18888655 3.24177479 -10.4375 1 C-6.89762562 -0.45225615 -3.7661263 -0.67913753 0 0 Z M-28 73 C-28.0825 84.281875 -28.165 95.56375 -28.25 107.1875 C-28.28641602 110.74426514 -28.32283203 114.30103027 -28.36035156 117.96557617 C-28.37373274 121.16549673 -28.37373274 121.16549673 -28.3817749 124.36543274 C-28.38790051 125.78609737 -28.40193451 127.20674173 -28.42230225 128.62727356 C-28.45167779 130.78467698 -28.45562119 132.94081458 -28.45410156 135.09838867 C-28.46298401 136.3130632 -28.47186646 137.52773773 -28.48101807 138.77922058 C-27.90694682 142.62306137 -26.69808426 144.25747916 -24 147 C-21.52311145 148.23844428 -19.86392214 148.13683079 -17.09234619 148.15390015 C-16.05491272 148.16250061 -15.01747925 148.17110107 -13.9486084 148.17996216 C-12.80573364 148.18422211 -11.66285889 148.18848206 -10.48535156 148.19287109 C-9.28525452 148.20104858 -8.08515747 148.20922607 -6.84869385 148.21765137 C-2.86267431 148.24253856 1.12330723 148.25918062 5.109375 148.2734375 C6.48181414 148.2787974 7.8542532 148.28417491 9.2266922 148.28956985 C14.93650782 148.31120018 20.64632061 148.32993607 26.35616684 148.34119225 C34.53695112 148.35742578 42.71726 148.39058651 50.89786506 148.44759309 C56.65081784 148.48631412 62.4036436 148.50582753 68.15672326 148.51111281 C71.59218349 148.51476385 75.02713671 148.52675692 78.46245575 148.55921555 C82.29770291 148.59493282 86.13235537 148.59091977 89.96777344 148.58349609 C91.66994019 148.6081041 91.66994019 148.6081041 93.40649414 148.63320923 C100.02331671 148.63709862 100.02331671 148.63709862 105.68951416 145.58853149 C121.81856922 127.51849347 109 97.2213272 109 73 C63.79 73 18.58 73 -28 73 Z M126 132 C125.34 137.28 124.68 142.56 124 148 C125.27117676 148.0093457 126.54235352 148.01869141 127.85205078 148.02832031 C132.58238362 148.0682865 137.31207062 148.13406414 142.04199219 148.20751953 C144.08650395 148.23569066 146.13112384 148.25692435 148.17578125 148.27099609 C151.12035322 148.29247887 154.06363041 148.3391569 157.0078125 148.390625 C157.9174173 148.39185364 158.82702209 148.39308228 159.76419067 148.39434814 C165.29046817 148.52099349 168.69480802 149.19165795 173 153 C174.88007842 156.02646463 175.25541124 158.3365567 175.2746582 161.87280273 C175.28419022 162.837379 175.29372223 163.80195526 175.30354309 164.79576111 C175.30263168 165.83124588 175.30172028 166.86673065 175.30078125 167.93359375 C175.30506638 169.00368179 175.3093515 170.07376984 175.31376648 171.17628479 C175.31950671 173.4382354 175.32001231 175.70020447 175.31567383 177.9621582 C175.31251502 181.42105636 175.33597366 184.87909828 175.36132812 188.33789062 C175.36360126 190.53645725 175.36430455 192.73502618 175.36328125 194.93359375 C175.372491 195.96705429 175.38170074 197.00051483 175.39118958 198.06529236 C175.33184968 207.28456266 175.33184968 207.28456266 172 211 C167.39444872 215.11087471 161.84024356 214.45027366 156.00390625 214.43359375 C154.93760483 214.4388356 153.87130341 214.44407745 152.77268982 214.44947815 C150.52091339 214.45589259 148.26910342 214.45456887 146.01733398 214.44604492 C142.57800425 214.43753835 139.14033749 214.46630073 135.70117188 214.49804688 C133.51041716 214.49965913 131.31965952 214.49908089 129.12890625 214.49609375 C128.10374405 214.50732773 127.07858185 214.51856171 126.02235413 214.53013611 C120.21518685 214.47364987 116.48284935 214.09452495 112 210 C110.25350686 207.12454069 109.7401711 204.94302912 109.68115234 201.59863281 C109.66128265 200.7380426 109.64141296 199.87745239 109.62094116 198.99078369 C109.60938995 198.07085632 109.59783875 197.15092896 109.5859375 196.203125 C109.56657135 195.25435486 109.5472052 194.30558472 109.5272522 193.32806396 C109.46754341 190.30213367 109.42110567 187.27616516 109.375 184.25 C109.33681223 182.19659813 109.29776003 180.14321214 109.2578125 178.08984375 C109.16184892 173.06002504 109.07778554 168.03013135 109 163 C104.38 163.66 99.76 164.32 95 165 C95 240.9 95 316.8 95 395 C138.0340625 395.2475 138.0340625 395.2475 181.9375 395.5 C195.48800415 395.60924805 195.48800415 395.60924805 209.31225586 395.72070312 C217.46300818 395.74747094 217.46300818 395.74747094 225.61378479 395.7635498 C229.22344406 395.77095517 232.83214673 395.80073723 236.44154358 395.84460449 C241.0654978 395.9000458 245.68808895 395.91582765 250.31234467 395.90457821 C251.99692266 395.90692551 253.68155516 395.92245492 255.36584461 395.95372105 C267.32733852 396.16520265 275.70384098 393.58328686 286.20256054 387.90040493 C288.71417835 386.64224124 291.31165972 385.79682848 294 385 C290.74060961 381.6418402 287.37797757 378.5774783 283.74609375 375.625 C282 374 282 374 280.37901306 371.43469238 C277.67241699 368.66475011 276.22108247 368.41508491 272.41749573 368.36997986 C271.68232224 368.38646072 270.94714874 368.40294159 270.18969727 368.41992188 C269.40710541 368.41746964 268.62451355 368.4150174 267.81820679 368.41249084 C266.12179504 368.41032066 264.42533864 368.41958962 262.72903633 368.4389801 C260.04266148 368.46901548 257.35788038 368.46802021 254.67137146 368.4588623 C248.00027743 368.44257011 241.32967387 368.4799669 234.65869141 368.51544189 C229.02070798 368.54338213 223.38340052 368.5510814 217.74537468 368.53187561 C215.10092333 368.53125806 212.45786598 368.56044082 209.81361389 368.59069824 C208.18897248 368.5886234 206.56433206 368.58515752 204.93969727 368.58007812 C203.83997337 368.60479942 203.83997337 368.60479942 202.71803284 368.63002014 C198.78345903 368.58355451 197.1344786 368.10754596 194.02061462 365.61730957 C192 363 192 363 191.73046875 360.54296875 C191.88128906 359.76566406 192.03210938 358.98835937 192.1875 358.1875 C192.32542969 357.39730469 192.46335937 356.60710937 192.60546875 355.79296875 C192.73566406 355.20128906 192.86585938 354.60960937 193 354 C196.51164205 352.82945265 199.33496784 352.83933774 203.04174805 352.79467773 C203.75419678 352.78477814 204.46664551 352.77487854 205.20068359 352.76467896 C207.55432824 352.733105 209.90799306 352.70832281 212.26171875 352.68359375 C213.89411441 352.66302067 215.52650479 352.64202411 217.15888977 352.62062073 C221.45455646 352.56543656 225.75027094 352.51601117 230.04602051 352.46777344 C234.42981212 352.41753173 238.81353438 352.3618596 243.19726562 352.30664062 C251.79811843 352.19910375 260.39902928 352.09764886 269 352 C268.01 348.04 267.02 344.08 266 340 C265.1296965 339.98969254 264.25939301 339.97938507 263.36271667 339.96876526 C255.16669156 339.87084609 246.97073948 339.76833955 238.77483654 339.66066074 C234.56109924 339.60546249 230.34735496 339.55204741 226.13354492 339.50268555 C222.06809236 339.45499634 218.00272411 339.40265184 213.93737221 339.34705925 C212.38523771 339.32665636 210.83308011 339.30793986 209.28090477 339.29092598 C207.10930395 339.26683622 204.93786213 339.23678801 202.76635742 339.20532227 C201.52947678 339.18977798 200.29259613 339.1742337 199.01823425 339.15821838 C196 339 196 339 193 338 C192.69443774 336.61135566 192.43199192 335.21318736 192.1875 333.8125 C192.03667969 333.03519531 191.88585937 332.25789062 191.73046875 331.45703125 C192.14806379 327.65025904 194.10139713 326.37462203 197 324 C200.22077942 323.36076355 200.22077942 323.36076355 203.90161133 323.34057617 C204.57533783 323.33009247 205.24906433 323.31960876 205.94320679 323.30880737 C208.15662187 323.28014521 210.36846451 323.28633742 212.58203125 323.29296875 C214.12190198 323.27984815 215.6617555 323.26454279 217.20158386 323.24714661 C221.24418227 323.20732516 225.28633017 323.1971081 229.32910156 323.19311523 C234.18514661 323.18213519 239.04095222 323.13428087 243.89681244 323.09262848 C251.26474357 323.03354617 258.63142457 323.02122397 266 323 C265.67 308.81 265.34 294.62 265 280 C258.325426 277.775142 251.84858093 275.90455879 245.0390625 274.2578125 C241.41971975 272.75983259 240.50095648 271.56749076 239 268 C239.1246026 264.88493511 239.30021739 262.87073094 241.27685547 260.41122437 C243.31066727 258.74556909 244.90871282 258.21819853 247.4453125 257.54541016 C248.34475586 257.30150543 249.24419922 257.05760071 250.17089844 256.80630493 C251.14575195 256.55311493 252.12060547 256.29992493 253.125 256.0390625 C254.14110352 255.76661713 255.15720703 255.49417175 256.20410156 255.21347046 C259.4669342 254.34106048 262.73331968 253.4828771 266 252.625 C268.1382682 252.05561565 270.27629196 251.48531248 272.4140625 250.9140625 C280.52428276 248.75151356 288.63929075 246.60807579 296.765625 244.50683594 C297.65282227 244.27644623 298.54001953 244.04605652 299.45410156 243.8086853 C301.11150633 243.37885753 302.7696763 242.95196617 304.42871094 242.5284729 C308.00627802 241.84090006 308.00627802 241.84090006 311 240 C311.0954693 238.59588683 311.12188529 237.18700191 311.12025452 235.77964783 C311.12162918 234.86954453 311.12300385 233.95944122 311.12442017 233.02175903 C311.12082489 232.01547455 311.11722961 231.00919006 311.11352539 229.97241211 C311.11374443 228.39211464 311.11374443 228.39211464 311.1139679 226.77989197 C311.11326826 223.279022 311.10547348 219.77820448 311.09765625 216.27734375 C311.09579225 213.85738657 311.09436826 211.43742901 311.09336853 209.01747131 C311.08954192 202.63384976 311.07971041 196.25025079 311.06866455 189.86663818 C311.05845351 183.35836086 311.05387157 176.8500799 311.04882812 170.34179688 C311.03808827 157.56118637 311.02049032 144.78059859 311 132 C298.46 132 285.92 132 273 132 C272.01 134.31 271.02 136.62 270 139 C267.46062435 140.26968783 265.68806957 140.13156498 262.84437561 140.14044189 C261.75212173 140.14615204 260.65986786 140.15186218 259.53451538 140.15774536 C258.33082306 140.15886322 257.12713074 140.15998108 255.88696289 140.16113281 C254.62352554 140.16609772 253.3600882 140.17106262 252.05836487 140.17617798 C248.58731872 140.18930829 245.11629192 140.19574795 241.64522481 140.20018864 C239.47794728 140.20311785 237.31067506 140.20722233 235.14340019 140.21169281 C228.36615176 140.22536831 221.58891543 140.23503517 214.81165415 140.2388947 C206.9812081 140.24337823 199.15093638 140.26093942 191.32054335 140.2898953 C185.2720949 140.31148763 179.22369558 140.32159764 173.17520899 140.32293582 C169.56058109 140.32398545 165.94611703 140.32992676 162.33152962 140.34775543 C158.30172204 140.36724552 154.27228104 140.362957 150.24243164 140.35644531 C149.04076355 140.3656601 147.83909546 140.37487488 146.60101318 140.3843689 C145.50593948 140.37879974 144.41086578 140.37323059 143.28260803 140.36749268 C142.32930634 140.36895924 141.37600466 140.3704258 140.39381504 140.3719368 C137.54995746 139.93007506 136.71448077 139.26703799 135 137 C133.8125 134.3125 133.8125 134.3125 133 132 C130.69 132 128.38 132 126 132 Z M398 279 C396.70454552 280.07029129 396.70454552 280.07029129 396.88647461 282.59204102 C396.89171143 283.71795654 396.89694824 284.84387207 396.90234375 286.00390625 C396.90556641 287.21884766 396.90878906 288.43378906 396.91210938 289.68554688 C396.92048828 290.96494141 396.92886719 292.24433594 396.9375 293.5625 C396.94201172 294.84576172 396.94652344 296.12902344 396.95117188 297.45117188 C396.96300455 300.63416022 396.97948932 303.81705762 397 307 C398.32 306.34 399.64 305.68 401 305 C401 296.42 401 287.84 401 279 C400.01 279 399.02 279 398 279 Z M282 284 C282 293.24 282 302.48 282 312 C298.77474603 315.59494957 298.77474603 315.59494957 315.625 318.8125 C316.91664063 319.04582031 318.20828125 319.27914062 319.5390625 319.51953125 C331.79649174 321.10765518 343.37019204 319.39149514 355.375 317.125 C356.8813183 316.85180317 358.38782867 316.57966321 359.89453125 316.30859375 C366.66884969 315.07419045 373.31048289 313.67237928 380 312 C380 302.76 380 293.52 380 284 C377.08414063 284.78246094 374.16828125 285.56492187 371.1640625 286.37109375 C368.31152429 287.13084489 365.45829171 287.88793329 362.60498047 288.64477539 C360.63549008 289.16869275 358.66672305 289.69533774 356.69873047 290.22485352 C353.85574151 290.98927604 351.01022089 291.74356938 348.1640625 292.49609375 C347.29697662 292.73154404 346.42989075 292.96699432 345.53652954 293.20957947 C335.21533524 295.91425177 327.29338063 296.36967984 316.9609375 293.47265625 C315.95406891 293.20488876 314.94720032 292.93712128 313.90982056 292.66123962 C310.72701177 291.81090593 307.55119652 290.93717121 304.375 290.0625 C302.20484769 289.47825314 300.03427772 288.89555531 297.86328125 288.31445312 C292.56951561 286.8969857 287.28587434 285.44798086 282 284 Z M326 396 C326.99 397.32 327.98 398.64 329 400 C331.43717258 399.72965366 331.43717258 399.72965366 334 399 C334.66 398.01 335.32 397.02 336 396 C332.7 396 329.4 396 326 396 Z M256 427 C241.50177437 441.76734558 232.67252973 459.8010865 229 480 C296.32 480 363.64 480 433 480 C429.01725474 460.08627369 421.37062479 443.4840025 407 429 C405.7934375 427.7315625 405.7934375 427.7315625 404.5625 426.4375 C403.716875 425.633125 402.87125 424.82875 402 424 C401.30648437 423.32324219 400.61296875 422.64648438 399.8984375 421.94921875 C390.18633314 412.44959077 390.18633314 412.44959077 378 408 C377.31224487 409.26275757 377.31224487 409.26275757 376.6105957 410.55102539 C374.89119853 413.70506086 373.16582327 416.85579354 371.4387207 420.00561523 C370.69525042 421.36345983 369.95335529 422.7221682 369.21313477 424.08178711 C358.71567638 443.35662136 358.71567638 443.35662136 354 445.125 C349.27596755 444.92816531 346.76209676 442.75857397 343.46484375 439.4765625 C342.63082031 438.53554688 341.79679687 437.59453125 340.9375 436.625 C340.10089844 435.68914062 339.26429688 434.75328125 338.40234375 433.7890625 C336.20479701 431.23776433 334.08269583 428.6454566 332 426 C328.88728604 427.35613376 327.05779275 428.79266832 324.90625 431.40625 C324.35066406 432.06753906 323.79507813 432.72882813 323.22265625 433.41015625 C322.65417969 434.09980469 322.08570313 434.78945313 321.5 435.5 C320.37087806 436.86979646 319.23565502 438.23459158 318.09375 439.59375 C317.59552734 440.19896484 317.09730469 440.80417969 316.58398438 441.42773438 C314.81962555 443.17903999 313.3092532 444.09303572 311 445 C307.45658278 444.92617881 305.67515411 444.70128911 303.18359375 442.11328125 C300.08570792 437.69643866 297.60146814 433.00462199 295.0625 428.25 C294.03286388 426.33837369 293.0029193 424.4269135 291.97265625 422.515625 C291.47781738 421.59458984 290.98297852 420.67355469 290.47314453 419.72460938 C288.34969456 415.79724747 286.18066746 411.89581955 284 408 C274.44322581 408 262.4983769 420.69223168 256 427 Z " fill="#6699FF" transform="translate(53,8)"/>
<path d="M0 0 C0.8781134 -0.00960754 1.75622681 -0.01921509 2.66094971 -0.02911377 C4.08126495 -0.03548859 4.08126495 -0.03548859 5.53027344 -0.04199219 C6.5082489 -0.04769226 7.48622437 -0.05339233 8.49383545 -0.05926514 C10.56505248 -0.06871408 12.63628453 -0.0752487 14.70751953 -0.07910156 C17.86355133 -0.0887871 21.01892629 -0.11980347 24.17480469 -0.15136719 C26.18912375 -0.15789951 28.20344745 -0.16314908 30.21777344 -0.16699219 C31.15655334 -0.17933899 32.09533325 -0.19168579 33.06256104 -0.20440674 C38.6886243 -0.18545091 42.76394075 0.243084 47.63964844 3.16113281 C52.61840385 8.29762297 52.22325253 13.72386181 52.17089844 20.47363281 C52.17663879 22.10425659 52.17663879 22.10425659 52.18249512 23.76782227 C52.18521084 26.06071908 52.17787355 28.35364706 52.16113281 30.64648438 C52.13971974 34.14946787 52.1609475 37.65040036 52.18652344 41.15332031 C52.1838801 43.38509566 52.17875501 45.61686973 52.17089844 47.84863281 C52.17899536 48.89253174 52.18709229 49.93643066 52.19543457 51.01196289 C52.12083938 56.81704184 51.87539148 60.79119483 47.63964844 65.16113281 C41.97717265 68.5348447 36.80425284 68.60191861 30.32324219 68.55957031 C28.86121117 68.56387558 28.86121117 68.56387558 27.36964417 68.56826782 C25.31811946 68.5703011 23.26657505 68.564823 21.21508789 68.55224609 C18.08337942 68.53616481 14.95295804 68.55212911 11.82128906 68.57128906 C9.82193727 68.56930684 7.82258628 68.5654636 5.82324219 68.55957031 C4.42615273 68.56867935 4.42615273 68.56867935 3.00083923 68.57797241 C-3.4038692 68.50898173 -7.69749317 67.46414547 -12.67285156 63.16113281 C-15.29122634 60.05787381 -15.48934996 57.40443007 -15.52148438 53.49365234 C-15.53589569 52.07670578 -15.53589569 52.07670578 -15.55059814 50.63113403 C-15.55484802 49.61236176 -15.5590979 48.59358948 -15.56347656 47.54394531 C-15.56917664 46.49463837 -15.57487671 45.44533142 -15.58074951 44.36422729 C-15.59019843 42.14338184 -15.59673306 39.92252237 -15.60058594 37.70166016 C-15.61029364 34.30639169 -15.64131941 30.911728 -15.67285156 27.51660156 C-15.67938152 25.35905307 -15.68463202 23.20150026 -15.68847656 21.04394531 C-15.70082336 20.0292215 -15.71317017 19.01449768 -15.72589111 17.96902466 C-15.69809488 9.16144309 -15.69809488 9.16144309 -12.36035156 5.16113281 C-8.33273036 1.53627373 -5.39658444 0.0477524 0 0 Z " fill="#6699FF" transform="translate(177.3603515625,319.8388671875)"/>
<path d="M0 0 C0.8781134 -0.00960754 1.75622681 -0.01921509 2.66094971 -0.02911377 C4.08126495 -0.03548859 4.08126495 -0.03548859 5.53027344 -0.04199219 C6.5082489 -0.04769226 7.48622437 -0.05339233 8.49383545 -0.05926514 C10.56505248 -0.06871408 12.63628453 -0.0752487 14.70751953 -0.07910156 C17.86355133 -0.0887871 21.01892629 -0.11980347 24.17480469 -0.15136719 C26.18912375 -0.15789951 28.20344745 -0.16314908 30.21777344 -0.16699219 C31.15655334 -0.17933899 32.09533325 -0.19168579 33.06256104 -0.20440674 C38.6886243 -0.18545091 42.76394075 0.243084 47.63964844 3.16113281 C52.61840385 8.29762297 52.22325253 13.72386181 52.17089844 20.47363281 C52.17663879 22.10425659 52.17663879 22.10425659 52.18249512 23.76782227 C52.18521084 26.06071908 52.17787355 28.35364706 52.16113281 30.64648438 C52.13971974 34.14946787 52.1609475 37.65040036 52.18652344 41.15332031 C52.1838801 43.38509566 52.17875501 45.61686973 52.17089844 47.84863281 C52.17899536 48.89253174 52.18709229 49.93643066 52.19543457 51.01196289 C52.12083938 56.81704184 51.87539148 60.79119483 47.63964844 65.16113281 C41.97717265 68.5348447 36.80425284 68.60191861 30.32324219 68.55957031 C28.86121117 68.56387558 28.86121117 68.56387558 27.36964417 68.56826782 C25.31811946 68.5703011 23.26657505 68.564823 21.21508789 68.55224609 C18.08337942 68.53616481 14.95295804 68.55212911 11.82128906 68.57128906 C9.82193727 68.56930684 7.82258628 68.5654636 5.82324219 68.55957031 C4.42615273 68.56867935 4.42615273 68.56867935 3.00083923 68.57797241 C-3.4038692 68.50898173 -7.69749317 67.46414547 -12.67285156 63.16113281 C-15.29122634 60.05787381 -15.48934996 57.40443007 -15.52148438 53.49365234 C-15.53589569 52.07670578 -15.53589569 52.07670578 -15.55059814 50.63113403 C-15.55484802 49.61236176 -15.5590979 48.59358948 -15.56347656 47.54394531 C-15.56917664 46.49463837 -15.57487671 45.44533142 -15.58074951 44.36422729 C-15.59019843 42.14338184 -15.59673306 39.92252237 -15.60058594 37.70166016 C-15.61029364 34.30639169 -15.64131941 30.911728 -15.67285156 27.51660156 C-15.67938152 25.35905307 -15.68463202 23.20150026 -15.68847656 21.04394531 C-15.70082336 20.0292215 -15.71317017 19.01449768 -15.72589111 17.96902466 C-15.69809488 9.16144309 -15.69809488 9.16144309 -12.36035156 5.16113281 C-8.33273036 1.53627373 -5.39658444 0.0477524 0 0 Z " fill="#6699FF" transform="translate(177.3603515625,238.8388671875)"/>
<path d="M0 0 C1.49080078 0.02707031 1.49080078 0.02707031 3.01171875 0.0546875 C3.77097656 0.07789063 4.53023437 0.10109375 5.3125 0.125 C5.663125 1.259375 6.01375 2.39375 6.375 3.5625 C7.13485573 5.49644761 7.13485573 5.49644761 8.3125 7.125 C11.65698288 8.62660448 11.65698288 8.62660448 15.3125 8.125 C18.51332983 5.62000274 20.0252358 3.9867926 21.3125 0.125 C30.5525 0.125 39.7925 0.125 49.3125 0.125 C50.3025 2.105 51.2925 4.085 52.3125 6.125 C55.56076674 8.29051116 56.54344157 8.67656953 60.3125 8.125 C63.64701743 5.53148644 64.26028307 4.33386774 65.3125 0.125 C74.8825 0.125 84.4525 0.125 94.3125 0.125 C95.3025 2.435 96.2925 4.745 97.3125 7.125 C100.65698288 8.62660448 100.65698288 8.62660448 104.3125 8.125 C107.51332983 5.62000274 109.0252358 3.9867926 110.3125 0.125 C119.24239844 -0.49922591 119.24239844 -0.49922591 123.3125 1.875 C130.72360701 10.21249539 127.3125 15.77899654 127.3125 29.125 C81.4425 29.125 35.5725 29.125 -11.6875 29.125 C-11.6875 7.125 -11.6875 7.125 -8.6875 2.125 C-5.26655758 -0.15562828 -4.00562778 -0.09425007 0 0 Z " fill="#99C7FF" transform="translate(35.6875,35.875)"/>
<path d="M0 0 C20.89385798 3.03523585 20.89385798 3.03523585 27.734375 4.5703125 C47.7124637 8.35926036 67.17354364 5.20580577 86.88183594 1.55126953 C90.58075306 0.89732693 94.26669517 0.40701444 98 0 C98.99261429 11.31580289 94.89804609 22.7736756 88.00390625 31.72265625 C81.29505379 39.34694667 74.55589505 44.48015108 65 48 C64.11054688 48.36351562 63.22109375 48.72703125 62.3046875 49.1015625 C51.68732114 51.98808054 38.31841265 51.45445221 28.50390625 46.484375 C27.26447266 45.74960937 27.26447266 45.74960937 26 45 C25.18402344 44.53078125 24.36804688 44.0615625 23.52734375 43.578125 C12.90306403 36.98007483 5.2093462 27.57071461 1.5234375 15.515625 C0.46033081 10.40636599 0.23322265 5.20327773 0 0 Z " fill="#9AC8FF" transform="translate(335,337)"/>
<path d="M0 0 C5.25535272 2.12235398 8.85002283 5.06378092 11.4375 10.125 C11.9720613 11.41104602 12.49318675 12.70276815 13 14 C14.29467542 17.1497183 14.29467542 17.1497183 17 19 C19.24974161 19.15495763 21.50371536 19.25010928 23.7578125 19.31640625 C24.42086395 19.33718735 25.08391541 19.35796844 25.76705933 19.37937927 C27.88626694 19.44479231 30.005599 19.50372105 32.125 19.5625 C33.56121081 19.60569309 34.99740902 19.64930764 36.43359375 19.69335938 C39.95560344 19.80125909 43.47770688 19.90039243 47 20 C47 28.58 47 37.16 47 46 C12.02 46 -22.96 46 -59 46 C-59 37.42 -59 28.84 -59 20 C-56.86917969 19.95101562 -54.73835937 19.90203125 -52.54296875 19.8515625 C-50.4777122 19.79754147 -48.41257098 19.74023854 -46.34741211 19.68261719 C-44.91292932 19.64435134 -43.47835135 19.60949419 -42.04370117 19.578125 C-39.98061122 19.53242138 -37.91817505 19.47443807 -35.85546875 19.4140625 C-33.99378052 19.36693115 -33.99378052 19.36693115 -32.09448242 19.31884766 C-28.83363899 19.22600791 -28.83363899 19.22600791 -26 17 C-24.95429477 14.98716292 -24.95429477 14.98716292 -24.125 12.6875 C-19.58226438 1.92657113 -11.1786396 -1.71651699 0 0 Z " fill="#99C8FF" transform="translate(262,87)"/>
<path d="M0 0 C1.98 0 3.96 0 6 0 C6.00146656 1.23836231 6.00293312 2.47672462 6.00444412 3.75261307 C6.04013077 33.13570036 6.09634965 62.51867377 6.17792095 91.90166582 C6.18793865 95.51663748 6.19778274 99.1316096 6.20751953 102.74658203 C6.2094609 103.46627095 6.21140228 104.18595987 6.21340248 104.92745754 C6.24444044 116.58713113 6.26140813 128.24678502 6.27319422 139.90649214 C6.2855965 151.86661898 6.31307693 163.82664232 6.35461307 175.78670382 C6.37751479 182.50612035 6.39339903 189.22540305 6.39188385 195.94486237 C6.39114103 202.2649862 6.40893936 208.58478231 6.44116783 214.9048214 C6.44971039 217.22843368 6.45138747 219.55208254 6.44580269 221.87570381 C6.43920687 225.04075343 6.45697782 228.20474677 6.48101807 231.36968994 C6.47325765 232.29575711 6.46549723 233.22182429 6.45750165 234.1759541 C6.50887832 237.97935737 6.56324019 240.30333562 8.61087036 243.56945801 C11.80634747 245.48281763 14.02321246 245.50766934 17.74505615 245.51898193 C18.76086191 245.53023381 18.76086191 245.53023381 19.797189 245.541713 C22.06529953 245.56200537 24.33241184 245.55388517 26.60058594 245.54589844 C28.22678111 245.55463268 29.85296768 245.56511794 31.47914124 245.57722473 C35.89412099 245.60512388 40.30882088 245.60848856 44.723876 245.60750484 C49.33773022 245.61063059 53.95145775 245.63624173 58.56524658 245.65948486 C67.30223081 245.70007436 76.03914034 245.72039249 84.77620435 245.73345876 C94.72297059 245.74931882 104.66960954 245.78773024 114.61630201 245.82805204 C135.07749271 245.91049134 155.53867748 245.96455826 176 246 C171.95476279 251.7772355 171.95476279 251.7772355 167.78783321 252.74946022 C165.95526643 252.748957 165.95526643 252.748957 164.0856781 252.7484436 C163.06057344 252.76036682 163.06057344 252.76036682 162.0147596 252.77253091 C159.73090993 252.79174004 157.44955044 252.76817345 155.16577148 252.74462891 C153.52621538 252.74948622 151.88666519 252.75692632 150.24713135 252.76675415 C145.79863697 252.785559 141.35102367 252.76673494 136.90259814 252.74008989 C132.24797612 252.7174529 127.59339722 252.72567641 122.93873596 252.72958374 C115.12315477 252.73134929 107.30792065 252.70919512 99.49243164 252.67236328 C90.45422349 252.6300133 81.41652351 252.62301142 72.37823623 252.6354872 C63.68515968 252.64687246 54.99226223 252.63558668 46.2992115 252.61314011 C42.59871168 252.60384682 38.89832136 252.60210092 35.19781303 252.6063118 C30.84166496 252.61007644 26.48603485 252.59388004 22.13000488 252.56219101 C20.5304332 252.5536993 18.93080899 252.55200833 17.33122444 252.55757141 C15.14935895 252.56400892 12.96904423 252.54587417 10.78733826 252.52139282 C8.95533701 252.51523421 8.95533701 252.51523421 7.08632565 252.50895119 C4 252 4 252 1.60585499 250.58591652 C-0.89323741 246.56161522 -0.53781701 242.75117885 -0.48101807 238.10394287 C-0.48443577 237.08780419 -0.48785347 236.0716655 -0.49137473 235.02473474 C-0.49797903 231.60963004 -0.47593471 228.19530609 -0.45410156 224.78027344 C-0.45297364 222.33636494 -0.45360586 219.89245508 -0.45587158 217.44854736 C-0.45678334 212.18175918 -0.44541624 206.91521542 -0.42292023 201.64849091 C-0.39041609 194.03372928 -0.37999486 186.4190635 -0.37496826 178.80424002 C-0.3662131 166.44984267 -0.33959157 154.09555094 -0.30175781 141.74121094 C-0.26504342 129.73991423 -0.23672888 117.73864621 -0.21972656 105.73730469 C-0.21867567 104.99758068 -0.21762477 104.25785667 -0.21654204 103.49571678 C-0.2113219 99.78474983 -0.20626706 96.07378267 -0.20129442 92.36281538 C-0.1598255 61.57513345 -0.08907383 30.78758276 0 0 Z " fill="#99C7FF" transform="translate(126,173)"/>
<path d="M0 0 C0.94025528 -0.00846954 1.88051056 -0.01693909 2.84925842 -0.02566528 C5.95758585 -0.04906652 9.06541927 -0.05005679 12.17382812 -0.04882812 C14.33329467 -0.05592708 16.49275932 -0.06362569 18.65222168 -0.07189941 C23.17819463 -0.0853509 27.70399311 -0.08690963 32.22998047 -0.08105469 C38.03435678 -0.07515376 43.83789804 -0.10576388 49.64211273 -0.14617157 C54.10134402 -0.17199844 58.5603728 -0.1749306 63.01966858 -0.17127991 C65.15993857 -0.17297542 67.30021749 -0.18265912 69.44041443 -0.20042419 C72.43090033 -0.22251775 75.41967705 -0.21296111 78.41015625 -0.1953125 C79.73969078 -0.21520737 79.73969078 -0.21520737 81.09608459 -0.23550415 C87.08345605 -0.15324897 87.08345605 -0.15324897 90.25476074 2.77087402 C92.0406283 6.03281425 92.31636294 7.75221301 91.70507812 11.41992188 C89.55417361 14.75753233 88.50095013 16.15463121 84.70507812 17.41992188 C81.79517784 17.52690983 78.90887865 17.57718913 75.99853516 17.58105469 C75.10880005 17.58601959 74.21906494 17.5909845 73.30236816 17.59609985 C70.35586782 17.61071773 67.40942129 17.61752258 64.46289062 17.62304688 C62.41649372 17.62879828 60.37009683 17.63455602 58.32369995 17.64031982 C54.03138986 17.6508285 49.73909849 17.65667216 45.44677734 17.66015625 C39.94648658 17.66564313 34.4464431 17.68967594 28.94622993 17.7181282 C24.71861039 17.73674981 20.4910505 17.74195992 16.2633934 17.74349213 C14.23560101 17.74651985 12.2078097 17.7545524 10.18005753 17.76767731 C7.34331677 17.78472898 4.50718135 17.78285975 1.67041016 17.77636719 C0.83283173 17.78558197 -0.0047467 17.79479675 -0.8677063 17.80429077 C-5.51467862 17.77096813 -8.49755091 17.39522996 -12.29492188 14.41992188 C-14.41266805 11.72460856 -14.2923906 10.34778055 -14.16992188 6.85742188 C-13.29492188 3.41992188 -13.29492188 3.41992188 -11.82116699 1.73132324 C-7.95966439 -0.27322483 -4.29090153 -0.01418722 0 0 Z " fill="#6698FF" transform="translate(258.294921875,166.580078125)"/>
<path d="M0 0 C0.88027359 -0.00511093 1.76054718 -0.01022186 2.66749573 -0.01548767 C5.57071777 -0.02936228 8.47370191 -0.02842873 11.37695312 -0.02612305 C13.39807218 -0.03001068 15.41919043 -0.03434549 17.44030762 -0.03910828 C21.67361095 -0.04656556 25.90683087 -0.04628241 30.14013672 -0.04101562 C35.56416597 -0.0352167 40.98785423 -0.05216468 46.41182709 -0.0753603 C50.58455398 -0.0900921 54.7571986 -0.09097017 58.9299469 -0.08785057 C60.92982154 -0.0883639 62.92970076 -0.09360375 64.92955017 -0.10366249 C67.72539453 -0.11600097 70.52057253 -0.10925111 73.31640625 -0.09765625 C74.55403465 -0.10912186 74.55403465 -0.10912186 75.81666565 -0.12081909 C80.4161934 -0.07866434 83.43274919 0.28293348 87.15820312 3.2746582 C89.49989076 6.78718966 89.6544399 8.13935176 89.15820312 12.2746582 C87.71569824 14.93151855 87.71569824 14.93151855 85.15820312 17.2746582 C82.0651748 18.01728713 79.03136818 17.93729915 75.86328125 17.88989258 C74.45289833 17.89821609 74.45289833 17.89821609 73.01402283 17.90670776 C69.90531487 17.91852066 66.79805918 17.89421172 63.68945312 17.8684082 C61.52998928 17.86669749 59.37052337 17.86676238 57.21105957 17.86853027 C52.68493792 17.86687609 48.15931101 17.8481595 43.63330078 17.81665039 C37.82907723 17.77697278 32.02550194 17.77260458 26.22116852 17.78011322 C21.76192273 17.78318147 17.30282293 17.77106748 12.84361267 17.75398254 C10.70337337 17.74694679 8.56311752 17.74382871 6.42286682 17.74467468 C3.43264819 17.74287874 0.44320902 17.72151388 -2.546875 17.69458008 C-3.43323135 17.69751068 -4.31958771 17.70044128 -5.23280334 17.70346069 C-8.7712944 17.65423703 -11.19371803 17.61260765 -14.36413574 15.95935059 C-16.75931218 13.22859222 -16.78052225 10.82858646 -16.84179688 7.2746582 C-15.60728051 4.18836729 -14.70783681 2.74428376 -11.77722168 1.15510559 C-7.80484378 -0.03636412 -4.12587008 -0.01238841 0 0 Z " fill="#6698FF" transform="translate(260.841796875,194.725341796875)"/>
<path d="M0 0 C9.66665148 2.86103557 19.38467103 5.3899751 29.17822266 7.77539062 C32.58062833 8.60727465 35.97764319 9.46025542 39.375 10.3125 C39.375 10.9725 39.375 11.6325 39.375 12.3125 C38.726521 12.47331055 38.07804199 12.63412109 37.40991211 12.79980469 C22.21395551 16.56291861 22.21395551 16.56291861 7.0625 20.5 C5.90878906 20.80679687 4.75507813 21.11359375 3.56640625 21.4296875 C1.48157296 22.00639781 -0.59487956 22.61457317 -2.66015625 23.2578125 C-3.59730469 23.54398437 -4.53445313 23.83015625 -5.5 24.125 C-6.28117187 24.37894531 -7.06234375 24.63289063 -7.8671875 24.89453125 C-15.92756393 26.11614637 -23.84283135 23.30924253 -31.5 21.0625 C-33.70407114 20.42974839 -35.90850303 19.79825214 -38.11328125 19.16796875 C-39.20334473 18.85520996 -40.2934082 18.54245117 -41.41650391 18.22021484 C-46.15804695 16.87878606 -50.91932522 15.61791098 -55.6875 14.375 C-56.49622559 14.16391602 -57.30495117 13.95283203 -58.13818359 13.73535156 C-59.96667302 13.25933818 -61.79575904 12.78561715 -63.625 12.3125 C-60.95039799 8.74301236 -57.38310687 8.33570721 -53.25 7.5 C-46.25405196 5.97581163 -39.37704173 4.18071352 -32.5 2.1875 C-31.62424316 1.93379639 -30.74848633 1.68009277 -29.84619141 1.41870117 C-29.00749512 1.17482666 -28.16879883 0.93095215 -27.3046875 0.6796875 C-26.50256836 0.44733398 -25.70044922 0.21498047 -24.87402344 -0.02441406 C-22.86991126 -0.61529212 -20.87554456 -1.23899848 -18.8828125 -1.8671875 C-11.94968578 -3.61293883 -6.64939259 -2.03010528 0 0 Z " fill="#99C7FF" transform="translate(396.625,262.6875)"/>
<path d="M0 0 C7.88359592 -0.10141744 15.76702362 -0.17147331 23.65112305 -0.21972656 C26.33327823 -0.23758325 29.0150546 -0.26541436 31.69702148 -0.30175781 C35.55203066 -0.35027542 39.40645998 -0.37296994 43.26171875 -0.390625 C44.46084396 -0.41127014 45.65996918 -0.43191528 46.89543152 -0.45318604 C48.5766082 -0.45363922 48.5766082 -0.45363922 50.29174805 -0.45410156 C51.27547897 -0.46298401 52.2592099 -0.47186646 53.27275085 -0.48101807 C57.12648692 0.19868392 58.51618536 0.9154106 61 4 C61.73604274 7.91111856 61.63043856 11.77663743 61.56762695 15.74511719 C61.56835709 16.94539047 61.56908722 18.14566376 61.56983948 19.38230896 C61.56695384 22.66958339 61.54188944 25.95579206 61.50696969 29.24285412 C61.4757019 32.67945405 61.47277516 36.11607518 61.46684265 39.55279541 C61.45130528 46.0587772 61.41027884 52.56433863 61.3600952 59.07013535 C61.30419794 66.47752469 61.27671437 73.88493415 61.25161803 81.2924819 C61.19936242 96.52856467 61.11142288 111.76422812 61 127 C59.02 127 57.04 127 55 127 C54.99853344 126.40585423 54.99706688 125.81170845 54.99555588 125.19955826 C54.95850775 110.744131 54.89951969 96.28891655 54.81609726 81.83368301 C54.77628403 74.84321964 54.74390326 67.85286922 54.72900391 60.86230469 C54.71461048 54.11889666 54.67952581 47.37588911 54.63169098 40.63262177 C54.61682734 38.0569945 54.60895615 35.48131729 54.60811615 32.90564728 C54.60575982 29.3042294 54.57878591 25.70378921 54.54589844 22.10253906 C54.5509288 21.0322345 54.55595917 19.96192993 54.56114197 18.85919189 C54.54347597 13.28838253 54.54347597 13.28838253 52.28112793 8.34020996 C49.61821314 6.7756923 48.03566425 6.48520873 44.95605469 6.45410156 C43.95531921 6.43438293 42.95458374 6.41466431 41.92352295 6.39434814 C40.85047913 6.39311951 39.7774353 6.39189087 38.671875 6.390625 C37.56773254 6.37408875 36.46359009 6.35755249 35.32598877 6.34051514 C31.80060311 6.29194374 28.27564911 6.2706431 24.75 6.25 C22.35935318 6.2218481 19.96872654 6.19192178 17.578125 6.16015625 C11.7188286 6.08618231 5.85965406 6.03459335 0 6 C0 4.02 0 2.04 0 0 Z " fill="#99C8FF" transform="translate(325,117)"/>
<path d="M0 0 C0.78295441 -0.00902847 1.56590881 -0.01805695 2.37258911 -0.02735901 C4.02846454 -0.04185964 5.68439724 -0.05074779 7.34033203 -0.05444336 C9.86719915 -0.06633279 12.39161761 -0.11550831 14.91796875 -0.16601562 C16.52863394 -0.17548117 18.1393141 -0.18271558 19.75 -0.1875 C20.50223846 -0.20703232 21.25447693 -0.22656464 22.0295105 -0.24668884 C25.99975904 -0.21273562 27.81575206 0.22166966 30.98486328 2.68725586 C33.0078125 5.37109375 33.0078125 5.37109375 33.6328125 8.87109375 C32.83290806 13.3505586 31.56446149 14.58182406 28.0078125 17.37109375 C25.14511481 17.85922525 22.89099805 18.05221938 20.0390625 18 C19.28113403 18.00241196 18.52320557 18.00482391 17.74230957 18.00730896 C16.14537302 18.00633271 14.54840171 17.99299184 12.95166016 17.96801758 C10.51477485 17.93369182 8.08151641 17.94736985 5.64453125 17.96679688 C4.08852632 17.95989799 2.53253069 17.9502252 0.9765625 17.9375 C0.25247192 17.94245987 -0.47161865 17.94741974 -1.21765137 17.95252991 C-4.78284787 17.87001193 -6.87531486 17.44332376 -9.93164062 15.55444336 C-12.74844916 12.56976105 -12.91990529 10.41889777 -12.9921875 6.37109375 C-10.90710907 -0.05789808 -5.90905439 0.0419001 0 0 Z " fill="#6599FF" transform="translate(256.9921875,278.62890625)"/>
<path d="M0 0 C2.25621524 -0.00218203 4.51193799 -0.02032894 6.76806641 -0.03930664 C8.20426265 -0.04224158 9.64046122 -0.0442257 11.07666016 -0.04516602 C12.3836084 -0.0492749 13.69055664 -0.05338379 15.03710938 -0.05761719 C18.15894916 0.16809351 19.83266082 0.46921007 22.39697266 2.18530273 C24.95964174 5.35813113 24.44490004 8.44589935 24.07666016 12.28295898 C23.09397537 15.03334686 21.92836554 15.7231483 19.39697266 17.18530273 C16.753591 17.48944599 14.35152176 17.62981265 11.70947266 17.61889648 C10.60019409 17.62675926 10.60019409 17.62675926 9.46850586 17.63478088 C7.90854139 17.6411902 6.34852853 17.63987815 4.78857422 17.63134766 C2.40456035 17.62282984 0.02293789 17.65162166 -2.36083984 17.68334961 C-3.87906829 17.68496164 -5.39730098 17.68438406 -6.91552734 17.68139648 C-7.62604248 17.69263046 -8.33655762 17.70386444 -9.06860352 17.71543884 C-12.44265185 17.66801992 -14.29139622 17.41937219 -17.02099609 15.36914062 C-19.27314267 12.26027471 -19.60302734 10.00300069 -19.60302734 6.18530273 C-14.72502675 -1.55221544 -8.24563104 -0.00089568 0 0 Z " fill="#6599FF" transform="translate(263.60302734375,249.814697265625)"/>
<path d="M0 0 C0.79792969 0.00386719 1.59585938 0.00773438 2.41796875 0.01171875 C3.21589844 0.00785156 4.01382813 0.00398437 4.8359375 0 C10.79136108 0.01011108 10.79136108 0.01011108 11.91796875 1.13671875 C12.01778089 3.81403255 12.0567675 6.4597605 12.04296875 9.13671875 C12.04876953 10.26207031 12.04876953 10.26207031 12.0546875 11.41015625 C12.04457928 17.01010822 12.04457928 17.01010822 10.91796875 18.13671875 C8.07461827 18.2365885 5.26099712 18.27549756 2.41796875 18.26171875 C1.62003906 18.26558594 0.82210937 18.26945312 0 18.2734375 C-5.95542358 18.26332642 -5.95542358 18.26332642 -7.08203125 17.13671875 C-7.18184339 14.45940495 -7.22083 11.813677 -7.20703125 9.13671875 C-7.21089844 8.38648438 -7.21476562 7.63625 -7.21875 6.86328125 C-7.20635911 -0.00127065 -6.83079658 0.01159728 0 0 Z " fill="#6699FF" transform="translate(135.08203125,130.86328125)"/>
<path d="M0 0 C0.79792969 0.00386719 1.59585938 0.00773437 2.41796875 0.01171875 C3.21589844 0.00785156 4.01382813 0.00398438 4.8359375 0 C10.79136108 0.01011108 10.79136108 0.01011108 11.91796875 1.13671875 C12.01778089 3.81403255 12.0567675 6.4597605 12.04296875 9.13671875 C12.04876953 10.26207031 12.04876953 10.26207031 12.0546875 11.41015625 C12.04457928 17.01010822 12.04457928 17.01010822 10.91796875 18.13671875 C8.07461827 18.2365885 5.26099712 18.27549756 2.41796875 18.26171875 C1.62003906 18.26558594 0.82210937 18.26945312 0 18.2734375 C-5.95542358 18.26332642 -5.95542358 18.26332642 -7.08203125 17.13671875 C-7.18184339 14.45940495 -7.22083 11.813677 -7.20703125 9.13671875 C-7.21089844 8.38648437 -7.21476562 7.63625 -7.21875 6.86328125 C-7.20635911 -0.00127065 -6.83079658 0.01159728 0 0 Z " fill="#6599FF" transform="translate(135.08203125,92.86328125)"/>
<path d="M0 0 C5.94 0 11.88 0 18 0 C18 5.94 18 11.88 18 18 C12.06 18 6.12 18 0 18 C0 12.06 0 6.12 0 0 Z " fill="#6599FF" transform="translate(84,131)"/>
<path d="M0 0 C5.94 0 11.88 0 18 0 C18 5.94 18 11.88 18 18 C12.06 18 6.12 18 0 18 C0 12.06 0 6.12 0 0 Z " fill="#6599FF" transform="translate(40,131)"/>
<path d="M0 0 C5.94 0 11.88 0 18 0 C18 5.94 18 11.88 18 18 C15.215625 18.020625 12.43125 18.04125 9.5625 18.0625 C8.68408447 18.071604 7.80566895 18.08070801 6.90063477 18.09008789 C4.93354026 18.09723091 2.96646379 18.05031893 1 18 C0 17 0 17 -0.09765625 13.18359375 C-0.09191138 11.60152953 -0.07889593 10.01948969 -0.0625 8.4375 C-0.041875 5.653125 -0.02125 2.86875 0 0 Z " fill="#6599FF" transform="translate(84,93)"/>
<path d="M0 0 C5.94 0 11.88 0 18 0 C18.020625 2.784375 18.04125 5.56875 18.0625 8.4375 C18.071604 9.31591553 18.08070801 10.19433105 18.09008789 11.09936523 C18.09723091 13.06645974 18.05031893 15.03353621 18 17 C17 18 17 18 13.18359375 18.09765625 C11.60152953 18.09191138 10.01948969 18.07889593 8.4375 18.0625 C4.2609375 18.0315625 4.2609375 18.0315625 0 18 C0 12.06 0 6.12 0 0 Z " fill="#6599FF" transform="translate(40,93)"/>
<path d="M0 0 C0.33 0 0.66 0 1 0 C1 6.6 1 13.2 1 20 C-10.55 20 -22.1 20 -34 20 C-34 15.38 -34 10.76 -34 6 C-27.31948882 11.63258786 -27.31948882 11.63258786 -24.5 14.875 C-22.08683893 17.28764001 -22.08683893 17.28764001 -18.5 17.625 C-11.73639337 16.4172131 -7.58249445 9.17899966 -3.3984375 4.02148438 C-2.28569875 2.66428029 -1.14531035 1.32983257 0 0 Z " fill="#96C4FF" transform="translate(212,187)"/>
<path d="M0 0 C0.33 0 0.66 0 1 0 C1 6.6 1 13.2 1 20 C-10.22 20 -21.44 20 -33 20 C-33 16.04 -33 12.08 -33 8 C-31.948125 8.9075 -30.89625 9.815 -29.8125 10.75 C-29.16925781 11.29269531 -28.52601563 11.83539063 -27.86328125 12.39453125 C-26.36115903 13.68881266 -24.91969224 15.05330007 -23.5 16.4375 C-21.01893671 18.24775361 -21.01893671 18.24775361 -17.6875 18.3125 C-10.12536764 15.62089357 -5.66590478 7.77550177 -1.12890625 1.43359375 C-0.75636719 0.96050781 -0.38382813 0.48742187 0 0 Z " fill="#99C7FF" transform="translate(212,351)"/>
<path d="M0 0 C0.33 0 0.66 0 1 0 C1 6.6 1 13.2 1 20 C-10.22 20 -21.44 20 -33 20 C-33 16.04 -33 12.08 -33 8 C-31.948125 8.9075 -30.89625 9.815 -29.8125 10.75 C-29.16925781 11.29269531 -28.52601563 11.83539063 -27.86328125 12.39453125 C-26.36115903 13.68881266 -24.91969224 15.05330007 -23.5 16.4375 C-21.01893671 18.24775361 -21.01893671 18.24775361 -17.6875 18.3125 C-10.12536764 15.62089357 -5.66590478 7.77550177 -1.12890625 1.43359375 C-0.75636719 0.96050781 -0.38382813 0.48742187 0 0 Z " fill="#99C7FF" transform="translate(212,270)"/>
<path d="M0 0 C11.55 0 23.1 0 35 0 C35 1.65 35 3.3 35 5 C34.01 4.34 33.02 3.68 32 3 C28.58461856 2.41630557 28.58461856 2.41630557 25 3 C22.20864421 5.12448478 22.20864421 5.12448478 20 8 C19.236875 8.928125 18.47375 9.85625 17.6875 10.8125 C17.130625 11.534375 16.57375 12.25625 16 13 C12.125 11.125 12.125 11.125 11 10 C5.12353969 9.53668563 5.12353969 9.53668563 0 12 C0 8.04 0 4.08 0 0 Z " fill="#99C7FF" transform="translate(178,172)"/>
<path d="M0 0 C11.22 0 22.44 0 34 0 C33.67 1.32 33.34 2.64 33 4 C32.01 3.34 31.02 2.68 30 2 C26.65621408 1.61516078 26.65621408 1.61516078 23 3 C20.02609136 5.76594301 17.49078574 8.7975612 15 12 C14.42378906 11.68417969 13.84757813 11.36835938 13.25390625 11.04296875 C8.99210341 9.07086934 4.49202674 8.50265775 0 10 C0 6.7 0 3.4 0 0 Z " fill="#9AC8FF" transform="translate(179,256)"/>
<path d="M0 0 C11.22 0 22.44 0 34 0 C33.67 1.32 33.34 2.64 33 4 C32.01 3.34 31.02 2.68 30 2 C26.65621408 1.61516078 26.65621408 1.61516078 23 3 C20.02609136 5.76594301 17.49078574 8.7975612 15 12 C13 11 11 10 9 9 C5.62177584 8.85624578 3.22609045 8.92463652 0 10 C0 6.7 0 3.4 0 0 Z " fill="#9AC8FF" transform="translate(179,337)"/>
<path d="M0 0 C1.2065625 0.0309375 1.2065625 0.0309375 2.4375 0.0625 C1.93594814 5.38748673 -0.90685727 9.41455395 -3.625 13.875 C-4.33366211 15.05739258 -4.33366211 15.05739258 -5.05664062 16.26367188 C-6.21881315 18.20062608 -7.38754417 20.13328295 -8.5625 22.0625 C-12.81759871 20.0417094 -14.66982846 17.75869142 -17.5625 14.0625 C-16.04116487 9.88122043 -12.99616416 7.8570721 -9.5 5.375 C-8.40462718 4.57986874 -7.30955948 3.78431693 -6.21484375 2.98828125 C-5.33957031 2.35277344 -4.46429688 1.71726562 -3.5625 1.0625 C-2.5625 0.0625 -2.5625 0.0625 0 0 Z " fill="#98C7FF" transform="translate(413.5625,407.9375)"/>
<path d="M0 0 C5.90642849 0.35438571 9.01525382 2.91724249 13.375 6.5625 C14.01566406 7.08263672 14.65632813 7.60277344 15.31640625 8.13867188 C16.88604815 9.41547013 18.44421446 10.70635367 20 12 C18.17495091 15.92300272 15.81729174 18.73787272 13 22 C9.46768907 20.82256302 9.25444362 20.21013992 7.51953125 17.0703125 C7.07802734 16.27496094 6.63652344 15.47960937 6.18164062 14.66015625 C5.50391602 13.40525391 5.50391602 13.40525391 4.8125 12.125 C4.34908203 11.29613281 3.88566406 10.46726562 3.40820312 9.61328125 C0 3.39920839 0 3.39920839 0 0 Z " fill="#99C7FF" transform="translate(352,408)"/>
<path d="M0 0 C2.375 1.625 2.375 1.625 4 4 C4.61195145 7.6717087 4.48706506 9.28813568 2.375 12.375 C-0.71186432 14.48706506 -2.3282913 14.61195145 -6 14 C-8.375 12.375 -8.375 12.375 -10 10 C-10.61195145 6.3282913 -10.48706506 4.71186432 -8.375 1.625 C-5.28813568 -0.48706506 -3.6717087 -0.61195145 0 0 Z " fill="#679AFF" transform="translate(259,94)"/>
<path d="M0 0 C11.55 0 23.1 0 35 0 C35 1.65 35 3.3 35 5 C34.01 4.34 33.02 3.68 32 3 C28.28040793 2.02186605 24.65853133 1.81581143 20.82421875 1.68359375 C19.66728516 1.64169922 18.51035156 1.59980469 17.31835938 1.55664062 C16.12017578 1.51732422 14.92199219 1.47800781 13.6875 1.4375 C12.46998047 1.39431641 11.25246094 1.35113281 9.99804688 1.30664062 C6.9988053 1.20078504 3.99948409 1.09870274 1 1 C1.33 4.3 1.66 7.6 2 11 C1.01 11.495 1.01 11.495 0 12 C0 8.04 0 4.08 0 0 Z " fill="#8CBBFF" transform="translate(178,172)"/>
<path d="M0 0 C2.97 0 5.94 0 9 0 C9 1.98 9 3.96 9 6 C6.03 6 3.06 6 0 6 C0 4.02 0 2.04 0 0 Z " fill="#97C5FF" transform="translate(178,117)"/>
<path d="M0 0 C0.99 0.33 1.98 0.66 3 1 C3 4.3 3 7.6 3 11 C1.68 11 0.36 11 -1 11 C-1.02688151 9.35425434 -1.04634123 7.70838587 -1.0625 6.0625 C-1.07410156 5.14597656 -1.08570313 4.22945313 -1.09765625 3.28515625 C-1 1 -1 1 0 0 Z " fill="#90BEFF" transform="translate(462,327)"/>
</svg>
