<svg width="19" height="18" viewBox="0 0 19 18" fill="none" xmlns="http://www.w3.org/2000/svg">
<path d="M9.5 12L12.5 9M12.5 9L9.5 6M12.5 9H1.5M1.5 4.248V4.2C1.5 3.08 1.5 2.52 1.718 2.092C1.91 1.715 2.215 1.41 2.592 1.218C3.02 1 3.58 1 4.7 1H14.3C15.42 1 15.98 1 16.407 1.218C16.784 1.41 17.09 1.715 17.282 2.092C17.5 2.519 17.5 3.079 17.5 4.197V13.804C17.5 14.922 17.5 15.481 17.282 15.908C17.09 16.2845 16.7837 16.5904 16.407 16.782C15.98 17 15.421 17 14.303 17H4.697C3.579 17 3.019 17 2.592 16.782C2.21569 16.5903 1.90974 16.2843 1.718 15.908C1.5 15.48 1.5 14.92 1.5 13.8V13.75" stroke="#4A5E6D" stroke-width="2" stroke-linecap="round" stroke-linejoin="round"/>
</svg>
