<svg width="26" height="26" viewBox="0 0 26 26" fill="none" xmlns="http://www.w3.org/2000/svg">
<rect width="26" height="26" rx="13" fill="#AEBCFF"/>
<path d="M19.3 19C17.9111 19 16.5389 18.6973 15.1833 18.092C13.8278 17.4867 12.5944 16.6282 11.4833 15.5167C10.3722 14.4051 9.514 13.1718 8.90867 11.8167C8.30333 10.4616 8.00044 9.08933 8 7.7C8 7.5 8.06667 7.33333 8.2 7.2C8.33333 7.06667 8.5 7 8.7 7H11.4C11.5556 7 11.6944 7.05289 11.8167 7.15867C11.9389 7.26444 12.0111 7.38933 12.0333 7.53333L12.4667 9.86667C12.4889 10.0444 12.4833 10.1944 12.45 10.3167C12.4167 10.4389 12.3556 10.5444 12.2667 10.6333L10.65 12.2667C10.8722 12.6778 11.136 13.0749 11.4413 13.458C11.7467 13.8411 12.0829 14.2107 12.45 14.5667C12.7944 14.9111 13.1556 15.2307 13.5333 15.5253C13.9111 15.82 14.3111 16.0893 14.7333 16.3333L16.3 14.7667C16.4 14.6667 16.5307 14.5918 16.692 14.542C16.8533 14.4922 17.0116 14.4782 17.1667 14.5L19.4667 14.9667C19.6222 15.0111 19.75 15.0918 19.85 15.2087C19.95 15.3256 20 15.456 20 15.6V18.3C20 18.5 19.9333 18.6667 19.8 18.8C19.6667 18.9333 19.5 19 19.3 19Z" fill="#0027E3"/>
</svg>
