<svg width="12" height="12" viewBox="0 0 12 12" fill="none" xmlns="http://www.w3.org/2000/svg">
<path d="M11.3 12C9.91111 12 8.53889 11.6973 7.18333 11.092C5.82778 10.4867 4.59444 9.62822 3.48333 8.51667C2.37222 7.40511 1.514 6.17178 0.908667 4.81667C0.303333 3.46156 0.000444444 2.08933 0 0.7C0 0.5 0.0666666 0.333333 0.2 0.2C0.333333 0.0666666 0.5 0 0.7 0H3.4C3.55556 0 3.69444 0.0528888 3.81667 0.158667C3.93889 0.264444 4.01111 0.389333 4.03333 0.533333L4.46667 2.86667C4.48889 3.04444 4.48333 3.19444 4.45 3.31667C4.41667 3.43889 4.35556 3.54444 4.26667 3.63333L2.65 5.26667C2.87222 5.67778 3.136 6.07489 3.44133 6.458C3.74667 6.84111 4.08289 7.21067 4.45 7.56667C4.79444 7.91111 5.15556 8.23067 5.53333 8.52533C5.91111 8.82 6.31111 9.08933 6.73333 9.33333L8.3 7.76667C8.4 7.66667 8.53067 7.59178 8.692 7.542C8.85333 7.49222 9.01156 7.47822 9.16667 7.5L11.4667 7.96667C11.6222 8.01111 11.75 8.09178 11.85 8.20867C11.95 8.32556 12 8.456 12 8.6V11.3C12 11.5 11.9333 11.6667 11.8 11.8C11.6667 11.9333 11.5 12 11.3 12Z" fill="#0027E3"/>
</svg>
