<svg width="28" height="28" viewBox="0 0 28 28" fill="none" xmlns="http://www.w3.org/2000/svg">
<path fill-rule="evenodd" clip-rule="evenodd" d="M18.6663 10.4997C18.6663 11.7374 18.1747 12.9243 17.2995 13.7995C16.4243 14.6747 15.2374 15.1663 13.9997 15.1663C12.762 15.1663 11.575 14.6747 10.6998 13.7995C9.82467 12.9243 9.33301 11.7374 9.33301 10.4997C9.33301 9.262 9.82467 8.07501 10.6998 7.19984C11.575 6.32467 12.762 5.83301 13.9997 5.83301C15.2374 5.83301 16.4243 6.32467 17.2995 7.19984C18.1747 8.07501 18.6663 9.262 18.6663 10.4997ZM16.333 10.4997C16.333 11.1185 16.0872 11.712 15.6496 12.1496C15.212 12.5872 14.6185 12.833 13.9997 12.833C13.3808 12.833 12.7873 12.5872 12.3498 12.1496C11.9122 11.712 11.6663 11.1185 11.6663 10.4997C11.6663 9.88084 11.9122 9.28734 12.3498 8.84976C12.7873 8.41217 13.3808 8.16634 13.9997 8.16634C14.6185 8.16634 15.212 8.41217 15.6496 8.84976C16.0872 9.28734 16.333 9.88084 16.333 10.4997Z" fill="#323F49"/>
<path fill-rule="evenodd" clip-rule="evenodd" d="M13.9998 1.1665C6.91234 1.1665 1.1665 6.91234 1.1665 13.9998C1.1665 21.0873 6.91234 26.8332 13.9998 26.8332C21.0873 26.8332 26.8332 21.0873 26.8332 13.9998C26.8332 6.91234 21.0873 1.1665 13.9998 1.1665ZM3.49984 13.9998C3.49984 16.4382 4.33167 18.6828 5.72584 20.4655C6.70518 19.18 7.96835 18.1382 9.41675 17.4214C10.8651 16.7045 12.4596 16.3321 14.0757 16.3332C15.6709 16.3313 17.2456 16.6938 18.6795 17.3929C20.1134 18.0921 21.3687 19.1095 22.3497 20.3675C23.3605 19.0417 24.0411 17.4943 24.3352 15.8532C24.6293 14.2121 24.5283 12.5246 24.0407 10.9303C23.5532 9.33601 22.6929 7.88073 21.5312 6.68488C20.3695 5.48903 18.9398 4.58701 17.3603 4.05343C15.7808 3.51985 14.0969 3.37007 12.448 3.61647C10.7991 3.86287 9.23259 4.49838 7.87807 5.4704C6.52354 6.44242 5.41995 7.72302 4.6586 9.20623C3.89726 10.6894 3.50005 12.3326 3.49984 13.9998ZM13.9998 24.4998C11.5894 24.5037 9.25167 23.6745 7.3825 22.1525C8.13478 21.0752 9.13623 20.1957 10.3016 19.5887C11.467 18.9817 12.7617 18.6654 14.0757 18.6665C15.3732 18.6654 16.6523 18.9739 17.8067 19.5664C18.961 20.1589 19.9573 21.0183 20.7128 22.0732C18.8292 23.6447 16.4529 24.5037 13.9998 24.4998Z" fill="#323F49"/>
</svg>
