<svg width="25" height="25" viewBox="0 0 25 25" fill="none" xmlns="http://www.w3.org/2000/svg">
<path d="M10.9163 4.78125C10.7589 4.78125 10.6078 4.84381 10.4965 4.95516C10.3851 5.06651 10.3226 5.21753 10.3226 5.375V5.96875H6.95801C6.80054 5.96875 6.64951 6.03131 6.53816 6.14266C6.42681 6.25401 6.36426 6.40503 6.36426 6.5625C6.36426 6.71997 6.42681 6.871 6.53816 6.98234C6.64951 7.09369 6.80054 7.15625 6.95801 7.15625H18.0413C18.1988 7.15625 18.3498 7.09369 18.4612 6.98234C18.5725 6.871 18.6351 6.71997 18.6351 6.5625C18.6351 6.40503 18.5725 6.25401 18.4612 6.14266C18.3498 6.03131 18.1988 5.96875 18.0413 5.96875H14.6768V5.375C14.6768 5.21753 14.6142 5.06651 14.5029 4.95516C14.3915 4.84381 14.2405 4.78125 14.083 4.78125H10.9163ZM10.9163 11.4313C11.0738 11.4313 11.2248 11.4938 11.3362 11.6052C11.4475 11.7165 11.5101 11.8675 11.5101 12.025V17.5667C11.5101 17.7241 11.4475 17.8752 11.3362 17.9865C11.2248 18.0979 11.0738 18.1604 10.9163 18.1604C10.7589 18.1604 10.6078 18.0979 10.4965 17.9865C10.3851 17.8752 10.3226 17.7241 10.3226 17.5667V12.025C10.3226 11.8675 10.3851 11.7165 10.4965 11.6052C10.6078 11.4938 10.7589 11.4313 10.9163 11.4313ZM14.6768 12.025C14.6768 11.8675 14.6142 11.7165 14.5029 11.6052C14.3915 11.4938 14.2405 11.4313 14.083 11.4313C13.9255 11.4313 13.7745 11.4938 13.6632 11.6052C13.5518 11.7165 13.4893 11.8675 13.4893 12.025V17.5667C13.4893 17.7241 13.5518 17.8752 13.6632 17.9865C13.7745 18.0979 13.9255 18.1604 14.083 18.1604C14.2405 18.1604 14.3915 18.0979 14.5029 17.9865C14.6142 17.8752 14.6768 17.7241 14.6768 17.5667V12.025Z" fill="#EB4B42"/>
<path fill-rule="evenodd" clip-rule="evenodd" d="M7.74284 9.26828C7.75902 9.123 7.82822 8.98879 7.93719 8.89136C8.04616 8.79393 8.18724 8.74012 8.33342 8.74023H16.6665C16.8127 8.74012 16.9538 8.79393 17.0627 8.89136C17.1717 8.98879 17.2409 9.123 17.2571 9.26828L17.4154 10.6949C17.7028 13.2797 17.7028 15.8882 17.4154 18.4738L17.3996 18.6139C17.3445 19.1128 17.1246 19.5791 16.7748 19.939C16.4249 20.2988 15.9651 20.5318 15.4679 20.601C13.4989 20.8771 11.501 20.8771 9.53201 20.601C9.03488 20.5318 8.57501 20.2988 8.22515 19.939C7.87529 19.5791 7.65543 19.1128 7.60034 18.6139L7.58451 18.4738C7.29735 15.8888 7.29735 13.2799 7.58451 10.6949L7.74284 9.26828ZM8.86463 9.92773L8.76488 10.8255C8.48739 13.3234 8.48739 15.8444 8.76488 18.3424L8.78071 18.4825C8.80651 18.7192 8.91065 18.9406 9.07659 19.1114C9.24253 19.2822 9.46077 19.3927 9.69667 19.4254C11.5571 19.6858 13.4436 19.6858 15.3033 19.4254C15.539 19.3928 15.7572 19.2824 15.9231 19.1117C16.089 18.941 16.1932 18.7199 16.2192 18.4833L16.235 18.3424C16.5121 15.8447 16.5121 13.3232 16.235 10.8255L16.1353 9.92773H8.86463Z" fill="#EB4B42"/>
</svg>
