<svg width="14" height="13" viewBox="0 0 14 13" fill="none" xmlns="http://www.w3.org/2000/svg">
<path d="M10.9997 0C11.7069 0 12.3852 0.280951 12.8853 0.781048C13.3854 1.28115 13.6663 1.95942 13.6663 2.66667V8C13.6663 8.70724 13.3854 9.38552 12.8853 9.88562C12.3852 10.3857 11.7069 10.6667 10.9997 10.6667H7.85034L4.67567 12.5713C4.58007 12.6287 4.4716 12.6612 4.36019 12.6658C4.24878 12.6704 4.138 12.647 4.03798 12.5977C3.93796 12.5484 3.8519 12.4749 3.78767 12.3837C3.72344 12.2926 3.6831 12.1868 3.67034 12.076L3.66634 12V10.6667H2.99967C2.31551 10.6667 1.65752 10.4037 1.1618 9.93218C0.666078 9.46066 0.370549 8.81664 0.336341 8.13333L0.333008 8V2.66667C0.333008 1.95942 0.613959 1.28115 1.11406 0.781048C1.61415 0.280951 2.29243 0 2.99967 0H10.9997ZM8.33301 6H4.33301C4.1562 6 3.98663 6.07024 3.8616 6.19526C3.73658 6.32029 3.66634 6.48986 3.66634 6.66667C3.66634 6.84348 3.73658 7.01305 3.8616 7.13807C3.98663 7.26309 4.1562 7.33333 4.33301 7.33333H8.33301C8.50982 7.33333 8.67939 7.26309 8.80441 7.13807C8.92944 7.01305 8.99967 6.84348 8.99967 6.66667C8.99967 6.48986 8.92944 6.32029 8.80441 6.19526C8.67939 6.07024 8.50982 6 8.33301 6ZM9.66634 3.33333H4.33301C4.1562 3.33333 3.98663 3.40357 3.8616 3.5286C3.73658 3.65362 3.66634 3.82319 3.66634 4C3.66634 4.17681 3.73658 4.34638 3.8616 4.4714C3.98663 4.59643 4.1562 4.66667 4.33301 4.66667H9.66634C9.84315 4.66667 10.0127 4.59643 10.1377 4.4714C10.2628 4.34638 10.333 4.17681 10.333 4C10.333 3.82319 10.2628 3.65362 10.1377 3.5286C10.0127 3.40357 9.84315 3.33333 9.66634 3.33333Z" fill="#0B7B69"/>
</svg>
