<svg width="40" height="40" viewBox="0 0 40 40" fill="none" xmlns="http://www.w3.org/2000/svg">
<path d="M1.9873 3.40625H38.0154V27.6312H1.9873V3.40625Z" fill="url(#paint0_linear_4222_24667)"/>
<path d="M37.2781 4.14375V26.8969H2.72187V4.14375H37.2781ZM38.75 2.67188H1.25V28.3687H38.75V2.67188Z" fill="url(#paint1_linear_4222_24667)"/>
<path d="M20.1783 0.896484C7.36272 0.896484 7.46585 12.7465 7.46585 12.934C7.46585 20.609 8.05335 31.4496 11.1252 35.7152C12.344 37.4059 14.6971 37.4996 14.6971 37.4996L20.0002 37.4934L25.3033 37.4996C25.3033 37.4996 27.6596 37.4059 28.8752 35.7152C31.9471 31.4496 32.5346 20.609 32.5346 12.934C32.5315 12.7465 32.994 0.896484 20.1783 0.896484Z" fill="#543930"/>
<path d="M20.1783 0.896484C7.36272 0.896484 7.46585 12.7465 7.46585 12.934C7.46585 20.609 8.05335 31.4496 11.1252 35.7152C12.344 37.4059 14.6971 37.4996 14.6971 37.4996L20.0002 37.4934L25.3033 37.4996C25.3033 37.4996 27.6596 37.4059 28.8752 35.7152C31.9471 31.4496 32.5346 20.609 32.5346 12.934C32.5315 12.7465 32.994 0.896484 20.1783 0.896484Z" fill="url(#paint2_radial_4222_24667)"/>
<path d="M35.7812 38.7313V37.7375C35.7812 32.9031 27.8625 30.375 20.0437 30.375H20C12.1438 30.3844 4.21875 32.6625 4.21875 37.7375V38.7313H35.7812Z" fill="url(#paint3_linear_4222_24667)"/>
<path d="M4.6875 38.7313V37.7375C4.6875 32.9875 12.3781 30.8531 20 30.8438H20.0406C24.0719 30.8438 27.9844 31.5281 30.7781 32.7188C32.8469 33.6031 35.3125 35.1906 35.3125 37.7344V38.7281H36.25V37.7344C36.25 32.5 28.0437 29.9062 20.0406 29.9062H20C12.0344 29.9156 3.75 32.1813 3.75 37.7375V38.7313H4.6875Z" fill="#3488C1"/>
<path d="M3.75 37.734V38.7277H13.9375C14.1812 31.9215 15.2437 29.9746 15.2437 29.9746C9.94687 31.1309 3.98438 32.4996 3.75 37.734Z" fill="url(#paint4_linear_4222_24667)"/>
<path d="M24.8779 29.9785C24.8779 29.9785 25.9373 31.9254 26.1842 38.7316H36.3717V37.7379C36.1373 32.5004 30.1748 31.1316 24.8779 29.9785Z" fill="url(#paint5_linear_4222_24667)"/>
<path d="M12.0158 38.7309C12.0252 37.1871 12.1971 33.9684 13.3033 30.3965L12.2471 30.6527C11.2408 34.1465 11.0783 37.2027 11.0752 38.7309H12.0158Z" fill="url(#paint6_linear_4222_24667)"/>
<path d="M28.9254 38.7309C28.9223 37.2027 28.7598 34.1465 27.7535 30.6527L26.6973 30.3965C27.8035 33.9684 27.9754 37.1871 27.9848 38.7309H28.9254Z" fill="url(#paint7_linear_4222_24667)"/>
<path d="M19.9996 28.8535H17.1621V31.9723C17.1621 33.3816 18.3184 34.5254 19.7434 34.5254H20.259C21.684 34.5254 22.8402 33.3816 22.8402 31.9723V28.8535H19.9996Z" fill="#E59600"/>
<path d="M16.8752 28.7129L19.9939 32.716L14.9221 34.791L14.1689 30.2473L16.8752 28.7129Z" fill="url(#paint8_linear_4222_24667)"/>
<path d="M23.1901 28.7129L20.0714 32.716L25.1433 34.791L25.8964 30.2473L23.1901 28.7129Z" fill="url(#paint9_linear_4222_24667)"/>
<path d="M31.559 38.7316L31.7965 37.9034L31.9934 37.2222L31.9746 37.2159L31.9777 37.2003L31.4934 37.0628L32.0059 35.2753C32.0371 35.1659 32.034 35.0566 32.0059 34.9566C32.0059 34.9534 32.0027 34.9472 32.0027 34.9441C32.0005 34.933 31.9963 34.9224 31.9902 34.9128C31.9371 34.7441 31.8152 34.6097 31.6496 34.5597L31.6027 34.5472H31.5996L30.4277 34.2097L19.5121 31.0691C19.4965 31.0659 19.484 31.0659 19.4715 31.0597C18.9835 30.9312 18.4646 30.999 18.026 31.2484C17.5873 31.4978 17.2638 31.909 17.1246 32.3941L16.6746 33.9659C16.6434 34.0722 16.609 34.1878 16.5715 34.3128L16.159 35.7534L15.3027 38.7316H31.559Z" fill="url(#paint10_linear_4222_24667)"/>
<path d="M31.9654 38.7317L33.0467 34.963C33.1373 34.6474 32.9561 34.3192 32.6404 34.2317L20.5498 30.763C20.0571 30.6221 19.5286 30.6825 19.0804 30.931C18.6322 31.1794 18.3009 31.5955 18.1592 32.088L16.2529 38.7349L31.9654 38.7317Z" fill="#424242"/>
<path d="M32.5121 38.7313L32.8371 37.5969C32.9465 37.2157 32.7184 36.8157 32.3309 36.7063L19.3559 32.9875C17.9402 32.5813 17.6934 33.7219 17.2965 35.1063L16.2559 38.7313H32.5121Z" fill="url(#paint11_linear_4222_24667)"/>
<path opacity="0.2" d="M20.1028 31.7408C20.159 31.7408 20.2215 31.7471 20.2872 31.7627L31.9278 35.1064L31.8309 35.4439C28.1465 34.4158 21.1153 32.4377 19.6622 31.9564C19.7372 31.8533 19.884 31.7408 20.1028 31.7408ZM20.1028 30.7002C18.6903 30.7002 17.984 32.4408 19.1278 32.8689C20.3872 33.3377 32.5434 36.7189 32.5434 36.7189L33.0372 34.9939C33.134 34.6627 32.9778 34.3252 32.6903 34.2439L20.5528 30.7564C20.3965 30.7189 20.2465 30.7002 20.1028 30.7002Z" fill="#424242"/>
<path d="M32.3031 35.0375L19.8656 31.4687C19.5281 31.3718 19.1594 31.6125 19.0469 32.0031L19.0281 32.0718C18.9156 32.4625 19.1 32.8625 19.4375 32.9593L31.875 36.5281C31.875 36.5281 31.7688 36.2687 31.8969 35.8093C32.025 35.3468 32.3031 35.0375 32.3031 35.0375Z" fill="url(#paint12_linear_4222_24667)"/>
<mask id="mask0_4222_24667" style="mask-type:luminance" maskUnits="userSpaceOnUse" x="16" y="32" width="18" height="7">
<path d="M33.0215 36.8839L19.1152 32.9277C18.0121 32.6152 17.8965 32.9964 17.6121 33.9996L16.2559 38.7433L32.4965 38.7371L33.0215 36.8839Z" fill="white"/>
</mask>
<g mask="url(#mask0_4222_24667)">
<path d="M17.4621 38.7313L19.884 30.2969L17.8746 29.7188L15.2871 38.7313H17.4621Z" fill="url(#paint13_linear_4222_24667)"/>
</g>
<path d="M20.0973 5.0127C14.7223 5.0127 9.74414 9.00957 9.74414 17.4846C9.74414 24.2908 13.9598 28.3189 17.6285 29.6189C18.5035 29.9283 19.3473 30.0846 20.0973 30.0846C20.841 30.0846 21.6816 29.9314 22.5504 29.6252C26.2254 28.3314 30.4504 24.3033 30.4504 17.4877C30.4504 9.00957 25.4723 5.0127 20.0973 5.0127Z" fill="#FFCA28"/>
<path d="M21.3653 21.2691C21.3309 21.2566 21.2997 21.2473 21.2653 21.2441H19.0809C19.0465 21.2473 19.0153 21.2566 18.9809 21.2691C18.784 21.3504 18.6747 21.5535 18.7684 21.7723C18.8622 21.991 19.2965 22.6035 20.1715 22.6035C21.0465 22.6035 21.4809 21.991 21.5778 21.7723C21.6715 21.5535 21.5622 21.3473 21.3653 21.2691Z" fill="#E59600"/>
<path d="M15.4096 19.9723C16.2501 19.9723 16.9314 19.2671 16.9314 18.3973C16.9314 17.5274 16.2501 16.8223 15.4096 16.8223C14.5691 16.8223 13.8877 17.5274 13.8877 18.3973C13.8877 19.2671 14.5691 19.9723 15.4096 19.9723Z" fill="#404040"/>
<path d="M24.9379 19.9723C25.7784 19.9723 26.4598 19.2671 26.4598 18.3973C26.4598 17.5274 25.7784 16.8223 24.9379 16.8223C24.0974 16.8223 23.416 17.5274 23.416 18.3973C23.416 19.2671 24.0974 19.9723 24.9379 19.9723Z" fill="#404040"/>
<path d="M17.3561 15.5686C17.0655 15.1842 16.3968 14.6279 15.0968 14.6279C13.7968 14.6279 13.1249 15.1873 12.8374 15.5686C12.7093 15.7373 12.7405 15.9342 12.8311 16.0529C12.9124 16.1623 13.1561 16.2654 13.4249 16.1748C13.6936 16.0842 14.2186 15.8123 15.0968 15.8061C15.9749 15.8123 16.4999 16.0842 16.7686 16.1748C17.0374 16.2654 17.2811 16.1654 17.3624 16.0529C17.453 15.9342 17.4843 15.7373 17.3561 15.5686ZM27.5124 15.5686C27.2218 15.1842 26.553 14.6279 25.253 14.6279C23.953 14.6279 23.2811 15.1873 22.9936 15.5686C22.8655 15.7373 22.8967 15.9342 22.9874 16.0529C23.0686 16.1623 23.3124 16.2654 23.5811 16.1748C23.8499 16.0842 24.3749 15.8123 25.253 15.8061C26.1311 15.8123 26.6561 16.0842 26.9249 16.1748C27.1936 16.2654 27.4374 16.1654 27.5186 16.0529C27.6061 15.9342 27.6374 15.7373 27.5124 15.5686Z" fill="#6D4C41"/>
<path d="M22.6936 23.7936C21.7092 24.3779 18.4842 24.3779 17.5029 23.7936C16.9373 23.4592 16.3623 23.9717 16.5967 24.4842C16.8279 24.9873 18.5873 26.1592 20.1061 26.1592C21.6248 26.1592 23.3623 24.9873 23.5936 24.4842C23.8279 23.9717 23.2592 23.4561 22.6936 23.7936Z" fill="#795548"/>
<path d="M29.3536 16.5409C29.3317 16.169 29.3161 16.1315 28.8255 15.9753C28.4411 15.8534 26.3411 15.6815 24.7598 15.769C24.6473 15.7753 24.538 15.7815 24.4348 15.7909C23.0005 15.9128 21.2786 16.4909 19.9848 16.5221C19.4348 16.5346 17.1692 15.9409 15.5661 15.8159C15.463 15.8096 15.3598 15.8003 15.2536 15.7971C13.6692 15.7159 11.5598 15.9003 11.1755 16.0253C10.6848 16.1846 10.6692 16.2221 10.6505 16.594C10.6286 16.9628 10.6911 17.2815 10.9817 17.3784C11.3786 17.5096 11.3817 18.0034 11.6473 19.4221C11.888 20.7159 12.4661 21.7378 14.9505 21.9159C15.0567 21.9221 15.1567 21.9284 15.2567 21.9284C17.4536 21.9596 18.2098 20.5128 18.4598 20.0315C18.9255 19.1378 18.7786 17.9065 20.0098 17.9034C21.238 17.9003 21.1223 19.1096 21.5942 20.0003C21.8473 20.4784 22.5848 21.9315 24.763 21.9003C24.8692 21.9003 24.9786 21.894 25.0911 21.8846C27.5723 21.6909 28.1473 20.6659 28.3786 19.3721C28.6348 17.9503 28.638 17.4534 29.0317 17.3221C29.3161 17.2284 29.3755 16.9128 29.3536 16.5409ZM16.6786 21.3034C16.2973 21.4815 15.788 21.5721 15.2505 21.5721C14.1286 21.569 12.8848 21.1753 12.4348 20.3815C11.7973 19.2503 11.6317 16.9628 12.4442 16.4846C12.8005 16.2753 14.0036 16.1315 15.2473 16.1846C16.538 16.2409 17.8723 16.5096 18.3536 17.1409C19.1536 18.1815 17.8848 20.7346 16.6786 21.3034ZM27.5848 20.3346C27.138 21.1346 25.8848 21.5378 24.7567 21.5409C24.2255 21.544 23.7223 21.4565 23.3473 21.2815C22.138 20.719 20.8567 18.1753 21.6442 17.1284C22.1223 16.4909 23.463 16.2159 24.7567 16.1534C25.9973 16.094 27.1973 16.2315 27.5505 16.4378C28.3692 16.9128 28.2161 19.2003 27.5848 20.3346Z" fill="#212121" stroke="#212121" stroke-width="0.06875" stroke-miterlimit="10"/>
<path d="M20.1783 0.896484C7.36272 0.896484 7.46585 12.7465 7.46585 12.934C7.46585 15.359 7.52522 18.0996 7.70022 20.8465L9.80022 20.8402C9.78147 19.9277 10.4221 14.2871 12.3252 13.859C19.3127 12.2871 23.2658 8.58086 23.2658 8.58086C24.294 10.8246 27.5096 13.0152 28.6627 13.8496C29.6096 14.534 30.094 19.6465 30.0752 20.8434H32.2908C32.2908 20.8277 32.2971 20.8121 32.2971 20.7934C32.4721 18.059 32.5283 15.3371 32.5283 12.9277C32.5315 12.7465 32.994 0.896484 20.1783 0.896484Z" fill="#543930"/>
<path d="M20.1783 0.896484C7.36272 0.896484 7.46585 12.7465 7.46585 12.934C7.46585 15.359 7.52522 18.0996 7.70022 20.8465L9.80022 20.8402C9.78147 19.9277 10.4221 14.2871 12.3252 13.859C19.3127 12.2871 23.2658 8.58086 23.2658 8.58086C24.294 10.8246 27.5096 13.0152 28.6627 13.8496C29.6096 14.534 30.094 19.6465 30.0752 20.8434H32.2908C32.2908 20.8277 32.2971 20.8121 32.2971 20.7934C32.4721 18.059 32.5283 15.3371 32.5283 12.9277C32.5315 12.7465 32.994 0.896484 20.1783 0.896484Z" fill="url(#paint14_radial_4222_24667)"/>
<defs>
<linearGradient id="paint0_linear_4222_24667" x1="19.9995" y1="3.56094" x2="19.9995" y2="27.6528" gradientUnits="userSpaceOnUse">
<stop stop-color="#26A69A"/>
<stop offset="1" stop-color="#00796B"/>
</linearGradient>
<linearGradient id="paint1_linear_4222_24667" x1="19.9997" y1="2.67031" x2="19.9997" y2="28.3675" gradientUnits="userSpaceOnUse">
<stop stop-color="#8D6E63"/>
<stop offset="0.779" stop-color="#795548"/>
</linearGradient>
<radialGradient id="paint2_radial_4222_24667" cx="0" cy="0" r="1" gradientUnits="userSpaceOnUse" gradientTransform="translate(20.0002 18.261) scale(14.8537 17.6774)">
<stop offset="0.794" stop-color="#6D4C41" stop-opacity="0"/>
<stop offset="1" stop-color="#6D4C41"/>
</radialGradient>
<linearGradient id="paint3_linear_4222_24667" x1="20" y1="34.2678" x2="20" y2="38.4844" gradientUnits="userSpaceOnUse">
<stop stop-color="#B3E5FC"/>
<stop offset="1" stop-color="#70AFE3"/>
</linearGradient>
<linearGradient id="paint4_linear_4222_24667" x1="9.49687" y1="29.9068" x2="9.49687" y2="38.4399" gradientUnits="userSpaceOnUse">
<stop stop-color="#651FFF"/>
<stop offset="0.705" stop-color="#5914F2"/>
<stop offset="1" stop-color="#530EEB"/>
</linearGradient>
<linearGradient id="paint5_linear_4222_24667" x1="30.6248" y1="30.3148" x2="30.6248" y2="38.4276" gradientUnits="userSpaceOnUse">
<stop stop-color="#651FFF"/>
<stop offset="0.705" stop-color="#5914F2"/>
<stop offset="1" stop-color="#530EEB"/>
</linearGradient>
<linearGradient id="paint6_linear_4222_24667" x1="12.188" y1="30.9371" x2="12.188" y2="38.3052" gradientUnits="userSpaceOnUse">
<stop stop-color="#D1C4E9" stop-opacity="0.2"/>
<stop offset="0.785" stop-color="#D1C4E9" stop-opacity="0.6"/>
</linearGradient>
<linearGradient id="paint7_linear_4222_24667" x1="27.8126" y1="30.5505" x2="27.8126" y2="38.2459" gradientUnits="userSpaceOnUse">
<stop stop-color="#D1C4E9" stop-opacity="0.2"/>
<stop offset="0.785" stop-color="#D1C4E9" stop-opacity="0.6"/>
</linearGradient>
<linearGradient id="paint8_linear_4222_24667" x1="16.9811" y1="34.727" x2="17.2427" y2="28.3898" gradientUnits="userSpaceOnUse">
<stop stop-color="#E1F5FE"/>
<stop offset="1" stop-color="#81D4FA"/>
</linearGradient>
<linearGradient id="paint9_linear_4222_24667" x1="22.8026" y1="34.9673" x2="23.0642" y2="28.6301" gradientUnits="userSpaceOnUse">
<stop stop-color="#E1F5FE"/>
<stop offset="1" stop-color="#81D4FA"/>
</linearGradient>
<linearGradient id="paint10_linear_4222_24667" x1="24.734" y1="33.4013" x2="22.7549" y2="41.7347" gradientUnits="userSpaceOnUse">
<stop offset="0.002" stop-color="#212121" stop-opacity="0.2"/>
<stop offset="1" stop-color="#212121" stop-opacity="0.6"/>
</linearGradient>
<linearGradient id="paint11_linear_4222_24667" x1="25.5896" y1="34.6066" x2="23.9749" y2="40.0232" gradientUnits="userSpaceOnUse">
<stop stop-color="#EF5350"/>
<stop offset="1" stop-color="#E53935"/>
</linearGradient>
<linearGradient id="paint12_linear_4222_24667" x1="19.0387" y1="32.0367" x2="32.0883" y2="35.7815" gradientUnits="userSpaceOnUse">
<stop offset="0.01" stop-color="#BDBDBD"/>
<stop offset="0.987" stop-color="#F5F5F5"/>
</linearGradient>
<linearGradient id="paint13_linear_4222_24667" x1="16.423" y1="38.1394" x2="17.7902" y2="33.8425" gradientUnits="userSpaceOnUse">
<stop stop-color="#212121"/>
<stop offset="1" stop-color="#424242"/>
</linearGradient>
<radialGradient id="paint14_radial_4222_24667" cx="0" cy="0" r="1" gradientUnits="userSpaceOnUse" gradientTransform="translate(20.1043 19.5202) scale(15.5587 18.8805)">
<stop offset="0.794" stop-color="#6D4C41" stop-opacity="0"/>
<stop offset="1" stop-color="#6D4C41"/>
</radialGradient>
</defs>
</svg>
