<svg width="25" height="22" viewBox="0 0 25 22" fill="none" xmlns="http://www.w3.org/2000/svg">
<path d="M14.167 0.5C11.3822 0.5 8.7115 1.60625 6.74237 3.57538C4.77324 5.54451 3.66699 8.21523 3.66699 11H0.166992L4.70533 15.5383L4.78699 15.7017L9.50033 11H6.00033C6.00033 6.485 9.65199 2.83333 14.167 2.83333C18.682 2.83333 22.3337 6.485 22.3337 11C22.3337 15.515 18.682 19.1667 14.167 19.1667C11.9153 19.1667 9.87366 18.245 8.40366 16.7633L6.74699 18.42C7.71915 19.3979 8.87538 20.1735 10.1489 20.7022C11.4225 21.2308 12.7881 21.502 14.167 21.5C16.9518 21.5 19.6225 20.3938 21.5916 18.4246C23.5607 16.4555 24.667 13.7848 24.667 11C24.667 8.21523 23.5607 5.54451 21.5916 3.57538C19.6225 1.60625 16.9518 0.5 14.167 0.5ZM13.0003 6.33333V12.1667L17.9937 15.13L18.8337 13.7183L14.7503 11.2917V6.33333H13.0003Z" fill="#4E4E4E"/>
</svg>
