<svg width="17" height="15" viewBox="0 0 17 15" fill="none" xmlns="http://www.w3.org/2000/svg">
<path d="M8.5 13.75C11.3995 13.75 13.75 11.3995 13.75 8.5C13.75 5.60051 11.3995 3.25 8.5 3.25C5.60051 3.25 3.25 5.60051 3.25 8.5C3.25 11.3995 5.60051 13.75 8.5 13.75Z" stroke="#CC7914" stroke-width="2"/>
<path d="M3.97331 1.85156C3.46452 1.98783 3.00056 2.25566 2.62811 2.62811C2.25566 3.00056 1.98783 3.46452 1.85156 3.97331M13.0258 1.85156C13.5346 1.98783 13.9986 2.25566 14.371 2.62811C14.7435 3.00056 15.0113 3.46452 15.1476 3.97331M8.49956 5.49956V8.31206C8.49956 8.41556 8.58356 8.49956 8.68706 8.49956H10.7496" stroke="#CC7914" stroke-width="2" stroke-linecap="round"/>
</svg>
