<svg width="24" height="24" viewBox="0 0 24 24" fill="none" xmlns="http://www.w3.org/2000/svg">
<path d="M7.54545 10.1885H18.4545C18.5992 10.1885 18.7379 10.2938 18.8402 10.4814C18.9425 10.6689 19 10.9233 19 11.1885C19 11.4537 18.9425 11.708 18.8402 11.8956C18.7379 12.0831 18.5992 12.1885 18.4545 12.1885H7.54545C7.40079 12.1885 7.26205 12.0831 7.15976 11.8956C7.05747 11.708 7 11.4537 7 11.1885C7 10.9233 7.05747 10.6689 7.15976 10.4814C7.26205 10.2938 7.40079 10.1885 7.54545 10.1885Z" fill="#2E2E2E"/>
<path d="M11.8327 7.52144L7.74555 12.4621C7.69135 12.5276 7.55819 12.5232 7.37536 12.45C7.19254 12.3768 6.97503 12.2407 6.77067 12.0717C6.56632 11.9026 6.39186 11.7145 6.28569 11.5486C6.17952 11.3827 6.15032 11.2527 6.20452 11.1872L10.2917 6.2466C10.3459 6.18109 10.4791 6.18541 10.6619 6.25862C10.8447 6.33183 11.0622 6.46794 11.2666 6.63699C11.4709 6.80605 11.6454 6.9942 11.7516 7.16007C11.8577 7.32594 11.8869 7.45593 11.8327 7.52144Z" fill="#2E2E2E"/>
<path d="M12.091 15.6883L7.75772 10.4503C7.70025 10.3808 7.56397 10.3814 7.37883 10.4518C7.1937 10.5222 6.97489 10.6567 6.77054 10.8258C6.56619 10.9948 6.39303 11.1846 6.28916 11.3532C6.18529 11.5219 6.15922 11.6557 6.21669 11.7251L10.5499 16.9631C10.6074 17.0326 10.7437 17.0321 10.9288 16.9616C11.1139 16.8912 11.3327 16.7567 11.5371 16.5876C11.7415 16.4186 11.9146 16.2288 12.0185 16.0602C12.1223 15.8915 12.1484 15.7578 12.091 15.6883Z" fill="#2E2E2E"/>
</svg>
