<svg width="50" height="50" viewBox="0 0 50 50" fill="none" xmlns="http://www.w3.org/2000/svg">
<path d="M24.934 43.784C35.3027 43.784 43.7083 35.3784 43.7083 25.0097C43.7083 14.6409 35.3027 6.23535 24.934 6.23535C14.5652 6.23535 6.15967 14.6409 6.15967 25.0097C6.15967 35.3784 14.5652 43.784 24.934 43.784Z" fill="#FCEA2B"/>
<path d="M25.0041 40.2138C33.3923 40.2138 40.1923 33.4138 40.1923 25.0256C40.1923 16.6374 33.3923 9.8374 25.0041 9.8374C16.6159 9.8374 9.81592 16.6374 9.81592 25.0256C9.81592 33.4138 16.6159 40.2138 25.0041 40.2138Z" fill="white"/>
<path d="M38.2708 17.6248C40.0615 20.8352 40.6266 24.5863 39.8611 28.1818C39.0957 31.7773 37.0518 34.973 34.1087 37.1757C31.1657 39.3785 27.5234 40.4386 23.8579 40.1593C20.1925 39.8801 16.7528 38.2804 14.1774 35.6573C11.602 33.0342 10.0658 29.5657 9.85388 25.8958C9.64197 22.2258 10.7688 18.6036 13.0252 15.7015C15.2815 12.7993 18.5142 10.8144 22.1232 10.1151C25.7321 9.41587 29.4722 10.0497 32.6492 11.8991" stroke="black" stroke-width="0.5" stroke-linecap="round" stroke-linejoin="round"/>
<path d="M43.7084 24.998C43.7079 29.4649 42.1154 33.7853 39.2168 37.1839C36.3181 40.5825 32.3031 42.8368 27.8923 43.5421C23.4814 44.2475 18.9636 43.3577 15.1497 41.0325C11.3357 38.7073 8.47531 35.099 7.08184 30.855C5.68836 26.6111 5.85305 22.0095 7.54634 17.876C9.23963 13.7425 12.3507 10.3479 16.3211 8.30127C20.2915 6.25467 24.8614 5.69014 29.2105 6.70899C33.5596 7.72784 37.4032 10.2634 40.0515 13.8605" stroke="black" stroke-width="0.5" stroke-linecap="round" stroke-linejoin="round"/>
<path d="M32.9123 14.9845L40.5776 14.1789L39.7721 6.51367M34.7047 25.2456H24.9242V12.8609M24.9242 37.438V34.7678M14.6825 25.2456H12.5596" stroke="black" stroke-width="0.5" stroke-linecap="round" stroke-linejoin="round"/>
<path d="M24.9242 27.8412C26.3575 27.8412 27.5194 26.6793 27.5194 25.246C27.5194 23.8128 26.3575 22.6509 24.9242 22.6509C23.491 22.6509 22.3291 23.8128 22.3291 25.246C22.3291 26.6793 23.491 27.8412 24.9242 27.8412Z" fill="black"/>
<path d="M33.8154 34.3173C34.383 34.3173 34.8432 33.8571 34.8432 33.2895C34.8432 32.7219 34.383 32.2617 33.8154 32.2617C33.2477 32.2617 32.7876 32.7219 32.7876 33.2895C32.7876 33.8571 33.2477 34.3173 33.8154 34.3173Z" fill="black"/>
<path d="M16.0327 18.1923C16.6003 18.1923 17.0604 17.7321 17.0604 17.1645C17.0604 16.5969 16.6003 16.1367 16.0327 16.1367C15.465 16.1367 15.0049 16.5969 15.0049 17.1645C15.0049 17.7321 15.465 18.1923 16.0327 18.1923Z" fill="black"/>
<path d="M16.0327 34.3173C16.6003 34.3173 17.0604 33.8571 17.0604 33.2895C17.0604 32.7219 16.6003 32.2617 16.0327 32.2617C15.465 32.2617 15.0049 32.7219 15.0049 33.2895C15.0049 33.8571 15.465 34.3173 16.0327 34.3173Z" fill="black"/>
</svg>
