<svg width="24" height="24" viewBox="0 0 24 24" fill="none" xmlns="http://www.w3.org/2000/svg">
<path d="M7.04545 10.1885H17.9545C18.0992 10.1885 18.2379 10.2938 18.3402 10.4814C18.4425 10.6689 18.5 10.9233 18.5 11.1885C18.5 11.4537 18.4425 11.708 18.3402 11.8956C18.2379 12.0831 18.0992 12.1885 17.9545 12.1885H7.04545C6.90079 12.1885 6.76205 12.0831 6.65976 11.8956C6.55747 11.708 6.5 11.4537 6.5 11.1885C6.5 10.9233 6.55747 10.6689 6.65976 10.4814C6.76205 10.2938 6.90079 10.1885 7.04545 10.1885Z" fill="#2E2E2E"/>
<path d="M11.3327 7.52193L7.24555 12.4625C7.19135 12.5281 7.05819 12.5237 6.87536 12.4505C6.69254 12.3773 6.47503 12.2412 6.27067 12.0722C6.06632 11.9031 5.89186 11.7149 5.78569 11.5491C5.67952 11.3832 5.65032 11.2532 5.70452 11.1877L9.79172 6.24709C9.84592 6.18157 9.97908 6.1859 10.1619 6.25911C10.3447 6.33232 10.5622 6.46843 10.7666 6.63748C10.9709 6.80654 11.1454 6.99469 11.2516 7.16056C11.3577 7.32643 11.3869 7.45642 11.3327 7.52193Z" fill="#2E2E2E"/>
<path d="M11.591 15.6883L7.25772 10.4503C7.20025 10.3808 7.06397 10.3814 6.87883 10.4518C6.6937 10.5222 6.47489 10.6567 6.27054 10.8258C6.06619 10.9948 5.89303 11.1846 5.78916 11.3532C5.68529 11.5219 5.65922 11.6557 5.71669 11.7251L10.0499 16.9631C10.1074 17.0326 10.2437 17.0321 10.4288 16.9616C10.6139 16.8912 10.8327 16.7567 11.0371 16.5876C11.2415 16.4186 11.4146 16.2288 11.5185 16.0602C11.6223 15.8915 11.6484 15.7578 11.591 15.6883Z" fill="#2E2E2E"/>
</svg>
