<svg width="43" height="43" viewBox="0 0 43 43" fill="none" xmlns="http://www.w3.org/2000/svg">
<path d="M37.6252 28.6667V18.0958L23.2023 25.9344C22.6648 26.233 22.0974 26.3823 21.5002 26.3823C20.903 26.3823 20.3356 26.233 19.7981 25.9344L4.65854 17.6927C4.33007 17.5135 4.09835 17.2896 3.96338 17.0208C3.82841 16.7521 3.76152 16.4535 3.76271 16.125C3.76391 15.7965 3.83139 15.4979 3.96517 15.2292C4.09895 14.9604 4.33007 14.7365 4.65854 14.5573L19.7981 6.31562C20.0669 6.16631 20.3434 6.05404 20.6277 5.97879C20.9119 5.90354 21.2028 5.86651 21.5002 5.8677C21.7976 5.8689 22.0891 5.90652 22.3745 5.98058C22.66 6.05463 22.9359 6.16631 23.2023 6.31562L40.2679 15.6323C40.5665 15.7816 40.7983 15.9984 40.9631 16.2827C41.1279 16.5669 41.2097 16.8727 41.2085 17.2V28.6667C41.2085 29.1743 41.0365 29.6001 40.6925 29.9441C40.3485 30.2881 39.9233 30.4595 39.4169 30.4583C38.9104 30.4571 38.4852 30.2851 38.1412 29.9423C37.7972 29.5995 37.6252 29.1743 37.6252 28.6667ZM19.7981 36.6844L10.8398 31.8469C10.2426 31.5184 9.77973 31.0705 9.45125 30.5031C9.12278 29.9358 8.95854 29.3236 8.95854 28.6667V21.8583L19.7981 27.726C20.3356 28.0246 20.903 28.174 21.5002 28.174C22.0974 28.174 22.6648 28.0246 23.2023 27.726L34.0419 21.8583V28.6667C34.0419 29.3236 33.8776 29.9358 33.5492 30.5031C33.2207 31.0705 32.7579 31.5184 32.1606 31.8469L23.2023 36.6844C22.9335 36.8337 22.6576 36.946 22.3745 37.0212C22.0915 37.0965 21.8 37.1335 21.5002 37.1323C21.2004 37.1311 20.909 37.0941 20.6259 37.0212C20.3428 36.9483 20.0669 36.8361 19.7981 36.6844Z" fill="#0FBEB3"/>
</svg>
