<svg width="13" height="13" viewBox="0 0 13 13" fill="none" xmlns="http://www.w3.org/2000/svg">
<path d="M10.8063 11.375C9.67778 11.375 8.56285 11.1291 7.46146 10.6373C6.36007 10.1454 5.35799 9.44793 4.45521 8.54479C3.55243 7.64165 2.85512 6.63957 2.36329 5.53854C1.87146 4.43751 1.62536 3.32258 1.625 2.19375C1.625 2.03125 1.67917 1.89583 1.7875 1.7875C1.89583 1.67917 2.03125 1.625 2.19375 1.625H4.3875C4.51389 1.625 4.62674 1.66797 4.72604 1.75392C4.82535 1.83986 4.88403 1.94133 4.90208 2.05833L5.25417 3.95417C5.27222 4.09861 5.26771 4.22049 5.24063 4.31979C5.21354 4.4191 5.16389 4.50486 5.09167 4.57708L3.77813 5.90417C3.95868 6.23819 4.173 6.56085 4.42108 6.87213C4.66917 7.1834 4.94235 7.48367 5.24063 7.77292C5.52049 8.05278 5.81389 8.31242 6.12083 8.55183C6.42778 8.79125 6.75278 9.01008 7.09583 9.20833L8.36875 7.93542C8.45 7.85417 8.55617 7.79332 8.68725 7.75287C8.81833 7.71243 8.94689 7.70106 9.07292 7.71875L10.9417 8.09792C11.0681 8.13403 11.1719 8.19957 11.2531 8.29454C11.3344 8.38951 11.375 8.4955 11.375 8.6125V10.8063C11.375 10.9688 11.3208 11.1042 11.2125 11.2125C11.1042 11.3208 10.9688 11.375 10.8063 11.375Z" fill="#5A81FF"/>
</svg>
