<svg width="43" height="43" viewBox="0 0 43 43" fill="none" xmlns="http://www.w3.org/2000/svg">
<path fill-rule="evenodd" clip-rule="evenodd" d="M34.9375 11.6458C34.2247 11.6458 33.5412 11.929 33.0372 12.433C32.5331 12.937 32.25 13.6206 32.25 14.3333V16.125H37.625V14.3333C37.625 13.6206 37.3419 12.937 36.8378 12.433C36.3338 11.929 35.6503 11.6458 34.9375 11.6458ZM37.625 17.9167H32.25V32.6979L34.9375 36.7292L37.625 32.6979V17.9167ZM5.375 8.0625V34.9375C5.375 35.6503 5.65815 36.3338 6.16215 36.8378C6.66615 37.3419 7.34973 37.625 8.0625 37.625H27.7708C28.4836 37.625 29.1672 37.3419 29.6712 36.8378C30.1752 36.3338 30.4583 35.6503 30.4583 34.9375V8.0625C30.4583 7.34973 30.1752 6.66615 29.6712 6.16215C29.1672 5.65815 28.4836 5.375 27.7708 5.375H8.0625C7.34973 5.375 6.66615 5.65815 6.16215 6.16215C5.65815 6.66615 5.375 7.34973 5.375 8.0625ZM17.9167 13.4375C17.9167 13.1999 18.011 12.9721 18.179 12.804C18.3471 12.636 18.5749 12.5417 18.8125 12.5417H25.9792C26.2168 12.5417 26.4446 12.636 26.6126 12.804C26.7806 12.9721 26.875 13.1999 26.875 13.4375C26.875 13.6751 26.7806 13.9029 26.6126 14.0709C26.4446 14.239 26.2168 14.3333 25.9792 14.3333H18.8125C18.5749 14.3333 18.3471 14.239 18.179 14.0709C18.011 13.9029 17.9167 13.6751 17.9167 13.4375ZM18.8125 16.125C18.5749 16.125 18.3471 16.2194 18.179 16.3874C18.011 16.5554 17.9167 16.7832 17.9167 17.0208C17.9167 17.2584 18.011 17.4863 18.179 17.6543C18.3471 17.8223 18.5749 17.9167 18.8125 17.9167H25.9792C26.2168 17.9167 26.4446 17.8223 26.6126 17.6543C26.7806 17.4863 26.875 17.2584 26.875 17.0208C26.875 16.7832 26.7806 16.5554 26.6126 16.3874C26.4446 16.2194 26.2168 16.125 25.9792 16.125H18.8125ZM17.9167 25.0833C17.9167 24.8457 18.011 24.6179 18.179 24.4499C18.3471 24.2819 18.5749 24.1875 18.8125 24.1875H25.9792C26.2168 24.1875 26.4446 24.2819 26.6126 24.4499C26.7806 24.6179 26.875 24.8457 26.875 25.0833C26.875 25.3209 26.7806 25.5488 26.6126 25.7168C26.4446 25.8848 26.2168 25.9792 25.9792 25.9792H18.8125C18.5749 25.9792 18.3471 25.8848 18.179 25.7168C18.011 25.5488 17.9167 25.3209 17.9167 25.0833ZM18.8125 27.7708C18.5749 27.7708 18.3471 27.8652 18.179 28.0332C18.011 28.2012 17.9167 28.4291 17.9167 28.6667C17.9167 28.9043 18.011 29.1321 18.179 29.3001C18.3471 29.4681 18.5749 29.5625 18.8125 29.5625H25.9792C26.2168 29.5625 26.4446 29.4681 26.6126 29.3001C26.7806 29.1321 26.875 28.9043 26.875 28.6667C26.875 28.4291 26.7806 28.2012 26.6126 28.0332C26.4446 27.8652 26.2168 27.7708 25.9792 27.7708H18.8125ZM10.75 25.0833V27.7708H13.4375V25.0833H10.75ZM9.85417 23.2917H14.3333C14.5709 23.2917 14.7988 23.386 14.9668 23.554C15.1348 23.722 15.2292 23.9499 15.2292 24.1875V28.6667C15.2292 28.9043 15.1348 29.1321 14.9668 29.3001C14.7988 29.4681 14.5709 29.5625 14.3333 29.5625H9.85417C9.61658 29.5625 9.38872 29.4681 9.22072 29.3001C9.05272 29.1321 8.95833 28.9043 8.95833 28.6667V24.1875C8.95833 23.9499 9.05272 23.722 9.22072 23.554C9.38872 23.386 9.61658 23.2917 9.85417 23.2917ZM15.8625 14.0709C16.0257 13.9019 16.116 13.6756 16.114 13.4407C16.1119 13.2058 16.0177 12.9812 15.8516 12.8151C15.6855 12.649 15.4608 12.5547 15.2259 12.5527C14.9911 12.5507 14.7648 12.641 14.5958 12.8041L11.6458 15.7541L10.4875 14.5958C10.3186 14.4326 10.0923 14.3423 9.85739 14.3444C9.62251 14.3464 9.39782 14.4406 9.23172 14.6067C9.06563 14.7728 8.97142 14.9975 8.96938 15.2324C8.96733 15.4673 9.05763 15.6936 9.22081 15.8625L11.6458 18.2875L15.8625 14.0709Z" fill="#65558F"/>
</svg>
