<svg width="40" height="40" viewBox="0 0 40 40" fill="none" xmlns="http://www.w3.org/2000/svg">
<path d="M36.8843 31.9748L22.5906 38.4373C21.7093 38.8529 20.7906 38.8123 19.9468 38.3248L1.90309 29.1623C1.38746 28.8311 1.23434 28.3467 1.26559 28.0092C1.29684 27.6717 1.37496 27.3061 2.28121 27.0436L3.61871 26.5498L21.7187 36.4154L34.5812 31.1592L36.8843 31.9748Z" fill="#01579B"/>
<path d="M22.4186 37.4033C22.0611 37.571 21.6689 37.6511 21.2744 37.637C20.8798 37.6229 20.4943 37.5149 20.1498 37.3221L2.53419 28.4471C2.28419 28.3096 2.20919 27.9939 2.35919 27.7502C2.74669 27.1096 3.45919 25.0846 2.28419 23.4033L22.1779 32.9814L22.4186 37.4033Z" fill="#F5F5F5"/>
<path d="M36.122 31.2437L22.4188 37.4031C21.9657 37.6 21.0626 37.95 20.022 37.25C20.8438 37.3093 21.422 36.9687 21.7188 36.4156C22.0095 35.8781 21.922 34.9968 21.5688 34.5C21.3532 34.2 20.7751 33.7218 20.522 33.4531L35.3438 27.6562C36.6563 27.1156 37.8876 27.925 38.0845 28.9093C38.3032 30.0218 36.8845 30.9312 36.122 31.2437Z" fill="#94C6D6"/>
<path d="M36.806 27.1749L22.6591 33.4874C21.7685 33.8405 20.7716 33.7937 19.9185 33.3624L1.84351 24.1812C1.66851 24.0937 1.40913 23.853 1.30601 23.5249C1.13726 22.978 1.34976 22.2905 1.99038 22.0718L21.5779 32.0562L34.9904 26.3155L36.806 27.1749Z" fill="#01579B"/>
<path d="M37.8717 28.0908L36.3311 27.5314L33.1561 27.7158L22.6623 32.4002C21.7717 32.7533 20.7748 32.7064 19.9217 32.2752L1.8436 23.0971C1.37797 22.8596 1.47797 22.1689 1.99047 22.0721L15.0186 16.2439C15.3905 16.1752 15.7717 16.2158 16.1186 16.3627L34.7092 25.2252C34.7092 25.2252 37.6623 27.2471 37.8717 28.0908Z" fill="#0091EA"/>
<path d="M32.9783 27.806C32.9783 27.806 34.9346 27.0404 36.4721 27.1091C38.0096 27.1779 38.5439 28.256 38.5439 28.256C38.2533 26.9341 36.8877 26.2591 36.8877 26.2591L16.5752 16.031C16.4346 15.9716 15.9158 15.8498 15.1189 16.1779C14.4752 16.4435 12.3721 17.4279 12.3721 17.4279L32.9783 27.806Z" fill="#616161"/>
<path d="M38.6312 28.5064C38.4843 27.922 38.1218 27.297 37.453 26.9939C36.5718 26.597 35.3155 26.7002 34.5124 27.1189L32.978 27.8002V28.8814L34.9187 28.0189C36.8062 27.1783 37.6437 28.4377 37.7155 28.7345C38.0155 29.9439 37.4343 30.6439 35.7187 31.4314L32.9312 32.6877V33.7752L36.1374 32.347C37.5562 31.7783 39.1749 30.7095 38.6312 28.5064Z" fill="#424242"/>
<path d="M10.3158 28.2218L4.91895 20.7624L5.76582 20.3843L11.8377 28.728L10.3158 28.2218ZM17.2377 31.6593L16.2752 30.8968L32.9783 27.4874V28.0343L30.6377 28.9218L17.2377 31.6593Z" fill="#01579B"/>
<path d="M4.625 14.4312L25.7219 10.9062L34.9375 21.0531C35.4031 21.5438 35.15 22.3562 34.4875 22.4906L12.7063 26.9594L4.625 14.4312Z" fill="#9CCC65"/>
<path d="M34.4876 21.6157L12.8563 25.997L12.7876 27.0282L34.4876 22.5782C35.1001 22.4501 35.3563 21.7501 35.022 21.2563C34.9032 21.4313 34.722 21.5688 34.4876 21.6157ZM35.6532 26.3438C35.8813 26.7063 35.6751 27.1845 35.2563 27.2688L15.3438 31.3063C14.147 31.5532 12.972 30.7688 12.8657 29.5501C12.7751 28.5188 13.472 27.5845 14.4876 27.372L33.6376 23.072L35.6532 26.3438Z" fill="#689F38"/>
<path d="M17.3718 25.0312L9.44058 13.6812L4.91558 14.878C3.8687 15.9187 4.25933 17.628 4.25933 17.628C4.25933 17.628 11.1875 28.7468 12.2812 30.1687C13.375 31.5905 14.9718 31.3687 14.9718 31.3687L17.6687 30.8249L17.3875 25.7937L17.3718 25.0312Z" fill="#616161"/>
<path d="M17.3721 25.1063L13.5627 25.8938C12.5221 26.1282 12.3346 27.1063 12.3346 27.1063L3.1377 13.9282C3.1377 13.9282 1.82832 15.5126 2.69707 16.8595L12.2814 30.1688C13.3283 31.6595 14.9721 31.3813 14.9721 31.3813L17.6689 30.8376L17.3908 25.9063L17.3721 25.1063Z" fill="#424242"/>
<path d="M34.4533 25.9373C34.5502 26.1498 34.4252 26.3967 34.197 26.4436L15.1564 30.3498C13.9595 30.5967 13.1127 29.8029 13.1564 28.7217C13.2127 27.3561 13.9783 26.7779 14.9908 26.5686L34.1252 22.6592C34.1252 22.6592 33.4752 23.3904 33.972 24.7592C34.1408 25.2311 34.322 25.6498 34.4533 25.9373Z" fill="#B9E4EA"/>
<path d="M14.1281 26.1561L5.96875 14.6123" stroke="#424242" stroke-width="0.258875" stroke-miterlimit="10"/>
<path d="M14.7688 21.2343L4.2751 15.9468L3.8501 16.7843L15.9751 22.9624L14.7688 21.2343Z" fill="#424242"/>
<path d="M33.9967 20.0093L33.2279 19.1655L21.4061 24.5905L14.7686 21.3062L15.8998 22.9249L20.2967 25.1718L23.5717 24.6687L33.9967 20.0093Z" fill="#689F38"/>
<path d="M36.8812 17.922L22.5906 24.3845C21.7093 24.8001 20.7906 24.7595 19.9468 24.272L1.90309 15.1095C1.38746 14.7782 1.23434 14.2938 1.26559 13.9563C1.29684 13.6188 1.37496 13.2532 2.28121 12.9907L3.12809 12.6782L21.6656 21.7751L36.7187 15.547L36.8812 17.922Z" fill="#C62828"/>
<path d="M22.4156 23.3501C22.0582 23.5178 21.666 23.5979 21.2714 23.5838C20.8769 23.5696 20.4914 23.4617 20.1469 23.2688L2.53126 14.3938C2.28126 14.2563 2.20626 13.9407 2.35626 13.697C2.74376 13.0563 3.45626 11.0313 2.28126 9.3501L21.7313 19.2438L22.4156 23.3501Z" fill="#F5F5F5"/>
<path d="M36.1186 17.1905L22.4154 23.3499C21.9623 23.5468 21.0592 23.8968 20.0186 23.1968C20.8404 23.2561 21.4186 22.9155 21.7154 22.3624C22.0061 21.8249 21.9186 20.9436 21.5654 20.4468C21.3498 20.1468 20.7717 19.6686 20.5186 19.3999L35.3404 13.603C36.6529 13.0624 37.8842 13.8718 38.0811 14.8561C38.2998 15.9686 36.8811 16.878 36.1186 17.1905Z" fill="#94C6D6"/>
<path d="M36.8063 13.1218L22.6595 19.4343C21.7688 19.7874 20.772 19.7405 19.9188 19.3093L1.84071 10.128C1.65321 10.0343 1.37196 9.79365 1.28133 9.45303C1.14696 8.94678 1.32196 8.28115 1.98758 8.01865L18.5532 4.50928L36.8063 13.1218Z" fill="#C62828"/>
<path d="M37.8687 14.0376L36.3281 13.4782L33.1531 13.6626L22.6593 18.347C21.7687 18.7001 20.7718 18.6532 19.9187 18.222L1.84059 9.04071C1.37496 8.80321 1.54059 8.17509 1.98746 8.01571L15.0187 2.19071C15.3906 2.12196 15.7718 2.16259 16.1187 2.30946L34.7093 11.172C34.7093 11.172 37.6593 13.1907 37.8687 14.0376Z" fill="#F44336"/>
<path d="M32.9781 13.7499C32.9781 13.7499 34.6063 13.178 36.1438 13.2467C37.6813 13.3155 38.5469 14.1999 38.5469 14.1999C38.2313 12.7874 36.8906 12.203 36.8906 12.203L16.5781 1.97486C16.4375 1.91549 15.9188 1.79361 15.1219 2.12174C14.4781 2.38736 12.375 3.37174 12.375 3.37174L32.9781 13.7499Z" fill="#616161"/>
<path d="M34.8376 13.0813L14.0532 2.59697L14.7407 2.2876L35.8782 12.8813L34.8376 13.0813Z" fill="#424242"/>
<path d="M38.6282 14.4529C38.4813 13.8685 38.2345 13.3029 37.5376 13.0091C36.647 12.6341 35.8345 12.556 34.5095 13.0654L32.9751 13.7466V14.8279L34.9157 13.9654C35.9001 13.5029 37.3501 13.6029 37.7126 14.681C38.1095 15.8623 37.4313 16.5904 35.7157 17.3779L32.9282 18.6341V19.7216L36.1345 18.2935C37.5563 17.7248 39.1751 16.656 38.6282 14.4529Z" fill="#424242"/>
</svg>
