<svg width="17" height="17" viewBox="0 0 17 17" fill="none" xmlns="http://www.w3.org/2000/svg">
<path d="M14.5 10C14.5 10.1326 14.4473 10.2598 14.3536 10.3536C14.2598 10.4473 14.1326 10.5 14 10.5H12.5V11.5H13.5C13.6326 11.5 13.7598 11.5527 13.8536 11.6464C13.9473 11.7402 14 11.8674 14 12C14 12.1326 13.9473 12.2598 13.8536 12.3536C13.7598 12.4473 13.6326 12.5 13.5 12.5H12.5V13.5C12.5 13.6326 12.4473 13.7598 12.3536 13.8536C12.2598 13.9473 12.1326 14 12 14C11.8674 14 11.7402 13.9473 11.6464 13.8536C11.5527 13.7598 11.5 13.6326 11.5 13.5V10C11.5 9.86739 11.5527 9.74021 11.6464 9.64645C11.7402 9.55268 11.8674 9.5 12 9.5H14C14.1326 9.5 14.2598 9.55268 14.3536 9.64645C14.4473 9.74021 14.5 9.86739 14.5 10ZM6.25 11.25C6.25 11.7141 6.06563 12.1592 5.73744 12.4874C5.40925 12.8156 4.96413 13 4.5 13H4V13.5C4 13.6326 3.94732 13.7598 3.85355 13.8536C3.75979 13.9473 3.63261 14 3.5 14C3.36739 14 3.24021 13.9473 3.14645 13.8536C3.05268 13.7598 3 13.6326 3 13.5V10C3 9.86739 3.05268 9.74021 3.14645 9.64645C3.24021 9.55268 3.36739 9.5 3.5 9.5H4.5C4.96413 9.5 5.40925 9.68437 5.73744 10.0126C6.06563 10.3408 6.25 10.7859 6.25 11.25ZM5.25 11.25C5.25 11.0511 5.17098 10.8603 5.03033 10.7197C4.88968 10.579 4.69891 10.5 4.5 10.5H4V12H4.5C4.69891 12 4.88968 11.921 5.03033 11.7803C5.17098 11.6397 5.25 11.4489 5.25 11.25ZM10.75 11.75C10.75 12.3467 10.5129 12.919 10.091 13.341C9.66903 13.7629 9.09674 14 8.5 14H7.5C7.36739 14 7.24021 13.9473 7.14645 13.8536C7.05268 13.7598 7 13.6326 7 13.5V10C7 9.86739 7.05268 9.74021 7.14645 9.64645C7.24021 9.55268 7.36739 9.5 7.5 9.5H8.5C9.09674 9.5 9.66903 9.73705 10.091 10.159C10.5129 10.581 10.75 11.1533 10.75 11.75ZM9.75 11.75C9.75 11.4185 9.6183 11.1005 9.38388 10.8661C9.14946 10.6317 8.83152 10.5 8.5 10.5H8V13H8.5C8.83152 13 9.14946 12.8683 9.38388 12.6339C9.6183 12.3995 9.75 12.0815 9.75 11.75ZM3 7.5V3C3 2.73478 3.10536 2.48043 3.29289 2.29289C3.48043 2.10536 3.73478 2 4 2H10C10.0657 1.99995 10.1307 2.01284 10.1914 2.03793C10.2521 2.06303 10.3073 2.09983 10.3538 2.14625L13.8538 5.64625C13.9002 5.69272 13.937 5.74788 13.9621 5.80858C13.9872 5.86927 14.0001 5.93432 14 6V7.5C14 7.63261 13.9473 7.75979 13.8536 7.85355C13.7598 7.94732 13.6326 8 13.5 8C13.3674 8 13.2402 7.94732 13.1464 7.85355C13.0527 7.75979 13 7.63261 13 7.5V6.5H10C9.86739 6.5 9.74021 6.44732 9.64645 6.35355C9.55268 6.25979 9.5 6.13261 9.5 6V3H4V7.5C4 7.63261 3.94732 7.75979 3.85355 7.85355C3.75979 7.94732 3.63261 8 3.5 8C3.36739 8 3.24021 7.94732 3.14645 7.85355C3.05268 7.75979 3 7.63261 3 7.5ZM10.5 5.5H12.2931L10.5 3.70688V5.5Z" fill="#D97572"/>
</svg>
