<svg width="12" height="13" viewBox="0 0 12 13" fill="none" xmlns="http://www.w3.org/2000/svg">
<path d="M3.59089 3.16237V2.28396C3.59089 2.20783 3.67839 2.16578 3.73748 2.21237L8.86021 6.21351C8.90374 6.24736 8.93895 6.2907 8.96318 6.34023C8.98741 6.38976 9 6.44417 9 6.49931C9 6.55444 8.98741 6.60885 8.96318 6.65838C8.93895 6.70791 8.90374 6.75125 8.86021 6.7851L3.73748 10.7862C3.67726 10.8328 3.59089 10.7908 3.59089 10.7146V9.83624C3.59089 9.78055 3.61703 9.72715 3.66021 9.69306L7.75112 6.49987L3.66021 3.30555C3.61703 3.27146 3.59089 3.21806 3.59089 3.16237Z" fill="black"/>
</svg>
