<svg width="20" height="19" viewBox="0 0 20 19" fill="none" xmlns="http://www.w3.org/2000/svg">
<path d="M8.41634 1.78125C8.25887 1.78125 8.10785 1.84381 7.9965 1.95516C7.88515 2.06651 7.82259 2.21753 7.82259 2.375V2.96875H4.45801C4.30054 2.96875 4.14951 3.03131 4.03816 3.14266C3.92681 3.25401 3.86426 3.40503 3.86426 3.5625C3.86426 3.71997 3.92681 3.871 4.03816 3.98234C4.14951 4.09369 4.30054 4.15625 4.45801 4.15625H15.5413C15.6988 4.15625 15.8498 4.09369 15.9612 3.98234C16.0725 3.871 16.1351 3.71997 16.1351 3.5625C16.1351 3.40503 16.0725 3.25401 15.9612 3.14266C15.8498 3.03131 15.6988 2.96875 15.5413 2.96875H12.1768V2.375C12.1768 2.21753 12.1142 2.06651 12.0029 1.95516C11.8915 1.84381 11.7405 1.78125 11.583 1.78125H8.41634ZM8.41634 8.43125C8.57381 8.43125 8.72484 8.49381 8.83619 8.60516C8.94754 8.71651 9.01009 8.86753 9.01009 9.025V14.5667C9.01009 14.7241 8.94754 14.8752 8.83619 14.9865C8.72484 15.0979 8.57381 15.1604 8.41634 15.1604C8.25887 15.1604 8.10785 15.0979 7.9965 14.9865C7.88515 14.8752 7.82259 14.7241 7.82259 14.5667V9.025C7.82259 8.86753 7.88515 8.71651 7.9965 8.60516C8.10785 8.49381 8.25887 8.43125 8.41634 8.43125ZM12.1768 9.025C12.1768 8.86753 12.1142 8.71651 12.0029 8.60516C11.8915 8.49381 11.7405 8.43125 11.583 8.43125C11.4255 8.43125 11.2745 8.49381 11.1632 8.60516C11.0518 8.71651 10.9893 8.86753 10.9893 9.025V14.5667C10.9893 14.7241 11.0518 14.8752 11.1632 14.9865C11.2745 15.0979 11.4255 15.1604 11.583 15.1604C11.7405 15.1604 11.8915 15.0979 12.0029 14.9865C12.1142 14.8752 12.1768 14.7241 12.1768 14.5667V9.025Z" fill="#EB4B42"/>
<path fill-rule="evenodd" clip-rule="evenodd" d="M5.24284 6.26779C5.25902 6.12251 5.32822 5.9883 5.43719 5.89087C5.54616 5.79344 5.68724 5.73963 5.83342 5.73975H14.1665C14.3127 5.73963 14.4538 5.79344 14.5627 5.89087C14.6717 5.9883 14.7409 6.12251 14.7571 6.26779L14.9154 7.69437C15.2028 10.2792 15.2028 12.8877 14.9154 15.4733L14.8996 15.6134C14.8445 16.1123 14.6246 16.5786 14.2748 16.9385C13.9249 17.2984 13.4651 17.5313 12.9679 17.6005C10.9989 17.8766 9.00102 17.8766 7.03201 17.6005C6.53488 17.5313 6.07501 17.2984 5.72515 16.9385C5.37529 16.5786 5.15543 16.1123 5.10034 15.6134L5.08451 15.4733C4.79735 12.8883 4.79735 10.2794 5.08451 7.69437L5.24284 6.26779ZM6.36463 6.92725L6.26488 7.825C5.98739 10.3229 5.98739 12.8439 6.26488 15.3419L6.28071 15.482C6.30651 15.7187 6.41065 15.9401 6.57659 16.1109C6.74253 16.2817 6.96077 16.3922 7.19667 16.4249C9.05709 16.6853 10.9436 16.6853 12.8033 16.4249C13.039 16.3923 13.2572 16.2819 13.4231 16.1112C13.589 15.9406 13.6932 15.7194 13.7192 15.4828L13.735 15.3419C14.0121 12.8442 14.0121 10.3227 13.735 7.825L13.6353 6.92725H6.36463Z" fill="#EB4B42"/>
</svg>
