<svg width="17" height="18" viewBox="0 0 17 18" fill="none" xmlns="http://www.w3.org/2000/svg">
<path d="M8.50033 8.64616C8.03067 8.64616 7.58025 8.45959 7.24816 8.12749C6.91606 7.7954 6.72949 7.34498 6.72949 6.87533C6.72949 6.40567 6.91606 5.95525 7.24816 5.62316C7.58025 5.29106 8.03067 5.10449 8.50033 5.10449C8.96998 5.10449 9.4204 5.29106 9.75249 5.62316C10.0846 5.95525 10.2712 6.40567 10.2712 6.87533C10.2712 7.10787 10.2254 7.33815 10.1364 7.55299C10.0474 7.76784 9.91693 7.96306 9.75249 8.12749C9.58806 8.29193 9.39284 8.42237 9.17799 8.51136C8.96315 8.60036 8.73287 8.64616 8.50033 8.64616ZM8.50033 1.91699C7.18529 1.91699 5.92412 2.43939 4.99425 3.36925C4.06439 4.29912 3.54199 5.56029 3.54199 6.87533C3.54199 10.5941 8.50033 16.0837 8.50033 16.0837C8.50033 16.0837 13.4587 10.5941 13.4587 6.87533C13.4587 5.56029 12.9363 4.29912 12.0064 3.36925C11.0765 2.43939 9.81536 1.91699 8.50033 1.91699Z" fill="#3557FF"/>
</svg>
