<svg width="19" height="19" viewBox="0 0 19 19" fill="none" xmlns="http://www.w3.org/2000/svg">
<path d="M1 9.03876C1 5.84792 1 4.25207 1.99169 3.26122C2.98338 2.27038 4.57838 2.26953 7.76923 2.26953H11.1538C14.3447 2.26953 15.9405 2.26953 16.9314 3.26122C17.9222 4.25292 17.9231 5.84792 17.9231 9.03876V10.7311C17.9231 13.9219 17.9231 15.5178 16.9314 16.5086C15.9397 17.4995 14.3447 17.5003 11.1538 17.5003H7.76923C4.57838 17.5003 2.98254 17.5003 1.99169 16.5086C1.00085 15.5169 1 13.9219 1 10.7311V9.03876Z" stroke="#323F49" stroke-width="1.5"/>
<path d="M5.23054 2.26923V1M13.6921 2.26923V1M1.42285 6.5H17.4998" stroke="#323F49" stroke-width="1.5" stroke-linecap="round"/>
<path d="M14.5386 13.2689C14.5386 13.4933 14.4495 13.7085 14.2908 13.8672C14.1321 14.0259 13.9169 14.115 13.6925 14.115C13.468 14.115 13.2528 14.0259 13.0941 13.8672C12.9355 13.7085 12.8463 13.4933 12.8463 13.2689C12.8463 13.0444 12.9355 12.8292 13.0941 12.6705C13.2528 12.5118 13.468 12.4227 13.6925 12.4227C13.9169 12.4227 14.1321 12.5118 14.2908 12.6705C14.4495 12.8292 14.5386 13.0444 14.5386 13.2689ZM14.5386 9.88424C14.5386 10.1087 14.4495 10.3239 14.2908 10.4826C14.1321 10.6412 13.9169 10.7304 13.6925 10.7304C13.468 10.7304 13.2528 10.6412 13.0941 10.4826C12.9355 10.3239 12.8463 10.1087 12.8463 9.88424C12.8463 9.65983 12.9355 9.4446 13.0941 9.28592C13.2528 9.12723 13.468 9.03809 13.6925 9.03809C13.9169 9.03809 14.1321 9.12723 14.2908 9.28592C14.4495 9.4446 14.5386 9.65983 14.5386 9.88424ZM10.3078 13.2689C10.3078 13.4933 10.2187 13.7085 10.06 13.8672C9.90132 14.0259 9.6861 14.115 9.46169 14.115C9.23727 14.115 9.02205 14.0259 8.86337 13.8672C8.70468 13.7085 8.61553 13.4933 8.61553 13.2689C8.61553 13.0444 8.70468 12.8292 8.86337 12.6705C9.02205 12.5118 9.23727 12.4227 9.46169 12.4227C9.6861 12.4227 9.90132 12.5118 10.06 12.6705C10.2187 12.8292 10.3078 13.0444 10.3078 13.2689ZM10.3078 9.88424C10.3078 10.1087 10.2187 10.3239 10.06 10.4826C9.90132 10.6412 9.6861 10.7304 9.46169 10.7304C9.23727 10.7304 9.02205 10.6412 8.86337 10.4826C8.70468 10.3239 8.61553 10.1087 8.61553 9.88424C8.61553 9.65983 8.70468 9.4446 8.86337 9.28592C9.02205 9.12723 9.23727 9.03809 9.46169 9.03809C9.6861 9.03809 9.90132 9.12723 10.06 9.28592C10.2187 9.4446 10.3078 9.65983 10.3078 9.88424ZM6.07707 13.2689C6.07707 13.4933 5.98792 13.7085 5.82924 13.8672C5.67056 14.0259 5.45533 14.115 5.23092 14.115C5.00651 14.115 4.79128 14.0259 4.6326 13.8672C4.47391 13.7085 4.38477 13.4933 4.38477 13.2689C4.38477 13.0444 4.47391 12.8292 4.6326 12.6705C4.79128 12.5118 5.00651 12.4227 5.23092 12.4227C5.45533 12.4227 5.67056 12.5118 5.82924 12.6705C5.98792 12.8292 6.07707 13.0444 6.07707 13.2689ZM6.07707 9.88424C6.07707 10.1087 5.98792 10.3239 5.82924 10.4826C5.67056 10.6412 5.45533 10.7304 5.23092 10.7304C5.00651 10.7304 4.79128 10.6412 4.6326 10.4826C4.47391 10.3239 4.38477 10.1087 4.38477 9.88424C4.38477 9.65983 4.47391 9.4446 4.6326 9.28592C4.79128 9.12723 5.00651 9.03809 5.23092 9.03809C5.45533 9.03809 5.67056 9.12723 5.82924 9.28592C5.98792 9.4446 6.07707 9.65983 6.07707 9.88424Z" fill="#323F49"/>
</svg>
