<svg width="4" height="20" viewBox="0 0 4 20" fill="none" xmlns="http://www.w3.org/2000/svg">
<path d="M1.84972 12.948C2.34029 12.948 2.81077 13.1429 3.15766 13.4898C3.50455 13.8367 3.69943 14.3072 3.69943 14.7977C3.69943 15.2883 3.50455 15.7588 3.15766 16.1057C2.81077 16.4526 2.34029 16.6474 1.84972 16.6474C1.35914 16.6474 0.888659 16.4526 0.54177 16.1057C0.194881 15.7588 0 15.2883 0 14.7977C0 14.3072 0.194881 13.8367 0.54177 13.4898C0.888659 13.1429 1.35914 12.948 1.84972 12.948ZM1.84972 6.47401C2.34029 6.47401 2.81077 6.66889 3.15766 7.01578C3.50455 7.36267 3.69943 7.83315 3.69943 8.32372C3.69943 8.8143 3.50455 9.28478 3.15766 9.63167C2.81077 9.97856 2.34029 10.1734 1.84972 10.1734C1.35914 10.1734 0.888659 9.97856 0.54177 9.63167C0.194881 9.28478 0 8.8143 0 8.32372C0 7.83315 0.194881 7.36267 0.54177 7.01578C0.888659 6.66889 1.35914 6.47401 1.84972 6.47401ZM1.84972 0C2.34029 0 2.81077 0.19488 3.15766 0.541769C3.50455 0.888659 3.69943 1.35914 3.69943 1.84972C3.69943 2.34029 3.50455 2.81077 3.15766 3.15766C2.81077 3.50455 2.34029 3.69943 1.84972 3.69943C1.35914 3.69943 0.888659 3.50455 0.54177 3.15766C0.194881 2.81077 0 2.34029 0 1.84972C0 1.35914 0.194881 0.888659 0.54177 0.541769C0.888659 0.19488 1.35914 0 1.84972 0Z" fill="black"/>
</svg>
