<svg width="25" height="25" viewBox="0 0 25 25" fill="none" xmlns="http://www.w3.org/2000/svg">
<rect width="24.7958" height="24.7958" rx="4.72302" fill="#C2C2C2"/>
<path fill-rule="evenodd" clip-rule="evenodd" d="M17.6602 13.0519C18.161 12.5432 18.4393 11.8564 18.4337 11.1425C18.4281 10.4286 18.1392 9.7462 17.6304 9.24536C17.3785 8.99737 17.0803 8.80142 16.7526 8.66871C16.425 8.53599 16.0745 8.4691 15.721 8.47187C15.0071 8.47745 14.3247 8.76638 13.8239 9.27511C13.6879 9.41111 13.515 9.57804 13.3054 9.7759L12.7224 10.3249L12.1394 9.7759C11.9293 9.57757 11.7562 9.41064 11.6202 9.27511C11.1154 8.77033 10.4308 8.48674 9.71694 8.48674C9.00307 8.48674 8.31843 8.77033 7.81365 9.27511C6.77382 10.3157 6.76177 11.9979 7.7754 13.0434L12.7224 17.9904L17.6602 13.0519ZM7.21227 8.67444C7.54116 8.34547 7.93163 8.08451 8.36139 7.90647C8.79114 7.72842 9.25176 7.63678 9.71694 7.63678C10.1821 7.63678 10.6427 7.72842 11.0725 7.90647C11.5023 8.08451 11.8927 8.34547 12.2216 8.67444C12.3505 8.80383 12.5175 8.96486 12.7224 9.15753C12.9264 8.96486 13.0933 8.8036 13.2232 8.67374C13.8823 8.00448 14.7803 7.62446 15.7196 7.61729C16.6589 7.61012 17.5626 7.97637 18.2318 8.63549C18.9011 9.2946 19.2811 10.1926 19.2883 11.1319C19.2954 12.0712 18.9292 12.9749 18.2701 13.6441L13.2232 18.6917C13.0904 18.8245 12.9102 18.8991 12.7224 18.8991C12.5346 18.8991 12.3544 18.8245 12.2216 18.6917L7.17332 13.6434C6.52593 12.9757 6.16714 12.0802 6.17443 11.1502C6.18171 10.2203 6.5545 9.33047 7.21227 8.67303V8.67444Z" fill="#FF564B"/>
</svg>
