<svg width="19" height="19" viewBox="0 0 19 19" fill="none" xmlns="http://www.w3.org/2000/svg">
<path fill-rule="evenodd" clip-rule="evenodd" d="M10.0593 12.4343C9.91083 12.5827 9.7095 12.6661 9.49958 12.6661C9.28966 12.6661 9.08833 12.5827 8.93987 12.4343L4.46141 7.95583C4.3858 7.8828 4.32549 7.79544 4.284 7.69886C4.24251 7.60227 4.22067 7.49839 4.21976 7.39327C4.21884 7.28816 4.23887 7.18391 4.27868 7.08662C4.31849 6.98932 4.37727 6.90093 4.4516 6.8266C4.52593 6.75227 4.61432 6.69348 4.71162 6.65368C4.80891 6.61387 4.91316 6.59384 5.01827 6.59476C5.12339 6.59567 5.22727 6.61751 5.32386 6.659C5.42044 6.70049 5.5078 6.7608 5.58083 6.83641L9.49958 10.7552L13.4183 6.83641C13.5676 6.6922 13.7676 6.61241 13.9752 6.61421C14.1828 6.61602 14.3813 6.69927 14.5281 6.84606C14.6749 6.99284 14.7581 7.1914 14.7599 7.39897C14.7618 7.60654 14.682 7.80652 14.5377 7.95583L10.0593 12.4343Z" fill="#505050"/>
</svg>
