<svg width="12" height="12" viewBox="0 0 12 12" fill="none" xmlns="http://www.w3.org/2000/svg">
<g clip-path="url(#clip0_5029_20877)">
<path d="M11.5 1H0.5C0.367392 1 0.240215 1.05268 0.146447 1.14645C0.0526784 1.24021 0 1.36739 0 1.5L0 10.5C0 10.6326 0.0526784 10.7598 0.146447 10.8536C0.240215 10.9473 0.367392 11 0.5 11H11.5C11.6326 11 11.7598 10.9473 11.8536 10.8536C11.9473 10.7598 12 10.6326 12 10.5V1.5C12 1.36739 11.9473 1.24021 11.8536 1.14645C11.7598 1.05268 11.6326 1 11.5 1ZM11 10H10V9.5H7.5V10H1V2H11V10ZM5.145 4.855C5.145 4.62824 5.23508 4.41077 5.39542 4.25042C5.55577 4.09008 5.77324 4 6 4C6.475 4 6.855 4.385 6.855 4.855C6.855 5.33 6.475 5.715 6 5.715C5.525 5.715 5.145 5.33 5.145 4.855ZM2.855 5.645C2.855 5.29 3.145 5 3.5 5C3.67106 5 3.83512 5.06796 3.95608 5.18892C4.07704 5.30988 4.145 5.47394 4.145 5.645C4.145 6 3.855 6.285 3.5 6.285C3.145 6.285 2.855 6 2.855 5.645ZM7.855 5.645C7.855 5.47394 7.92295 5.30988 8.04392 5.18892C8.16488 5.06796 8.32894 5 8.5 5C8.67106 5 8.83512 5.06796 8.95608 5.18892C9.07705 5.30988 9.145 5.47394 9.145 5.645C9.145 6 8.855 6.285 8.5 6.285C8.145 6.285 7.855 6 7.855 5.645ZM10 7.57V8H2V7.57C2 7.1 2.775 6.715 3.5 6.715C3.775 6.715 4.055 6.77 4.3 6.865C4.675 6.52 5.35 6.285 6 6.285C6.65 6.285 7.325 6.52 7.7 6.865C7.945 6.77 8.225 6.715 8.5 6.715C9.225 6.715 10 7.1 10 7.57Z" fill="#666666"/>
</g>
<defs>
<clipPath id="clip0_5029_20877">
<rect width="12" height="12" fill="white"/>
</clipPath>
</defs>
</svg>
