<svg width="19" height="19" viewBox="0 0 19 19" fill="none" xmlns="http://www.w3.org/2000/svg">
<g clip-path="url(#clip0_5688_18849)">
<path fill-rule="evenodd" clip-rule="evenodd" d="M10.0593 12.4353C9.91083 12.5837 9.7095 12.6671 9.49958 12.6671C9.28966 12.6671 9.08833 12.5837 8.93987 12.4353L4.46141 7.95681C4.3858 7.88378 4.32549 7.79642 4.284 7.69984C4.24251 7.60325 4.22067 7.49937 4.21976 7.39425C4.21884 7.28913 4.23887 7.18489 4.27868 7.08759C4.31849 6.9903 4.37727 6.90191 4.4516 6.82758C4.52593 6.75325 4.61432 6.69446 4.71162 6.65466C4.80891 6.61485 4.91316 6.59482 5.01827 6.59573C5.12339 6.59665 5.22727 6.61849 5.32386 6.65998C5.42044 6.70147 5.5078 6.76178 5.58083 6.83739L9.49958 10.7561L13.4183 6.83739C13.5676 6.69318 13.7676 6.61339 13.9752 6.61519C14.1828 6.61699 14.3813 6.70025 14.5281 6.84703C14.6749 6.99381 14.7581 7.19237 14.7599 7.39995C14.7618 7.60752 14.682 7.8075 14.5377 7.95681L10.0593 12.4353Z" fill="#505050"/>
</g>
<defs>
<clipPath id="clip0_5688_18849">
<rect width="19" height="19" fill="white"/>
</clipPath>
</defs>
</svg>
