<svg width="13" height="14" viewBox="0 0 13 14" fill="none" xmlns="http://www.w3.org/2000/svg">
<path d="M0 12.5644V3.94922H13V12.5644C13 13.3542 12.3842 14.0003 11.6316 14.0003H1.36842C0.615789 14.0003 0 13.3542 0 12.5644Z" fill="#FFCDD2"/>
<path d="M13 2.51204V4.66585H0V2.51204C0 1.72231 0.615789 1.07617 1.36842 1.07617H11.6316C12.3842 1.07617 13 1.72231 13 2.51204Z" fill="#F44336"/>
<path d="M9.57807 3.58935C10.1449 3.58935 10.6044 3.10721 10.6044 2.51245C10.6044 1.91769 10.1449 1.43555 9.57807 1.43555C9.01126 1.43555 8.55176 1.91769 8.55176 2.51245C8.55176 3.10721 9.01126 3.58935 9.57807 3.58935Z" fill="#B71C1C"/>
<path d="M3.41987 3.58935C3.98669 3.58935 4.44619 3.10721 4.44619 2.51245C4.44619 1.91769 3.98669 1.43555 3.41987 1.43555C2.85305 1.43555 2.39355 1.91769 2.39355 2.51245C2.39355 3.10721 2.85305 3.58935 3.41987 3.58935Z" fill="#B71C1C"/>
<path d="M9.57746 0C9.20114 0 8.89325 0.323071 8.89325 0.717936V2.51277C8.89325 2.90764 9.20114 3.23071 9.57746 3.23071C9.95377 3.23071 10.2617 2.90764 10.2617 2.51277V0.717936C10.2617 0.323071 9.95377 0 9.57746 0ZM3.41956 0C3.04325 0 2.73535 0.323071 2.73535 0.717936V2.51277C2.73535 2.90764 3.04325 3.23071 3.41956 3.23071C3.79588 3.23071 4.10377 2.90764 4.10377 2.51277V0.717936C4.10377 0.323071 3.79588 0 3.41956 0Z" fill="#BDBDBD"/>
<path d="M5.88379 11.5957C5.88379 11.5239 5.88379 11.4162 5.918 11.3444C5.95221 11.2727 5.98642 11.2009 6.05484 11.165C6.12326 11.1291 6.15747 11.0573 6.22589 11.0573C6.29432 11.0214 6.39695 11.0214 6.46537 11.0214C6.53379 11.0214 6.63642 11.0214 6.70484 11.0573L6.9101 11.165C6.97853 11.2009 7.01274 11.2727 7.04695 11.3444C7.08116 11.4162 7.08116 11.488 7.08116 11.5957C7.08116 11.6675 7.08116 11.7752 7.04695 11.847C7.01274 11.9188 6.97853 11.9906 6.9101 12.0265C6.84168 12.0624 6.80747 12.1342 6.70484 12.1342C6.60221 12.1342 6.60221 12.206 6.49958 12.206C6.39695 12.206 6.32853 12.206 6.2601 12.1701C6.19168 12.1342 6.12326 12.0983 6.08905 12.0624C6.02063 12.0265 5.98642 11.9547 5.95221 11.8829C5.918 11.7752 5.88379 11.7034 5.88379 11.5957ZM6.94431 10.0522H6.05484L5.918 6.10352H7.04695L6.94431 10.0522Z" fill="#F44336"/>
</svg>
