<svg width="30" height="30" viewBox="0 0 30 30" fill="none" xmlns="http://www.w3.org/2000/svg">
<rect width="30" height="30" rx="15" fill="#AEBCFF"/>
<path d="M19.3 21C17.9111 21 16.5389 20.6973 15.1833 20.092C13.8278 19.4867 12.5944 18.6282 11.4833 17.5167C10.3722 16.4051 9.514 15.1718 8.90867 13.8167C8.30333 12.4616 8.00044 11.0893 8 9.7C8 9.5 8.06667 9.33333 8.2 9.2C8.33333 9.06667 8.5 9 8.7 9H11.4C11.5556 9 11.6944 9.05289 11.8167 9.15867C11.9389 9.26444 12.0111 9.38933 12.0333 9.53333L12.4667 11.8667C12.4889 12.0444 12.4833 12.1944 12.45 12.3167C12.4167 12.4389 12.3556 12.5444 12.2667 12.6333L10.65 14.2667C10.8722 14.6778 11.136 15.0749 11.4413 15.458C11.7467 15.8411 12.0829 16.2107 12.45 16.5667C12.7944 16.9111 13.1556 17.2307 13.5333 17.5253C13.9111 17.82 14.3111 18.0893 14.7333 18.3333L16.3 16.7667C16.4 16.6667 16.5307 16.5918 16.692 16.542C16.8533 16.4922 17.0116 16.4782 17.1667 16.5L19.4667 16.9667C19.6222 17.0111 19.75 17.0918 19.85 17.2087C19.95 17.3256 20 17.456 20 17.6V20.3C20 20.5 19.9333 20.6667 19.8 20.8C19.6667 20.9333 19.5 21 19.3 21Z" fill="#0027E3"/>
</svg>
