<svg width="50" height="50" viewBox="0 0 50 50" fill="none" xmlns="http://www.w3.org/2000/svg">
<rect width="50" height="50" rx="25" fill="#AEBCFF"/>
<path d="M23.264 34.201V28.1246H28.1251V34.201C28.1251 34.8694 28.672 35.4162 29.3404 35.4162H32.9862C33.6546 35.4162 34.2015 34.8694 34.2015 34.201V25.694H36.2675C36.8265 25.694 37.0939 25.0013 36.6685 24.6367L26.5088 15.4857C26.047 15.0725 25.3421 15.0725 24.8803 15.4857L14.7206 24.6367C14.3074 25.0013 14.5626 25.694 15.1216 25.694H17.1876V34.201C17.1876 34.8694 17.7345 35.4162 18.4029 35.4162H22.0487C22.7171 35.4162 23.264 34.8694 23.264 34.201Z" fill="#0C36FF"/>
</svg>
