<svg width="24" height="26" viewBox="0 0 24 26" fill="none" xmlns="http://www.w3.org/2000/svg">
<path opacity="0.4" fill-rule="evenodd" clip-rule="evenodd" d="M8.18376 4.35223H15.8621V2.56445H8.18376V4.35223ZM6.43707 2.63787V2.64677C5.83768 2.70128 5.24473 2.82032 4.66786 2.99943V2.99275C4.65071 2.99997 4.63457 3.00552 4.61907 3.01084C4.59873 3.01784 4.57951 3.02444 4.56064 3.03392C4.51453 3.04504 4.4695 3.06173 4.42661 3.08287C4.30008 3.12403 4.17356 3.17298 4.05454 3.22304C4.02291 3.23528 3.99128 3.24946 3.95965 3.26365C3.92801 3.27783 3.89638 3.29201 3.86475 3.30425C3.82133 3.32483 3.77602 3.34736 3.73072 3.36989C3.68542 3.39242 3.64012 3.41495 3.59669 3.43553L3.38224 3.55901C3.34259 3.57923 3.30589 3.60295 3.26844 3.62715C3.24614 3.64156 3.22357 3.65614 3.19996 3.67026C2.87721 3.8783 2.57806 4.12193 2.30785 4.39894L2.29177 4.41563C2.25628 4.457 2.22094 4.49714 2.18608 4.53674C2.1272 4.60362 2.06968 4.66894 2.01513 4.73603L1.99905 4.7516C1.12195 5.96199 0.68233 7.45384 0.75846 8.96572V9.4452H2.49013V8.96127C2.49013 6.85421 3.16136 5.54258 4.655 4.87064C5.22543 4.62923 5.82803 4.48015 6.44136 4.42564H6.45744V2.64566L6.43707 2.63787ZM21.9975 4.72935L22.005 4.74493C22.881 5.95643 23.3185 7.44939 23.2413 8.96127V9.4452H21.5107V8.94903C21.5471 8.05681 21.3681 7.16904 20.9885 6.36694C20.6239 5.68053 20.0406 5.14765 19.3362 4.8584C18.7754 4.61699 18.1814 4.46681 17.5755 4.41341V2.64232C18.1749 2.69795 18.7679 2.81587 19.3458 2.99498V2.98608C19.3783 3.00082 19.4031 3.00958 19.4456 3.02461L19.453 3.02724C19.4728 3.03422 19.4912 3.0412 19.5094 3.0481C19.5347 3.05769 19.5596 3.06713 19.5871 3.07619C19.7056 3.11509 19.8165 3.16093 19.9306 3.2081L19.9506 3.21637C20.0032 3.23485 20.0528 3.25778 20.0975 3.27844C20.1119 3.28513 20.1259 3.29159 20.1393 3.29758C20.2336 3.33874 20.3301 3.38769 20.4073 3.42885C20.4588 3.45557 20.509 3.48416 20.556 3.51098C20.5814 3.52548 20.606 3.53946 20.6293 3.55234C20.6677 3.57355 20.7011 3.59625 20.7332 3.61808C20.7567 3.63402 20.7795 3.6495 20.803 3.66359C21.1268 3.87274 21.4292 4.11748 21.7026 4.39227L21.7123 4.40896C21.813 4.51019 21.9085 4.61699 21.9975 4.72935Z" fill="#3557FF"/>
<path d="M17.6252 1.39616V5.33558C17.6252 5.83193 17.2225 6.23396 16.7252 6.23396C16.228 6.23396 15.8252 5.83193 15.8252 5.33558V1.40514C15.8207 0.908786 16.2212 0.50339 16.7185 0.500021C17.2157 0.496652 17.6219 0.89531 17.6252 1.39167V1.39616Z" fill="#3557FF"/>
<path d="M8.175 1.41135V5.34102C8.175 5.83953 7.77176 6.24373 7.27444 6.24373C6.77712 6.24373 6.375 5.83953 6.375 5.34102V1.41135C6.375 0.912838 6.77712 0.509766 7.27444 0.509766C7.77176 0.509766 8.175 0.912838 8.175 1.41135Z" fill="#3557FF"/>
<path fill-rule="evenodd" clip-rule="evenodd" d="M0.75 19.1381V9.44531H23.25V19.1381C23.25 23.3649 20.8895 25.5004 16.2114 25.5004H7.7779C3.11052 25.5004 0.75 23.3649 0.75 19.1381ZM5.82513 14.8339C5.82513 15.4203 6.2865 15.8961 6.85517 15.8961C7.43457 15.8961 7.89594 15.4093 7.88521 14.8228C7.88521 14.2364 7.42384 13.7606 6.8659 13.7606H6.85517C6.2865 13.7606 5.82513 14.2475 5.82513 14.8339ZM10.9646 14.8339C10.9646 15.4203 11.4367 15.8961 12.0054 15.8961C12.574 15.8961 13.0354 15.4203 13.0354 14.8228C13.0354 14.2475 12.574 13.7717 12.0054 13.7606H11.9946C11.426 13.7717 10.9646 14.2475 10.9646 14.8339ZM17.1449 15.8961C16.5762 15.8961 16.1148 15.4203 16.1148 14.8339C16.1148 14.2475 16.5655 13.7717 17.1449 13.7717C17.7135 13.7717 18.1749 14.2475 18.1749 14.8339C18.1749 15.4203 17.7135 15.8961 17.1449 15.8961ZM17.1449 20.4327C16.5762 20.4327 16.1148 19.9569 16.1041 19.3705C16.1041 18.784 16.5655 18.3082 17.1341 18.3082H17.1449C17.7135 18.3082 18.1749 18.784 18.1749 19.3705C18.1749 19.9569 17.7135 20.4327 17.1449 20.4327ZM12.0054 20.4327C11.4367 20.4327 10.9646 19.9569 10.9646 19.3705C10.9646 18.784 11.426 18.3083 11.9946 18.2972H12.0054C12.574 18.3083 13.0247 18.784 13.0354 19.3594C13.0354 19.9569 12.574 20.4327 12.0054 20.4327ZM6.85515 20.4327C6.28648 20.4327 5.82511 19.9569 5.82511 19.3705C5.81438 18.784 6.27575 18.2972 6.85515 18.2972C7.42382 18.2972 7.88519 18.773 7.88519 19.3594C7.88519 19.9459 7.42382 20.4327 6.85515 20.4327Z" fill="#3557FF"/>
</svg>
