<svg width="34" height="27" viewBox="0 0 34 27" fill="none" xmlns="http://www.w3.org/2000/svg">
<path d="M17.8137 0.284766C17.2441 -0.0949219 16.5059 -0.0949219 15.9363 0.284766L8.76973 5.0625H2.53125C1.13379 5.0625 0 6.19629 0 7.59375V24.4688C0 25.8662 1.13379 27 2.53125 27H13.5V21.9375C13.5 20.076 15.0135 18.5625 16.875 18.5625C18.7365 18.5625 20.25 20.076 20.25 21.9375V27H31.2188C32.6162 27 33.75 25.8662 33.75 24.4688V7.59375C33.75 6.19629 32.6162 5.0625 31.2188 5.0625H24.9803L17.8137 0.284766ZM5.0625 10.125H6.75C7.21406 10.125 7.59375 10.5047 7.59375 10.9688V14.3438C7.59375 14.8078 7.21406 15.1875 6.75 15.1875H5.0625C4.59844 15.1875 4.21875 14.8078 4.21875 14.3438V10.9688C4.21875 10.5047 4.59844 10.125 5.0625 10.125ZM26.1562 10.9688C26.1562 10.5047 26.5359 10.125 27 10.125H28.6875C29.1516 10.125 29.5312 10.5047 29.5312 10.9688V14.3438C29.5312 14.8078 29.1516 15.1875 28.6875 15.1875H27C26.5359 15.1875 26.1562 14.8078 26.1562 14.3438V10.9688ZM5.0625 16.875H6.75C7.21406 16.875 7.59375 17.2547 7.59375 17.7188V21.0938C7.59375 21.5578 7.21406 21.9375 6.75 21.9375H5.0625C4.59844 21.9375 4.21875 21.5578 4.21875 21.0938V17.7188C4.21875 17.2547 4.59844 16.875 5.0625 16.875ZM26.1562 17.7188C26.1562 17.2547 26.5359 16.875 27 16.875H28.6875C29.1516 16.875 29.5312 17.2547 29.5312 17.7188V21.0938C29.5312 21.5578 29.1516 21.9375 28.6875 21.9375H27C26.5359 21.9375 26.1562 21.5578 26.1562 21.0938V17.7188ZM12.2344 9.28125C12.2344 8.05048 12.7233 6.87012 13.5936 5.99983C14.4639 5.12955 15.6442 4.64062 16.875 4.64062C18.1058 4.64062 19.2861 5.12955 20.1564 5.99983C21.0267 6.87012 21.5156 8.05048 21.5156 9.28125C21.5156 10.512 21.0267 11.6924 20.1564 12.5627C19.2861 13.433 18.1058 13.9219 16.875 13.9219C15.6442 13.9219 14.4639 13.433 13.5936 12.5627C12.7233 11.6924 12.2344 10.512 12.2344 9.28125ZM16.875 6.75C16.4109 6.75 16.0312 7.12969 16.0312 7.59375V9.28125C16.0312 9.74531 16.4109 10.125 16.875 10.125H18.5625C19.0266 10.125 19.4062 9.74531 19.4062 9.28125C19.4062 8.81719 19.0266 8.4375 18.5625 8.4375H17.7188V7.59375C17.7188 7.12969 17.3391 6.75 16.875 6.75Z" fill="#EEAA16"/>
</svg>
