<svg width="25" height="25" viewBox="0 0 25 25" fill="none" xmlns="http://www.w3.org/2000/svg">
<rect width="24.7958" height="24.7958" rx="4.72302" fill="#C2C2C2"/>
<path fill-rule="evenodd" clip-rule="evenodd" d="M7.21298 8.1893C7.87714 7.52534 8.77782 7.15234 9.71694 7.15234C10.6561 7.15234 11.5567 7.52534 12.2209 8.1893C12.3508 8.31868 12.5179 8.47971 12.7224 8.67238C12.9264 8.47971 13.0933 8.31868 13.2232 8.1893C13.8846 7.53102 14.779 7.16036 15.7121 7.15786C16.6453 7.15536 17.5417 7.52123 18.2066 8.17595C18.8715 8.83067 19.2511 9.72134 19.263 10.6544C19.2749 11.5875 18.9181 12.4875 18.2701 13.159L13.2225 18.2065C13.0897 18.3393 12.9095 18.4139 12.7217 18.4139C12.5339 18.4139 12.3537 18.3393 12.2209 18.2065L7.17332 13.1597C6.52593 12.492 6.16714 11.5965 6.17443 10.6665C6.18171 9.73653 6.55521 8.84674 7.21298 8.1893Z" fill="#FF564B"/>
</svg>
