<svg width="35" height="35" viewBox="0 0 35 35" fill="none" xmlns="http://www.w3.org/2000/svg">
<g clip-path="url(#clip0_20_2)">
<path d="M3.64583 27.7083V10.2083H31.3542V27.7083C31.3542 29.3125 30.0417 30.625 28.4375 30.625H6.56249C4.95833 30.625 3.64583 29.3125 3.64583 27.7083Z" fill="#CFD8DC"/>
<path d="M31.3542 7.29167V11.6667H3.64583V7.29167C3.64583 5.6875 4.95833 4.375 6.56249 4.375H28.4375C30.0417 4.375 31.3542 5.6875 31.3542 7.29167Z" fill="#F44336"/>
<path d="M24.0625 9.47916C25.2706 9.47916 26.25 8.49978 26.25 7.29166C26.25 6.08353 25.2706 5.10416 24.0625 5.10416C22.8544 5.10416 21.875 6.08353 21.875 7.29166C21.875 8.49978 22.8544 9.47916 24.0625 9.47916Z" fill="#B71C1C"/>
<path d="M10.9375 9.47916C12.1456 9.47916 13.125 8.49978 13.125 7.29166C13.125 6.08353 12.1456 5.10416 10.9375 5.10416C9.72938 5.10416 8.75 6.08353 8.75 7.29166C8.75 8.49978 9.72938 9.47916 10.9375 9.47916Z" fill="#B71C1C"/>
<path d="M24.0625 2.1875C23.2604 2.1875 22.6042 2.84375 22.6042 3.64583V7.29167C22.6042 8.09375 23.2604 8.75 24.0625 8.75C24.8646 8.75 25.5208 8.09375 25.5208 7.29167V3.64583C25.5208 2.84375 24.8646 2.1875 24.0625 2.1875ZM10.9375 2.1875C10.1354 2.1875 9.47917 2.84375 9.47917 3.64583V7.29167C9.47917 8.09375 10.1354 8.75 10.9375 8.75C11.7396 8.75 12.3958 8.09375 12.3958 7.29167V3.64583C12.3958 2.84375 11.7396 2.1875 10.9375 2.1875Z" fill="#B0BEC5"/>
<path d="M9.47917 14.5833H12.3958V17.5H9.47917V14.5833ZM13.8542 14.5833H16.7708V17.5H13.8542V14.5833ZM18.2292 14.5833H21.1458V17.5H18.2292V14.5833ZM22.6042 14.5833H25.5208V17.5H22.6042V14.5833ZM9.47917 18.9583H12.3958V21.875H9.47917V18.9583ZM13.8542 18.9583H16.7708V21.875H13.8542V18.9583ZM18.2292 18.9583H21.1458V21.875H18.2292V18.9583ZM22.6042 18.9583H25.5208V21.875H22.6042V18.9583ZM9.47917 23.3333H12.3958V26.25H9.47917V23.3333ZM13.8542 23.3333H16.7708V26.25H13.8542V23.3333ZM18.2292 23.3333H21.1458V26.25H18.2292V23.3333ZM22.6042 23.3333H25.5208V26.25H22.6042V23.3333Z" fill="#90A4AE"/>
<path d="M26 23.6V20C26 19.7167 25.904 19.4793 25.712 19.288C25.52 19.0967 25.2827 19.0007 25 19C24.7173 18.9993 24.48 19.0953 24.288 19.288C24.096 19.4807 24 19.718 24 20V23.975C24 24.1083 24.025 24.2377 24.075 24.363C24.125 24.4883 24.2 24.6007 24.3 24.7L27.6 28C27.7833 28.1833 28.0167 28.275 28.3 28.275C28.5833 28.275 28.8167 28.1833 29 28C29.1833 27.8167 29.275 27.5833 29.275 27.3C29.275 27.0167 29.1833 26.7833 29 26.6L26 23.6ZM25 34C23.6167 34 22.3167 33.7373 21.1 33.212C19.8833 32.6867 18.825 31.9743 17.925 31.075C17.025 30.1757 16.3127 29.1173 15.788 27.9C15.2633 26.6827 15.0007 25.3827 15 24C14.9993 22.6173 15.262 21.3173 15.788 20.1C16.314 18.8827 17.0263 17.8243 17.925 16.925C18.8237 16.0257 19.882 15.3133 21.1 14.788C22.318 14.2627 23.618 14 25 14C26.382 14 27.682 14.2627 28.9 14.788C30.118 15.3133 31.1763 16.0257 32.075 16.925C32.9737 17.8243 33.6863 18.8827 34.213 20.1C34.7397 21.3173 35.002 22.6173 35 24C34.998 25.3827 34.7353 26.6827 34.212 27.9C33.6887 29.1173 32.9763 30.1757 32.075 31.075C31.1737 31.9743 30.1153 32.687 28.9 33.213C27.6847 33.739 26.3847 34.0013 25 34Z" fill="black"/>
</g>
<defs>
<clipPath id="clip0_20_2">
<rect width="35" height="35" fill="white"/>
</clipPath>
</defs>
</svg>
